<svg width="39" height="42" viewBox="0 0 39 42" fill="none"
  xmlns="http://www.w3.org/2000/svg">
  <g clip-path="url(#clip0)">
    <path d="M26.8125 22.68C26.8125 24.071 25.9025 25.2 24.7812 25.2C23.66 25.2 22.75 24.071 22.75 22.68C22.75 21.289 24.193 19.2864 25.3143 19.2864C26.4355 19.2864 26.8125 21.289 26.8125 22.68ZM13 19.2864C11.8787 19.2864 12.1875 21.289 12.1875 22.68C12.1875 24.071 13.0975 25.2 14.2188 25.2C15.34 25.2 16.25 24.071 16.25 22.68C16.25 21.289 14.1213 19.2864 13 19.2864ZM39 24.0458C39 27.011 37.3994 30.7507 33.8991 32.2879C30.5467 37.8235 25.7952 42 19.5 42C13.4209 42 8.37525 37.6958 5.10087 32.2879C1.60062 30.749 0 27.0094 0 24.0458C0 20.5968 1.22525 18.9622 2.30263 18.1843C1.66888 15.624 0.628875 9.53904 3.8675 5.7372C5.39175 3.948 7.8715 3.15 10.5625 3.59688C11.7309 1.02312 16.432 0 19.5 0C24.375 0 30.2396 1.07688 34.3541 5.90688C37.5538 9.66336 37.0321 15.5518 36.6096 18.1188C37.7081 18.8681 39 20.5027 39 24.0458ZM23.4 31.92L15.5 32.2879C15.5 32.2879 19.9518 36 22.75 36C25.6555 36 23.4 31.92 23.4 31.92ZM34.8774 20.9866C28.1986 21.6468 22.2381 15.8491 20.1338 12.1262C20.0021 13.4854 20.436 16.422 21.7084 17.7626C16.549 17.8702 12.2265 15.0881 9.58588 11.2644C8.22575 13.6147 7.56763 16.4522 7.56763 19.2864C7.56763 20.4994 6.35538 21.3158 5.28288 20.8219C5.05538 20.7161 4.57438 20.6522 4.1925 20.911C2.5675 21.9996 2.73813 27.9384 6.71613 29.3311C7.08013 29.4588 7.38725 29.7142 7.58713 30.0535C8.6515 31.878 9.78738 33.3799 10.9769 34.6265C12.4751 35.6899 12.6929 31.4765 13.6858 30.0569C14.8005 28.4626 17.6751 28.1652 19.5 29.5159C21.3265 28.1652 24.1995 28.4626 25.3143 30.0569C26.3071 31.4782 26.5249 35.6916 28.0231 34.6265C29.211 33.3816 30.3469 31.878 31.4129 30.0535C31.6127 29.7142 31.9215 29.4588 32.2839 29.3311C36.1237 27.9871 36.5024 22.3003 34.8774 20.9866Z" fill="black"/>
  </g>
  <defs>
    <clipPath id="clip0">
      <rect width="39" height="42" fill="white"/>
    </clipPath>
  </defs>
</svg>
