<svg width="40" height="40" viewBox="0 0 40 40" fill="none"
  xmlns="http://www.w3.org/2000/svg">
  <g clip-path="url(#clip0)">
    <path d="M27.5 20.8333C27.5 22.2133 26.5667 23.3333 25.4167 23.3333C24.2667 23.3333 23.3333 22.2133 23.3333 20.8333C23.3333 19.4533 24.2667 18.3333 25.4167 18.3333C26.5667 18.3333 27.5 19.4533 27.5 20.8333ZM14.5833 18.3333C13.4333 18.3333 12.5 19.4533 12.5 20.8333C12.5 22.2133 13.4333 23.3333 14.5833 23.3333C15.7333 23.3333 16.6667 22.2133 16.6667 20.8333C16.6667 19.4533 15.7333 18.3333 14.5833 18.3333ZM20 27.2617C16.0417 24.8383 17.185 30.7533 11.6667 28.3267C12.5 31.68 17.51 32.2483 20 30.2283C22.49 32.2483 27.5 31.68 28.3333 28.3267C22.815 30.755 23.9583 24.84 20 27.2617V27.2617ZM40 22.1883C40 25.13 38.3583 28.84 34.7683 30.365C31.3517 35.8217 26.4767 40 20 40C13.7517 40 8.57 35.6967 5.23 30.365C1.64167 28.8383 0 25.1283 0 22.1883C0 18.8633 1.35167 15.8983 4.47167 15.59L4.52167 15.5433L4.52667 15.51C4.11 12.2683 3.96333 7.31 5.725 5.43167C6.67167 4.42333 7.75333 4.03333 9.13667 4.49C11.2933 1.54833 14.8933 0 19.7567 0C27.5 0 30.6767 4.02833 33.385 7.43333C34.8733 9.305 36.6667 11.18 40 11.0767C38.6517 12.34 37.035 13.3333 35.28 14.0683C35.365 14.57 35.435 15.075 35.4833 15.58C38.5667 15.855 40 18.755 40 22.1883ZM35.7 19.0783C35.3083 18.8233 34.8167 18.885 34.5817 18.99C33.4817 19.4783 32.2383 18.67 32.2383 17.4667C32.2383 16.6683 32.18 15.8717 32.0717 15.0833C25.24 16.63 17.5 14.6983 14.7917 9.305C10.8333 9.93 8.375 13.2317 7.74333 17.6733H7.73667C7.59167 18.8117 6.42833 19.4383 5.42 18.99C5.185 18.8867 4.69333 18.8233 4.3 19.0783C2.63333 20.1633 2.81167 26.0517 6.89 27.4317C7.26333 27.5583 7.57833 27.8117 7.78167 28.1483C10.6283 32.8633 14.4733 36.6667 20 36.6667C25.53 36.6667 29.3733 32.86 32.2183 28.1483C32.4233 27.8117 32.74 27.5583 33.1117 27.4317C37.1917 26.05 37.3667 20.1583 35.7 19.0783V19.0783Z" fill="black"/>
  </g>
  <defs>
    <clipPath id="clip0">
      <rect width="40" height="40" fill="white"/>
    </clipPath>
  </defs>
</svg>
