<?xml version="1.0" encoding="UTF-8" standalone="no"?>
<svg
   xmlns:dc="http://purl.org/dc/elements/1.1/"
   xmlns:cc="http://creativecommons.org/ns#"
   xmlns:rdf="http://www.w3.org/1999/02/22-rdf-syntax-ns#"
   xmlns:svg="http://www.w3.org/2000/svg"
   xmlns="http://www.w3.org/2000/svg"
   xmlns:sodipodi="http://sodipodi.sourceforge.net/DTD/sodipodi-0.dtd"
   xmlns:inkscape="http://www.inkscape.org/namespaces/inkscape"
   inkscape:version="1.0 (4035a4fb49, 2020-05-01)"
   sodipodi:docname="iconmonstr-building-39.svg"
   id="svg4"
   version="1.1"
   clip-rule="evenodd"
   fill-rule="evenodd"
   height="24"
   width="24">
  <metadata
     id="metadata10">
    <rdf:RDF>
      <cc:Work
         rdf:about="">
        <dc:format>image/svg+xml</dc:format>
        <dc:type
           rdf:resource="http://purl.org/dc/dcmitype/StillImage" />
        <dc:title></dc:title>
      </cc:Work>
    </rdf:RDF>
  </metadata>
  <defs
     id="defs8" />
  <sodipodi:namedview
     inkscape:snap-midpoints="true"
     inkscape:current-layer="svg4"
     inkscape:window-maximized="1"
     inkscape:window-y="-8"
     inkscape:window-x="-8"
     inkscape:cy="38.591258"
     inkscape:cx="1.3118654"
     inkscape:zoom="4.1763494"
     showgrid="false"
     id="namedview6"
     inkscape:window-height="1027"
     inkscape:window-width="1920"
     inkscape:pageshadow="2"
     inkscape:pageopacity="0"
     guidetolerance="10"
     gridtolerance="10"
     objecttolerance="10"
     borderopacity="1"
     bordercolor="#666666"
     pagecolor="#ffffff" />
  <g
     id="g898">
    <circle
       style="opacity:1;fill:#000000;fill-opacity:1;stroke-width:48.7267;stop-color:#000000"
       id="path890"
       cx="11.976576"
       cy="11.975328"
       r="11.8" />
    <g
       id="g888"
       transform="matrix(0.90722629,0,0,0.90722629,1.2555816,0.07527994)"
       style="fill:#ffffff;fill-opacity:1">
      <path
         d="m 6.4096757,15.703704 c -0.7422585,0 -1.3446712,0.602412 -1.3446712,1.344671 v 4.034013 c 0,0.742259 0.6024127,1.344672 1.3446712,1.344672 0.7436032,0 1.3446712,-0.603758 1.3446712,-1.344672 v -1.344671 h 8.0680271 v 1.344671 c 0,0.740914 0.601068,1.344672 1.344671,1.344672 0.743603,0 1.344671,-0.603758 1.344671,-1.344672 v -4.034013 c 0,-0.740914 -0.601068,-1.344671 -1.344671,-1.344671 -0.743603,0 -1.344671,0.603757 -1.344671,1.344671 v 1.344671 H 7.7543469 v -1.344671 c 0,-0.740914 -0.601068,-1.344671 -1.3446712,-1.344671 z m -2.6893424,1.344671 c -0.3711292,0 -0.6723356,0.301206 -0.6723356,0.672335 v 0.672336 H 2.3756621 v 1.344671 h 0.6723356 v 0.672336 c 0,0.371129 0.3012064,0.672335 0.6723356,0.672335 0.3711293,0 0.6723356,-0.301206 0.6723356,-0.672335 V 17.72071 c 0,-0.371129 -0.3012063,-0.672335 -0.6723356,-0.672335 z m 16.1360547,0 c -0.37113,0 -0.672336,0.301206 -0.672336,0.672335 v 2.689343 c 0,0.371129 0.301206,0.672335 0.672336,0.672335 0.371129,0 0.672335,-0.301206 0.672335,-0.672335 v -0.672336 h 0.672336 V 18.393046 H 20.528723 V 17.72071 c 0,-0.371129 -0.301206,-0.672335 -0.672335,-0.672335 z"
         style="opacity:1;fill:#ffffff;fill-opacity:1;stroke-width:40.3401;stop-color:#000000"
         id="rect21" />
      <path
         id="path884"
         d="M 10.70829,15.458336 C 8.7487491,15.029753 7.1551331,13.404933 6.7359078,11.408172 6.484384,10.21017 6.62499,9.1195271 7.1681881,8.0551081 c 0.396196,-0.776363 0.465207,-1.765158 0.227086,-3.253725 -0.179354,-1.121195 -0.125767,-1.573766 0.241649,-2.040859 0.570425,-0.725178 1.982685,-1.0933744 4.1815379,-1.0901864 2.569172,0.0037 3.915644,0.4369924 4.432468,1.4262734 0.174836,0.334663 0.167994,1.050611 -0.01954,2.044645 -0.214324,1.136038 -0.132763,2.079973 0.244252,2.826836 0.39382,0.780155 0.56698,1.509257 0.56698,2.3873179 0,1.471487 -0.487679,2.632514 -1.549382,3.68864 -1.296126,1.289317 -3.022852,1.799684 -4.784949,1.414286 z M 11.865526,5.2017041 c 1.061227,0.0011 1.268029,0.04282 2.266031,0.457515 0.120961,0.05026 0.18967,-0.103915 0.374624,-0.840619 0.20677,-0.823604 0.21417,-0.924343 0.08497,-1.156782 -0.253735,-0.456489 -0.930358,-0.607767 -2.725626,-0.609391 -1.632924,-0.0015 -2.1610129,0.08236 -2.5762599,0.408994 -0.299463,0.235557 -0.328124,0.688321 -0.09436,1.49064 0.08429,0.28929 0.166394,0.575593 0.182458,0.636228 0.02007,0.07576 0.244508,0.03236 0.7174429,-0.138715 0.595054,-0.215254 0.834795,-0.248814 1.77072,-0.24787 z"
         style="fill:#ffffff;fill-opacity:1;stroke-width:0.094129" />
    </g>
  </g>
</svg>
