<svg width="56" height="56" viewBox="0 0 56 56" fill="none"
  xmlns="http://www.w3.org/2000/svg">
  <path d="M42.9113 0H12.7429C5.7052 0 0 5.70094 0 12.7334V43.118C0 50.1505 5.7052 55.8515 12.7429 55.8515H42.9113C49.949 55.8515 55.6542 50.1505 55.6542 43.118V12.7334C55.6542 5.70094 49.949 0 42.9113 0Z" fill="#CEC15E"/>
  <path d="M27.582 10.7371C33.1807 10.7371 33.8447 10.7576 36.057 10.859C41.7396 11.1178 44.3939 13.8117 44.6526 19.4482C44.7543 21.657 44.7735 22.3205 44.7735 27.9151C44.7735 33.5114 44.7537 34.1732 44.6526 36.382C44.3923 42.0133 41.7449 44.7128 36.057 44.9712C33.8447 45.0729 33.1842 45.0931 27.582 45.0931C21.9833 45.0931 21.3192 45.0727 19.1087 44.9712C13.4122 44.7112 10.7718 42.0045 10.5132 36.3803C10.4115 34.1715 10.3909 33.5097 10.3909 27.9134C10.3909 22.3188 10.4107 21.657 10.5132 19.4465C10.7734 13.8117 13.4209 11.1157 19.1087 10.8573C21.321 10.7576 21.9833 10.7372 27.582 10.7372V10.7371ZM27.582 6.96023C21.8872 6.96023 21.1742 6.98681 18.9375 7.08576C11.3223 7.43486 7.09 11.6571 6.7405 19.2737C6.63743 21.5105 6.61304 22.2229 6.61304 27.9135C6.61304 33.6041 6.63951 34.3183 6.73859 36.5533C7.08797 44.1629 11.3133 48.392 18.9356 48.7412C21.174 48.8429 21.887 48.8672 27.5818 48.8672C33.2766 48.8672 33.9914 48.8406 36.2281 48.7412C43.8363 48.392 48.0791 44.1699 48.4233 36.5533C48.5264 34.3183 48.5508 33.6041 48.5508 27.9135C48.5508 22.2229 48.5242 21.5105 48.4252 19.2754C48.0824 11.6729 43.8522 7.43679 36.2299 7.08755C33.9915 6.9845 33.2768 6.96021 27.582 6.96021L27.582 6.96023ZM27.582 17.1541C21.6355 17.1541 16.8144 21.9717 16.8144 27.9137C16.8144 33.8557 21.6355 38.675 27.582 38.675C33.5284 38.675 38.3496 33.8575 38.3496 27.9137C38.3496 21.9717 33.5284 17.1541 27.582 17.1541ZM27.582 34.8982C23.7219 34.8982 20.5923 31.7726 20.5923 27.9137C20.5923 24.0565 23.7219 20.9292 27.582 20.9292C31.442 20.9292 34.5717 24.0565 34.5717 27.9137C34.5717 31.7726 31.442 34.8982 27.582 34.8982ZM38.776 14.2154C37.385 14.2154 36.2579 15.3416 36.2579 16.7298C36.2579 18.1179 37.385 19.2442 38.776 19.2442C40.1652 19.2442 41.2905 18.1179 41.2905 16.7298C41.2905 15.3416 40.1652 14.2154 38.776 14.2154Z" fill="white" fill-opacity="0.991936"/>
</svg>
