<svg width="142" height="65" viewBox="0 0 142 65" fill="none"
  xmlns="http://www.w3.org/2000/svg">
  <g filter="url(#filter0_ddi)">
    <path d="M4 17C4 9.8203 9.8203 4 17 4H122C129.18 4 135 9.8203 135 17V45C135 52.1797 129.18 58 122 58H17C9.8203 58 4 52.1797 4 45V17Z" fill="white"/>
  </g>
  <g filter="url(#filter1_ddi)">
    <path d="M42.624 38.144C41.792 38.144 40.92 37.992 40.008 37.688C39.096 37.384 38.336 36.872 37.728 36.152C37.6 35.992 37.544 35.824 37.56 35.648C37.592 35.456 37.696 35.296 37.872 35.168C38.032 35.056 38.2 35.016 38.376 35.048C38.568 35.08 38.72 35.168 38.832 35.312C39.296 35.856 39.856 36.24 40.512 36.464C41.184 36.672 41.912 36.776 42.696 36.776C44.04 36.776 44.992 36.536 45.552 36.056C46.112 35.576 46.392 35.016 46.392 34.376C46.392 33.752 46.088 33.24 45.48 32.84C44.888 32.424 43.968 32.128 42.72 31.952C41.12 31.728 39.936 31.296 39.168 30.656C38.4 30.016 38.016 29.272 38.016 28.424C38.016 27.624 38.216 26.952 38.616 26.408C39.016 25.848 39.56 25.432 40.248 25.16C40.952 24.872 41.752 24.728 42.648 24.728C43.736 24.728 44.656 24.928 45.408 25.328C46.16 25.712 46.768 26.232 47.232 26.888C47.36 27.048 47.4 27.224 47.352 27.416C47.32 27.592 47.2 27.736 46.992 27.848C46.832 27.928 46.664 27.952 46.488 27.92C46.312 27.888 46.16 27.792 46.032 27.632C45.632 27.12 45.144 26.736 44.568 26.48C44.008 26.208 43.352 26.072 42.6 26.072C41.592 26.072 40.808 26.288 40.248 26.72C39.688 27.152 39.408 27.672 39.408 28.28C39.408 28.696 39.52 29.064 39.744 29.384C39.984 29.688 40.368 29.952 40.896 30.176C41.424 30.384 42.128 30.552 43.008 30.68C44.208 30.84 45.152 31.112 45.84 31.496C46.544 31.88 47.04 32.328 47.328 32.84C47.632 33.336 47.784 33.872 47.784 34.448C47.784 35.2 47.544 35.856 47.064 36.416C46.584 36.976 45.952 37.408 45.168 37.712C44.384 38 43.536 38.144 42.624 38.144ZM56.4032 38C55.5232 37.984 54.7392 37.784 54.0512 37.4C53.3632 37 52.8272 36.456 52.4432 35.768C52.0592 35.064 51.8672 34.272 51.8672 33.392V21.44C51.8672 21.216 51.9312 21.04 52.0592 20.912C52.2032 20.768 52.3792 20.696 52.5872 20.696C52.8112 20.696 52.9872 20.768 53.1152 20.912C53.2592 21.04 53.3312 21.216 53.3312 21.44V33.392C53.3312 34.32 53.6192 35.08 54.1952 35.672C54.7712 36.248 55.5152 36.536 56.4272 36.536H56.9552C57.1792 36.536 57.3552 36.608 57.4832 36.752C57.6272 36.88 57.6992 37.056 57.6992 37.28C57.6992 37.488 57.6272 37.664 57.4832 37.808C57.3552 37.936 57.1792 38 56.9552 38H56.4032ZM49.9952 26.648C49.8032 26.648 49.6432 26.592 49.5152 26.48C49.4032 26.352 49.3472 26.192 49.3472 26C49.3472 25.808 49.4032 25.656 49.5152 25.544C49.6432 25.416 49.8032 25.352 49.9952 25.352H56.4992C56.6912 25.352 56.8432 25.416 56.9552 25.544C57.0832 25.656 57.1472 25.808 57.1472 26C57.1472 26.192 57.0832 26.352 56.9552 26.48C56.8432 26.592 56.6912 26.648 56.4992 26.648H49.9952ZM66.7069 38.144C65.4269 38.144 64.2749 37.856 63.2509 37.28C62.2429 36.688 61.4429 35.888 60.8509 34.88C60.2749 33.856 59.9869 32.712 59.9869 31.448C59.9869 30.168 60.2749 29.024 60.8509 28.016C61.4429 26.992 62.2429 26.192 63.2509 25.616C64.2749 25.024 65.4269 24.728 66.7069 24.728C67.9869 24.728 69.1309 25.024 70.1389 25.616C71.1469 26.192 71.9389 26.992 72.5149 28.016C73.1069 29.024 73.4029 30.168 73.4029 31.448L72.8029 32.408C72.8029 33.496 72.5309 34.472 71.9869 35.336C71.4589 36.2 70.7389 36.888 69.8269 37.4C68.9149 37.896 67.8749 38.144 66.7069 38.144ZM66.7069 36.8C67.7149 36.8 68.6109 36.568 69.3949 36.104C70.1949 35.624 70.8189 34.984 71.2669 34.184C71.7309 33.368 71.9629 32.456 71.9629 31.448C71.9629 30.424 71.7309 29.512 71.2669 28.712C70.8189 27.896 70.1949 27.256 69.3949 26.792C68.6109 26.312 67.7149 26.072 66.7069 26.072C65.7149 26.072 64.8189 26.312 64.0189 26.792C63.2189 27.256 62.5869 27.896 62.1229 28.712C61.6589 29.512 61.4269 30.424 61.4269 31.448C61.4269 32.456 61.6589 33.368 62.1229 34.184C62.5869 34.984 63.2189 35.624 64.0189 36.104C64.8189 36.568 65.7149 36.8 66.7069 36.8ZM72.7069 38C72.4829 38 72.2989 37.936 72.1549 37.808C72.0269 37.664 71.9629 37.488 71.9629 37.28V32.888L72.4189 31.448H73.4029V37.28C73.4029 37.488 73.3389 37.664 73.2109 37.808C73.0829 37.936 72.9149 38 72.7069 38ZM77.4759 29.984C77.5719 28.96 77.8519 28.056 78.3159 27.272C78.7799 26.472 79.3799 25.848 80.1159 25.4C80.8519 24.952 81.6679 24.728 82.5639 24.728C83.1719 24.728 83.6439 24.8 83.9799 24.944C84.3159 25.088 84.4439 25.344 84.3639 25.712C84.3159 25.952 84.2039 26.096 84.0279 26.144C83.8519 26.192 83.6359 26.2 83.3799 26.168C83.1399 26.12 82.8679 26.096 82.5639 26.096C81.7639 26.096 81.0519 26.264 80.4279 26.6C79.8039 26.936 79.3159 27.4 78.9639 27.992C78.6119 28.568 78.4359 29.232 78.4359 29.984H77.4759ZM77.7159 38C77.5079 38 77.3319 37.936 77.1879 37.808C77.0599 37.664 76.9959 37.488 76.9959 37.28V25.592C76.9959 25.368 77.0599 25.192 77.1879 25.064C77.3319 24.936 77.5079 24.872 77.7159 24.872C77.9399 24.872 78.1159 24.936 78.2439 25.064C78.3719 25.192 78.4359 25.368 78.4359 25.592V37.28C78.4359 37.488 78.3719 37.664 78.2439 37.808C78.1159 37.936 77.9399 38 77.7159 38ZM92.8954 38C92.0154 37.984 91.2314 37.784 90.5434 37.4C89.8554 37 89.3194 36.456 88.9354 35.768C88.5514 35.064 88.3594 34.272 88.3594 33.392V21.44C88.3594 21.216 88.4234 21.04 88.5514 20.912C88.6954 20.768 88.8714 20.696 89.0794 20.696C89.3034 20.696 89.4794 20.768 89.6074 20.912C89.7514 21.04 89.8234 21.216 89.8234 21.44V33.392C89.8234 34.32 90.1114 35.08 90.6874 35.672C91.2634 36.248 92.0074 36.536 92.9194 36.536H93.4474C93.6714 36.536 93.8474 36.608 93.9754 36.752C94.1194 36.88 94.1914 37.056 94.1914 37.28C94.1914 37.488 94.1194 37.664 93.9754 37.808C93.8474 37.936 93.6714 38 93.4474 38H92.8954ZM86.4874 26.648C86.2954 26.648 86.1354 26.592 86.0074 26.48C85.8954 26.352 85.8394 26.192 85.8394 26C85.8394 25.808 85.8954 25.656 86.0074 25.544C86.1354 25.416 86.2954 25.352 86.4874 25.352H92.9914C93.1834 25.352 93.3354 25.416 93.4474 25.544C93.5754 25.656 93.6394 25.808 93.6394 26C93.6394 26.192 93.5754 26.352 93.4474 26.48C93.3354 26.592 93.1834 26.648 92.9914 26.648H86.4874ZM94.9431 39.488C94.7351 39.488 94.5591 39.416 94.4151 39.272C94.2711 39.128 94.1991 38.952 94.1991 38.744C94.1991 38.536 94.2711 38.36 94.4151 38.216C94.5591 38.072 94.7351 38 94.9431 38H106.607C106.815 38 106.983 38.072 107.111 38.216C107.255 38.36 107.327 38.536 107.327 38.744C107.327 38.952 107.255 39.128 107.111 39.272C106.983 39.416 106.815 39.488 106.607 39.488H94.9431Z" fill="white"/>
  </g>
  <defs>
    <filter id="filter0_ddi" x="0" y="0" width="142" height="65" filterUnits="userSpaceOnUse" color-interpolation-filters="sRGB">
      <feFlood flood-opacity="0" result="BackgroundImageFix"/>
      <feColorMatrix in="SourceAlpha" type="matrix" values="0 0 0 0 0 0 0 0 0 0 0 0 0 0 0 0 0 0 127 0"/>
      <feOffset dx="3"/>
      <feGaussianBlur stdDeviation="2"/>
      <feColorMatrix type="matrix" values="0 0 0 0 0 0 0 0 0 0 0 0 0 0 0 0 0 0 0.25 0"/>
      <feBlend mode="normal" in2="BackgroundImageFix" result="effect1_dropShadow"/>
      <feColorMatrix in="SourceAlpha" type="matrix" values="0 0 0 0 0 0 0 0 0 0 0 0 0 0 0 0 0 0 127 0"/>
      <feOffset dy="3"/>
      <feGaussianBlur stdDeviation="2"/>
      <feColorMatrix type="matrix" values="0 0 0 0 0 0 0 0 0 0 0 0 0 0 0 0 0 0 0.25 0"/>
      <feBlend mode="normal" in2="effect1_dropShadow" result="effect2_dropShadow"/>
      <feBlend mode="normal" in="SourceGraphic" in2="effect2_dropShadow" result="shape"/>
      <feColorMatrix in="SourceAlpha" type="matrix" values="0 0 0 0 0 0 0 0 0 0 0 0 0 0 0 0 0 0 127 0" result="hardAlpha"/>
      <feOffset dx="3" dy="3"/>
      <feGaussianBlur stdDeviation="2"/>
      <feComposite in2="hardAlpha" operator="arithmetic" k2="-1" k3="1"/>
      <feColorMatrix type="matrix" values="0 0 0 0 0 0 0 0 0 0 0 0 0 0 0 0 0 0 0.25 0"/>
      <feBlend mode="normal" in2="shape" result="effect3_innerShadow"/>
    </filter>
    <filter id="filter1_ddi" x="36.5573" y="19.696" width="72.7697" height="21.792" filterUnits="userSpaceOnUse" color-interpolation-filters="sRGB">
      <feFlood flood-opacity="0" result="BackgroundImageFix"/>
      <feColorMatrix in="SourceAlpha" type="matrix" values="0 0 0 0 0 0 0 0 0 0 0 0 0 0 0 0 0 0 127 0"/>
      <feOffset dy="1"/>
      <feGaussianBlur stdDeviation="0.5"/>
      <feColorMatrix type="matrix" values="0 0 0 0 0 0 0 0 0 0 0 0 0 0 0 0 0 0 0.25 0"/>
      <feBlend mode="normal" in2="BackgroundImageFix" result="effect1_dropShadow"/>
      <feColorMatrix in="SourceAlpha" type="matrix" values="0 0 0 0 0 0 0 0 0 0 0 0 0 0 0 0 0 0 127 0"/>
      <feOffset dx="1"/>
      <feGaussianBlur stdDeviation="0.5"/>
      <feColorMatrix type="matrix" values="0 0 0 0 0 0 0 0 0 0 0 0 0 0 0 0 0 0 0.25 0"/>
      <feBlend mode="normal" in2="effect1_dropShadow" result="effect2_dropShadow"/>
      <feBlend mode="normal" in="SourceGraphic" in2="effect2_dropShadow" result="shape"/>
      <feColorMatrix in="SourceAlpha" type="matrix" values="0 0 0 0 0 0 0 0 0 0 0 0 0 0 0 0 0 0 127 0" result="hardAlpha"/>
      <feOffset dx="-1" dy="-1"/>
      <feGaussianBlur stdDeviation="0.5"/>
      <feComposite in2="hardAlpha" operator="arithmetic" k2="-1" k3="1"/>
      <feColorMatrix type="matrix" values="0 0 0 0 0 0 0 0 0 0 0 0 0 0 0 0 0 0 0.25 0"/>
      <feBlend mode="normal" in2="shape" result="effect3_innerShadow"/>
    </filter>
  </defs>
</svg>
