<svg width="57" height="57" viewBox="0 0 57 57" fill="none"
  xmlns="http://www.w3.org/2000/svg">
  <path d="M43.5097 0.768799H13.3413C6.30359 0.768799 0.598389 6.46975 0.598389 13.5022V43.8869C0.598389 50.9194 6.30359 56.6203 13.3413 56.6203H43.5097C50.5474 56.6203 56.2526 50.9194 56.2526 43.8869V13.5022C56.2526 6.46975 50.5474 0.768799 43.5097 0.768799Z" fill="#E6ADAD"/>
  <path d="M32.3554 34.9036C32.5031 35.0489 32.5031 35.287 32.3554 35.4344C31.5485 36.2355 30.2834 36.6257 28.4839 36.6257L28.4703 36.6218L28.4566 36.6257C26.6587 36.6257 25.3919 36.2358 24.585 35.4326C24.4375 35.2873 24.4375 35.0493 24.585 34.9038C24.7304 34.7583 24.97 34.7583 25.1176 34.9038C25.7753 35.5578 26.8668 35.8766 28.4564 35.8766L28.47 35.8805L28.4837 35.8766C30.0715 35.8766 31.163 35.5575 31.8224 34.9038C31.9702 34.7583 32.2094 34.7583 32.355 34.9038L32.3554 34.9036ZM26.3859 30.7107C26.3859 29.8316 25.6675 29.1171 24.7859 29.1171C23.9027 29.1171 23.1842 29.8316 23.1842 30.7107C23.1842 31.5881 23.9027 32.3025 24.7859 32.3025C25.6675 32.3041 26.3859 31.5899 26.3859 30.7107ZM49.2958 29.098C49.2958 40.5895 39.9718 49.9065 28.4717 49.9065C16.9717 49.9065 7.64771 40.5895 7.64771 29.098C7.64771 17.6066 16.9717 8.28955 28.4717 8.28955C39.9718 8.28955 49.2958 17.6066 49.2958 29.098ZM40.6191 28.8746C40.6191 27.3989 39.413 26.199 37.9293 26.199C37.2057 26.199 36.5497 26.4887 36.0656 26.9533C34.2331 25.7481 31.7533 24.9817 29.0097 24.8829L30.5108 20.1593L34.5767 21.1113L34.5708 21.1703C34.5708 22.3772 35.5582 23.3586 36.7713 23.3586C37.9842 23.3586 38.9699 22.3772 38.9699 21.1703C38.9699 19.9634 37.9842 18.9819 36.7713 18.9819C35.8394 18.9819 35.0463 19.5626 34.7253 20.3761L30.3436 19.3495C30.1527 19.3037 29.9566 19.4152 29.8976 19.6012L28.223 24.8692C25.3493 24.902 22.748 25.6773 20.8339 26.917C20.3532 26.4747 19.7164 26.1974 19.0118 26.1974C17.5299 26.1994 16.3238 27.3992 16.3238 28.8748C16.3238 29.8563 16.8636 30.706 17.6565 31.1724C17.6042 31.4569 17.5702 31.7465 17.5702 32.0394C17.5702 35.9948 22.4378 39.2131 28.4212 39.2131C34.4046 39.2131 39.2722 35.9948 39.2722 32.0394C39.2722 31.7622 39.2396 31.4896 39.1962 31.221C40.0396 30.7681 40.6192 29.8927 40.6192 28.8748L40.6191 28.8746ZM32.1646 29.1191C31.2812 29.1191 30.5645 29.8335 30.5645 30.7127C30.5645 31.5901 31.283 32.3046 32.1646 32.3046C33.0461 32.3046 33.7645 31.5901 33.7645 30.7127C33.7645 29.8335 33.0478 29.1191 32.1646 29.1191Z" fill="white"/>
</svg>
