<?xml version="1.0" encoding="UTF-8" standalone="no"?>
<svg
   xmlns:dc="http://purl.org/dc/elements/1.1/"
   xmlns:cc="http://creativecommons.org/ns#"
   xmlns:rdf="http://www.w3.org/1999/02/22-rdf-syntax-ns#"
   xmlns:svg="http://www.w3.org/2000/svg"
   xmlns="http://www.w3.org/2000/svg"
   xmlns:sodipodi="http://sodipodi.sourceforge.net/DTD/sodipodi-0.dtd"
   xmlns:inkscape="http://www.inkscape.org/namespaces/inkscape"
   sodipodi:docname="Taxi2.svg"
   inkscape:version="1.0 (4035a4fb49, 2020-05-01)"
   id="svg1020"
   version="1.1"
   viewBox="0 0 62 62"
   height="62mm"
   width="62mm">
  <defs
     id="defs1014" />
  <sodipodi:namedview
     inkscape:window-maximized="1"
     inkscape:window-y="-8"
     inkscape:window-x="-8"
     inkscape:window-height="1027"
     inkscape:window-width="1920"
     showgrid="false"
     inkscape:document-rotation="0"
     inkscape:current-layer="g1096"
     inkscape:document-units="mm"
     inkscape:cy="117.54897"
     inkscape:cx="0.38333083"
     inkscape:zoom="2.8"
     inkscape:pageshadow="2"
     inkscape:pageopacity="0.0"
     borderopacity="1.0"
     bordercolor="#666666"
     pagecolor="#ffffff"
     id="base" />
  <metadata
     id="metadata1017">
    <rdf:RDF>
      <cc:Work
         rdf:about="">
        <dc:format>image/svg+xml</dc:format>
        <dc:type
           rdf:resource="http://purl.org/dc/dcmitype/StillImage" />
        <dc:title></dc:title>
      </cc:Work>
    </rdf:RDF>
  </metadata>
  <g
     id="layer1"
     inkscape:groupmode="layer"
     inkscape:label="Layer 1">
    <g
       transform="matrix(0.05454545,0,0,0.05454545,-1.8201331,-1.6605493)"
       id="g1096">
	<path
   fill="#2b2b2b"
   d="m 1120.577,719.744 c 0,0 -0.155,-0.057 -0.424,-0.134 0.153,0.047 0.269,0.077 0.424,0.134 z"
   id="path1036" />

	<path
   fill="#2b2b2b"
   d="m 1118.183,718.944 c 0.444,0.144 0.927,0.318 1.506,0.502 -0.424,-0.146 -0.964,-0.32 -1.506,-0.502 z"
   id="path1038" />

	<path
   fill="#2b2b2b"
   d="m 79.423,719.744 c 0.154,-0.057 0.269,-0.087 0.424,-0.134 -0.27,0.077 -0.424,0.134 -0.424,0.134 z"
   id="path1040" />

	
	
	
	
	
	
	
	
	
	
	
	
	
	
	
	
	
	
	
	
	
	
	
	<polygon
   fill="#2b2b2b"
   points="534.364,82.306 534.364,133.27 547.009,133.27 547.009,82.306 561.546,82.306 561.546,72.239 519.826,72.239 519.826,82.306 "
   id="polygon1088" />

	<path
   fill="#2b2b2b"
   d="m 571.199,133.27 3.263,-15.339 h 14.537 l 3.361,15.339 h 13.61 L 590.545,72.238 h -16.952 l -15.309,61.032 z m 10.581,-50.095 5.424,25.609 h -10.753 z"
   id="path1090" />

	<polygon
   fill="#2b2b2b"
   points="655.491,133.27 638.714,102.129 655.047,72.239 640.953,72.239 631.744,91.463 622.709,72.239 608.461,72.239 624.253,102.129 607.63,133.27 621.376,133.27 631.377,112.907 641.224,133.27 "
   id="polygon1092" />

	<rect
   x="662.05499"
   y="72.238998"
   fill="#2b2b2b"
   width="12.644"
   height="61.032001"
   id="rect1094" />

<circle
   r="550.00006"
   cx="604.69873"
   cy="605.448"
   id="path1136"
   style="fill:#000000;stroke-width:275;stop-color:#000000" />
<path
   style="fill:#ffffff;stroke-width:0.666667"
   sodipodi:nodetypes="csccccccssssccccccccccccccccccccccscscscscscccccscssccccccccccccccsssssssccssssssssssccccsscsccccccccccccccccccssssssssssccc"
   fill="#2b2b2b"
   d="m 969.62967,443.77165 c 0,0 -3.462,-9.22867 -34.60933,-11.53201 -10.32267,-0.76333 -19.114,3.29734 -26.27,9.054 -6.23,-36.77 -27.94267,-140.57467 -27.94267,-140.57467 -2.316,-29.992 -36.92601,-42.68334 -36.92601,-42.68334 -29.088,-8.06 -73.71067,-12.70667 -121.74467,-15.284 l -0.142,-0.866 c 0,0 -15.312,-0.6 -39.87334,-1.14267 v -4.398 c 0,-6.96266 -4.968,-12.61 -11.10733,-12.61 H 534.9183 c -6.13933,0 -11.10733,5.64734 -11.10733,12.61 v 4.398 c -24.55933,0.54334 -39.87334,1.14267 -39.87334,1.14267 l -0.15466,0.866 c -48.02001,2.57733 -92.64401,7.224 -121.73201,15.284 0,0 -34.61601,12.69067 -36.92001,42.68334 0,0 -20.998,89.37 -26.00866,142.21467 -7.48467,-6.60666 -16.93801,-11.52866 -28.21534,-10.694 -31.14867,2.30334 -34.61067,11.53201 -34.61067,11.53201 l 3.462,40.382 53.07934,12.69067 -6.93667,25.38066 c 0,0 -11.53267,18.46334 -10.37467,29.99534 -17.31066,13.836 -23.07666,65.75667 -21.918,110.75334 l 2.30334,5.766 c 0,0 0.10266,-0.038 0.28266,-0.0893 -0.10333,0.032 -0.18,0.0513 -0.28266,0.0893 -6.92467,2.304 -6.92467,76.14401 -6.92467,76.14401 l 11.54467,8.08333 c 0,0 -0.0127,49.59134 10.37466,61.13601 3.57134,3.966 8.388,6.95867 13.852,9.20333 l 0.0347,0.70667 v 113.14801 c 0,0 0.888,14.248 15.13667,14.248 h 49.00534 c 0,0 13.35933,2.67667 13.35933,-22.26667 v -58.794 c 0,0 100.67534,-26.73267 105.12801,-27.62067 4.45333,-0.888 24.05667,0 24.05667,0 0,0 1.77666,0.88733 11.584,0.88733 h 60.582 c 0,0 8.01867,8.90667 37.41534,8.90667 29.39734,0 40.98134,-8.90667 40.98134,-8.90667 h 66.812 l 7.13067,-3.56533 132.74868,30.298 v 63.24667 c 0,0 -2.676,20.49067 19.59067,20.49067 h 41.86867 c 0,0 16.03666,-0.888 16.03666,-24.056 0,-23.16734 -2.664,-80.17201 0,-80.17201 2.67734,0 14.26134,-27.62067 14.26134,-38.316 l -1.82733,-3.95333 c 6.73866,-17.47334 6.744,-54.62201 6.744,-54.62201 l 11.53266,-8.08333 c 0,0 0,-73.84001 -6.92533,-76.14401 -0.10333,-0.038 -0.18067,-0.058 -0.28267,-0.0893 0.17934,0.0513 0.28267,0.0893 0.28267,0.0893 l 2.31667,-5.766 c 1.146,-44.996 -4.62067,-96.91734 -21.93201,-110.75334 1.15867,-11.532 -10.37333,-29.99534 -10.37333,-29.99534 l -6.92533,-25.38067 53.06667,-12.69066 z M 530.9803,240.60896 c 0,-5.57933 4.51667,-10.10666 10.09067,-10.10666 h 123.77801 c 5.58734,0 10.11734,4.52733 10.11734,10.10666 v 31.88667 c 0,5.57933 -4.53,10.10067 -10.11734,10.10067 H 541.07031 c -5.57401,0 -10.09067,-4.52134 -10.09067,-10.10067 V 240.60896 Z M 311.70629,728.51234 c -8.44267,0 -15.30334,-6.84067 -15.30334,-15.29134 0,-8.44267 6.86,-15.29067 15.30334,-15.29067 8.44266,0 15.27733,6.84734 15.27733,15.29067 0,8.45067 -6.83467,15.29134 -15.27733,15.29134 z m 21.45533,-96.75001 c -18.75267,0 -33.966,-15.21334 -33.966,-33.96601 0,-18.75266 15.21333,-33.966 33.966,-33.966 18.75934,0 33.95934,15.21334 33.95934,33.966 0,18.75267 -15.2,33.96601 -33.95934,33.96601 z m 340.85136,187.25735 c -8.23733,6.178 -27.82733,5.14866 -27.82733,5.14866 h -96.86534 c 0,0 -20.09067,0 -25.24001,-11.84133 -5.16133,-11.854 -4.118,-24.73734 -4.118,-27.312 0,-2.57467 -1.04266,-9.28 16.47401,-9.28 h 127.78134 c 0,0 20.092,-3.604 20.092,12.88333 0,16.488 -2.05933,24.21067 -10.29667,30.40134 z m 89.10401,-331.4107 c -22.08533,-1.53133 -49.59067,-2.49666 -78.04801,-3.076 v -0.37933 c 0,0 -35.70333,-0.52134 -82.10267,-0.45667 -46.41267,-0.0647 -82.11534,0.45667 -82.11534,0.45667 v 0.37933 c -28.44467,0.57934 -55.95,1.54467 -78.04867,3.076 -61.13601,4.614 -83.05534,-8.07 -85.37201,-39.21733 -2.30467,-31.14667 -1.146,-94.61001 24.236,-116.52535 22.678,-19.58 60.06734,-20.75067 90.81601,-22.41733 l -0.0773,0.50133 c 12.71666,0 72.244,-0.95533 130.56134,-1.53133 58.33134,0.576 117.84468,1.53133 130.56134,1.53133 l -0.0773,-0.50133 c 30.74867,1.66666 68.15134,2.83733 90.81601,22.41733 25.39467,21.916 26.52733,85.37868 24.236,116.52535 -2.31667,31.14733 -24.236,43.832 -85.38534,39.21733 z m 128.65668,240.90336 c -8.43067,0 -15.29,-6.84067 -15.29,-15.29134 0,-8.44267 6.85933,-15.29067 15.29,-15.29067 8.456,0 15.30333,6.84734 15.30333,15.29067 0,8.45067 -6.84666,15.29134 -15.30333,15.29134 z M 874.347,631.76233 c -18.75267,0 -33.96534,-15.21334 -33.96534,-33.96601 0,-18.75266 15.21267,-33.966 33.96534,-33.966 18.754,0 33.966,15.21334 33.966,33.966 0,18.75267 -15.21267,33.96601 -33.966,33.96601 z m 75.07534,36.77867 c -0.386,-0.12267 -0.708,-0.23867 -1.004,-0.33467 0.36133,0.12133 0.72133,0.23733 1.004,0.33467 z"
   id="path1042" />
<g
   transform="matrix(0.59858258,0,0,0.59858258,302.41788,-112.20526)"
   id="g1156">
  <polygon
     id="polygon1088-9"
     points="561.546,82.306 561.546,72.239 519.826,72.239 519.826,82.306 534.364,82.306 534.364,133.27 547.009,133.27 547.009,82.306 "
     fill="#2b2b2b"
     transform="translate(-98.398908,513.23195)"
     style="fill:#ffffff" />
  <path
     id="path1090-0"
     d="m 472.80007,646.50195 3.263,-15.339 h 14.537 l 3.361,15.339 h 13.61 l -15.425,-61.032 h -16.952 l -15.309,61.032 z m 10.581,-50.095 5.424,25.609 h -10.753 z"
     fill="#2b2b2b"
     style="fill:#ffffff;stroke-width:1" />
  <polygon
     id="polygon1092-0"
     points="655.491,133.27 638.714,102.129 655.047,72.239 640.953,72.239 631.744,91.463 622.709,72.239 608.461,72.239 624.253,102.129 607.63,133.27 621.376,133.27 631.377,112.907 641.224,133.27 "
     fill="#2b2b2b"
     transform="translate(-98.398908,513.23195)"
     style="fill:#ffffff" />
  <rect
     id="rect1094-1"
     height="61.032001"
     width="12.643999"
     fill="#2b2b2b"
     y="585.47095"
     x="563.65607"
     style="fill:#ffffff;stroke-width:1" />
</g>
</g>
  </g>
</svg>
