<svg width="56" height="57" viewBox="0 0 56 57" fill="none"
  xmlns="http://www.w3.org/2000/svg">
  <path d="M43.0799 0.510742H12.9115C5.87377 0.510742 0.168579 6.21168 0.168579 13.2441V43.6288C0.168579 50.6613 5.87377 56.3622 12.9115 56.3622H43.0799C50.1176 56.3622 55.8228 50.6613 55.8228 43.6288V13.2441C55.8228 6.21168 50.1176 0.510742 43.0799 0.510742Z" fill="#78FFF7"/>
  <path d="M21.4757 49.4017C18.6996 48.956 16.6521 47.8927 14.5736 45.8173C13.3239 44.5694 12.8555 43.9513 12.2143 42.7034C10.4398 39.2501 10.1247 35.5375 11.2936 31.8545C12.8953 26.8079 17.5561 23.4328 23.6731 22.8898L25.0089 22.7713V26.2449C25.0089 28.8761 24.9567 29.7334 24.7935 29.78C24.6752 29.814 23.8865 30.0077 23.0414 30.2108C20.1136 30.9143 18.1196 32.3566 17.5008 34.2181C17.0611 35.541 17.2187 37.7766 17.8364 38.9797C18.7785 40.8146 20.5646 42.0912 22.7207 42.4707C25.175 42.9027 27.5306 41.6877 28.6956 39.3888C29.738 37.3319 29.6983 38.0315 29.667 22.2591L29.6383 7.83545H33.0851H36.5319L36.7274 8.82572C37.4698 12.582 39.2448 15.1993 41.9531 16.5309C43.1018 17.0957 45.0773 17.6421 45.9961 17.6491L46.3876 17.653L46.3409 20.9683L46.2942 24.2836L44.8292 24.258C42.6109 24.2195 40.1476 23.455 37.7867 22.0723L36.7591 21.4704L36.679 29.0769C36.5939 37.1267 36.5633 37.4672 35.6808 40.0638C34.1926 44.4439 30.4627 48.0125 26.2592 49.0781C25.1448 49.3606 22.3819 49.548 21.4759 49.4025L21.4757 49.4017Z" fill="white"/>
</svg>
