<svg width="56" height="57" viewBox="0 0 56 57" fill="none"
  xmlns="http://www.w3.org/2000/svg">
  <path d="M42.9728 0.510742H12.8044C5.76671 0.510742 0.0615234 6.21168 0.0615234 13.2441V43.6288C0.0615234 50.6613 5.76671 56.3622 12.8044 56.3622H42.9728C50.0105 56.3622 55.7157 50.6613 55.7157 43.6288V13.2441C55.7157 6.21168 50.0105 0.510742 42.9728 0.510742Z" fill="#77C9FF"/>
  <path d="M48.8203 16.3948C47.2879 17.0745 45.6411 17.5323 43.9127 17.7387C45.6776 16.6827 47.0329 15.0093 47.6697 13.0151C46.0194 13.9932 44.1904 14.7041 42.2434 15.0873C40.6868 13.4278 38.4638 12.3909 36.0066 12.3909C30.49 12.3909 26.4362 17.5341 27.6821 22.8732C20.5829 22.518 14.2871 19.119 10.072 13.9533C7.83343 17.7907 8.91103 22.8107 12.7149 25.3528C11.3162 25.3069 9.99738 24.9248 8.84682 24.2847C8.75296 28.24 11.5904 31.9404 15.6997 32.7641C14.4971 33.0898 13.18 33.1665 11.8403 32.9096C12.9266 36.3014 16.0815 38.7688 19.8228 38.8383C16.2307 41.6526 11.7049 42.9098 7.17224 42.3757C10.9536 44.7982 15.4463 46.2114 20.2705 46.2114C36.135 46.2114 45.098 32.8229 44.5566 20.8147C46.226 19.6095 47.6749 18.1061 48.8203 16.3946V16.3948Z" fill="white"/>
</svg>
