<?xml version="1.0" encoding="UTF-8" standalone="no"?>
<svg
   xmlns:dc="http://purl.org/dc/elements/1.1/"
   xmlns:cc="http://creativecommons.org/ns#"
   xmlns:rdf="http://www.w3.org/1999/02/22-rdf-syntax-ns#"
   xmlns:svg="http://www.w3.org/2000/svg"
   xmlns="http://www.w3.org/2000/svg"
   xmlns:sodipodi="http://sodipodi.sourceforge.net/DTD/sodipodi-0.dtd"
   xmlns:inkscape="http://www.inkscape.org/namespaces/inkscape"
   inkscape:version="1.0 (4035a4fb49, 2020-05-01)"
   sodipodi:docname="Viral phone-export-1.svg"
   id="svg4903"
   version="1.1"
   viewBox="0 0 207.31883 411.91101"
   height="1556.829"
   width="783.56726">
  <defs
     id="defs4897" />
  <sodipodi:namedview
     fit-margin-bottom="0"
     fit-margin-right="0"
     fit-margin-left="0"
     fit-margin-top="0"
     inkscape:window-maximized="1"
     inkscape:window-y="-8"
     inkscape:window-x="-8"
     inkscape:window-height="1027"
     inkscape:window-width="1920"
     units="px"
     inkscape:snap-midpoints="true"
     showgrid="false"
     inkscape:document-rotation="0"
     inkscape:current-layer="g5592"
     inkscape:document-units="px"
     inkscape:cy="479.84987"
     inkscape:cx="40.732254"
     inkscape:zoom="0.65181513"
     inkscape:pageshadow="2"
     inkscape:pageopacity="0.0"
     borderopacity="1.0"
     bordercolor="#666666"
     pagecolor="#ffffff"
     id="base" />
  <metadata
     id="metadata4900">
    <rdf:RDF>
      <cc:Work
         rdf:about="">
        <dc:format>image/svg+xml</dc:format>
        <dc:type
           rdf:resource="http://purl.org/dc/dcmitype/StillImage" />
        <dc:title></dc:title>
      </cc:Work>
    </rdf:RDF>
  </metadata>
  <g
     transform="translate(-1.7626376,-2.776412)"
     id="layer1"
     inkscape:groupmode="layer"
     inkscape:label="Layer 1">
    <g
       id="g5592">
      <g
         transform="matrix(0.98820052,0,0,0.98820052,1.2820905,1.1889289)"
         id="g5669">
        <rect
           ry="29.142601"
           style="opacity:1;fill:#000000;fill-opacity:0.731563;stroke:#939393;stroke-width:7.79673;stroke-miterlimit:4;stroke-dasharray:none;stroke-opacity:1;stop-color:#000000"
           id="rect890"
           width="199.52211"
           height="404.11426"
           x="5.6610026"
           y="6.674777" />
        <g
           transform="matrix(0.98226335,0,0,0.98226335,-287.47396,-87.340827)"
           id="g255"
           style="opacity:1;stroke:#ffffff;stroke-width:2.11667;stroke-miterlimit:4;stroke-dasharray:none;stroke-opacity:1">
          <path
             id="path249"
             d="m 337.59427,206.12134 41.89449,48.8697 41.57738,-48.8697 41.82767,48.86969 v -48.86969 l -41.82767,-49.0105"
             style="fill:none;stroke:#ffffff;stroke-width:2.11667;stroke-linecap:butt;stroke-linejoin:miter;stroke-miterlimit:4;stroke-dasharray:none;stroke-opacity:1" />
          <path
             id="path251"
             d="m 421.06616,157.11084 h -41.5774 -41.8945 v 49.0105"
             style="fill:none;stroke:#ffffff;stroke-width:2.11667;stroke-linecap:butt;stroke-linejoin:miter;stroke-miterlimit:4;stroke-dasharray:none;stroke-opacity:1" />
        </g>
        <rect
           ry="6.5204639"
           y="52.689404"
           x="29.833319"
           height="28.600157"
           width="28.477884"
           id="rect900"
           style="opacity:1;fill:#cec15e;fill-opacity:1;stroke-width:0.0294581;stop-color:#000000" />
        <rect
           ry="6.5204639"
           y="52.689404"
           x="70.798866"
           height="28.600157"
           width="28.477884"
           id="rect908"
           style="opacity:1;fill:#ce5e5e;fill-opacity:1;stroke-width:0.0294581;stop-color:#000000" />
        <rect
           style="opacity:1;fill:#5ece90;fill-opacity:1;stroke-width:0.0294581;stop-color:#000000"
           id="rect914"
           width="28.477884"
           height="28.600157"
           x="111.82443"
           y="52.689404"
           ry="6.5204639" />
        <rect
           ry="6.5204639"
           y="52.689404"
           x="152.84998"
           height="28.600157"
           width="28.477884"
           id="rect916"
           style="opacity:1;fill:#969696;fill-opacity:1;stroke-width:0.0294581;stop-color:#000000" />
        <rect
           style="opacity:1;fill:#5ecebd;fill-opacity:1;stroke-width:0.0294581;stop-color:#000000"
           id="rect920"
           width="28.477884"
           height="28.600157"
           x="29.838537"
           y="100.83063"
           ry="6.5204639" />
        <rect
           ry="6.5204639"
           y="100.83063"
           x="70.989952"
           height="28.600157"
           width="28.477884"
           id="rect922"
           style="opacity:1;fill:#969696;fill-opacity:1;stroke-width:0.0294581;stop-color:#000000" />
        <rect
           style="opacity:1;fill:#e6adad;fill-opacity:1;stroke-width:0.0294581;stop-color:#000000"
           id="rect924"
           width="28.477884"
           height="28.600157"
           x="111.82993"
           y="100.83063"
           ry="6.5204639" />
        <rect
           ry="6.5204639"
           y="100.83063"
           x="152.91571"
           height="28.600157"
           width="28.477884"
           id="rect926"
           style="opacity:1;fill:#9fce5e;fill-opacity:1;stroke-width:0.0294581;stop-color:#000000" />
        <rect
           ry="6.5204639"
           y="148.83354"
           x="29.980053"
           height="28.600157"
           width="28.477884"
           id="rect928"
           style="opacity:1;fill:#969696;fill-opacity:1;stroke-width:0.0294581;stop-color:#000000" />
        <rect
           style="opacity:1;fill:#77c9ff;fill-opacity:1;stroke-width:0.0294581;stop-color:#000000"
           id="rect930"
           width="28.477884"
           height="28.600157"
           x="71.131485"
           y="148.83354"
           ry="6.5204639" />
        <rect
           ry="6.5204639"
           y="148.83354"
           x="111.97147"
           height="28.600157"
           width="28.477884"
           id="rect932"
           style="opacity:1;fill:#969696;fill-opacity:1;stroke-width:0.0294581;stop-color:#000000" />
        <rect
           style="opacity:1;fill:#78fff7;fill-opacity:1;stroke-width:0.0294581;stop-color:#000000"
           id="rect934"
           width="28.477884"
           height="28.600157"
           x="153.05724"
           y="148.83354"
           ry="6.5204639" />
        <rect
           ry="1.8099518"
           y="21.720362"
           x="93.544113"
           height="3.6199036"
           width="24.689598"
           id="rect944"
           style="opacity:1;fill:#939393;fill-opacity:1;stroke-width:0.0519781;stop-color:#000000" />
        <circle
           r="2.8773589"
           cy="23.019812"
           cx="126.95858"
           id="path950"
           style="opacity:1;fill:#939393;fill-opacity:1;stroke-width:0.0519781;stop-color:#000000" />
        <path
           style="opacity:1;fill:#ffffff;fill-opacity:1;stroke-width:0.0418588"
           d="m 115.23112,76.047918 c 0.0459,-0.119666 10.6312,-18.054326 10.65591,-18.054326 0.0174,0 6.75044,11.391724 10.347,17.506458 l 0.36372,0.618372 h -10.69683 c -10.01149,0 -10.69511,-0.0046 -10.6698,-0.07056 z m 19.15322,-1.202624 c 0,-0.07033 -2.81809,-4.774461 -2.85803,-4.770869 -0.0282,0.0023 -0.24243,0.148658 -0.47622,0.324741 -1.27518,0.960419 -2.60305,1.573967 -4.01195,1.853731 -0.52427,0.104041 -1.77274,0.104623 -2.30224,0.0011 -1.41086,-0.276032 -2.83361,-0.956388 -4.12066,-1.970445 -0.28027,-0.220815 -0.36344,-0.267383 -0.40214,-0.225127 -0.0508,0.05545 -2.82342,4.756012 -2.82342,4.786714 0,0.0094 3.8238,0.01756 8.49735,0.01756 4.67351,0 8.49731,-0.007 8.49731,-0.01732 z m -7.32154,-3.869956 c 1.16455,-0.267778 2.40571,-0.899297 3.52285,-1.79248 0.15541,-0.124234 0.28258,-0.246924 0.28258,-0.272626 0,-0.0257 -0.1543,-0.308267 -0.34285,-0.627881 -0.36484,-0.618406 -0.38652,-0.640574 -1.00738,-1.029774 -0.25348,-0.158888 -1.16787,-0.636088 -1.21886,-0.636088 -0.0105,0 -0.002,0.0608 0.0183,0.135116 0.0213,0.07441 0.0502,0.276821 0.0639,0.449986 0.0916,1.151323 -0.76678,2.303473 -1.91867,2.575064 -0.85001,0.200412 -1.70404,-0.0501 -2.33757,-0.685679 -0.56543,-0.567258 -0.81319,-1.267992 -0.71723,-2.02843 0.0263,-0.208806 0.0393,-0.388269 0.029,-0.398802 -0.0306,-0.03057 -0.67492,0.301688 -1.08675,0.560143 -0.71111,0.446289 -0.77124,0.505133 -1.12657,1.102744 -0.1787,0.300502 -0.31425,0.563583 -0.30123,0.584636 0.0536,0.08673 0.62424,0.524244 1.11502,0.854902 0.91325,0.61528 2.07166,1.114741 2.88709,1.244811 0.17266,0.02755 0.34219,0.05685 0.37672,0.06521 0.19124,0.04591 1.43174,-0.0251 1.76181,-0.100785 z m -0.65256,-2.512011 c 0.47774,-0.229125 0.70934,-0.599098 0.71063,-1.135235 5.2e-4,-0.251086 -0.0195,-0.353942 -0.10111,-0.513667 -0.48652,-0.953179 -1.77882,-0.953179 -2.26536,0 -0.14034,0.27494 -0.14255,0.735271 -0.005,1.036889 0.20387,0.446976 0.64728,0.732469 1.13765,0.732469 0.21365,0 0.32601,-0.02581 0.52323,-0.120456 z m -3.148,-3.099181 c 0.43929,-0.174512 1.1132,-0.361021 1.59924,-0.442605 0.55153,-0.09265 1.49425,-0.09219 2.072,5.23e-4 0.44275,0.07114 1.32054,0.31987 1.69393,0.479919 0.1109,0.04754 0.20861,0.07939 0.21722,0.07067 0.026,-0.02604 -2.91616,-4.988578 -2.95766,-4.988578 -0.0308,0 -2.97193,4.935906 -2.97193,4.987695 0,0.02685 0.0389,0.01476 0.3472,-0.107763 z m -6.78411,1.346528 0.012,-0.617419 1.24531,-0.01047 1.2453,-0.01047 v 0.628509 0.628508 h -1.2569 -1.25688 z m 16.31557,-0.01047 v -0.628508 l 1.24531,0.01047 1.24529,0.01046 0.012,0.617418 0.012,0.617419 h -1.25687 -1.25687 z m -15.41447,-3.225498 -1.87319,-1.25325 0.34532,-0.518851 c 0.18995,-0.285366 0.36418,-0.507761 0.38721,-0.494196 0.0566,0.03336 3.67919,2.444204 3.70034,2.462641 0.0136,0.01198 -0.66653,1.06887 -0.68191,1.059662 -0.002,-0.0011 -0.84752,-0.566721 -1.87777,-1.256006 z m 14.78446,0.732308 c -0.18993,-0.286751 -0.3378,-0.527932 -0.32858,-0.535964 0.0212,-0.01848 3.64358,-2.429207 3.70034,-2.462641 0.0231,-0.0136 0.19727,0.20883 0.38719,0.494196 l 0.34535,0.518863 -1.87947,1.253449 -1.8795,1.253447 z M 120.23608,61.07083 v -1.235197 h 0.62789 0.62787 v 1.234849 1.234824 h -0.62787 -0.62789 z m 10.0461,0 v -1.235197 h 0.62789 0.62787 v 1.234849 1.234824 h -0.62787 -0.62789 z"
           id="path4630" />
        <path
           id="path4690"
           d="m 91.521064,59.630089 c -3.200213,-0.218477 -10.327859,-0.217477 -13.523606,0 -3.460402,0.236276 -3.867965,2.326455 -3.89371,7.828259 0.02681,5.492004 0.429783,7.591147 3.89371,7.828236 3.196652,0.217465 10.323393,0.218465 13.523606,0 3.460367,-0.236275 3.867967,-2.326433 3.893705,-7.828236 -0.02681,-5.492038 -0.429772,-7.591182 -3.893705,-7.828259 z m -9.425681,11.380089 v -7.103695 l 7.10365,3.545623 z"
           style="opacity:1;fill:#ffffff;fill-opacity:1;stroke-width:0.887958" />
        <g
           id="g5617">
          <circle
             r="5.7756391"
             cy="60.117126"
             cx="91.797958"
             id="circle103"
             style="opacity:0.999;fill:#ff5555;fill-opacity:1;stroke:none;stroke-width:10.2405;stroke-miterlimit:4;stroke-dasharray:none;stroke-opacity:1;stop-color:#000000" />
          <g
             transform="matrix(0.98226335,0,0,0.98226335,-247.00529,-135.04929)"
             aria-label="3"
             id="text107"
             style="font-style:normal;font-variant:normal;font-weight:normal;font-stretch:normal;font-size:10.7276px;line-height:1.25;font-family:'Work Sans';-inkscape-font-specification:'Work Sans, @wght=560';font-variant-ligatures:normal;font-variant-caps:normal;font-variant-numeric:normal;font-variant-east-asian:normal;font-variation-settings:'wght' 560;mix-blend-mode:normal;fill:#ffffff;fill-opacity:1;stroke:none;stroke-width:0.26819">
            <path
               d="m 345.03816,202.39632 q -1.04057,0 -1.78078,-0.43983 -0.7402,-0.45056 -1.01912,-1.27658 l 1.27658,-0.57929 q 0.0858,0.38619 0.26819,0.65438 0.1931,0.26819 0.5042,0.39692 0.3111,0.12873 0.75093,0.12873 0.3862,0 0.65439,-0.12873 0.26819,-0.13946 0.40765,-0.38619 0.15018,-0.24674 0.15018,-0.56856 0,-0.33256 -0.12873,-0.54711 -0.12873,-0.21455 -0.39692,-0.3111 -0.25746,-0.10728 -0.65438,-0.10728 -0.12874,0 -0.26819,0.0107 -0.12874,0 -0.27892,0.0214 v -1.02985 q 0.0966,0.0107 0.18237,0.0107 0.0966,0 0.19309,0 0.63293,0 0.91185,-0.24673 0.27892,-0.25747 0.27892,-0.8153 0,-0.47201 -0.27892,-0.71875 -0.27892,-0.24673 -0.80457,-0.24673 -0.54711,0 -0.85821,0.25746 -0.30037,0.25746 -0.43983,0.77239 l -1.22295,-0.47202 q 0.15019,-0.52565 0.5042,-0.90112 0.36474,-0.37546 0.90112,-0.57929 0.53638,-0.20382 1.19076,-0.20382 0.77239,0 1.29804,0.24673 0.52566,0.24674 0.78312,0.67584 0.26819,0.42911 0.26819,0.97621 0,0.41838 -0.12873,0.72948 -0.12873,0.3111 -0.33256,0.52565 -0.20382,0.20383 -0.4291,0.32183 -0.22528,0.10728 -0.43983,0.13946 v 0.0215 q 0.26819,0.0107 0.52565,0.11801 0.26819,0.0965 0.48274,0.28964 0.21455,0.1931 0.34328,0.47202 0.12873,0.27891 0.12873,0.64365 0,0.64366 -0.33255,1.1264 -0.32183,0.48274 -0.90112,0.75093 -0.56856,0.26819 -1.30877,0.26819 z"
               style="font-style:normal;font-variant:normal;font-weight:normal;font-stretch:normal;font-size:10.7276px;font-family:'Work Sans';-inkscape-font-specification:'Work Sans, @wght=560';font-variant-ligatures:normal;font-variant-caps:normal;font-variant-numeric:normal;font-variant-east-asian:normal;font-variation-settings:'wght' 560;fill:#ffffff;fill-opacity:1;stroke-width:0.26819"
               id="path5605" />
          </g>
        </g>
        <path
           id="path4643"
           d="M 53.699988,104.85195 H 34.74208 c -0.650005,0 -1.176573,0.52655 -1.176573,1.17654 v 18.95881 c 0,0.6491 0.526568,1.17567 1.176573,1.17567 h 10.207072 v -8.25269 h -2.777516 v -3.2162 h 2.777516 v -2.37174 c 0,-2.75268 1.680918,-4.25156 4.137018,-4.25156 1.176535,0 2.187049,0.0878 2.481846,0.12687 v 2.87697 l -1.703099,7.8e-4 c -1.335513,0 -1.593899,0.63491 -1.593899,1.56547 v 2.05389 h 3.185108 l -0.414671,3.21618 h -2.770437 v 8.25188 h 5.430748 c 0.648224,0 1.174758,-0.52656 1.174758,-1.17652 v -18.95795 c 0,-0.64997 -0.526534,-1.17654 -1.176536,-1.17654 z"
           style="opacity:1;fill:#ffffff;fill-opacity:1;stroke-width:0.887958" />
        <g
           id="g5622">
          <circle
             style="opacity:0.999;fill:#ff5555;fill-opacity:1;stroke:none;stroke-width:10.2405;stroke-miterlimit:4;stroke-dasharray:none;stroke-opacity:1;stop-color:#000000"
             id="path1133"
             cx="51.329288"
             cy="107.82559"
             r="5.7756391" />
          <g
             style="font-style:normal;font-variant:normal;font-weight:normal;font-stretch:normal;font-size:10.5373px;line-height:1.25;font-family:'Work Sans';-inkscape-font-specification:'Work Sans, @wght=560';font-variant-ligatures:normal;font-variant-caps:normal;font-variant-numeric:normal;font-variant-east-asian:normal;font-variation-settings:'wght' 560;opacity:1;mix-blend-mode:normal;fill:#ffffff;fill-opacity:1;stroke:none;stroke-width:0.263433"
             id="text1137"
             aria-label="2">
            <path
               id="path5608"
               style="font-style:normal;font-variant:normal;font-weight:normal;font-stretch:normal;font-size:10.5373px;font-family:'Work Sans';-inkscape-font-specification:'Work Sans, @wght=560';font-variant-ligatures:normal;font-variant-caps:normal;font-variant-numeric:normal;font-variant-east-asian:normal;font-variation-settings:'wght' 560;fill:#ffffff;stroke-width:0.263433"
               d="m 49.031332,110.84052 v -0.91674 q 0.969431,-0.67439 1.633281,-1.20125 0.66385,-0.53741 1.074805,-0.99051 0.410955,-0.4531 0.590089,-0.85352 0.189671,-0.41096 0.189671,-0.83245 0,-0.50579 -0.316119,-0.83245 -0.316119,-0.32665 -0.885133,-0.32665 -0.611164,0 -0.969432,0.42149 -0.347731,0.41095 -0.400417,1.14857 l -1.138029,-0.46365 q 0.06322,-0.68492 0.389881,-1.18017 0.326656,-0.49526 0.885133,-0.75869 0.558477,-0.27397 1.296088,-0.27397 0.6217,0 1.074804,0.17914 0.463641,0.16859 0.769223,0.47417 0.316119,0.30559 0.474179,0.706 0.158059,0.40042 0.158059,0.84299 0,0.67438 -0.326656,1.28555 -0.326656,0.60062 -1.022118,1.21179 -0.695462,0.61116 -1.791341,1.29609 v 0.0211 q 0.147522,-0.0211 0.368805,-0.0211 0.231821,-0.0105 0.463641,-0.0105 0.231821,-0.0105 0.400418,-0.0105 h 2.023162 v 1.08534 z" />
          </g>
        </g>
        <path
           id="path4668"
           d="m 156.53561,125.74337 1.50513,-5.49858 c -0.92878,-1.60952 -1.41682,-3.43406 -1.41591,-5.30503 0.003,-5.84921 4.76252,-10.60911 10.61089,-10.60911 2.83808,9.9e-4 5.50217,1.10633 7.50605,3.112 2.00295,2.00564 3.10572,4.67154 3.10485,7.50693 -0.003,5.85015 -4.76256,10.61001 -10.6109,10.61001 -1.77551,-7.8e-4 -3.52507,-0.44608 -5.07483,-1.29191 z m 5.88579,-3.39659 c 1.49535,0.88777 2.92286,1.41951 4.81076,1.42038 4.86068,0 8.82025,-3.95599 8.82291,-8.81933 0.002,-4.8732 -3.93904,-8.82384 -8.8158,-8.82562 -4.86423,0 -8.82113,3.95599 -8.82291,8.81847 -9.9e-4,1.98514 0.58081,3.47152 1.55775,5.02661 l -0.89129,3.25474 z m 10.15944,-4.87495 c -0.0662,-0.11056 -0.24278,-0.17671 -0.50853,-0.30957 -0.26507,-0.13286 -1.56851,-0.77443 -1.81207,-0.86274 -0.24279,-0.0883 -0.41932,-0.13286 -0.59685,0.13287 -0.17669,0.26503 -0.68522,0.86273 -0.83959,1.03941 -0.15445,0.17669 -0.30955,0.19893 -0.57457,0.0662 -0.26505,-0.13286 -1.11969,-0.41221 -2.13233,-1.316 -0.78783,-0.70304 -1.32048,-1.57114 -1.47482,-1.83703 -0.15444,-0.26505 -0.0168,-0.40864 0.11601,-0.54065 0.11971,-0.1187 0.26505,-0.30956 0.39791,-0.46484 0.13454,-0.15343 0.17838,-0.26405 0.26774,-0.44164 0.0883,-0.1767 0.0445,-0.33182 -0.0236,-0.46484 -0.0671,-0.13219 -0.59689,-1.43733 -0.81729,-1.96819 -0.21582,-0.51657 -0.4345,-0.447 -0.59687,-0.45503 l -0.50855,-0.0105 c -0.17668,0 -0.46395,0.0662 -0.70659,0.33181 -0.2428,0.26571 -0.92792,0.90645 -0.92792,2.21177 0,1.30528 0.95019,2.56593 1.08224,2.74262 0.13286,0.17666 1.86915,2.85501 4.52877,4.00325 0.63257,0.27313 1.12685,0.43631 1.5114,0.55852 0.63524,0.20166 1.21338,0.17298 1.6702,0.1052 0.50942,-0.0757 1.56845,-0.64147 1.78974,-1.26066 0.22121,-0.62009 0.22121,-1.15092 0.15443,-1.26155 z"
           style="opacity:1;fill:#ffffff;fill-opacity:1;stroke-width:0.892197" />
        <g
           id="g5627">
          <circle
             r="5.7756391"
             cy="108.19685"
             cx="174.12756"
             id="circle81"
             style="opacity:0.999;fill:#ff5555;fill-opacity:1;stroke:none;stroke-width:10.2405;stroke-miterlimit:4;stroke-dasharray:none;stroke-opacity:1;stop-color:#000000" />
          <g
             style="font-style:normal;font-variant:normal;font-weight:normal;font-stretch:normal;font-size:10.5373px;line-height:1.25;font-family:'Work Sans';-inkscape-font-specification:'Work Sans, @wght=560';font-variant-ligatures:normal;font-variant-caps:normal;font-variant-numeric:normal;font-variant-east-asian:normal;font-variation-settings:'wght' 560;opacity:1;mix-blend-mode:normal;fill:#ffffff;fill-opacity:1;stroke:none;stroke-width:0.263433"
             id="text85"
             aria-label="1">
            <path
               id="path5602"
               style="font-style:normal;font-variant:normal;font-weight:normal;font-stretch:normal;font-size:10.5373px;font-family:'Work Sans';-inkscape-font-specification:'Work Sans, @wght=560';font-variant-ligatures:normal;font-variant-caps:normal;font-variant-numeric:normal;font-variant-east-asian:normal;font-variation-settings:'wght' 560;fill:#ffffff;stroke-width:0.263433"
               d="m 173.95301,111.47431 v -4.55211 q 0,-0.23182 0,-0.47418 0,-0.2529 0.0105,-0.50579 -0.34773,0.32666 -0.80084,0.57955 -0.4531,0.24236 -0.92728,0.33719 l -0.18967,-1.12749 q 0.22128,-0.0211 0.52686,-0.13698 0.30559,-0.12645 0.61117,-0.29505 0.31612,-0.17913 0.56901,-0.37934 0.26343,-0.20021 0.40042,-0.40042 h 1.08534 v 6.95462 z" />
          </g>
        </g>
        <text
           id="text91"
           y="103.05838"
           x="186.52228"
           style="font-style:normal;font-weight:normal;font-size:10.3956px;line-height:1.25;font-family:sans-serif;fill:#000000;fill-opacity:1;stroke:none;stroke-width:0.25989"
           xml:space="preserve"><tspan
             style="stroke-width:0.25989"
             y="103.05838"
             x="186.52228"
             id="tspan89"
             sodipodi:role="line" /></text>
        <path
           id="path4632"
           d="m 43.94688,58.187715 c 2.864819,0 3.204595,0.01047 4.336602,0.06243 2.907737,0.132477 4.265942,1.511997 4.398274,4.398282 0.05206,1.131095 0.06188,1.470855 0.06188,4.335715 0,2.865732 -0.01013,3.204619 -0.06188,4.335693 -0.133148,2.883645 -1.487826,4.265966 -4.398274,4.398315 -1.132007,0.05208 -1.469985,0.06243 -4.336602,0.06243 -2.864852,0 -3.204625,-0.01047 -4.33572,-0.06243 -2.914905,-0.133162 -4.265941,-1.519169 -4.398281,-4.399198 -0.05206,-1.131098 -0.06256,-1.469985 -0.06256,-4.335717 0,-2.864825 0.01013,-3.203713 0.06256,-4.335691 0.133155,-2.885402 1.487834,-4.26598 4.398281,-4.398317 1.132007,-0.05103 1.470868,-0.06149 4.33572,-0.06149 z m 0,-1.93406 c -2.914022,0 -3.278836,0.01361 -4.423348,0.06428 -3.896669,0.178766 -6.062283,2.340871 -6.241124,6.241154 -0.05274,1.145397 -0.06522,1.510206 -0.06522,4.424205 0,2.914021 0.01355,3.27975 0.06425,4.424228 0.178771,3.896703 2.340869,6.062317 6.241114,6.24112 1.145399,0.05209 1.510211,0.06452 4.42423,0.06452 2.913995,0 3.279721,-0.0136 4.424235,-0.06452 3.89308,-0.178779 6.06407,-2.340848 6.240208,-6.24112 0.05274,-1.144478 0.06522,-1.510207 0.06522,-4.424228 0,-2.913999 -0.01357,-3.278808 -0.06425,-4.423321 -0.175392,-3.893076 -2.339996,-6.062283 -6.240241,-6.241119 -1.145398,-0.05277 -1.511112,-0.06521 -4.425105,-0.06521 z m 0,5.220028 c -3.042777,0 -5.509741,2.466954 -5.509741,5.509709 0,3.042778 2.466964,5.510615 5.509741,5.510615 3.042746,0 5.50971,-2.46693 5.50971,-5.510615 0,-3.042755 -2.466964,-5.509709 -5.50971,-5.509709 z m 0,9.0863 c -1.975184,0 -3.576598,-1.600531 -3.576598,-3.576591 0,-1.975153 1.601414,-3.576567 3.576598,-3.576567 1.975145,0 3.576568,1.601414 3.576568,3.576567 0,1.97606 -1.601423,3.576591 -3.576568,3.576591 z m 5.727883,-10.591135 c -0.71174,0 -1.288475,0.576697 -1.288475,1.287567 0,0.710825 0.576735,1.287568 1.288475,1.287568 0.710834,0 1.286655,-0.576743 1.286655,-1.287568 0,-0.71087 -0.575821,-1.287567 -1.286655,-1.287567 z"
           style="opacity:1;fill:#ffffff;fill-opacity:0.991936;stroke:none;stroke-width:0.894143" />
        <path
           id="path4679"
           d="m 96.080997,156.96745 c -0.784071,0.34806 -1.626744,0.58247 -2.511139,0.68815 0.903046,-0.54076 1.596543,-1.39765 1.922421,-2.41881 -0.844454,0.50083 -1.780362,0.86489 -2.776643,1.06112 -0.796489,-0.84979 -1.93397,-1.38079 -3.191315,-1.38079 -2.82282,0 -4.897104,2.63371 -4.259556,5.36773 -3.632635,-0.1819 -6.854155,-1.92241 -9.011,-4.56766 -1.145464,1.96503 -0.594063,4.53568 1.352361,5.83741 -0.715714,-0.0235 -1.390548,-0.21914 -1.979279,-0.54696 -0.04803,2.02543 1.40388,3.92032 3.506553,4.34213 -0.61533,0.16676 -1.289301,0.20605 -1.974813,0.0745 0.555875,1.73683 2.170175,3.00037 4.084607,3.03593 -1.838082,1.44115 -4.153875,2.0849 -6.473217,1.81143 1.934875,1.24047 4.233784,1.96415 6.702299,1.96415 8.117758,0 12.704053,-6.85593 12.427015,-13.00504 0.854216,-0.61715 1.595641,-1.38699 2.181706,-2.26341 z"
           style="opacity:1;fill:#ffffff;fill-opacity:1;stroke-width:0.887958" />
        <path
           id="path4657"
           d="m 128.07982,118.31026 c 0.0756,0.0744 0.0756,0.19632 0,0.27183 -0.41288,0.41022 -1.06021,0.61004 -1.981,0.61004 l -0.007,-0.002 -0.007,0.002 c -0.91995,0 -1.56818,-0.19969 -1.98106,-0.61095 -0.0755,-0.0744 -0.0755,-0.19633 0,-0.27082 0.0744,-0.0745 0.19699,-0.0745 0.27251,0 0.33654,0.33492 0.89506,0.49816 1.70844,0.49816 l 0.007,0.002 0.007,-0.002 c 0.81246,0 1.37098,-0.16343 1.70839,-0.49816 0.0756,-0.0745 0.19803,-0.0745 0.27254,0 z m -3.05455,-2.14709 c 0,-0.45017 -0.36761,-0.81603 -0.81871,-0.81603 -0.45195,0 -0.81958,0.36586 -0.81958,0.81603 0,0.44932 0.36763,0.81516 0.81958,0.81516 0.4511,7.9e-4 0.81871,-0.36494 0.81871,-0.81516 z m 11.72282,-0.82579 c 0,5.88451 -4.771,10.65551 -10.65553,10.65551 -5.88448,0 -10.6555,-4.771 -10.6555,-10.65551 0,-5.88449 4.77102,-10.65551 10.6555,-10.65551 5.88453,0 10.65553,4.77102 10.65553,10.65551 z m -4.43979,-0.11439 c 0,-0.75567 -0.61714,-1.37013 -1.37634,-1.37013 -0.37028,0 -0.70593,0.14835 -0.95368,0.38627 -0.93767,-0.61716 -2.20657,-1.00961 -3.61041,-1.06023 l 0.76806,-2.41882 2.0805,0.48751 -0.003,0.0302 c 0,0.61803 0.50526,1.12059 1.12596,1.12059 0.62067,0 1.12502,-0.50256 1.12502,-1.12059 0,-0.61801 -0.50435,-1.12061 -1.12502,-1.12061 -0.47682,0 -0.88264,0.29734 -1.04692,0.71394 l -2.24208,-0.5257 c -0.0977,-0.0235 -0.19802,0.0336 -0.22822,0.12887 l -0.85688,2.6976 c -1.47044,0.0168 -2.80149,0.4138 -3.78093,1.04866 -0.246,-0.22652 -0.57185,-0.36849 -0.93236,-0.36849 -0.7583,0.001 -1.37544,0.61538 -1.37544,1.37103 0,0.50257 0.27621,0.93769 0.68195,1.17654 -0.0268,0.14565 -0.0442,0.29398 -0.0442,0.44397 0,2.02545 2.49075,3.67348 5.55241,3.67348 3.06167,0 5.5524,-1.64803 5.5524,-3.67348 0,-0.14196 -0.0167,-0.28158 -0.0389,-0.4191 0.43154,-0.23191 0.72812,-0.68018 0.72812,-1.20141 z m -4.32612,0.12518 c -0.45201,0 -0.81873,0.36583 -0.81873,0.81606 0,0.4493 0.36763,0.81513 0.81873,0.81513 0.45107,0 0.81868,-0.36583 0.81868,-0.81513 0,-0.45023 -0.36672,-0.81606 -0.81868,-0.81606 z"
           style="opacity:1;fill:#ffffff;fill-opacity:1;stroke-width:0.887958" />
        <path
           style="opacity:1;fill:#ffffff;fill-opacity:1;stroke-width:0.0881907"
           d="m 163.95991,173.86948 c -1.4205,-0.22819 -2.46818,-0.77268 -3.53177,-1.83548 -0.63944,-0.63898 -0.8791,-0.95551 -1.2072,-1.59452 -0.90802,-1.76836 -1.06924,-3.66947 -0.47112,-5.55546 0.81957,-2.58422 3.20446,-4.31256 6.33452,-4.59061 l 0.68348,-0.0607 v 1.77875 c 0,1.3474 -0.0267,1.7864 -0.11021,1.81026 -0.0605,0.0174 -0.46406,0.11661 -0.89654,0.2206 -1.49812,0.36025 -2.51845,1.09879 -2.83507,2.05205 -0.22498,0.67738 -0.14435,1.82222 0.17171,2.43828 0.48207,0.93961 1.39602,1.59334 2.49927,1.78768 1.25585,0.2212 2.4612,-0.40099 3.05732,-1.57818 0.53338,-1.05332 0.51307,-0.69505 0.49706,-8.77172 l -0.0147,-7.38598 h 1.7637 1.76371 l 0.10008,0.5071 c 0.37985,1.9235 1.28812,3.26373 2.67393,3.94565 0.58779,0.28922 1.59863,0.569 2.06877,0.5726 l 0.20034,0.002 -0.0239,1.69767 -0.0239,1.69767 -0.74961,-0.0131 c -1.1351,-0.0197 -2.39555,-0.41123 -3.60359,-1.11926 l -0.52586,-0.30819 -0.041,3.8951 c -0.0435,4.12207 -0.0592,4.29643 -0.51074,5.62608 -0.76151,2.24295 -2.67007,4.07035 -4.82098,4.61602 -0.57024,0.14465 -1.98397,0.24062 -2.44758,0.16615 z"
           id="path4715" />
      </g>
    </g>
  </g>
</svg>
