<?xml version="1.0" encoding="UTF-8" standalone="no"?>
<svg
   xmlns:dc="http://purl.org/dc/elements/1.1/"
   xmlns:cc="http://creativecommons.org/ns#"
   xmlns:rdf="http://www.w3.org/1999/02/22-rdf-syntax-ns#"
   xmlns:svg="http://www.w3.org/2000/svg"
   xmlns="http://www.w3.org/2000/svg"
   xmlns:sodipodi="http://sodipodi.sourceforge.net/DTD/sodipodi-0.dtd"
   xmlns:inkscape="http://www.inkscape.org/namespaces/inkscape"
   inkscape:version="1.0 (4035a4fb49, 2020-05-01)"
   sodipodi:docname="Viral-Map.svg"
   viewBox="0 0 1133.8533 1133.8533"
   height="1133.8533"
   width="1133.8533"
   xml:space="preserve"
   id="svg2"
   version="1.1"><metadata
     id="metadata8"><rdf:RDF><cc:Work
         rdf:about=""><dc:format>image/svg+xml</dc:format><dc:type
           rdf:resource="http://purl.org/dc/dcmitype/StillImage" /><dc:title></dc:title></cc:Work></rdf:RDF></metadata><defs
     id="defs6" /><sodipodi:namedview
     inkscape:current-layer="g10"
     inkscape:window-maximized="1"
     inkscape:window-y="-8"
     inkscape:window-x="-8"
     inkscape:cy="479.721"
     inkscape:cx="517.39172"
     inkscape:zoom="0.70719829"
     showgrid="false"
     id="namedview4"
     inkscape:window-height="1027"
     inkscape:window-width="1920"
     inkscape:pageshadow="2"
     inkscape:pageopacity="0"
     guidetolerance="10"
     gridtolerance="10"
     objecttolerance="10"
     borderopacity="1"
     bordercolor="#666666"
     pagecolor="#ffffff" /><g
     transform="matrix(1.3333333,0,0,-1.3333333,0,1133.8533)"
     inkscape:label="ink_ext_XXXXXX"
     inkscape:groupmode="layer"
     id="g10"><g
       transform="scale(0.1)"
       id="g12"><path
         id="path14"
         style="fill:#dfdfdf;fill-opacity:1;fill-rule:nonzero;stroke:none"
         d="M 8503.9,0 H 0 V 8503.9 H 8503.9 V 0" /><path
         id="path16"
         style="fill:#f1dfc7;fill-opacity:1;fill-rule:nonzero;stroke:none"
         d="m 5400,4473.9 -43.61,54.43 -41.39,170.57 v 1266.8 l -1400,-36.8 v -1505 h 295 v -1705 -1496.25 l 1119.38,-179.43 v 3282.5 l 101.31,74.3 -30.69,73.88" /><path
         id="path18"
         style="fill:#f1dfc7;fill-opacity:1;fill-rule:nonzero;stroke:none"
         d="m 1805.32,6293.72 4.68,100.18 -81.53,35.13 -45.64,-30.35 -15.73,-61.31 -337.43,115.78 v 282.94 L 1187.46,6908.97 839.961,7235.89 665.84,6991.8 1295,6208.9 c 0,0 535,-725 550,-750 15,-25 300,-760 300,-760 l 475,-5 4.17,1379.16 -818.85,220.66" /><path
         id="path20"
         style="fill:#f1dfc7;fill-opacity:1;fill-rule:nonzero;stroke:none"
         d="M 6933.91,3727.08 V 2715.36 l 475.05,11.67 17.23,1003.38 -492.28,-3.33" /><path
         id="path22"
         style="fill:#f1dfc7;fill-opacity:1;fill-rule:nonzero;stroke:none"
         d="m 5320,5218.9 2105,-655 -25,-135 -470,-10 5,170 -525,20 v 115 l -775,-15 -5,385 -310,5 v 120" /><path
         id="path24"
         style="fill:#f1dfc7;fill-opacity:1;fill-rule:nonzero;stroke:none"
         d="m 5320,5503.9 315,5 v -185 l 470,-125 v -90 l 300,-5 5,-120 520,-15 -5,135 490,-5 -15,-595 -1695,530 -75,60 -310,125 v 285" /><path
         id="path26"
         style="fill:#f1dfc7;fill-opacity:1;fill-rule:nonzero;stroke:none"
         d="m 5323.74,1416.09 1091.16,-181.17 -12.35,-378.818 -1073.17,187.118 -5.64,372.87" /><path
         id="path28"
         style="fill:#f1dfc7;fill-opacity:1;fill-rule:nonzero;stroke:none"
         d="m 4211.99,1597.27 -601.17,86.46 4.12,284.12 -477.64,4.12 -4.12,370.58 -436.47,-4.12 -41.17,403.53 h -345.88 c 0,0 -61.76,-226.47 -57.65,-238.82 4.12,-12.36 403.53,-1058.22 415.88,-1062.35 12.35,-4.11 1601.75,-341.75 1601.75,-341.75 l 24.71,378.82 -82.36,119.41" /><path
         id="path30"
         style="fill:#f1dfc7;fill-opacity:1;fill-rule:nonzero;stroke:none"
         d="m 3280,7753.9 20,-1270 300,10 v 1250 l -320,10" /><path
         id="path32"
         style="fill:#f1dfc7;fill-opacity:1;fill-rule:nonzero;stroke:none"
         d="m 2073.3,1357.2 -273.68,-174.16 18.66,-416.751 279.9,-111.957 441.62,-6.223 12.45,665.551 -478.95,43.54" /><path
         id="path34"
         style="fill:#f1dfc7;fill-opacity:1;fill-rule:nonzero;stroke:none"
         d="m 2230.18,4072.68 1102.16,-7.42 263.49,-3.71 V 3044.73 l -1354.52,3.71 -11.13,1024.24" /><path
         id="path36"
         style="fill:#cbe6a3;fill-opacity:1;fill-rule:nonzero;stroke:none"
         d="m 3571.11,6579.82 -5.67,-7.57 c 11.58,4.8 24.62,7.57 38.47,7.57 41.59,0 76.24,-24.4 84.06,-56.76 l 3628.7,296.25 c 0,29.99 22.72,55.55 54.74,65.79 l 31,37.28 15.14,1581.52 H 3603.91 V 6643.8 l -32.8,-63.98" /><path
         id="path38"
         style="fill:#cbe6a3;fill-opacity:1;fill-rule:nonzero;stroke:none"
         d="m 883.336,4361.43 c 164.754,67.17 386.664,69.14 386.664,69.14 0,0 -103.33,-400 -53.18,-729.54 50.16,-329.54 239.85,-972.14 239.85,-972.14 0,0 -353.48,22.18 -348.34,0 32.99,-142.13 26.88,-344.88 54.55,-473.1 26.66,-123.6 68.35,-211.02 88.79,-318.56 C 835,1472.23 995.297,1262.29 1001.14,1237 c 26.3,-113.95 282.19,-166.44 282.19,-166.44 l 12.72,-753.298 799.03,6.64 1.25,324.188 c 0,0 -13.8,140.25 -41.95,206.223 C 2026.22,920.281 1895,1119.82 1895,1119.82 l 161.49,178.71 c 0,0 153.07,-148.12 233.63,-209.48 80.56,-61.37 261.38,-167.609 261.38,-167.609 l 376.69,-164.621 334.13,-94.949 341.59,-61.84 0.03,218.871 c 0,0 -489.87,205.348 -578.2,237.628 -88.33,32.26 -1060.08,1003.61 -1060.08,1003.61 l -238.6,730.74 -4.67,1050.48 c 0,0 10.5,585.66 0,585.66 -10.5,0 -150.1,604.27 -150.1,604.27 L 1115.65,5689.76 793.363,5938.69 0,6978.22 v -3660.3 l 592.836,836.56 c 0,0 125.75,139.79 290.5,206.95" /><path
         id="path40"
         style="fill:#cbe6a3;fill-opacity:1;fill-rule:nonzero;stroke:none"
         d="m 6414.46,873.609 -1085.08,182.921 -995.91,161.59 -729.56,155.78 c 0,0 -208.78,70.53 -425.59,149.52 -216.82,79.01 -419.84,262.81 -419.84,262.81 0,0 -389.46,278.09 -445.11,947.44 -16.89,203.23 -15.02,386.09 -13.96,584.19 v 0 212.25 c -2.11,244.58 -14.2,525.52 -65.99,896.91 -65.56,470.17 -183.01,825.3 -401.49,1169.06 C 1664.87,5858.92 920.77,6708.06 372.672,7318.03 L 360,7303.9 26.6641,7650.57 l 19.9687,27.6 C 30.5352,7695.79 14.9961,7712.77 0,7729.14 v -248.49 c 315.16,-448.91 1838.94,-2618.54 1853.34,-2623.34 16.06,-5.36 190.03,-888.67 190.03,-888.67 l 52.98,-1623.43 300.11,-558.98 383.02,-352.7 647.77,-403.92 792.97,-84.52 601.59,-20.449 L 6506.97,661.871 8503.9,318.34 V 462.672 L 6414.46,873.609" /><path
         id="path42"
         style="fill:#cbe6a3;fill-opacity:1;fill-rule:nonzero;stroke:none"
         d="m 4220.22,4062.66 h -308.15 v -332.25 h 308.15 v 332.25" /><path
         id="path44"
         style="fill:#cbe6a3;fill-opacity:1;fill-rule:nonzero;stroke:none"
         d="M 6933.91,3727.08 H 5637.54 v -409.22 h 1296.37 v 409.22" /><path
         id="path46"
         style="fill:#cbe6a3;fill-opacity:1;fill-rule:nonzero;stroke:none"
         d="m 4608.68,2345.21 h 332.25 v 388.46 h -332.25 v -388.46" /><path
         id="path48"
         style="fill:#cbe6a3;fill-opacity:1;fill-rule:nonzero;stroke:none"
         d="m 6933.91,5508.29 h -519.45 v -408.74 h 519.45 v 408.74" /><path
         id="path50"
         style="fill:#cbe6a3;fill-opacity:1;fill-rule:nonzero;stroke:none"
         d="M 3338.57,3730.41 H 2299.41 v -200.3 c 0.63,-73.54 0.37,-143.81 0,-212.25 h 1039.16 v 412.55" /><path
         id="path52"
         style="fill:#cbe6a3;fill-opacity:1;fill-rule:nonzero;stroke:none"
         d="m 2299.41,3530.11 v -212.25 c 0.37,68.44 0.63,138.71 0,212.25" /><path
         id="path54"
         style="fill:#cbe6a3;fill-opacity:1;fill-rule:nonzero;stroke:none"
         d="m 4608.68,5099.55 h -388.46 v -388.46 h 388.46 v 388.46" /><path
         id="path56"
         style="fill:#cbe6a3;fill-opacity:1;fill-rule:nonzero;stroke:none"
         d="m 5329.38,578.902 -476.26,235 -623.66,-103.433 -625.52,53.402 -0.03,-163.84 L 4251.95,477.129 5637.54,231.191 6871.33,0 H 7725 L 5870,353.59 5329.38,578.902" /><path
         id="path58"
         style="fill:#cbe6a3;fill-opacity:1;fill-rule:nonzero;stroke:none"
         d="m 7402.41,6748.68 c 47.36,0 85.74,31.62 85.74,70.63 0,39.01 -38.38,70.63 -85.74,70.63 -10.95,0 -21.37,-1.75 -31,-4.84 l -54.74,-65.79 c 0,-39.01 38.39,-70.63 85.74,-70.63" /><path
         id="path60"
         style="fill:#cbe6a3;fill-opacity:1;fill-rule:nonzero;stroke:none"
         d="m 7316.67,6819.31 54.74,65.79 c -32.02,-10.24 -54.74,-35.8 -54.74,-65.79" /><path
         id="path62"
         style="fill:#cbe6a3;fill-opacity:1;fill-rule:nonzero;stroke:none"
         d="m 3518.16,6509.19 47.28,63.06 c -28.01,-11.62 -47.28,-35.46 -47.28,-63.06" /><path
         id="path64"
         style="fill:#cbe6a3;fill-opacity:1;fill-rule:nonzero;stroke:none"
         d="m 3603.91,6438.56 c 47.35,0 85.74,31.62 85.74,70.63 0,4.75 -0.59,9.38 -1.68,13.87 l -169.81,-13.87 c 0,-39.01 38.39,-70.63 85.75,-70.63" /><path
         id="path66"
         style="fill:#cbe6a3;fill-opacity:1;fill-rule:nonzero;stroke:none"
         d="m 3603.91,6579.82 c -13.85,0 -26.89,-2.77 -38.47,-7.57 l -47.28,-63.06 169.81,13.87 c -7.82,32.36 -42.47,56.76 -84.06,56.76" /><path
         id="path68"
         style="fill:#cbe6a3;fill-opacity:1;fill-rule:nonzero;stroke:none"
         d="m 7843.33,6193.9 -153.33,3.33 -6.67,-260 161.81,-3.14 -1.81,259.81" /><path
         id="path70"
         style="fill:#cbe6a3;fill-opacity:1;fill-rule:nonzero;stroke:none"
         d="m 8026.67,5713.9 v 216.67 l -181.53,3.52 1.53,-220.19 h 180" /><path
         id="path72"
         style="fill:#cbe6a3;fill-opacity:1;fill-rule:nonzero;stroke:none"
         d="M 220,7883.9 140,7807.23 46.6328,7678.17 C 140.203,7575.71 251.672,7452.69 372.672,7318.03 L 563.336,7530.57 220,7883.9" /><path
         id="path74"
         style="fill:#cbe6a3;fill-opacity:1;fill-rule:nonzero;stroke:none"
         d="M 26.6641,7650.57 360,7303.9 l 12.672,14.13 c -121,134.66 -232.469,257.68 -326.0392,360.14 l -19.9687,-27.6" /><path
         id="path76"
         style="fill:#cbe6a3;fill-opacity:1;fill-rule:nonzero;stroke:none"
         d="m 763.215,405.691 c -45.172,0 -81.789,-36.621 -81.789,-81.789 0,-45.172 36.617,-81.793 81.789,-81.793 45.168,0 81.785,36.621 81.785,81.793 0,45.168 -36.617,81.789 -81.785,81.789" /><path
         id="path78"
         style="fill:#dfdfdf;fill-opacity:1;fill-rule:nonzero;stroke:none"
         d="m 4940,4063.9 h 700 v 653.33 H 4940 V 4063.9" /><path
         id="path80"
         style="fill:#dfdfdf;fill-opacity:1;fill-rule:nonzero;stroke:none"
         d="M 3603.94,854.313 3602.95,600.582 4286.66,472.383 4285.1,150.531 6020,160.563 6836.67,7.23047 6858.09,0 h 607.45 l 21.98,45.2695 -3883.58,809.0435" /><path
         id="path82"
         style="fill:#dfdfdf;fill-opacity:1;fill-rule:nonzero;stroke:none"
         d="M 7506.67,617.23 7496.59,657.52 6410,863.902 6409.59,747.531 6686.67,510.57 8503.9,156.57 V 386.652 L 7506.67,617.23" /><path
         id="path84"
         style="fill:#dfdfdf;fill-opacity:1;fill-rule:nonzero;stroke:none"
         d="m 6426.67,1970.57 -320,-6.67 v -273.33 h 320 v 280" /><path
         id="path86"
         style="fill:#dfdfdf;fill-opacity:1;fill-rule:nonzero;stroke:none"
         d="M 8503.9,1004.65 8055,988.902 8046.45,1026.21 7420,963.902 7496.59,657.52 8503.9,466.211 v 538.439" /><path
         id="path88"
         style="fill:#dfdfdf;fill-opacity:1;fill-rule:nonzero;stroke:none"
         d="m 7496.59,657.52 10.08,-40.29 997.23,-230.578 v 79.559 L 7496.59,657.52" /><path
         id="path90"
         style="fill:#dfdfdf;fill-opacity:1;fill-rule:nonzero;stroke:none"
         d="m 8195,1708.9 h -105 l 42.5,-157.5 h 47.5 l 17.5,-50 H 8150 l 67.5,-262.5 286.4,8.28 v 641.88 l -348.9,-5.16 40,-175" /><path
         id="path92"
         style="fill:#dfdfdf;fill-opacity:1;fill-rule:nonzero;stroke:none"
         d="m 8503.9,1244.02 -23.9,-5.12 -480,-10 46.45,-202.69 457.45,45.5 v 172.31" /><path
         id="path94"
         style="fill:#dfdfdf;fill-opacity:1;fill-rule:nonzero;stroke:none"
         d="m 8503.9,1004.65 v 67.06 l -457.45,-45.5 8.55,-37.308 448.9,15.748" /><path
         id="path96"
         style="fill:#dfdfdf;fill-opacity:1;fill-rule:nonzero;stroke:none"
         d="m 7405,3683.9 385,-1580 713.9,4.33 v 2117.4 L 7410,4568.9 l -5,-885" /><path
         id="path98"
         style="fill:#dfdfdf;fill-opacity:1;fill-rule:nonzero;stroke:none"
         d="m 3130,1558.9 80,-55 c 0,0 345,-120 395,-130 0,90 5,965 5,965 l -480,5 v -785" /><path
         id="path100"
         style="fill:#dfdfdf;fill-opacity:1;fill-rule:nonzero;stroke:none"
         d="m 3335,3733.9 10,-410 h 265 l -10,395 -265,15" /><path
         id="path102"
         style="fill:#dfdfdf;fill-opacity:1;fill-rule:nonzero;stroke:none"
         d="m 871.422,7212.98 -335.84,-342.07 279.43,-315.9 372.448,353.96 -316.038,304.01" /><path
         id="path104"
         style="fill:#dfdfdf;fill-opacity:1;fill-rule:nonzero;stroke:none"
         d="m 601.25,5190.77 c -84.398,0 -152.828,-76.21 -152.828,-170.2 0,-94 68.43,-170.21 152.828,-170.21 84.402,0 152.832,76.21 152.832,170.21 0,93.99 -68.43,170.2 -152.832,170.2" /><path
         id="path106"
         style="fill:#dfdfdf;fill-opacity:1;fill-rule:nonzero;stroke:none"
         d="m 1310,1591.13 c -99.41,0 -180,-80.6 -180,-180 0,-99.41 80.59,-180 180,-180 99.41,0 180,80.59 180,180 0,99.4 -80.59,180 -180,180" /><path
         id="path108"
         style="fill:#dfdfdf;fill-opacity:1;fill-rule:nonzero;stroke:none"
         d="m 4233.29,5560.52 -9.33,-55.97 170.56,4 71.96,-25.31 141.25,-49.31 v 77.29 l -187.89,-5.33 -186.55,54.63" /><path
         id="path110"
         style="fill:#dfdfdf;fill-opacity:1;fill-rule:nonzero;stroke:none"
         d="m 5636.67,6667.23 3.33,-370 460,-10 16.67,426.67 -480,-46.67" /><path
         id="path112"
         style="fill:#dfdfdf;fill-opacity:1;fill-rule:nonzero;stroke:none"
         d="m 8016.67,6200.57 -170,-10 -3.34,-250 0.05,-3.08 183.29,-3.59 -10,266.67" /><path
         id="path114"
         style="fill:#dfdfdf;fill-opacity:1;fill-rule:nonzero;stroke:none"
         d="m 7843.38,5937.49 -156.71,3.08 -6.67,-230 166.67,6.66 -3.29,220.26" /><path
         id="path116"
         style="fill:#dfdfdf;fill-opacity:1;fill-rule:nonzero;stroke:none"
         d="m 2296.04,3323.9 v 406.51 h -297.71 v -747.2 h 297.71 v 340.29 l -0.01,0.4 h 0.01" /><path
         id="path118"
         style="fill:#dfdfdf;fill-opacity:1;fill-rule:nonzero;stroke:none"
         d="m 3603.91,6429.03 -57.24,34.87 -20.72,45.93 34.05,55.17 48.43,26.02 v 327.49 l -318.19,77.68 V 5848.7 l 313.67,-111.47 v 691.8" /><path
         id="path120"
         style="fill:#dfdfdf;fill-opacity:1;fill-rule:nonzero;stroke:none"
         d="m 2296.04,3323.9 v -0.4 l 3.37,-277.39 341.35,3.75 -24.15,274.04 h -320.57" /><path
         id="path122"
         style="fill:#dfdfdf;fill-opacity:1;fill-rule:nonzero;stroke:none"
         d="m 2296.03,3323.9 0.01,-0.4 v 0.4 z" /><path
         id="path124"
         style="fill:#dfdfdf;fill-opacity:1;fill-rule:nonzero;stroke:none"
         d="m 1615.34,6369.45 -257.26,88.94 -0.78,98.81 h 380.61 v -73.3 l -5.08,-34.48 -89.43,-88.68 23.7,-7.36 15.73,45.3 61.64,30.36 V 8503.9 h -400.89 l 2.09,-2050.75 269.67,-83.7" /><path
         id="path126"
         style="fill:#dfdfdf;fill-opacity:1;fill-rule:nonzero;stroke:none"
         d="m 1642.66,6360 0.74,0.74 -28.06,8.71 z" /><path
         sodipodi:nodetypes="ccccc"
         id="path128"
         style="fill:#a2cdfe;fill-opacity:1;fill-rule:nonzero;stroke:none"
         d="m 2193.97,3288.9 c -0.2,9.12 -0.38,18.89 -0.52,29.37 h -134.7 v -29.37 h 135.22" /><path
         sodipodi:nodetypes="ccccc"
         id="path130"
         style="fill:#a2cdfe;fill-opacity:1;fill-rule:nonzero;stroke:none"
         d="m 2193.22,3352.02 c -0.01,9.33 0.03,19.12 0.14,29.38 h -134.61 v -29.38 h 134.47" /><path
         id="path132"
         style="fill:#a2cdfe;fill-opacity:1;fill-rule:nonzero;stroke:none"
         d="m 4624.48,536.219 106.67,-21.457 18.9,85.418 -105.62,21.34 -19.95,-85.301" /><path
         id="path134"
         style="fill:#a2cdfe;fill-opacity:1;fill-rule:nonzero;stroke:none"
         d="m 4768.58,507.242 106.39,-21.301 17.65,85.43 -105.79,21.379 -18.25,-85.508" /><path
         sodipodi:nodetypes="ccccccccccsccccccccccccccccccccccccccccccccccccccccccsscccccccccccccccssccccccccccccccccccccccccccccsccccccccscccscsccccscc"
         id="path136"
         style="fill:#a2cdfe;fill-opacity:1;fill-rule:nonzero;stroke:none"
         d="m 2058.75,3823.08 h 10 v -272.47 c 27.23,33.88 108.35,134.87 117.74,147.1 9.34,12.15 9.22,22.72 9.14,30.45 l -0.01,2.27 c 0.85,187.94 -5.61,300.33 -45.58,595.3 -0.94,7 -10,17.97 -17.99,27.65 -9.72,11.77 -18.9,22.9 -20.3,32.8 -3.68,25.86 -5,34.38 -8.11,54.39 l -2.33,15.06 c -1.96,12.67 4.36,31.49 11.06,51.42 6.17,18.39 12.56,37.41 10.74,47.94 -49.8,287.6 -128.56,541.67 -234.1,755.14 -165.37,334.51 -622.51,871.42 -1003.498,1302.97 l -70.793,-65.15 -23.703,25.75 71.312,65.62 -14.359,16.24 -70.75,-65.11 -23.703,25.75 71.23,65.55 -14.391,16.21 -70.636,-65.01 -23.703,25.75 71.093,65.42 -14.414,16.19 -70.476,-64.86 -23.703,25.75 70.898,65.24 -14.434,16.17 -70.261,-64.66 -23.703,25.75 70.648,65.01 -14.437,16.17 -70.008,-64.43 -23.703,25.75 70.363,64.75 -14.453,16.15 -69.707,-64.15 -23.703,25.75 70.035,64.45 -14.473,16.13 -69.359,-63.83 -23.703,25.75 69.683,64.13 C 526.996,7014.57 456.27,7092.99 386.949,7169.84 249.238,7322.51 118.145,7467.86 0,7601.2 v -682.38 c 217.871,-268.32 506.902,-624.28 845.426,-1041.21 447.644,-551.33 596.854,-850.1 665.214,-1332.03 1.89,-13.37 11.95,-26.54 22.6,-40.47 7.47,-9.78 15.19,-19.89 20.05,-30.36 9.25,-19.95 9.79,-40.01 10.36,-61.24 0.23,-8.54 0.47,-17.36 1.33,-26.14 1.15,-11.74 -7.23,-24.21 -15.32,-36.27 -7.24,-10.79 -14.74,-21.96 -14,-30.57 21.53,-251.39 29.82,-558.08 40.33,-946.36 4.31,-159.58 9.21,-340.46 15.55,-536.45 0.38,-11.65 23.92,-38.36 33.97,-49.77 7.22,-8.19 7.98,-9.05 8.06,-11.38 0.99,-28.48 2.34,-57.04 4.01,-84.91 0.68,-11.21 -9.8,-20.96 -19.93,-30.4 -7.96,-7.41 -16.98,-15.81 -16.51,-22.08 106.18,-1395.55 1066.82,-1748.348 1891.87,-1899.789 8.45,-1.411 18.25,8.41 27.91,17.968 11.33,11.223 23.34,22.891 36.22,20.563 33.27,-5.781 66.23,-11.301 98.8,-16.602 11.95,-1.929 22.06,-16.507 32.77,-31.929 8.54,-12.301 18.2,-26.231 25.75,-27.418 49.17,-7.774 97.34,-15.121 144.26,-22.282 1.04,-0.16 3.39,-0.339 8.72,-0.339 52.25,0 277.88,18.097 365.57,25.3 l -4.54,0.918 0.99,4.899 0.99,4.902 38.37,-7.75 3.71,0.309 0.22,-1.098 366.57,-74.07 7.39,-1.5 v 0 l 105.51,-21.321 v 0.008 l 28,-5.668 114.42,-23.109 v 0.008 c 95.9206,-18.44676 432.9167,-87.42064 38.8,-7.871 l -18.21,-95.418 c 26.55,-5.301 154.83,-30.918 208.93,-41.692 C 5756.04,310.59 6675.63,131.102 7416.18,0 H 8503.9 v 218.84 c -0.26,0.039 -0.5,0.082 -0.76,0.121 -587.06,89.711 -1752.13,324.34 -1763.83,326.711 l -2.02,0.91 c -2.96,2.219 -297.95,223.137 -369.97,238.207 C 5660.84,932.641 5172.6,1025.05 4916.17,1059.45 4407,1127.77 4023,1193.36 3707.71,1265.89 c -7.26,1.62 -16.29,-7.75 -25.05,-16.84 -9.37,-9.72 -19.05,-19.78 -29.88,-19.78 -1.35,0 -2.7,0.16 -4.01,0.47 -30.24,7.25 -60.1,14.64 -88.74,21.97 -11.2,2.86 -20.59,18.32 -30.53,34.68 -7.86,12.96 -16.79,27.65 -23.67,29.48 -475.83,127.05 -776.23,278.06 -974.03,489.62 -183.24,195.97 -282.42,453.2 -321.59,834.03 -0.65,6.25 -10.52,13.88 -19.23,20.62 -11.07,8.55 -22.51,17.4 -23.46,28.32 -2.32,26.51 -4.44,54.3 -6.31,82.57 -0.75,11.34 8.95,22.24 18.33,32.8 8.12,9.13 16.51,18.59 16.11,26.06 -2.35,43.98 -4.25,91.13 -5.65,140.11 -0.44,15.71 -47.07,42.71 -72.12,57.22 -7.96,4.61 -14.84,8.59 -19.25,11.53 -28.62,19.1 -30.33,20.24 -30.41,37.62 -0.04,8.88 -0.51,17.79 -0.97,26.76 -0.48,9.22 -0.97,18.75 -1,28.25 -0.08,29.48 3.98,37.18 19.79,37.44 54.53,0.91 84.57,1.41 97.65,9.44 11.84,7.26 11.71,22.37 11.41,55.46 -0.06,6.52 -0.19,13.66 -0.36,21.43 h -135.99" /><path
         id="path138"
         style="fill:#a2cdfe;fill-opacity:1;fill-rule:nonzero;stroke:none"
         d="m 2194.87,3478.27 c 0.13,9.55 0.25,19.35 0.35,29.38 h -126.47 v -29.38 h 126.12" /><path
         sodipodi:nodetypes="ccccc"
         id="path140"
         style="fill:#a2cdfe;fill-opacity:1;fill-rule:nonzero;stroke:none"
         d="m 2193.88,3415.15 0.5,29.37 h -135.63 v -29.37 h 135.13" /><path
         id="path142"
         style="fill:#a2cdfe;fill-opacity:1;fill-rule:nonzero;stroke:none"
         d="m 4279.12,675.75 -90.85,-50.789 401.42,-81.512 20.66,84.953 -335.42,67.789 4.19,-20.441" /><path
         id="path144"
         style="fill:#a2cdfe;fill-opacity:1;fill-rule:nonzero;stroke:none"
         d="m 4751.13,605.063 1.09,4.878 -105.51,21.321 -1.14,-4.871 105.56,-21.328" /><path
         id="path146"
         style="fill:#a2cdfe;fill-opacity:1;fill-rule:nonzero;stroke:none"
         d="m 4644.43,621.52 105.62,-21.34 1.08,4.883 -105.56,21.328 -1.14,-4.871" /><path
         id="path148"
         style="fill:#a2cdfe;fill-opacity:1;fill-rule:nonzero;stroke:none"
         d="m 4787.87,597.629 105.75,-21.367 1.02,4.91 -114.42,23.109 8.7,-1.761 -1.05,-4.891" /><path
         id="path150"
         style="fill:#a2cdfe;fill-opacity:1;fill-rule:nonzero;stroke:none"
         d="m 4639.32,632.762 -366.57,74.07 1.1,-5.32 337.68,-68.242 1.18,4.859 26.61,-5.367" /><path
         sodipodi:nodetypes="cccccc"
         id="path152"
         style="fill:#a2cdfe;fill-opacity:1;fill-rule:nonzero;stroke:none"
         d="m 5108.87,537.871 -192.63,38.93 17.2,-3.492 v 0 l 174.44,-40.34 0.99,4.902" /><path
         id="path154"
         style="fill:#a2cdfe;fill-opacity:1;fill-rule:nonzero;stroke:none"
         d="m 4786.83,592.75 105.79,-21.379 1,4.891 -105.75,21.367 -1.04,-4.879" /><path
         id="path156"
         style="fill:#a2cdfe;fill-opacity:1;fill-rule:nonzero;stroke:none"
         d="m 4274.93,696.191 335.42,-67.789 1.18,4.868 -337.68,68.242 1.08,-5.321" /><path
         id="path160"
         style="fill:#a2cdfe;fill-opacity:1;fill-rule:nonzero;stroke:none"
         d="m 4268.82,707.621 -38.37,7.75 -0.99,-4.902 21.48,-4.328 c 10.47,0.859 16.73,1.379 17.17,1.422 l 0.71,0.058" /><path
         id="path162"
         style="fill:#a2cdfe;fill-opacity:1;fill-rule:nonzero;stroke:none"
         d="m 4228.47,705.57 4.54,-0.918 c 6.88,0.571 12.9,1.071 17.93,1.489 l -21.48,4.328 -0.99,-4.899" /><path
         sodipodi:nodetypes="cc"
         id="path166"
         style="fill:#a2cdfe;fill-opacity:1;fill-rule:nonzero;stroke:none"
         d="m 2058.75,3381.4 v -29.38" /><path
         id="path174"
         style="fill:#a2cdfe;fill-opacity:1;fill-rule:nonzero;stroke:none"
         d="m 2063.75,3203.93 h 5 v 51.22 h -5 v -51.22" /><path
         sodipodi:nodetypes="cc"
         id="path176"
         style="fill:#a2cdfe;fill-opacity:1;fill-rule:nonzero;stroke:none"
         d="M 2058.75,3318.27 V 3288.9" /><path
         id="path178"
         style="fill:#a2cdfe;fill-opacity:1;fill-rule:nonzero;stroke:none"
         d="m 2068.75,3478.27 v 29.38 h -5 v -29.38 h 5" /><path
         id="path180"
         style="fill:#a2cdfe;fill-opacity:1;fill-rule:nonzero;stroke:none"
         d="m 2063.75,3507.65 h -5 v -29.38 h 5 v 29.38" /><path
         id="path182"
         style="fill:#a2cdfe;fill-opacity:1;fill-rule:nonzero;stroke:none"
         d="m 2063.75,3823.08 v -278.69 c 1.36,1.68 3.03,3.77 5,6.22 v 272.47 h -5" /><path
         id="path184"
         style="fill:#a2cdfe;fill-opacity:1;fill-rule:nonzero;stroke:none"
         d="m 2058.75,3203.93 h 5 v 51.22 h -5 v -51.22" /><path
         id="path186"
         style="fill:#a2cdfe;fill-opacity:1;fill-rule:nonzero;stroke:none"
         d="m 2058.75,3823.08 v -284.92 l 1.1,1.37 c 0.13,0.15 1.55,1.93 3.9,4.86 v 278.69 h -5" /><path
         id="path188"
         style="fill:#a2cdfe;fill-opacity:1;fill-rule:nonzero;stroke:none"
         d="m 516.121,5149.56 c 27.449,33.68 32.34,87.26 11.902,130.28 -15.781,33.21 -42.835,52.26 -74.234,52.26 -26.809,0 -55.57,-13.28 -85.496,-39.46 -65.91,-57.67 -104.441,-168.75 -100.563,-289.88 3.625,-113.32 42.997,-209.54 105.317,-257.4 29.351,-22.53 58.617,-33.96 86.976,-33.96 40.778,0 77.727,25.58 94.133,65.19 14.649,35.36 8.828,72.26 -15.191,96.27 -80.629,80.63 -76.746,210.54 -22.844,276.7" /><path
         id="path190"
         style="fill:#a2cdfe;fill-opacity:1;fill-rule:nonzero;stroke:none"
         d="m 3906.1,6648.8 c 27.13,0 60.21,10.79 101.15,33 43.99,23.86 86.48,34.5 137.77,34.5 30.45,0 61.97,-3.68 95.34,-7.57 39.78,-4.63 84.86,-9.89 136.98,-9.89 34.12,0 67.48,2.18 102.02,6.69 83.15,10.85 129.37,39.84 126.79,79.57 -2.5,38.47 -50.38,73.51 -100.45,73.51 -8.34,0 -16.59,-0.98 -24.52,-2.9 -112.58,-27.29 -160.86,-37.55 -260.56,-45.49 -25.85,-2.05 -55.28,-7.64 -83.74,-13.04 -36.64,-6.96 -74.52,-14.15 -106.17,-14.15 -46.24,0 -73.13,15.95 -82.19,48.77 -9.02,32.62 -18.43,59.91 -26.73,83.99 -22.17,64.29 -36.82,106.77 -14.41,166.53 28.51,76.02 12.1,223.65 -18.84,330.18 -13.91,47.87 15.63,96.58 41.69,139.55 20.89,34.45 40.62,66.99 31.5,90.16 -5.69,14.47 -22.38,25.44 -51.03,33.54 -10.94,3.1 -21.14,4.67 -30.33,4.67 -50.15,0 -78.08,-47.72 -85.38,-145.89 -7.08,-95.13 -5.8,-136.93 -3.25,-220.22 1.02,-33.2 2.29,-74.52 3.26,-128.3 1.39,-77.12 -4.81,-149.05 -10.29,-212.51 -7.67,-89.01 -13.73,-159.32 4.58,-200.92 32.93,-74.77 58.84,-123.78 116.81,-123.78" /><path
         id="path192"
         style="fill:#a2cdfe;fill-opacity:1;fill-rule:nonzero;stroke:none"
         d="m 6549.1,6894.43 c 3.24,0 6.72,0.16 10.46,0.49 8.29,0.73 17.95,1.55 28.72,2.46 119.02,10.02 397.74,33.5 417.75,88.37 2.77,7.61 -0.36,15.76 -9.56,24.93 -51.38,51.19 -74.45,67.13 -118.66,67.13 -25.25,0 -56.83,-5.19 -104.64,-13.04 -11.05,-1.81 -22.92,-3.76 -35.71,-5.81 -122.45,-19.59 -222.04,-111.31 -219.12,-148.04 0.87,-10.94 11.22,-16.49 30.76,-16.49" /><path
         id="path194"
         style="fill:#000000;fill-opacity:1;fill-rule:nonzero;stroke:none"
         d="m 1662.56,6557.42 -2.49,1946.48 h -10 l 2.49,-1946.49 10,0.01" /><path
         id="path196"
         style="fill:#000000;fill-opacity:1;fill-rule:nonzero;stroke:none"
         d="m 1622.57,6557.35 -2.5,1946.55 h -10 l 2.5,-1946.56 10,0.01" /><path
         id="path198"
         style="fill:#000000;fill-opacity:1;fill-rule:nonzero;stroke:none"
         d="m 1582.57,6557.28 -2.5,1946.62 h -10 l 2.5,-1946.63 10,0.01" /><path
         id="path200"
         style="fill:#000000;fill-opacity:1;fill-rule:nonzero;stroke:none"
         d="m 1542.58,6557.2 -2.5,1946.7 h -10 l 2.5,-1946.71 10,0.01" /><path
         id="path202"
         style="fill:#000000;fill-opacity:1;fill-rule:nonzero;stroke:none"
         d="m 1490.17,7926.53 c 0.04,-26.19 -9.97,-52.48 -19.65,-77.91 -9.89,-25.97 -20.12,-52.83 -20.08,-80.26 l 0.32,-180.29 c 0.02,-26.16 -9.97,-52.42 -19.64,-77.8 -9.89,-25.99 -20.12,-52.86 -20.08,-80.3 l 1.53,-873 10,0.02 -1.53,873 c -0.04,25.59 9.41,50.42 19.43,76.72 3.59,9.42 7.2,18.96 10.38,28.62 l 1.73,-978.28 10,0.02 -1.82,1031.01 c 0,0.03 0,0.06 0,0.09 v 0 l -0.32,180.21 c -0.04,25.58 9.41,50.41 19.42,76.69 3.83,10.04 7.69,20.22 11.02,30.53 l 1.69,-1318.49 10,0.01 -2.5,1946.78 h -10 l 0.75,-577.37 h -0.65" /><path
         id="path204"
         style="fill:#ffffff;fill-opacity:1;fill-rule:nonzero;stroke:none"
         d="m 6474.24,863.012 941.44,86.25 66.24,-273.762 c -320.46,60.539 -663.75,124.512 -1007.68,187.512 z m -43.78,358.978 h 565.47 l 66.12,-272.978 -631.59,-57.86 z m -31.99,1843.86 h -276.18 v 236.02 h 276.18 z m 0,-704.65 h -276.18 v 672.66 h 276.18 z m 0,-382.39 h -276.18 v 350.4 h 276.18 z m 0,-267.4 h -276.18 v 235.41 h 276.18 z m 0,-206.87 h -276.18 v 174.88 h 276.18 z m 0,-247.75 -276.18,44.95 v 170.81 h 276.18 z m 0,-379.919 c -92.28,16.859 -184.48,33.621 -276.18,50.199 v 342.26 l 276.18,-44.95 z M 6090.3,3065.85 h -436.76 v 236.02 h 436.76 z m 0,-704.65 h -436.76 v 672.66 h 436.76 z m 0,-382.39 h -436.76 v 350.4 h 436.76 z m 0,-267.4 h -436.76 v 235.41 h 436.76 z m 0,-404.46 -436.76,71.08 v 301.39 h 436.76 z m 0,-374.091 c -147.61,26.661 -293.81,52.84 -436.76,78.151 v 334.61 l 436.76,-71.09 z M 5653.54,3714.42 H 6917.91 V 3333.86 H 5653.54 Z m 0,332.24 h 436.76 v -300.25 h -436.76 z m 0,648.43 h 436.76 v -616.43 h -436.76 z m 0,388.46 h 50.6 l 386.16,-119.86 v -236.6 h -436.76 z m 436.76,0 v -86.35 l -278.2,86.35 z m -436.76,408.74 h 436.76 v -376.74 h -381.31 l -55.45,17.22 z m 0,782.27 H 6090.3 V 5524.3 h -436.76 z m 468.75,-2227.9 h 276.18 v -300.25 h -276.18 z m 0,648.43 h 276.18 v -616.43 h -276.18 z m 0,258.66 276.18,-85.72 v -140.94 h -276.18 z m 0,129.8 h 276.18 v -182.01 l -276.18,85.72 z m 0,408.74 h 276.18 v -376.74 h -276.18 z m 0,782.27 h 276.18 V 5524.3 h -276.18 z m 308.17,-2227.9 h 487.45 v -300.25 h -487.45 z m 0,648.43 h 487.45 v -616.43 h -487.45 z m 0,163.01 422.07,-131.01 h -422.07 z m 0,225.45 h 487.45 v -343.24 l -487.45,151.3 z m 0,408.74 h 487.45 v -376.74 h -487.45 z m 0,782.27 h 487.45 V 5524.3 h -487.45 z m 503.45,-3945.35 h 147.88 l 50.97,-210.66 h -321.1 l -51.03,210.66 z m 15.99,704.65 h 599.29 l 219.09,-915.31 h -287.22 l -37.54,155.4 c -2.08,8.58 -10.72,13.87 -19.32,11.8 -8.58,-2.08 -13.87,-10.73 -11.8,-19.32 l 35.73,-147.88 h -282.46 l -50.96,210.66 h 217.53 c 8.83,0 15.99,7.16 15.99,16 0,8.84 -7.16,15.99 -15.99,15.99 h -238.33 c -0.04,0 -0.08,0 -0.12,0 H 6949.9 Z m 871.15,-1135.77 h -286.72 l -45.54,188.47 h 287.15 z m 154.17,-644.11 h -285.26 l -147.9,612.12 h 286.65 z m 51.84,-216.56 -278.6,-25.53 -50.77,210.1 h 285.19 z m -677.36,184.57 58.38,-241.279 -313.82,-28.75 -65.41,270.029 z m -381.56,250.56 h 320.92 l 52.89,-218.57 h -320.86 z m -32.92,0 52.95,-218.57 h -557.71 v 218.57 z m -50.1,206.87 42.36,-174.88 h -497.02 v 174.88 z m -45.23,186.68 37.47,-154.69 h -446.9 v 154.69 z m 346.21,31.99 h -321.03 l -45.66,188.47 h 321.09 z m 32.91,0 -45.59,188.47 h 282.44 l 45.54,-188.47 z m 45.18,-186.68 -37.43,154.69 h 282.37 l 37.37,-154.69 z m -353.91,0 -37.47,154.69 h 321.04 l 37.42,-154.69 z m 328.73,-31.99 42.32,-174.88 H 6960.4 l -42.36,174.88 z m 365.21,-206.87 52.81,-218.57 h -282.17 l -52.88,218.57 z m -289.98,31.99 -42.32,174.88 h 282.32 l 42.24,-174.88 z m -527.76,582.02 45.67,-188.47 h -401.69 v 188.47 z m -58.77,242.65 51.03,-210.66 h -348.28 v 210.66 z m -297.25,736.64 v 236.02 h 487.45 v -236.02 z m 487.45,-31.99 V 2361.2 h -178.07 c -0.05,0 -0.08,0 -0.13,0 h -309.25 v 672.66 z m 522.36,-2050.2 -57.66,238.33 h 282.15 l 51.47,-213.05 z M 5621.54,5524.3 h -664.62 v 750.26 h 664.62 z m 0,-381.61 -664.62,206.3 v 143.3 h 664.62 z m 0,-415.6 h -664.62 v 356.46 h 664.62 z m 0,-648.43 h -664.62 v 616.43 h 664.62 z m 0,-332.25 h -664.62 v 300.25 h 664.62 z m 0,-412.55 h -664.62 v 380.56 h 664.62 z m 0,-268.01 h -664.62 v 236.02 h 664.62 z m 0,-704.65 h -664.62 v 672.66 h 664.62 z m 0,-382.39 h -664.62 v 350.4 h 664.62 z m 0,-267.4 h -292.16 c -8.83,0 -15.99,-7.16 -15.99,-16 0,-8.83 7.16,-15.99 15.99,-15.99 h 292.16 v -296.18 l -664.62,108.17 v 455.41 h 664.62 z m 0,-694.74 c -233.18,41.23 -457.33,80.11 -664.62,115.07 V 1459 l 664.62,-108.18 z m -664.62,4298.81 644.12,-199.93 h -644.12 z m -31.99,208.82 h -300.25 v 750.26 h 300.25 z m 0,-165.38 -300.25,93.2 v 40.17 h 300.25 z m 0,-243.37 h -300.25 v 303.06 l 300.25,-93.2 z m 0,-388.46 h -300.25 v 356.46 h 300.25 z m 0,-648.43 h -300.25 v 616.43 h 300.25 z m 0,-332.25 h -300.25 v 300.25 h 300.25 z m 0,-412.55 h -300.25 v 380.56 h 300.25 z m 0,-268.01 h -300.25 v 236.02 h 300.25 z m 0,-704.65 h -300.25 v 672.66 h 300.25 z m 0,-382.39 h -300.25 v 350.4 h 300.25 z m 0,-482.2 -300.25,48.87 v 401.34 h 300.25 z m 0,-359.48 c -104.95,17.65 -205.37,34.24 -300.25,49.59 v 326.35 l 300.25,-48.87 z M 4592.69,5524.3 h -200.55 l -155.91,48.39 v 701.87 h 356.46 z m 0,-62.26 -97.46,30.25 h 97.46 z m 0,-346.49 h -356.46 v 169.59 l 356.46,129.41 z m 0,-388.46 h -356.46 v 356.46 h 356.46 z m 0,-648.43 h -356.46 v 616.43 h 356.46 z m 0,-332.25 h -356.46 v 300.25 h 356.46 z m 0,-412.55 h -356.46 v 380.56 h 356.46 z m 0,-268.01 h -356.46 v 236.02 h 356.46 z m 0,-704.65 h -356.46 v 672.66 h 356.46 z m 0,-382.39 h -356.46 v 350.4 h 356.46 z m 0,-428.11 -356.46,58 v 338.12 h 356.46 z m 0,-358.81 c -18.46,2.97 -36.75,5.9 -54.76,8.77 -104.68,16.68 -205.11,33.52 -301.7,50.84 v 324.79 l 356.46,-58.02 z m -356.46,4300.4 h 151.06 l 175.61,-54.51 -326.67,-118.6 z m 0,46.89 47.96,-14.88 h -47.96 z m -32.01,43.44 -276.15,85.72 v 606.22 h 276.15 z m 0,-58.32 h -276.15 v 110.53 l 276.15,-85.72 z m 0,-216.74 -276.15,-100.26 v 284.99 h 276.15 z m 0,-192.01 h -276.15 v 57.71 l 276.15,100.26 z m 0,-388.46 h -276.15 v 356.46 h 276.15 z m 0,-648.43 h -276.15 v 616.43 h 276.15 z m 0,-332.25 h -276.15 v 300.25 h 276.15 z m 0,-412.55 h -276.15 v 380.56 h 276.15 z m 0,-268.01 h -276.15 v 236.02 h 276.15 z m 0,-704.65 h -276.15 v 672.66 h 276.15 z m 0,-382.39 h -276.15 v 350.4 h 276.15 z m 0,-364.89 -276.15,44.94 v 287.96 h 276.15 z m 0,-356.66 c -96.06,17.49 -188.01,35.55 -276.15,54.47 v 314.72 l 276.15,-44.95 z M 3896.06,5524.3 h -292.15 c -0.63,0 -1.25,-0.04 -1.88,-0.12 l -295.78,-35.02 v 338.69 l 589.81,-183.08 z m 0,-328.61 -220.72,-80.14 h -369.09 v 341.39 l 298.61,35.35 h 291.2 z m 0,-80.14 h -126.95 l 126.95,46.09 z m 0,-388.46 h -572.45 l -10.4,222.95 367.75,133.51 h 215.1 z m 0,-648.43 h -542.22 l -28.74,616.43 h 570.96 z m 0,-332.25 h -541.5 l -0.01,300.25 h 541.51 z m 0,-412.55 h -541.5 v 380.56 h 541.5 z m 0,-268.01 h -541.5 v 236.02 h 541.5 z m 0,-704.65 h -541.49 l -0.01,672.66 h 541.5 z m 0,-382.39 h -748.35 v 350.4 h 748.35 z m 0,-314.73 -289.58,47.12 c -8.7,1.47 -16.95,-4.5 -18.36,-13.22 -1.42,-8.72 4.5,-16.94 13.22,-18.36 l 294.72,-47.97 v -313.01 c -291.83,64.05 -539.98,138.54 -748.35,236.47 v 391.71 h 748.35 z M 3115.71,2170 h -631.12 c -25.02,50.4 -47.24,103.41 -66.71,159.21 h 284.86 c 0.03,0 0.07,-0.01 0.1,-0.01 0.07,0 0.14,0.01 0.21,0.01 h 412.66 z m 0,-207.18 v -160.59 h -351.23 c -107.81,96.4 -195.2,207.37 -263.51,335.78 h 614.74 z m 0,-392.29 c -89.12,43.8 -170.83,92.12 -245.17,146.21 -23.76,17.29 -46.68,35.13 -68.84,53.5 h 314.01 z m -804.58,1463.33 h 314.98 l 59.28,-672.66 h -278.4 c -61.75,190.46 -92.8,412.65 -95.86,672.66 z m -0.13,86.08 c 0.7,62.08 1.05,122.69 1.04,181.93 h 290.45 l 20.8,-236.02 h -312.45 c -0.05,17.88 -0.04,35.85 0.16,54.09 z m 255.13,594.48 33.54,-380.56 h -287.72 c -0.3,133.71 -2.37,260.49 -6.42,380.56 z m -277.95,332.24 h 248.67 l 26.46,-300.25 h -258.97 c -3.87,104.96 -9.24,204.91 -16.16,300.25 z m -84.25,648.43 h 583.71 v -616.43 h -501.81 c -17.74,230.53 -44.8,433.89 -81.9,616.43 z m -104.28,388.46 h 492.52 v -356.46 h -394.91 c -27.3,128.46 -59.75,246.53 -97.61,356.46 z m -43.96,118.34 c -38.24,95.19 -80.96,184.11 -128.08,269.24 l 392.83,104.07 57.88,-459.65 h -289.85 c -10.54,29.33 -21.44,58.12 -32.78,86.34 z m -345.67,601.6 565.45,128.79 40.94,-325.04 -405,-107.3 c -60.1,105.24 -127.19,204.93 -201.39,303.55 z m -196.76,242.91 580.48,157.8 153.49,-47.64 24.23,-192.38 -582.69,-132.71 c -54.75,71.36 -113.24,142.44 -175.51,214.93 z m 1078.91,-399.2 v -531.65 h -181.6 l -58.92,467.93 z m -244.56,-31.69 -66.81,530.63 311.37,-96.65 v -369.18 z m -98.19,1269.13 h 342.75 V 6083 l -315.76,98.01 -26.99,214.31 z m 0,262.07 h 342.75 v -230.07 h -342.75 z m 0,267.27 h 342.75 v -235.27 h -342.75 z m 0,317.84 h 342.75 v -285.84 h -342.75 z m 0,426.08 h 342.75 v -394.08 h -342.75 z m 374.75,-3074.35 h 650.81 l 5.19,-111.47 -656,-238.16 z m 0,293.66 c 1,-0.2 1.95,-0.56 2.99,-0.56 0.63,0 1.27,0.03 1.9,0.11 l 211.23,25.01 v -286.22 h -216.12 z m 0,278.47 216.12,57.25 v -278.94 l -214.99,-25.45 c -0.39,-0.05 -0.74,-0.18 -1.13,-0.25 z m 0,383.87 216.12,-67.08 v -226.43 l -216.12,-57.26 z m 0,1102.79 216.12,-52.77 V 6005.98 l -216.12,67.08 z m 0,271.64 h 216.12 v -291.47 l -216.12,52.77 z m 0,317.84 h 216.12 v -285.84 h -216.12 z m 0,426.08 h 216.12 v -394.08 h -216.12 z m 248.12,-2752.34 401.97,47.59 v -337.6 h -401.97 z m 0,315.85 401.97,106.5 v -342.54 l -401.97,-47.59 z m 0,241.13 361.56,-112.22 -361.56,-95.8 z m 0,1119.22 401.96,-98.13 0.01,-1112.35 -401.97,124.77 z m 0,332.22 h 401.96 v -397.41 l -401.96,98.13 z m 0,317.84 h 401.96 v -285.84 h -401.96 z m 0,426.08 H 3059 v -389.53 c 0,-1.59 0.3,-3.1 0.74,-4.55 H 2872.29 Z M 3091,7768.37 v 389.53 h 183.25 v -394.08 h -183.99 c 0.44,1.45 0.74,2.96 0.74,4.55 z m 200.59,-3041.28 h -592.46 l 582.6,211.52 z m -696.16,-980.68 -26.46,300.25 h 408.65 v -300.25 z m 36.36,-412.55 -33.54,380.56 h 379.37 v -380.56 z m 345.83,-300 V 2361.2 h -260.11 l -59.28,672.66 z m -322.21,31.99 -20.8,236.02 h 343.01 v -236.02 z m 354.21,680.56 v 300.25 h 312.95 v -300.25 z m 0,-412.55 v 380.56 h 312.95 v -380.56 z m 312.95,-300 V 2361.2 h -312.95 v 672.66 z m -312.95,31.99 v 236.02 h 312.95 v -236.02 z m 297.37,2017.7 h 280.2 l -275.53,-100.04 z m 14.83,-1004.89 h -502.18 v 616.43 h 473.45 z m -1992.15,3982.36 -141.57,144.49 141.57,159.51 z m 0,-426.4 -340.139,347.15 177.279,199.74 162.86,-166.22 z m 0,-426.4 -247.24,252.33 177.4,199.61 69.84,-71.27 z m 0,-426.4 -445.947,455.14 177.397,199.61 268.55,-274.08 z m 0,-328.67 v -199.43 c -47.1,52.05 -95.95,105.48 -146.61,160.88 -68.46,74.87 -138.89,151.92 -212.818,234.03 l 211.708,238.22 147.72,-150.76 z m -409.303,251.04 c -82.871,92.69 -169.144,190.3 -254.527,287.61 l 196.57,221.18 297.1,-303.22 -210.799,-237.19 c -9.398,10.47 -18.824,20.97 -28.344,31.62 z M 390.93,7307.28 571.105,7510.3 839.961,7235.89 644.578,7016.05 c -87.414,99.74 -173.504,198.69 -253.648,291.23 z M 63.1211,7688.14 221.93,7866.67 548.652,7533.21 369.805,7331.69 C 246.008,7474.75 137.875,7600.75 63.1211,7688.14 Z M 420.738,8090.16 747.223,7756.95 569.945,7557.2 243.254,7890.63 Z m 198.805,223.5 326.242,-332.97 -177.269,-199.75 -326.461,333.19 z m 419.137,-854.18 -177.41,-199.61 -268.872,274.42 177.27,199.75 z m -70.442,498.3 269.152,-274.71 -177.4,-199.61 -269.029,274.57 z M 2217.42,7589.87 h -212.47 v 568.03 h 212.47 z m 0,-415.97 -456.95,-166.66 v 550.63 h 456.95 z m 0,-262.07 -456.95,-166.67 v 231.39 c 3.18,-0.95 6.66,-0.96 10.01,0.28 l 446.94,163.02 z M 1760.47,8157.9 h 212.47 V 7589.87 H 1760.47 Z M 6949.9,5083.55 h 460.3 c 8.83,0 15.99,7.16 15.99,16 0,8.84 -7.16,16 -15.99,16 h -460.3 v 376.74 h 720.77 V 4921.32 H 7410.2 c -8.84,0 -16,-7.16 -16,-16 0,-8.84 7.16,-16 16,-16 h 260.47 v -382.67 l -607.08,188.44 h 346.61 c 8.83,0 15.99,7.16 15.99,16 0,8.84 -7.16,16 -15.99,16 h -449.71 l -10.59,3.29 z m 752.77,64.35 h 130.93 v -691.82 l -130.93,40.65 z m 0,344.39 H 7833.6 V 5179.9 h -130.93 z m 0,208.94 H 7833.6 V 5524.3 h -130.93 z m 0,480 h 130.93 v -448 h -130.93 z m 0,197.09 h 130.93 v -165.09 h -130.93 z m 162.93,-886.03 h 142.64 V 4401.88 l -142.64,44.27 z m 0,208.94 h 142.64 V 5524.3 H 7865.6 Z m 0,480 h 142.64 v -448 H 7865.6 Z m 0,197.09 h 142.64 V 6213.23 H 7865.6 Z m 174.63,-1489 h 188.72 v -555.95 l -188.72,58.58 z m 0,458.58 h 188.72 v -426.58 h -188.72 z m 0,144.39 h 188.72 V 5379.9 h -188.72 z m 0,208.94 h 188.72 V 5524.3 h -188.72 z m 0,573.33 h 188.72 v -541.33 h -188.72 z m 0,289.26 h 188.72 V 6306.57 H 8040.23 Z M 7516.42,668.992 7447.88,952.211 8503.9,1048.96 v 32.14 l -444.64,-40.74 -43.48,181.63 h 488.12 v 31.99 H 8008.13 L 7861.6,1866.1 h 642.3 v 31.99 h -649.95 l -45.11,188.47 h 695.06 v 31.99 H 7801.18 L 7425.75,3687 c -2.05,8.59 -10.66,13.92 -19.28,11.83 -8.59,-2.05 -13.89,-10.68 -11.83,-19.28 l 146.89,-613.7 H 6949.9 v 236.02 h 460.3 c 8.83,0 15.99,7.16 15.99,15.99 0,8.84 -7.16,16 -15.99,16 h -460.3 v 380.56 h 460.3 c 8.83,0 15.99,7.16 15.99,15.99 0,8.84 -7.16,16 -15.99,16 h -460.3 v 300.25 h 460.3 c 8.83,0 15.99,7.16 15.99,16 0,8.84 -7.16,16 -15.99,16 h -460.3 v 616.43 h 5.73 L 8503.9,4214.52 v 33.51 l -242.96,75.41 v 1168.85 h 242.96 v 32.01 h -242.96 v 750.26 h 242.96 v 32.01 h -242.96 v 257.25 h 242.96 v 32 h -242.96 v 294.12 c 0,8.84 -7.16,16 -16,16 -8.84,0 -15.99,-7.16 -15.99,-16 v -294.12 h -188.72 v 277.08 c 0,8.84 -7.15,16 -15.99,16 -8.84,0 -16,-7.16 -16,-16 V 6410.32 H 7865.6 v 437.93 c 0,8.83 -7.16,16 -16,16 -8.84,0 -16,-7.17 -16,-16 v -437.93 h -130.93 v 437.93 c 0,8.83 -7.16,16 -16,16 -8.84,0 -16,-7.17 -16,-16 V 6213.23 H 7410.2 c -8.84,0 -16,-7.16 -16,-16 0,-8.84 7.16,-16 16,-16 h 260.47 V 5524.3 H 6949.9 v 750.26 h 460.3 c 8.83,0 15.99,7.17 15.99,16.01 0,8.83 -7.16,16 -15.99,16 h -460.3 v 479.66 c 0,8.84 -7.16,16 -15.99,16 -8.84,0 -16,-7.16 -16,-16 v -479.66 h -487.45 v 436.05 c 0,8.84 -7.16,16 -16,16 -8.83,0 -15.99,-7.16 -15.99,-16 v -436.05 h -276.18 v 410.18 c 0,8.84 -7.15,16 -15.99,16 -8.84,0 -16,-7.16 -16,-16 v -410.18 h -436.76 v 370.83 c 0,8.84 -7.16,16 -16,16 -8.84,0 -16,-7.16 -16,-16 v -370.83 h -292.16 -372.46 v 312.35 c 0,8.84 -7.15,16 -15.99,16 -8.84,0 -16,-7.16 -16,-16 v -312.35 h -300.25 v 284.45 c 0,8.84 -7.16,16 -16,16 -8.84,0 -15.99,-7.16 -15.99,-16 v -284.45 h -356.46 v 251.84 c 0,8.84 -7.17,16 -16.01,16 -8.83,0 -16,-7.16 -16,-16 v -251.84 h -276.15 v 225.97 c 0,8.84 -7.17,16 -16,16 -8.84,0 -16.01,-7.16 -16.01,-16 v -225.97 h -287.63 c -8.84,0 -16,-7.17 -16,-16 0,-8.84 7.16,-16.01 16,-16.01 h 287.63 v -596.29 l -589.81,183.08 v 1114.46 l 298.38,-72.84 c 1.28,-0.32 2.55,-0.47 3.81,-0.47 7.2,0 13.75,4.91 15.53,12.22 2.1,8.58 -3.16,17.24 -11.75,19.33 l -305.97,74.7 v 405.23 h 297.66 c 8.83,0 16,7.16 16,16 0,8.84 -7.17,16 -16,16 h -297.66 v 285.84 h 302.18 c 8.84,0 16,7.16 16,16 0,8.84 -7.16,16 -16,16 h -302.18 v 394.08 h 297.66 c 8.83,0 16,7.16 16,16 0,8.84 -7.17,16 -16,16 h -297.66 v 314 h -32 v -314 h -401.96 v 314 h -32 v -314 h -216.12 v 314 h -32 v -314 h -342.75 v 314 h -32 v -314 h -212.47 v 314 h -32.01 v -314 h -212.47 v 314 h -32 V 6429.03 c 0,-8.84 7.16,-16 16,-16 8.84,0 16,7.16 16,16 v 285.44 c 1.46,-0.43 2.98,-0.69 4.53,-0.69 1.82,0 3.67,0.31 5.48,0.97 l 446.94,163.02 v -483.45 c 0,-0.67 0.04,-1.34 0.12,-2 l 25.3,-200.9 -428.04,132.87 c -8.41,2.62 -17.4,-2.1 -20.02,-10.54 -2.62,-8.44 2.1,-17.4 10.54,-20.03 l 231.46,-71.84 -546.69,-148.62 c -41.2,47.49 -83.98,95.66 -128.42,145.02 v 213.15 l 300.69,-93.33 c 1.58,-0.49 3.17,-0.73 4.74,-0.73 6.83,0 13.15,4.41 15.28,11.27 2.62,8.43 -2.1,17.4 -10.54,20.02 l -310.17,96.28 V 8503.9 h -32 v -16.48 l -16.15,16.48 h -44.8 l 60.95,-62.2 v -28.47 L 1165.65,8228.42 895.738,8503.9 H 850.934 L 1144.36,8204.43 967.078,8004.68 640.859,8337.63 788.766,8503.9 H 745.938 L 618.414,8360.54 477.945,8503.9 H 433.148 L 597.094,8336.57 419.609,8137.04 194.246,8367.05 315.984,8503.9 H 273.16 L 171.801,8389.96 60.1602,8503.9 H 15.3594 L 150.484,8365.99 0,8196.82 v -48.15 L 172.93,8343.08 398.293,8113.07 220.801,7913.54 0,8138.9 v -45.72 L 199.48,7889.58 42.1289,7712.68 C 26.0273,7731.52 11.9336,7748.03 0,7762.02 v -49.28 c 157.289,-184.17 555.621,-648.61 896.508,-1029.88 92.555,-103.51 179.172,-198.24 262.932,-289.85 197.71,-216.23 367.04,-401.44 509.74,-587.53 0.31,-0.51 0.7,-0.92 1.06,-1.38 81.25,-106.05 153.85,-212.43 218.11,-325 0.09,-0.58 0.13,-1.16 0.28,-1.74 0.89,-3.38 2.86,-6.16 5.37,-8.21 64.31,-113.91 120.15,-234.31 167.83,-367.26 -0.11,-0.77 -0.23,-1.53 -0.23,-2.34 0,-4.68 2.04,-8.85 5.24,-11.78 95.48,-271.23 157.55,-594.87 188.89,-1021.31 -0.3,-1.22 -0.5,-2.48 -0.5,-3.8 0,-2.17 0.44,-4.22 1.22,-6.1 7.35,-102.03 12.97,-209.9 16.88,-324.32 -0.08,-0.61 -0.19,-1.2 -0.19,-1.83 0,-1.15 0.14,-2.27 0.37,-3.36 4.29,-127.81 6.45,-263.83 6.55,-408.89 0,-0.1 -0.03,-0.2 -0.03,-0.3 0,-0.09 0.03,-0.19 0.03,-0.29 0.05,-63.98 -0.3,-129.68 -1.06,-197.27 -3.99,-355.37 41.47,-642.88 138.98,-878.94 13.22,-32.01 27.53,-62.99 42.72,-93.18 0.43,-1.09 0.94,-2.12 1.58,-3.08 91.96,-181.62 220.01,-330.99 389.43,-454.24 260.81,-189.74 607.66,-310.14 1054.04,-407.02 1.78,-0.77 3.73,-1.18 5.78,-1.25 96.74,-20.92 198.14,-40.75 304.36,-59.94 0.95,-0.26 1.92,-0.43 2.93,-0.53 100.42,-18.1 204.97,-35.68 314.07,-53.06 C 5612.35,997.051 7513.57,641.152 8503.9,446.473 v 32.566 c -272.92,53.633 -613.96,119.313 -987.48,189.953" /><path
         id="path206"
         style="fill:#ffffff;fill-opacity:1;fill-rule:nonzero;stroke:none"
         d="m 5459.3,7481.85 43.65,-361.66 -395.79,-42.28 -109.43,109.88 c 119.56,130.3 280.7,233.22 461.57,294.06 z m 346.28,60.99 12.98,-168.7 -309.75,-35.38 -18.48,153.03 c 100.72,30.82 207.01,48.66 315.25,51.05 z m 29.8,-387.13 -300.59,-32.12 -22.14,183.39 308.38,35.23 z m 664.21,159.88 -100.86,-99.78 c -0.18,-0.02 -0.34,0.04 -0.52,0.02 l -530.99,-56.72 -29.56,384.03 c 224.71,-1.42 456.13,-70.1 661.93,-227.55 z m -372.96,-366.36 -241.32,-25.16 -15.63,203.12 486.89,52.01 z m -563.7,-58.78 -24.32,201.37 299.22,31.97 15.64,-203.04 z m -243.78,-25.42 -183.03,183.79 370.67,39.6 24.29,-201.29 z m 2528.82,1395.42 319.2,-620.35 c -40.21,-47.71 -78.16,-94.28 -111.99,-138.07 l -410.98,445.61 z m 359.58,29.59 150.66,-432.2 c -56.77,-62.66 -114.38,-127.71 -168.64,-191.33 L 8009,8017.44 Z M 4963.83,7173.95 c 1.7,-1.51 3.63,-2.48 5.65,-3.14 l 115.45,-115.93 c 1.62,-3.9 4.7,-6.94 8.52,-8.55 l 205.18,-206.05 c 1.42,-2.44 3.42,-4.46 5.83,-5.86 l 178.34,-179.08 c 3.13,-3.14 7.24,-4.72 11.34,-4.72 4.08,0 8.16,1.56 11.29,4.67 6.26,6.23 6.28,16.36 0.05,22.62 l -157.31,157.97 349.44,36.44 14.42,-187.39 c 0.66,-8.4 7.66,-14.78 15.94,-14.78 0.41,0 0.83,0.01 1.25,0.05 8.81,0.68 15.4,8.37 14.73,17.18 l -14.5,188.26 363.75,37.93 -203.81,-201.62 c -6.28,-6.22 -6.33,-16.35 -0.12,-22.63 3.13,-3.16 7.25,-4.75 11.37,-4.75 4.07,0 8.14,1.54 11.25,4.62 l 1489.99,1473.98 633.6,-686.97 c -55.27,-73.27 -97.36,-137.36 -116.89,-183.74 -1.28,-3.04 -1.54,-6.24 -0.95,-9.25 -208.54,40.36 -502.35,5.06 -517.18,3.23 -8.77,-1.08 -15.01,-9.07 -13.93,-17.84 1.09,-8.77 9.1,-15.02 17.84,-13.92 4.28,0.52 430.29,51.73 612.99,-35.23 92.08,-43.83 297.41,-106.29 486.54,-159.52 v 33.42 c -185.84,52.47 -384.88,113.16 -472.79,155 -24.84,11.82 -53.61,21.24 -84.86,28.69 0.67,0.95 1.37,1.89 1.84,3.01 19.48,46.3 63.37,112.05 121.14,187.65 0.06,0.08 0.12,0.15 0.17,0.23 116.76,152.76 290.26,345.79 434.5,500.55 v 47.3 c -38.45,-41.02 -79.4,-85.17 -121.19,-130.99 l -152.24,436.72 132.84,182.39 h -39.58 l -106.07,-145.64 -50.78,145.64 H 8133 l 61.74,-177.11 -202.12,-277.51 -233.93,454.62 h -35.98 l 108.4,-210.7 -209.3,-321.28 -197.66,214.31 c 3.33,6.04 2.52,13.77 -2.58,18.93 -6.23,6.27 -16.36,6.33 -22.62,0.12 l -876.4,-866.98 c -314.46,242.65 -637.15,258.06 -853.17,227.85 -268.84,-37.62 -520.53,-167.05 -694.1,-355.81 L 3687.14,8503.9 h -45.16 L 4959.24,7181.11 c 0.84,-2.67 2.34,-5.17 4.59,-7.16" /><path
         id="path208"
         style="fill:#ffffff;fill-opacity:1;fill-rule:nonzero;stroke:none"
         d="m 4865.26,169.902 v 185.77 c 328.93,-59.75 684.51,-124.57 1017.65,-185.77 z m -31.99,0 H 4301 v 288.059 c 161.44,-29.219 342.06,-61.941 532.27,-96.481 z M 4269,318.93 3617.43,332.391 c -2.83,4.5 -7.81,7.511 -13.52,7.511 H 3251 v 308.36 c 111.61,-25.813 228.26,-47.223 350.11,-63.981 9.03,-1.621 278.96,-50.179 667.89,-120.539 z m -1050,20.972 h -294.79 v 401.75 c 93.77,-32.511 192.05,-61.16 294.79,-85.922 z M 2892.21,664.09 H 2560.83 V 898.852 C 2663.9,844.07 2774.43,795.48 2892.21,753.07 Z m 0,-324.188 H 2560.83 V 632.09 h 331.38 z M 2528.83,664.09 h -416.58 c -3.4,90.64 -35.64,263.051 -203.09,455.73 l 141.01,162.14 c 134.54,-141.97 294.42,-263.91 478.66,-365.69 z m 0,-324.188 H 2111 c -0.71,134.528 -1.44,245.149 -1.53,258.84 0.69,4.309 2.25,15.879 2.87,33.348 h 416.49 z m -451.12,262.969 c -0.18,-0.969 -0.26,-1.961 -0.25,-2.941 0.01,-2.219 0.79,-117.731 1.53,-260.028 h -771.76 v 711.118 c 105.12,0.93 173.39,62.65 232.1,115.81 85.3,77.24 146.93,133.05 286.71,-5.04 294.8,-291.278 252.13,-556.31 251.67,-558.919 z m -782.53,479.859 c -1.27,0.32 -2.58,0.54 -3.95,0.54 -0.68,0 -1.34,-0.11 -2,-0.2 -44.69,2.91 -96.69,18.01 -159.18,50.91 -101.25,53.3 -149.327,140.34 -142.886,258.7 9.152,168.22 125.256,367.47 263.886,527.34 61.25,-124.3 147.05,-218.89 267.38,-240.36 110.28,-19.67 180.26,-62.78 208.01,-128.14 44.49,-104.82 -30.43,-239.61 -50.67,-272.88 -61.15,-0.48 -108.77,-43.58 -157.92,-88.09 -61.12,-55.34 -123.68,-111.93 -222.67,-107.82 z m -19.95,-251.609 c -102.71,7.668 -192.6,23.801 -269.36,48.34 l 96.85,233.239 c 4.12,-2.36 8.15,-4.8 12.43,-7.04 61.27,-32.26 113.96,-48.28 160.08,-53.07 z m 0,-236.09 c -139.97,0.879 -264.11,13.239 -372.085,37.028 l 90.425,217.773 c 80.43,-25.98 174.4,-42.922 281.66,-50.793 z m 0,-255.129 H 970.598 c -2.887,0 -5.641,0.008 -8.489,0.008 -35.961,0.031 -69.804,1.172 -103.054,3.379 -5.739,28.402 -23.836,52.352 -48.403,66.051 l 80.039,192.742 C 1002.35,576.961 1130.64,563.949 1275.23,563.039 Z M 763.215,258.109 c -36.277,0 -65.789,29.512 -65.789,65.793 0,7.188 1.144,14.227 3.398,20.95 9.016,26.808 34.082,44.839 62.391,44.839 36.273,0 65.785,-29.511 65.785,-65.789 0,-36.281 -29.512,-65.793 -65.785,-65.793 z m -87,110.442 C 417.148,425.039 238.598,565.332 145.77,786.039 125.035,835.352 109.18,887.383 97.6133,941.313 L 359.477,1042.39 c 6.582,-24.21 14.503,-47.941 24.062,-71.031 C 457.98,791.652 617.41,670.762 859.184,609.629 L 780.469,420.063 c -5.614,1.007 -11.36,1.617 -17.254,1.617 -37.11,0 -70.461,-20.86 -87,-53.129 z M 181.746,1806.41 441.008,1734.76 C 358.043,1516.26 307.047,1278.43 351.734,1073.69 L 91.3555,973.191 c -48.211,266.119 3.0976,574.139 90.3905,833.219 z m 183.141,395.32 c 14.051,21.82 20.496,43.04 21.691,64.12 l 330.277,5.96 C 638.07,2150.23 532.73,1967.02 452.641,1764.74 l -260.422,71.97 c 50.742,143.79 112.082,270.92 172.668,365.02 z m -36.157,220.95 c -44.281,76.88 -99.394,172.57 -99.394,310.99 0,229.57 64.867,285.63 257.426,452.08 l 2.531,2.18 h 137.836 l 2.527,-2.18 c 192.563,-166.45 257.43,-222.51 257.43,-452.08 0,-0.14 0.031,-0.27 0.039,-0.4 0.004,-0.13 -0.023,-0.25 -0.02,-0.39 0.118,-2.37 10.711,-238.54 -63.417,-312.66 -11.524,-11.53 -43.352,-52.97 -85.52,-116.03 l -353.539,-6.37 c -7.227,40.33 -30.586,80.91 -55.899,124.86 z m 769.84,765.25 v -454.26 c 0,-0.01 0,-0.01 0,-0.01 0.01,-17.51 1.07,-207.79 37.1,-422.29 l -358.033,-6.46 c 34,50.32 59.117,83.11 68.676,92.67 83.523,83.53 73.39,323.44 72.769,336.53 -0.094,232.61 -71.723,305.24 -243.062,453.82 z m -279.234,283.3 h 421.404 c 17.85,-84.03 38.74,-167.89 61.29,-251.3 H 819.336 Z m 0,89.33 c 0,204.98 125.566,344.8 150.629,370.66 h 215.545 c -0.84,-29.55 -0.52,-59.29 1.42,-89.42 7.27,-112.69 24.24,-225.76 47.1,-338.57 H 819.336 Z M 764.613,1678.53 c 12.746,29.39 26,57.6 39.25,84.1 103.188,206.46 242.987,391.39 340.897,498.26 20.2,-105.37 49.24,-213.68 90.97,-308.1 -91.04,-102.85 -173.01,-222.82 -224.65,-342.38 z M 960.48,1308.66 681.391,1200.93 c -28.664,143.59 13.312,307.46 70.711,447.85 l 246.703,-68.17 c -24.696,-63.48 -40.344,-126.43 -43.594,-186.19 -1.652,-30.3 0.227,-58.88 5.269,-85.76 z M 700.664,1133.82 c -4.531,11.7 -8.437,23.62 -11.824,35.7 l 279.234,107.78 c 18.082,-59.95 54.256,-109.81 107.766,-147.63 -0.88,-1.12 -1.68,-2.33 -2.26,-3.72 L 975.559,889.883 C 835.914,940.992 743.805,1022.49 700.664,1133.82 Z m -41.848,24.11 c 3.485,-12.09 7.477,-23.98 12.008,-35.67 C 717.348,1002.19 815.32,914.629 963.258,860.27 L 871.582,639.492 C 637.574,697.691 483.891,812.711 413.105,983.609 403.66,1006.41 395.891,1029.92 389.543,1054 Z m -173.308,597.73 c 83.183,209.08 193.18,398.28 270.625,516.86 l 361.797,6.53 C 997.535,2147.08 834.477,1922.46 733.324,1687.17 Z M 720.93,1657.41 C 655.426,1495.93 621.008,1331.14 651.094,1189.24 L 382.145,1085.43 c -40.665,196.27 10.32,427.16 91.671,640.27 z m 665.24,1268.63 c 56.08,-190.32 114.07,-387.12 154.38,-584.04 8.04,-39.29 16.99,-80.25 27.1,-122.46 -91.38,-39.99 -204.01,-128.2 -307.8,-240.14 -126.75,301.9 -129.27,747.74 -129.28,754.28 v 454.25 h 180.2 c 24.2,-87.93 49.9,-175.35 75.4,-261.89 z m 189.21,-738.02 c 41.47,-165.52 102.41,-349.28 203.26,-533 l -53.47,-41.49 c -41.06,48.31 -108.36,81.09 -201.11,97.64 -112.1,20 -192.22,112.99 -249.55,235.3 101.56,111.9 212.31,201.22 300.87,241.55 z m 407.66,-831.12 c 14.71,-17.39 29.9,-34.43 45.3,-51.27 l -140.7,-161.79 c -12.43,13.5 -25.3,27.05 -39.11,40.7 -53.77,53.13 -98.73,80.17 -138.03,89.83 28.88,50.36 91.76,180.25 45.43,289.55 -3.47,8.19 -7.58,16.02 -12.11,23.58 l 50.64,39.3 c 52,-90.96 113.96,-181.68 188.58,-269.9 z M 6061.28,169.609 c -386.49,71.223 -817.14,149.77 -1208.55,220.852 -0.2,0.051 -0.41,0.078 -0.61,0.121 -202.26,36.731 -394,71.469 -563.74,102.18 -0.14,0.027 -0.27,0.051 -0.41,0.07 -396.32,71.688 -672.52,121.379 -681.85,123.047 -262.34,36.094 -490.3,91.293 -688.81,161.133 -2.3,1.59 -5.03,2.527 -7.99,2.75 -129.88,46.129 -246.99,98.59 -352.75,156.109 -2.3,2.488 -5.34,4.258 -8.82,4.899 -609.42,335.09 -837.52,839.41 -945.06,1271.53 -0.16,1.33 -0.43,2.65 -0.95,3.96 -0.02,0.06 -0.06,0.12 -0.08,0.18 -11.1,44.86 -20.96,88.96 -29.76,131.98 -40.59,198.24 -98.77,395.7 -155.03,586.66 -55.44,188.16 -108.91,370.01 -146.96,551.35 0.01,0.27 0.08,0.53 0.08,0.8 0,2.6 -0.68,5.02 -1.78,7.19 -24.07,116.15 -41.77,232.13 -49.34,349.45 -8.59,133.08 14.32,260.66 38.58,395.75 65.06,362.32 138.8,772.97 -387.317,1435.41 -256.535,323 -456.965,571.33 -618.016,770.87 C 158.27,6562.18 75.2188,6665.09 0,6759.33 v -51.26 C 68.5938,6622.35 143.617,6529.38 227.219,6425.8 388.23,6226.31 588.617,5978.03 845.074,5655.13 1362.2,5004.01 1289.82,4600.92 1225.96,4245.28 c -17.25,-96.02 -33.77,-188.31 -39.11,-282.06 H 1066 v 450.67 c 0,8.84 -7.16,16 -16,16 -8.84,0 -16,-7.16 -16,-16 V 3963.22 H 448.422 c -8.836,0 -16,-7.16 -16,-16 0,-8.84 7.164,-16 16,-16 h 478.219 c -46.52,-54.48 -139.305,-186.25 -139.305,-370.66 v -57.49 c -22.82,-0.18 -45.086,-0.62 -66.559,-1.13 -165.683,-4.06 -296.574,-7.13 -465.539,161.83 -6.25,6.23 -16.375,6.23 -22.625,0 -6.25,-6.25 -6.25,-16.38 0,-22.63 152.414,-152.42 274.434,-172.41 414.645,-172.41 24.129,0 48.832,0.6 74.285,1.21 21.27,0.52 43.297,0.95 65.793,1.14 V 3219.93 H 0 v -32 h 440.398 c -171.449,-148.69 -243.062,-221.3 -243.062,-454.26 0,-146.99 57.477,-246.77 103.664,-326.96 24.531,-42.59 44.414,-77.25 51.355,-109.48 L 0,2290.87 v -32 l 354.57,6.4 c -1.386,-15.33 -6.488,-30.53 -16.586,-46.21 -61.964,-96.24 -124.66,-226.49 -176.375,-373.89 L 0,1889.83 v -33.2 l 151.191,-41.77 C 62.3047,1549.65 10.5195,1234.1 61.1328,961.531 L 0,937.93 v -34.289 l 67.5,26.05 C 79.3281,875.52 95.4063,823.25 116.273,773.633 213.031,543.57 398.246,397.211 666.484,337.949 c -0.296,-2.058 -0.582,-4.117 -0.746,-6.207 C 471.191,311.332 391.684,239.941 157.836,0 h 44.719 c 215.691,220.602 288.652,281.262 465.98,299.883 9.469,-37.262 40.297,-65.981 78.676,-72.34 V 0 h 32.004 v 227.543 c 41.133,6.816 73.601,39.316 80.375,80.457 20.566,0.109 41.957,0.051 64.691,-0.02 12.258,-0.027 24.996,-0.058 38.063,-0.07 0.336,0 0.652,-0.008 0.992,-0.008 0.023,0 0.047,0.008 0.07,0.008 2.418,0 4.742,-0.008 7.192,-0.008 H 1275.23 V 0 h 32 v 307.902 h 771.93 C 2079.67,205.32 2080.15,92.6914 2080.3,0 h 32 c -0.15,92.6914 -0.63,205.313 -1.14,307.902 h 417.67 V 0 h 32 v 307.902 h 331.38 V 0 h 32 V 307.902 H 3219 V 0 h 32 v 307.902 h 311.09 c 2.85,-3.91 7.37,-6.531 12.58,-6.64 L 4269,286.922 V 0 h 32 v 137.902 h 532.27 V 0 h 31.99 V 137.902 H 6056.81 C 6337.67,86.1523 6594.97,38.3008 6796.89,0 h 170.32 c -215.75,41.7031 -540.75,102.32 -905.25,169.492 -0.22,0.039 -0.45,0.078 -0.68,0.117" /><path
         id="path210"
         style="fill:#ffffff;fill-opacity:1;fill-rule:nonzero;stroke:none"
         d="m 4788.81,4711.09 v 388.46 c 0,7.73 -6.27,14 -14.01,14 -7.73,0 -14,-6.27 -14,-14 v -388.46 c 0,-7.73 6.27,-14 14,-14 7.74,0 14.01,6.27 14.01,14" /><path
         id="path212"
         style="fill:#ffffff;fill-opacity:1;fill-rule:nonzero;stroke:none"
         d="m 4506.67,4725.09 c -7.73,0 -14,-6.26 -14,-14 v -276.73 c 0,-7.73 6.27,-14 14,-14 7.73,0 14,6.27 14,14 v 276.73 c 0,7.74 -6.27,14 -14,14" /><path
         id="path214"
         style="fill:#ffffff;fill-opacity:1;fill-rule:nonzero;stroke:none"
         d="m 4326.67,4725.09 c -7.73,0 -14,-6.26 -14,-14 v -284.07 c 0,-7.73 6.27,-13.99 14,-13.99 7.73,0 14,6.26 14,13.99 v 284.07 c 0,7.74 -6.27,14 -14,14" /><path
         id="path216"
         style="fill:#ffffff;fill-opacity:1;fill-rule:nonzero;stroke:none"
         d="m 3898.07,4565.72 c 0,-7.73 6.26,-14 14,-14 h 308.15 c 7.74,0 14,6.27 14,14 0,7.74 -6.26,14 -14,14 h -308.15 c -7.74,0 -14,-6.26 -14,-14" /><path
         id="path218"
         style="fill:#ffffff;fill-opacity:1;fill-rule:nonzero;stroke:none"
         d="m 4066.14,5113.55 c -7.73,0 -14,-6.27 -14,-14 v -388.46 c 0,-7.73 6.27,-14 14,-14 7.74,0 14,6.27 14,14 v 180.23 h 140.08 c 7.74,0 14,6.27 14,14 0,7.74 -6.26,14 -14,14 h -140.08 v 180.23 c 0,7.73 -6.26,14 -14,14" /><path
         id="path220"
         style="fill:#ffffff;fill-opacity:1;fill-rule:nonzero;stroke:none"
         d="m 5147.34,4717.23 v 382.32 c 0,7.73 -6.27,14 -14,14 -7.73,0 -14,-6.27 -14,-14 v -382.32 c 0,-7.73 6.27,-13.99 14,-13.99 7.73,0 14,6.26 14,13.99" /><path
         id="path222"
         style="fill:#ffffff;fill-opacity:1;fill-rule:nonzero;stroke:none"
         d="m 4954,4227.23 c 0,7.73 -6.27,14 -14,14 h -331.32 c -7.73,0 -14,-6.27 -14,-14 0,-7.73 6.27,-14 14,-14 H 4940 c 7.73,0 14,6.27 14,14" /><path
         id="path224"
         style="fill:#ffffff;fill-opacity:1;fill-rule:nonzero;stroke:none"
         d="m 4419.8,4427.02 v -364.36 c 0,-7.73 6.27,-14 14.01,-14 7.73,0 14,6.27 14,14 v 364.36 c 0,7.74 -6.27,14 -14,14 -7.74,0 -14.01,-6.26 -14.01,-14" /><path
         id="path226"
         style="fill:#ffffff;fill-opacity:1;fill-rule:nonzero;stroke:none"
         d="m 4220.22,3597.9 h -308.15 c -7.74,0 -14,-6.27 -14,-14 0,-7.73 6.26,-14 14,-14 h 308.15 c 7.74,0 14,6.27 14,14 0,7.73 -6.26,14 -14,14" /><path
         id="path228"
         style="fill:#ffffff;fill-opacity:1;fill-rule:nonzero;stroke:none"
         d="m 4621.74,3473.9 c 0,7.73 -6.27,14 -14.01,14 h -695.66 c -0.58,0 -1.13,-0.09 -1.69,-0.16 0.19,0.91 0.29,1.86 0.29,2.83 0,7.73 -6.27,14 -14,14 h -163.5 v 708.66 h 360.58 l 19.04,-146.14 c 0.92,-7.06 6.94,-12.19 13.86,-12.19 0.61,0 1.22,0.04 1.83,0.11 7.67,1.01 13.07,8.03 12.07,15.7 l -46.67,358.13 c -0.99,7.66 -8,13.11 -15.69,12.07 -7.67,-1 -13.07,-8.03 -12.07,-15.7 l 23.97,-183.98 H 3335 c -7.73,0 -14,-6.27 -14,-14 0,-7.73 6.27,-14 14,-14 h 370.17 v -879.1 c 0,-7.73 6.27,-14 14,-14 7.73,0 14,6.27 14,14 v 142.44 h 163.5 c 0.58,0 1.13,0.09 1.68,0.16 -0.19,-0.91 -0.28,-1.85 -0.28,-2.83 0,-7.73 6.26,-14 14,-14 h 87.27 v -410.04 c 0,-7.74 6.26,-14.01 13.99,-14.01 7.74,0 14,6.27 14,14.01 v 410.04 h 580.4 c 7.74,0 14.01,6.27 14.01,14" /><path
         id="path230"
         style="fill:#ffffff;fill-opacity:1;fill-rule:nonzero;stroke:none"
         d="m 4774,4062.66 c 0,7.73 -6.27,14 -14,14 -7.73,0 -14,-6.27 -14,-14 v -744.8 c 0,-7.73 6.27,-14 14,-14 7.73,0 14,6.27 14,14 v 158.71 h 389.34 c 7.73,0 14,6.27 14,14 v 239.84 c 0,7.74 -6.27,14.01 -14,14.01 -7.73,0 -14,-6.27 -14,-14.01 V 3504.57 H 4774 v 558.09" /><path
         id="path232"
         style="fill:#ffffff;fill-opacity:1;fill-rule:nonzero;stroke:none"
         d="m 5100,3719.9 c 7.73,0 14,6.27 14,14 v 328.76 c 0,7.73 -6.27,14 -14,14 -7.73,0 -14,-6.27 -14,-14 V 3733.9 c 0,-7.73 6.27,-14 14,-14" /><path
         id="path234"
         style="fill:#ffffff;fill-opacity:1;fill-rule:nonzero;stroke:none"
         d="m 5180,3331.87 c -7.73,0 -14,-6.27 -14,-14.01 v -268 c 0,-7.74 6.27,-14.01 14,-14.01 7.73,0 14,6.27 14,14.01 v 268 c 0,7.74 -6.27,14.01 -14,14.01" /><path
         id="path236"
         style="fill:#ffffff;fill-opacity:1;fill-rule:nonzero;stroke:none"
         d="m 4419.8,3315.6 v -265.74 c 0,-7.74 6.27,-14.01 14.01,-14.01 7.73,0 14,6.27 14,14.01 v 265.74 c 0,7.73 -6.27,14 -14,14 -7.74,0 -14.01,-6.27 -14.01,-14" /><path
         id="path238"
         style="fill:#ffffff;fill-opacity:1;fill-rule:nonzero;stroke:none"
         d="M 4940,2911.23 H 3912.07 c -7.74,0 -14,-6.27 -14,-14 0,-7.73 6.26,-14 14,-14 H 4940 c 7.73,0 14,6.27 14,14 0,7.73 -6.27,14 -14,14" /><path
         id="path240"
         style="fill:#ffffff;fill-opacity:1;fill-rule:nonzero;stroke:none"
         d="m 5100,3063.86 c -7.73,0 -14,-6.27 -14,-14 v -302.63 c 0,-7.73 6.27,-14 14,-14 7.73,0 14,6.27 14,14 v 302.63 c 0,7.73 -6.27,14 -14,14" /><path
         id="path242"
         style="fill:#ffffff;fill-opacity:1;fill-rule:nonzero;stroke:none"
         d="m 3314.4,4809.9 h 597.67 c 7.73,0 13.99,6.27 13.99,14 0,7.73 -6.26,14 -13.99,14 H 3314.4 c -7.73,0 -13.99,-6.27 -13.99,-14 0,-7.73 6.26,-14 13.99,-14" /><path
         id="path244"
         style="fill:#ffffff;fill-opacity:1;fill-rule:nonzero;stroke:none"
         d="m 3349,3933.9 c 0,7.73 -6.27,14 -14,14 h -341.38 c -7.74,0 -14,-6.27 -14,-14 0,-7.73 6.26,-14 14,-14 H 3335 c 7.73,0 14,6.27 14,14" /><path
         id="path246"
         style="fill:#ffffff;fill-opacity:1;fill-rule:nonzero;stroke:none"
         d="m 2989.76,3843.13 c 0.21,-0.01 0.41,-0.02 0.62,-0.02 7.45,0 13.65,5.88 13.98,13.4 0.33,7.72 -5.66,14.26 -13.39,14.59 l -164.7,7.13 -8.64,185.08 c -0.36,7.73 -6.84,13.67 -14.64,13.33 -7.72,-0.36 -13.69,-6.91 -13.33,-14.63 l 8.52,-182.57 -229.83,9.94 c -6.12,0.21 -11.56,-3.61 -13.65,-9.12 h -271.41 c -7.74,0 -14,-6.27 -14,-14.01 0,-7.73 6.26,-14 14,-14 H 2560 c 5.93,0 10.97,3.7 13.01,8.91 l 226.48,-9.8 5.51,-118.11 c 0.36,-7.5 6.55,-13.35 13.98,-13.35 0.22,0 0.44,0.01 0.66,0.02 7.72,0.36 13.69,6.91 13.33,14.63 l -5.39,115.59 162.18,-7.01" /><path
         id="path248"
         style="fill:#ffffff;fill-opacity:1;fill-rule:nonzero;stroke:none"
         d="m 3338.57,3843.11 h 265.34 c 7.73,0 14,6.27 14,14 0,7.74 -6.27,14.01 -14,14.01 h -265.34 c -7.74,0 -14,-6.27 -14,-14.01 0,-7.73 6.26,-14 14,-14" /><path
         id="path250"
         style="fill:#ffffff;fill-opacity:1;fill-rule:nonzero;stroke:none"
         d="m 2537.5,4062.66 c 0,-7.73 6.26,-14 14,-14 7.73,0 14,6.27 14,14 v 206.33 h 481.17 l -66.35,-201.97 c -2.41,-7.34 1.58,-15.25 8.93,-17.66 1.45,-0.48 2.92,-0.7 4.37,-0.7 5.89,0 11.36,3.74 13.3,9.63 l 119.72,364.36 c 0.46,1.42 0.69,2.89 0.69,4.37 v 284.07 c 0,7.74 -6.26,14 -14,14 -7.72,0 -13.99,-6.26 -13.99,-14 v -131.37 h -295.7 c -7.73,0 -14,-6.27 -14,-14 0,-7.74 6.27,-14 14,-14 h 295.7 v -122.45 l -43.47,-132.28 H 2252.1 c -7.73,0 -13.99,-6.27 -13.99,-14 0,-7.74 6.26,-14 13.99,-14 h 285.4 v -206.33" /><path
         id="path252"
         style="fill:#ffffff;fill-opacity:1;fill-rule:nonzero;stroke:none"
         d="m 2856.29,3329.6 c -7.73,0 -14,-6.27 -14,-14 v -265.74 c 0,-7.74 6.27,-14.01 14,-14.01 7.74,0 14,6.27 14,14.01 v 265.74 c 0,7.73 -6.26,14 -14,14" /><path
         id="path254"
         style="fill:#ffffff;fill-opacity:1;fill-rule:nonzero;stroke:none"
         d="m 3926.06,3182.73 c 0,7.73 -6.26,14 -13.99,14 h -918.45 c -7.74,0 -14,-6.27 -14,-14 0,-7.74 6.26,-14.01 14,-14.01 h 918.45 c 7.73,0 13.99,6.27 13.99,14.01" /><path
         id="path256"
         style="fill:#ffffff;fill-opacity:1;fill-rule:nonzero;stroke:none"
         d="m 3190,3060.11 c -7.73,0 -14,-6.27 -14,-14 v -312.44 c 0,-7.74 6.27,-14.01 14,-14.01 7.73,0 14,6.27 14,14.01 v 312.44 c 0,7.73 -6.27,14 -14,14" /><path
         id="path258"
         style="fill:#ffffff;fill-opacity:1;fill-rule:nonzero;stroke:none"
         d="m 2772.27,3048.55 c -1.34,7.61 -8.57,12.69 -16.23,11.35 -7.61,-1.35 -12.69,-8.62 -11.34,-16.23 l 52.83,-298.88 c 1.2,-6.79 7.11,-11.56 13.77,-11.56 0.81,0 1.63,0.06 2.45,0.21 7.62,1.35 12.7,8.61 11.35,16.23 l -52.83,298.88" /><path
         id="path260"
         style="fill:#ffffff;fill-opacity:1;fill-rule:nonzero;stroke:none"
         d="m 2640.76,2912.55 h -341.28 c -7.74,0 -14,-6.27 -14,-14 0,-7.74 6.26,-14.01 14,-14.01 h 341.28 c 7.74,0 14,6.27 14,14.01 0,7.73 -6.26,14 -14,14" /><path
         id="path262"
         style="fill:#ffffff;fill-opacity:1;fill-rule:nonzero;stroke:none"
         d="m 4611.07,1685.19 -388.45,67.5 c -7.6,1.36 -14.87,-3.78 -16.19,-11.4 -1.32,-7.61 3.78,-14.86 11.4,-16.18 l 388.46,-67.5 c 0.81,-0.15 1.61,-0.21 2.41,-0.21 6.68,0 12.59,4.8 13.77,11.61 1.33,7.61 -3.78,14.86 -11.4,16.18" /><path
         id="path264"
         style="fill:#ffffff;fill-opacity:1;fill-rule:nonzero;stroke:none"
         d="m 5915.46,1333.2 c -7.74,0 -14,-6.27 -14,-14.01 V 948.191 c 0,-7.742 6.26,-14.011 14,-14.011 7.73,0 14,6.269 14,14.011 v 370.999 c 0,7.74 -6.27,14.01 -14,14.01" /><path
         id="path266"
         style="fill:#ffffff;fill-opacity:1;fill-rule:nonzero;stroke:none"
         d="m 7253.6,964.43 c -7.55,-1.68 -12.3,-9.16 -10.61,-16.707 l 56.6,-253.934 c 1.45,-6.519 7.24,-10.949 13.65,-10.949 1.01,0 2.03,0.101 3.06,0.34 7.55,1.679 12.3,9.16 10.61,16.711 l -56.6,253.922 c -1.69,7.546 -9.15,12.367 -16.71,10.617" /><path
         id="path268"
         style="fill:#ffffff;fill-opacity:1;fill-rule:nonzero;stroke:none"
         d="m 7788.01,696.641 c 0.75,-0.11 1.49,-0.168 2.23,-0.168 6.76,0 12.71,4.898 13.81,11.789 1.22,7.629 -3.98,14.808 -11.61,16.039 -79.78,12.758 -101.01,33.488 -112.26,67.262 -13.03,39.097 -53.18,193.5 -53.58,195.046 -1.94,7.5 -9.63,11.961 -17.07,10.043 -7.49,-1.953 -11.98,-9.593 -10.04,-17.07 1.66,-6.383 40.79,-156.883 54.12,-196.871 16.57,-49.711 52.99,-73.031 134.4,-86.07" /><path
         id="path270"
         style="fill:#ffffff;fill-opacity:1;fill-rule:nonzero;stroke:none"
         d="m 8298.75,3781.5 c -44.28,35.42 -51.42,94.29 -51.42,221.45 0,134.91 -105.98,164.77 -107.04,165.05 l -726.47,194.59 c -7.46,2 -15.15,-2.43 -17.15,-9.9 -2,-7.47 2.43,-15.15 9.9,-17.15 L 8133,4140.97 c 3.52,-0.98 86.33,-25.19 86.33,-138.02 0,-117.05 4.31,-197.22 61.92,-243.31 40.2,-32.16 148.58,-102.2 222.65,-149.53 v 33.24 c -72.5,46.45 -168.6,108.91 -205.15,138.15" /><path
         id="path272"
         style="fill:#ffffff;fill-opacity:1;fill-rule:nonzero;stroke:none"
         d="m 7884,2912.55 v 123.3 h 206 c 7.73,0 14,6.27 14,14.01 0,7.73 -6.27,14 -14,14 h -90.61 v 79.37 H 8170 c 7.73,0 14,6.27 14,14 0,7.73 -6.27,14 -14,14 h -184.61 c -7.73,0 -14,-6.27 -14,-14 v -93.37 h -410.9 c -7.74,0 -14.01,-6.27 -14.01,-14 0,-7.74 6.27,-14.01 14.01,-14.01 H 7856 v -137.3 c 0,-7.74 6.27,-14.01 14,-14.01 h 126 V 2783.9 c 0,-7.73 6.27,-14 14,-14 7.73,0 14,6.27 14,14 v 100.64 h 112 v -174.9 c 0,-7.73 6.27,-14 14,-14 7.73,0 14,6.27 14,14 v 174.9 h 112.67 c 7.73,0 14,6.27 14,14.01 0,7.73 -6.27,14 -14,14 H 7884" /><path
         id="path274"
         style="fill:#ffffff;fill-opacity:1;fill-rule:nonzero;stroke:none"
         d="m 7845.81,445.762 -1066.28,221.789 -71.56,144.84 c -3.43,6.922 -11.82,9.769 -18.75,6.339 -6.93,-3.41 -9.78,-11.808 -6.35,-18.75 l 74.58,-150.941 c 1.91,-3.859 5.48,-6.629 9.7,-7.508 L 7840.11,418.332 c 0.96,-0.191 1.92,-0.293 2.86,-0.293 6.49,0 12.32,4.543 13.7,11.152 1.57,7.571 -3.29,14.981 -10.86,16.571" /><path
         id="path276"
         style="fill:#ffffff;fill-opacity:1;fill-rule:nonzero;stroke:none"
         d="m 2430,7415.98 c 7.73,0 14,6.26 14,14 v 317.84 c 0,7.73 -6.27,14 -14,14 -7.73,0 -14,-6.27 -14,-14 v -317.84 c 0,-7.74 6.27,-14 14,-14" /><path
         id="path278"
         style="fill:#ffffff;fill-opacity:1;fill-rule:nonzero;stroke:none"
         d="m 1985.99,6352.71 c 7.73,0 14,6.27 14,14 v 443.68 c 0,7.73 -6.27,14 -14,14 -7.74,0 -14,-6.27 -14,-14 v -443.68 c 0,-7.73 6.26,-14 14,-14" /><path
         id="path280"
         style="fill:#ffffff;fill-opacity:1;fill-rule:nonzero;stroke:none"
         d="m 927.895,7581.43 c 2.757,0 5.546,0.8 7.988,2.5 l 248.337,172.95 c 6.35,4.42 7.91,13.14 3.49,19.49 -4.42,6.35 -13.14,7.92 -19.49,3.49 L 919.879,7606.91 c -6.344,-4.41 -7.906,-13.14 -3.488,-19.49 2.718,-3.9 7.078,-5.99 11.504,-5.99" /><path
         id="path282"
         style="fill:#ffffff;fill-opacity:1;fill-rule:nonzero;stroke:none"
         d="m 4180.6,7224.46 c 87.74,0 159.12,-71.39 159.12,-159.13 0,-87.74 -71.38,-159.13 -159.12,-159.13 -87.75,0 -159.13,71.39 -159.13,159.13 0,87.74 71.38,159.13 159.13,159.13 z m 0,-346.25 c 85.46,0 157.57,57.66 179.87,136.08 20.82,-5.46 62.84,-17 103.82,-31.32 44.87,-15.67 87.07,-22.54 126.92,-22.54 164.44,0.01 288.56,117 392.24,214.75 l -9.02,10.75 -10.19,9.63 c -129.71,-122.29 -276.72,-260.92 -490.71,-186.15 -42.81,14.95 -86.69,26.93 -107.46,32.36 0.98,7.73 1.65,15.56 1.65,23.56 0,103.18 -83.94,187.12 -187.12,187.12 -103.18,0 -187.13,-83.94 -187.13,-187.12 0,-103.18 83.95,-187.12 187.13,-187.12" /><path
         id="path284"
         style="fill:#ffffff;fill-opacity:1;fill-rule:nonzero;stroke:none"
         d="m 6538.19,6856.28 c -0.02,0 -0.04,0 -0.05,0 -78.84,0 -126.47,15.53 -130.68,42.59 -8.38,53.98 131.74,161.94 331.8,225.65 59.41,18.92 121.66,28.92 180.01,28.92 127.32,0 207.89,-46.17 212.22,-90.79 5.03,-51.78 -81.87,-125.21 -340.85,-176.01 -102.72,-20.15 -187.65,-30.36 -252.45,-30.36 z m 621.17,209.08 c -6.54,67.26 -107.5,116.07 -240.09,116.07 -61.19,0 -126.38,-10.45 -188.51,-30.24 -5.75,-1.83 -11.45,-3.71 -17.12,-5.61 -0.49,0.72 -0.8,1.53 -1.44,2.17 l -182.3,182.3 c -5.47,5.47 -14.33,5.47 -19.8,0 -5.47,-5.47 -5.47,-14.33 0,-19.8 l 174.76,-174.76 c -185.04,-67.5 -316.19,-169.31 -305.07,-240.92 6.84,-43.98 60.11,-66.29 158.34,-66.3 0.02,0 0.04,0 0.06,0 66.6,0 153.35,10.4 257.85,30.89 239.07,46.9 371.49,122.05 363.32,206.2" /><path
         id="path286"
         style="fill:#ffffff;fill-opacity:1;fill-rule:nonzero;stroke:none"
         d="m 1229.66,5035.15 c -78.48,23.57 -156.66,8.69 -232.254,-5.7 -83.25,-15.85 -161.875,-30.81 -237.488,3.84 -7.063,3.25 -15.344,0.13 -18.566,-6.89 -3.215,-7.03 -0.129,-15.34 6.894,-18.56 37.981,-17.41 76.563,-23.52 115.227,-23.52 46.601,0 93.32,8.89 139.167,17.62 72.3,13.76 147.03,27.99 218.97,6.4 7.42,-2.23 15.21,1.98 17.43,9.38 2.22,7.41 -1.97,15.21 -9.38,17.43" /><path
         id="path288"
         style="fill:#ffffff;fill-opacity:1;fill-rule:nonzero;stroke:none"
         d="m 1458.28,1382.4 h 6.76 c 12.49,0 45.67,0 60.39,25.69 13.45,23.46 5.81,59.07 -23.35,108.87 -27.1,46.25 -26.45,78.51 -17.68,92.1 2.07,3.2 5.6,6.85 10.92,6.32 6.78,-0.73 17.4,-8.81 25.05,-29.18 45.36,-120.88 92.25,-181.68 132.18,-171.07 23.51,6.23 35.08,36.77 28.77,76 -4.36,27.11 -2.11,63.37 13.12,78.88 6.34,6.47 14.85,8.83 25.98,7.26 7.63,-1.1 14.75,4.24 15.83,11.89 1.08,7.66 -4.24,14.74 -11.9,15.82 -20.01,2.86 -37.25,-2.47 -49.89,-15.36 -23.68,-24.12 -25.99,-70.52 -20.78,-102.94 4.25,-26.46 -2.09,-42.84 -8.31,-44.49 -9.65,-2.48 -48.63,20.2 -98.79,153.86 -10.43,27.79 -28.02,44.99 -48.25,47.17 -14.78,1.57 -28.72,-5.5 -37.43,-18.96 -17.79,-27.49 -11.43,-72.9 17.02,-121.46 31.71,-54.15 26.8,-74.53 23.22,-80.78 -5.96,-10.41 -23.46,-11.62 -36.1,-11.62 h -6.76 c -7.73,0 -14,-6.27 -14,-14 0,-7.73 6.27,-14 14,-14" /><path
         id="path290"
         style="fill:#ffffff;fill-opacity:1;fill-rule:nonzero;stroke:none"
         d="m 1114.39,1740.33 c 3.83,6.71 1.5,15.26 -5.22,19.1 l -248.014,141.63 c -6.722,3.84 -15.265,1.49 -19.101,-5.22 -3.832,-6.72 -1.496,-15.26 5.215,-19.1 l 248.02,-141.63 c 2.19,-1.25 4.57,-1.84 6.93,-1.84 4.86,0 9.59,2.53 12.17,7.06" /><path
         id="path292"
         style="fill:#ffffff;fill-opacity:1;fill-rule:nonzero;stroke:none"
         d="m 695.426,1487.94 c 0,7.74 -6.266,14.01 -14,14.01 H 382.633 c -7.735,0 -14,-6.27 -14,-14.01 0,-7.73 6.265,-14 14,-14 h 298.793 c 7.734,0 14,6.27 14,14" /><path
         id="path294"
         style="fill:#ffffff;fill-opacity:1;fill-rule:nonzero;stroke:none"
         d="m 365.805,1263.51 c -0.809,7.68 -7.629,13.2 -15.383,12.46 L 55.6875,1245.05 c -7.6914,-0.81 -13.2695,-7.69 -12.4648,-15.39 0.7578,-7.19 6.832,-12.54 13.9062,-12.54 0.4883,0 0.9844,0.03 1.4805,0.08 l 294.7306,30.92 c 7.691,0.81 13.269,7.69 12.465,15.39" /><path
         id="path296"
         style="fill:#ffffff;fill-opacity:1;fill-rule:nonzero;stroke:none"
         d="M 424.57,916.492 178.418,680.289 c -5.582,-5.348 -5.762,-14.207 -0.41,-19.797 2.75,-2.863 6.426,-4.301 10.101,-4.301 3.489,0 6.981,1.289 9.696,3.899 l 246.148,236.199 c 5.582,5.352 5.766,14.211 0.41,19.801 -5.355,5.57 -14.218,5.75 -19.793,0.402" /><path
         id="path298"
         style="fill:#ffffff;fill-opacity:1;fill-rule:nonzero;stroke:none"
         d="M 1029.42,1193.22 795.332,975.941 c -5.664,-5.261 -5.996,-14.121 -0.73,-19.781 2.753,-2.98 6.503,-4.488 10.261,-4.488 3.407,0 6.825,1.238 9.524,3.738 l 234.093,217.28 c 5.66,5.26 5.99,14.12 0.73,19.78 -5.25,5.68 -14.11,6 -19.79,0.75" /><path
         id="path300"
         style="fill:#ffffff;fill-opacity:1;fill-rule:nonzero;stroke:none"
         d="m 870.449,936.859 c -6.504,4.172 -15.176,2.282 -19.34,-4.23 L 693.203,686.422 c -4.176,-6.512 -2.285,-15.172 4.223,-19.352 2.34,-1.488 4.957,-2.211 7.547,-2.211 4.605,0 9.125,2.27 11.797,6.442 l 157.902,246.211 c 4.176,6.519 2.285,15.168 -4.223,19.347" /><path
         id="path302"
         style="fill:#ffffff;fill-opacity:1;fill-rule:nonzero;stroke:none"
         d="m 1146.07,844.242 c -7.7,0.84 -14.64,-4.57 -15.55,-12.25 l -29.85,-251.441 c -0.91,-7.68 4.57,-14.641 12.25,-15.559 0.56,-0.051 1.12,-0.09 1.67,-0.09 6.99,0 13.04,5.227 13.88,12.348 l 29.85,251.441 c 0.91,7.668 -4.57,14.629 -12.25,15.551" /><path
         id="path304"
         style="fill:#ffffff;fill-opacity:1;fill-rule:nonzero;stroke:none"
         d="m 234.641,1984.51 293.168,-92.75 c 1.406,-0.44 2.828,-0.65 4.226,-0.65 5.945,0 11.457,3.82 13.348,9.78 2.328,7.37 -1.754,15.24 -9.129,17.57 l -293.168,92.74 c -7.359,2.3 -15.238,-1.75 -17.574,-9.13 -2.328,-7.36 1.754,-15.23 9.129,-17.56" /><path
         id="path306"
         style="fill:#ffffff;fill-opacity:1;fill-rule:nonzero;stroke:none"
         d="m 332.344,525.809 c -4.684,6.183 -13.465,7.363 -19.617,2.683 L 0,290.813 V 255.66 l 329.668,250.539 c 6.156,4.68 7.352,13.461 2.676,19.61" /><path
         id="path308"
         style="fill:#ffffff;fill-opacity:1;fill-rule:nonzero;stroke:none"
         d="m 110.453,1555.54 c -0.394,7.72 -6.867,13.65 -14.6952,13.26 L 0,1563.88 v -28.04 l 97.1914,4.99 c 7.7266,0.4 13.6636,6.99 13.2616,14.71" /><path
         id="path310"
         style="fill:#ffffff;fill-opacity:1;fill-rule:nonzero;stroke:none"
         d="m 2095.85,519.289 -562.61,-19.738 -61.13,621.639 c -0.75,7.69 -7.45,13.2 -15.3,12.56 -7.7,-0.76 -13.32,-7.6 -12.56,-15.3 l 60.96,-619.868 -212.35,-7.449 c -7.73,-0.281 -13.77,-6.762 -13.5,-14.492 0.26,-7.551 6.47,-13.512 13.98,-13.512 0.17,0 0.33,0.012 0.5,0.012 l 803,28.16 c 7.73,0.281 13.77,6.762 13.5,14.48 -0.27,7.731 -6.53,13.438 -14.49,13.508" /><path
         id="path312"
         style="fill:#ffffff;fill-opacity:1;fill-rule:nonzero;stroke:none"
         d="m 3405.12,646.359 c -7.77,0.602 -14.34,-5.449 -14.79,-13.16 L 3372.7,329 c -0.45,-7.719 5.44,-14.34 13.16,-14.789 0.28,-0.02 0.55,-0.031 0.82,-0.031 7.36,0 13.53,5.761 13.96,13.203 l 17.64,304.199 c 0.45,7.707 -5.44,14.328 -13.16,14.777" /><path
         id="path314"
         style="fill:#ffffff;fill-opacity:1;fill-rule:nonzero;stroke:none"
         d="m 6586.67,2747.67 c -7.73,0 -14,-6.27 -14,-14 V 2343.9 c 0,-7.73 6.27,-14 14,-14 7.73,0 14,6.27 14,14 v 389.77 c 0,7.73 -6.27,14 -14,14" /><path
         id="path316"
         style="fill:#ffffff;fill-opacity:1;fill-rule:nonzero;stroke:none"
         d="m 5813.34,2747.67 c -7.73,0 -14,-6.27 -14,-14 V 2473.9 c 0,-7.73 6.27,-14 14,-14 7.73,0 14,6.27 14,14 v 259.77 c 0,7.73 -6.27,14 -14,14" /><path
         id="path318"
         style="fill:#ffffff;fill-opacity:1;fill-rule:nonzero;stroke:none"
         d="m 6726.29,3220.57 c 0,-7.73 6.27,-14 14,-14 h 193.62 c 7.73,0 14,6.27 14,14 0,7.73 -6.27,14 -14,14 h -193.62 c -7.73,0 -14,-6.27 -14,-14" /><path
         id="path320"
         style="fill:#ffffff;fill-opacity:1;fill-rule:nonzero;stroke:none"
         d="m 7139.34,4063.9 v -330 c 0,-7.73 6.27,-14 14,-14 7.73,0 14,6.27 14,14 v 330 c 0,7.73 -6.27,14 -14,14 -7.73,0 -14,-6.27 -14,-14" /><path
         id="path322"
         style="fill:#ffffff;fill-opacity:1;fill-rule:nonzero;stroke:none"
         d="m 6830.67,3869.37 v 193.29 c 0,7.73 -6.27,14 -14,14 -7.73,0 -14,-6.27 -14,-14 v -193.29 c 0,-7.74 6.27,-14.01 14,-14.01 7.73,0 14,6.27 14,14.01" /><path
         id="path324"
         style="fill:#ffffff;fill-opacity:1;fill-rule:nonzero;stroke:none"
         d="m 6604,5655.3 v 119.6 h 151.39 v -119.6 z m 151.39,-147.01 c 0,-7.73 6.27,-13.99 14,-13.99 7.74,0 14.01,6.26 14.01,13.99 v 430.4 c 0,7.74 -6.27,14 -14.01,14 -7.73,0 -14,-6.26 -14,-14 V 5802.9 H 6604 v 135.79 c 0,7.74 -6.27,14 -14,14 -7.73,0 -14,-6.26 -14,-14 v -430.4 c 0,-7.73 6.27,-13.99 14,-13.99 7.73,0 14,6.26 14,13.99 v 119.01 h 151.39 v -119.01" /><path
         id="path326"
         style="fill:#ffffff;fill-opacity:1;fill-rule:nonzero;stroke:none"
         d="m 5820.21,5952.69 c -7.74,0 -14.01,-6.26 -14.01,-14 v -430.4 c 0,-7.73 6.27,-13.99 14.01,-13.99 7.73,0 14,6.26 14,13.99 v 430.4 c 0,7.74 -6.27,14 -14,14" /><path
         id="path328"
         style="fill:#ffffff;fill-opacity:1;fill-rule:nonzero;stroke:none"
         d="m 2856.29,7272.25 h 433.95 c 7.74,0 14,6.27 14,14 0,7.74 -6.26,14 -14,14 h -433.95 c -7.73,0 -14,-6.26 -14,-14 0,-7.73 6.27,-14 14,-14" /><path
         id="path330"
         style="fill:#ffffff;fill-opacity:1;fill-rule:nonzero;stroke:none"
         d="m 5171.74,2357.9 c -7.74,0 -14.01,-6.27 -14.01,-14 v -381.08 c 0,-7.74 6.27,-14.01 14.01,-14.01 7.73,0 14,6.27 14,14.01 v 381.08 c 0,7.73 -6.27,14 -14,14" /><path
         id="path332"
         style="fill:#ffffff;fill-opacity:1;fill-rule:nonzero;stroke:none"
         d="m 5985,4076.66 c -7.73,0 -14,-6.27 -14,-14 v -147.12 c 0,-7.73 6.27,-14 14,-14 7.73,0 14,6.27 14,14 v 147.12 c 0,7.73 -6.27,14 -14,14" /><path
         id="path334"
         style="fill:#ffffff;fill-opacity:1;fill-rule:nonzero;stroke:none"
         d="m 5450,5113.55 c -7.73,0 -14,-6.27 -14,-14 v -191.16 c 0,-7.73 6.27,-14 14,-14 7.73,0 14,6.27 14,14 v 191.16 c 0,7.73 -6.27,14 -14,14" /><path
         id="path336"
         style="fill:#ffffff;fill-opacity:1;fill-rule:nonzero;stroke:none"
         d="M 5329.38,5724.56 H 5100 c -7.73,0 -14,-6.26 -14,-13.99 0,-7.74 6.27,-14 14,-14 h 229.38 c 7.74,0 14.01,6.26 14.01,14 0,7.73 -6.27,13.99 -14.01,13.99" /><path
         id="path338"
         style="fill:#ffffff;fill-opacity:1;fill-rule:nonzero;stroke:none"
         d="m 4520.67,5938.69 c 0,7.74 -6.27,14 -14,14 -7.73,0 -14,-6.26 -14,-14 V 5763.9 c 0,-7.73 6.27,-14 14,-14 7.73,0 14,6.27 14,14 v 174.79" /><path
         id="path340"
         style="fill:#ffffff;fill-opacity:1;fill-rule:nonzero;stroke:none"
         d="m 4625.25,6138.01 c 0,7.74 -6.27,14 -14,14 h -257.53 c -7.73,0 -14,-6.26 -14,-14 0,-7.73 6.27,-14 14,-14 h 257.53 c 7.73,0 14,6.27 14,14" /><path
         id="path342"
         style="fill:#ffffff;fill-opacity:1;fill-rule:nonzero;stroke:none"
         d="m 7086,6588.55 v -297.98 c 0,-7.74 6.27,-14 14,-14 7.73,0 14,6.26 14,14 v 283.98 h 296.2 c 7.73,0 14,6.26 14,14 0,7.73 -6.27,14 -14,14 H 7100 c -7.73,0 -14,-6.27 -14,-14" /><path
         id="path344"
         style="fill:#ffffff;fill-opacity:1;fill-rule:nonzero;stroke:none"
         d="m 789.336,3049.86 c 0,-7.74 6.266,-14.01 14,-14.01 h 311.234 c 7.73,0 14,6.27 14,14.01 0,7.73 -6.27,14 -14,14 H 803.336 c -7.734,0 -14,-6.27 -14,-14" /><path
         id="path346"
         style="fill:#ffffff;fill-opacity:1;fill-rule:nonzero;stroke:none"
         d="m 1011.5,3203.93 v 182.47 c 0,7.73 -6.27,14 -14,14 -7.734,0 -14,-6.27 -14,-14 v -182.47 c 0,-7.74 6.266,-14 14,-14 7.73,0 14,6.26 14,14" /><path
         id="path348"
         style="fill:#ffffff;fill-opacity:1;fill-rule:nonzero;stroke:none"
         d="m 785,4122.9 c -7.734,0 -14,-6.27 -14,-14 v -161.68 c 0,-7.73 6.266,-14 14,-14 7.734,0 14,6.27 14,14 v 161.68 c 0,7.73 -6.266,14 -14,14" /><path
         id="path350"
         style="fill:#ffffff;fill-opacity:1;fill-rule:nonzero;stroke:none"
         d="m 4066.14,2357.9 c -7.73,0 -14,-6.27 -14,-14 v -381.08 c 0,-7.74 6.27,-14.01 14,-14.01 7.74,0 14,6.27 14,14.01 v 381.08 c 0,7.73 -6.26,14 -14,14" /><path
         id="path352"
         style="fill:#ffffff;fill-opacity:1;fill-rule:nonzero;stroke:none"
         d="m 6590,4441.02 c -7.73,0 -14,-6.26 -14,-14 v -144.03 c 0,-7.74 6.27,-14 14,-14 7.73,0 14,6.26 14,14 v 144.03 c 0,7.74 -6.27,14 -14,14" /><path
         id="path354"
         style="fill:#ffffff;fill-opacity:1;fill-rule:nonzero;stroke:none"
         d="m 7410.2,5352.9 h -256.86 c -7.73,0 -14,-6.27 -14,-14 0,-7.73 6.27,-14 14,-14 h 256.86 c 7.73,0 14,6.27 14,14 0,7.73 -6.27,14 -14,14" /><path
         id="path356"
         style="fill:#ffffff;fill-opacity:1;fill-rule:nonzero;stroke:none"
         d="m 2396.46,6728.62 h 211.71 c 7.74,0 14,6.27 14,14 0,7.74 -6.26,14 -14,14 h -211.71 c -7.73,0 -14,-6.26 -14,-14 0,-7.73 6.27,-14 14,-14" /><path
         id="path358"
         style="fill:#fff100;fill-opacity:1;fill-rule:nonzero;stroke:none"
         d="m 3603.91,2784.62 c 28.1,0 50.95,-22.85 50.95,-50.94 0,-28.1 -22.85,-50.96 -50.95,-50.96 -28.1,0 -50.96,22.86 -50.96,50.96 0,28.09 22.86,50.94 50.96,50.94 z m -50.93,3724.57 c 0,28.07 22.81,50.9 50.87,50.95 0.02,0 0.04,-0.01 0.06,-0.01 0.03,0 0.06,0.01 0.09,0.01 28.07,-0.03 50.89,-22.87 50.89,-50.95 0,-28.1 -22.85,-50.95 -50.95,-50.95 -28.1,0 -50.96,22.85 -50.96,50.95 z m 154.13,-18.85 1595.27,133.21 V 5965.7 H 3630.91 v 442.17 c 38.88,10.37 68.9,42.45 76.2,82.47 z M 5329.38,4477.91 c 0.11,0 0.21,0.03 0.32,0.03 27.95,-0.17 50.64,-22.93 50.64,-50.92 0,-28.1 -22.86,-50.95 -50.96,-50.95 -28.09,0 -50.95,22.85 -50.95,50.95 0,27.99 22.69,50.75 50.64,50.92 0.11,0 0.21,-0.03 0.31,-0.03 z m 27.01,1433.78 h 2026.8 V 4454.03 h -1952.5 c -9.65,36.17 -38.13,64.65 -74.3,74.3 z m 0,716.37 1955.09,163.25 c 11.57,-32.19 38.36,-57.08 71.71,-65.98 V 5965.7 h -2026.8 z m 2053.81,249.53 c 28.09,0 50.95,-22.86 50.95,-50.95 0,-28.1 -22.86,-50.96 -50.95,-50.96 -28.1,0 -50.96,22.86 -50.96,50.96 0,28.09 22.86,50.95 50.96,50.95 z m 50.95,-4532.38 c 0,-28.1 -22.86,-50.95 -50.95,-50.95 -28.1,0 -50.96,22.85 -50.96,50.95 0,28.09 22.86,50.96 50.96,50.96 28.09,0 50.95,-22.87 50.95,-50.96 z m -2104.76,415.46 v 1565.05 c 36.17,9.65 64.65,38.13 74.3,74.3 h 1952.5 V 2760.67 Z M 3630.91,4454.03 V 5911.69 H 5302.38 V 4528.33 c -36.17,-9.65 -64.65,-38.13 -74.3,-74.3 z M 5302.38,2760.67 H 3705.22 c -9.65,36.18 -38.13,64.65 -74.31,74.3 v 1565.05 h 1597.17 c 9.65,-36.17 38.13,-64.65 74.3,-74.3 z M 1744.47,6300.13 c -28.1,0 -50.95,22.85 -50.95,50.95 0,28.1 22.85,50.95 50.95,50.95 28.1,0 50.95,-22.85 50.95,-50.95 0,-28.1 -22.85,-50.95 -50.95,-50.95 z M 590.797,4105.07 c 0.418,0.61 0.808,1.22 1.176,1.86 1.699,2.93 175.453,293.09 661.167,293.09 h 980.28 1343.49 V 2834.97 c -36.18,-9.64 -64.65,-38.12 -74.31,-74.3 H 2314.94 2313.37 0 v -54.01 h 2313.37 1.57 1187.66 c 9.66,-36.17 38.14,-64.64 74.31,-74.29 V 1373.9 c 0,-0.1 0.03,-0.2 0.03,-0.29 V 0 h 54 v 1373.9 c 0,0.1 -0.03,0.2 -0.03,0.29 v 1258.18 c 36.17,9.65 64.65,38.12 74.3,74.29 H 5302.38 V 1070.22 c 0,-14.91 12.09,-27 27,-27 14.92,0 27.01,12.09 27.01,27 v 1636.44 h 2026.8 v -260.14 c -44.8,-11.97 -77.96,-52.79 -77.96,-101.31 0,-57.87 47.09,-104.95 104.97,-104.95 57.87,0 104.96,47.08 104.96,104.95 0,48.52 -33.16,89.34 -77.96,101.31 v 260.14 h 186.79 c 14.92,0 27.01,12.09 27.01,27.01 0,14.91 -12.09,27 -27.01,27 H 7437.2 v 3151.02 h 1066.7 v 54.01 H 7437.2 v 759.63 c 38.97,10.4 69.05,42.65 76.23,82.83 l 990.47,82.41 v 54.18 l -994.99,-82.78 c -11.57,32.18 -38.36,57.07 -71.71,65.97 V 8503.9 h -54.01 V 6927.94 c -38.97,-10.4 -69.05,-42.64 -76.23,-82.82 L 3702.78,6544.16 c -11.49,32.37 -38.38,57.42 -71.87,66.35 V 8503.9 h -54 V 6610.49 c -39.09,-10.45 -69.2,-42.86 -76.26,-83.21 L 1842.3,6388.81 c -15.2,39.26 -53.27,67.23 -97.83,67.23 -57.87,0 -104.96,-47.09 -104.96,-104.96 0,-57.87 47.09,-104.96 104.96,-104.96 52.43,0 95.88,38.69 103.61,88.99 l 1657.29,138.38 c 11.63,-32 38.33,-56.72 71.54,-65.6 V 4454.03 H 2233.42 1253.14 c -506.867,0 -693.335,-295.61 -707.281,-319 L 0,3348.23 v -94.73 l 590.797,851.57" /></g></g></svg>
