<svg width="57" height="57" viewBox="0 0 57 57" fill="none"
  xmlns="http://www.w3.org/2000/svg">
  <path d="M43.8034 0.768799H13.635C6.59728 0.768799 0.89209 6.46975 0.89209 13.5022V43.8869C0.89209 50.9194 6.59728 56.6203 13.635 56.6203H43.8034C50.8411 56.6203 56.5463 50.9194 56.5463 43.8869V13.5022C56.5463 6.46975 50.8411 0.768799 43.8034 0.768799Z" fill="#9FCE5E"/>
  <path d="M7.96643 49.4193L10.9079 38.6815C9.09278 35.5384 8.13901 31.9753 8.14079 28.3216C8.14665 16.8991 17.4481 7.60376 28.8776 7.60376C34.424 7.60569 39.6304 9.76424 43.5466 13.681C47.461 17.5977 49.6161 22.8038 49.6144 28.3408C49.6085 39.7652 40.3069 49.0605 28.8776 49.0605C25.4077 49.0589 21.9886 48.1893 18.9599 46.5376L7.96643 49.4193ZM19.469 42.7863C22.3913 44.52 25.1811 45.5584 28.8706 45.5601C38.3698 45.5601 46.108 37.8347 46.1132 28.3374C46.1171 18.8208 38.4151 11.1059 28.8845 11.1024C19.3784 11.1024 11.6455 18.8278 11.642 28.3234C11.64 32.2001 12.777 35.1028 14.6863 38.1396L12.9444 44.4956L19.469 42.7863ZM39.3235 33.2664C39.1941 33.0505 38.849 32.9213 38.3297 32.6618C37.8117 32.4024 35.2644 31.1495 34.7884 30.977C34.3139 30.8046 33.9689 30.7176 33.622 31.2365C33.2767 31.7541 32.2828 32.9213 31.9812 33.2663C31.6793 33.6114 31.3762 33.6548 30.8583 33.3956C30.3403 33.1361 28.6701 32.5906 26.6911 30.8256C25.1514 29.4527 24.1105 27.7575 23.8088 27.2382C23.507 26.7206 23.776 26.4402 24.0356 26.1824C24.2695 25.9506 24.5536 25.5779 24.8132 25.2747C25.0761 24.975 25.1618 24.759 25.3364 24.4122C25.509 24.0672 25.4234 23.7642 25.2903 23.5045C25.1592 23.2463 24.1238 20.6976 23.6931 19.6609C23.2713 18.6521 22.8439 18.788 22.5266 18.7723L21.5328 18.7518C21.1875 18.7518 20.6261 18.8811 20.1519 19.3998C19.6774 19.9187 18.3385 21.1699 18.3385 23.719C18.3385 26.268 20.1954 28.7298 20.4535 29.0749C20.7131 29.4199 24.1063 34.6503 29.304 36.8926C30.5403 37.426 31.5062 37.7446 32.2577 37.9833C33.4992 38.3771 34.629 38.3211 35.5218 38.1887C36.5174 38.0409 38.587 36.936 39.0195 35.7269C39.4518 34.5159 39.4518 33.4793 39.3213 33.2633L39.3235 33.2664Z" fill="white"/>
</svg>
