<svg width="40" height="39" viewBox="0 0 40 39" fill="none" xmlns="http://www.w3.org/2000/svg">
<g clip-path="url(#clip0)">
<path d="M19.9862 38.3532C30.8478 38.3532 39.6529 29.8505 39.6529 19.3618C39.6529 8.87311 30.8478 0.370361 19.9862 0.370361C9.12465 0.370361 0.31958 8.87311 0.31958 19.3618C0.31958 29.8505 9.12465 38.3532 19.9862 38.3532Z" fill="#4E8CEF"/>
<path d="M36.6735 14.2961H3.20508V25.2087H36.6735V14.2961Z" fill="#569307"/>
<path d="M16.7392 23.7022C15.8554 23.6766 14.9496 23.4129 14.0224 22.9113C13.9547 22.8746 13.8982 22.8478 13.8968 22.8516C13.8953 22.8554 13.9301 22.9567 13.9741 23.0768C14.018 23.1968 14.0777 23.3602 14.1067 23.44L14.1594 23.5849L12.9712 23.5848L11.783 23.5847L11.716 23.3685C11.6791 23.2497 11.6038 23.0081 11.5486 22.8318L11.4483 22.5111L10.0152 22.5109L8.5822 22.5108L8.52724 22.6795C8.49701 22.7723 8.41802 23.014 8.35171 23.2166L8.23115 23.5849H7.10105H5.97095L6.07312 23.2974C6.18653 22.9782 6.3516 22.5152 6.41963 22.3254C6.44399 22.2575 6.49197 22.1227 6.52625 22.026C6.56053 21.9293 6.63282 21.7261 6.6869 21.5745C7.27781 19.9178 7.85165 18.3087 7.93094 18.0859C7.98491 17.9343 8.04898 17.7546 8.07333 17.6867C8.1304 17.5273 8.21225 17.2977 8.27828 17.1116C8.30704 17.0305 8.37715 16.8338 8.43409 16.6743C8.49102 16.5149 8.56265 16.3138 8.59326 16.2276C8.62386 16.1413 8.65701 16.0493 8.66691 16.0232L8.68492 15.9757L9.33325 15.9677C9.68983 15.9633 10.3359 15.9628 10.7691 15.9665L11.5566 15.9733L11.5925 16.079C11.6123 16.1372 11.706 16.4115 11.8009 16.6886C11.8957 16.9657 12.118 17.6159 12.2948 18.1334C12.7606 19.497 13.2202 20.8404 13.4761 21.5864C13.5715 21.8648 13.6519 22.0926 13.6546 22.0926C13.6573 22.0926 13.6952 22.0209 13.7388 21.9333C13.8548 21.7005 14.062 21.2835 14.1486 21.1087C14.19 21.0251 14.2483 20.9087 14.2782 20.8502L14.3325 20.7437L14.4555 20.816C14.8365 21.0396 15.3133 21.272 15.6663 21.4059C16.3992 21.6841 17.0086 21.741 17.3596 21.564C17.4457 21.5206 17.5162 21.4593 17.5512 21.3974C17.5757 21.3541 17.5806 21.3333 17.584 21.2598C17.5945 21.0317 17.473 20.8909 17.1293 20.733C16.8977 20.6267 16.6089 20.5304 15.9441 20.338C15.5115 20.2127 15.413 20.1811 15.2135 20.1034C14.7671 19.9296 14.4314 19.723 14.1648 19.4581C14.0462 19.3403 13.9945 19.2785 13.9117 19.1553C13.7633 18.9346 13.6607 18.6649 13.6132 18.3711C13.5919 18.2391 13.5837 17.9209 13.5982 17.7858C13.634 17.451 13.7444 17.1501 13.9297 16.8822C14.3495 16.2755 15.1302 15.8861 16.1486 15.7755C17.0437 15.6783 17.9213 15.8159 18.8232 16.1948C18.9408 16.2442 19.3439 16.4391 19.36 16.4543C19.364 16.458 19.2896 16.647 19.1947 16.8743C19.0999 17.1015 18.9486 17.465 18.8585 17.6819C18.7685 17.8989 18.6936 18.0779 18.6922 18.0798C18.6907 18.0816 18.6771 18.0769 18.6618 18.0693C18.0302 17.7546 17.6433 17.6218 17.117 17.5388C16.7723 17.4845 16.5123 17.5007 16.3341 17.5876C16.1606 17.6722 16.0912 17.8435 16.1692 17.9943C16.227 18.1061 16.3677 18.2199 16.5672 18.3164C16.6919 18.3767 16.8029 18.4166 17.0493 18.4897C18.0231 18.7786 18.4701 18.9436 18.8507 19.1548C19.3506 19.4323 19.6718 19.7771 19.8429 20.2199C19.8784 20.3119 19.9286 20.4856 19.9286 20.5166C19.9286 20.5259 19.9321 20.5336 19.9363 20.5336C19.9406 20.5336 19.9423 19.507 19.94 18.2523L19.936 15.9709L21.5639 15.971C22.5668 15.9711 23.2465 15.9748 23.3345 15.9808C23.9463 16.0222 24.4148 16.1371 24.8849 16.361C25.2142 16.5178 25.4794 16.7015 25.7418 16.9544C26.2162 17.4117 26.5421 18.0058 26.7093 18.7181C26.8423 19.2846 26.8614 19.8699 26.765 20.4243C26.7443 20.5436 26.7406 20.5893 26.7548 20.5516C26.7599 20.538 27.2024 19.2965 27.2965 19.0317C27.4445 18.6152 27.5801 18.2347 27.7147 17.8578C28.0093 17.0331 28.2787 16.2771 28.3321 16.1253L28.3865 15.9708L29.8243 15.9733L31.2622 15.9757L31.3248 16.161C31.3593 16.263 31.4689 16.5838 31.5683 16.8739C31.6678 17.1641 31.9049 17.8571 32.0952 18.4139C32.2856 18.9707 32.4473 19.4433 32.4548 19.4642C32.4622 19.4852 32.5479 19.7354 32.6453 20.0203C33.0326 21.154 33.5237 22.5897 33.6891 23.0717L33.8635 23.5802L32.6776 23.5826C32.0253 23.5839 31.4899 23.5833 31.4877 23.5812C31.4842 23.5778 31.1602 22.5216 31.1602 22.5137C31.1602 22.5121 30.5152 22.5118 29.7269 22.5132L28.2937 22.5156L28.1135 23.0479L27.9334 23.5802L26.8053 23.5826C26.1849 23.5839 25.6773 23.5817 25.6773 23.5775C25.6773 23.5734 25.6866 23.5445 25.6981 23.5133C25.7095 23.4821 25.7626 23.3336 25.8162 23.1833C25.8697 23.033 25.9582 22.7849 26.0127 22.632C26.2304 22.0221 26.2876 21.8595 26.2876 21.8509C26.2876 21.846 26.2533 21.8984 26.2113 21.9674C25.6107 22.9551 24.6434 23.4957 23.3345 23.5751C23.2336 23.5812 22.5617 23.5849 21.5613 23.5849L19.9505 23.585L19.9435 23.3544C19.9396 23.2277 19.938 22.8299 19.9399 22.4704C19.9418 22.111 19.94 21.8169 19.936 21.8169C19.9319 21.8169 19.9286 21.8246 19.9286 21.8339C19.9286 21.8433 19.9157 21.8894 19.8999 21.9364C19.6872 22.5701 19.1788 23.095 18.4836 23.3987C18.179 23.5318 17.8292 23.6239 17.4491 23.671C17.3242 23.6865 16.8683 23.7127 16.8328 23.7064C16.8273 23.7054 16.7853 23.7036 16.7392 23.7022V23.7022ZM22.9457 21.6169C23.4913 21.5672 23.8947 21.3208 24.1452 20.8841C24.3301 20.5619 24.4228 20.0484 24.3887 19.5356C24.3275 18.6179 23.9573 18.1041 23.2416 17.9438C23.0882 17.9095 22.9562 17.9005 22.6006 17.9005H22.2517V19.7637V21.6268L22.5445 21.6268C22.7056 21.6268 22.8861 21.6223 22.9457 21.6169ZM30.5764 20.7297C30.5735 20.7226 30.5308 20.5868 30.4813 20.4279C30.4319 20.2691 30.3724 20.0814 30.349 20.0108C30.2981 19.8568 30.2567 19.7272 30.1775 19.4737C30.1448 19.3692 30.0919 19.2002 30.0599 19.0983C30.028 18.9963 29.9426 18.7215 29.8703 18.4875C29.7979 18.2536 29.7356 18.0654 29.7319 18.0693C29.7281 18.0732 29.5406 18.67 29.3151 19.3954C29.0897 20.1209 28.9028 20.7208 28.8997 20.7286C28.8947 20.7411 28.9947 20.7427 29.7378 20.7427C30.4477 20.7427 30.5807 20.7407 30.5764 20.7297ZM10.8588 20.7166C10.8182 20.5837 10.4949 19.5385 10.4597 19.4262C10.4335 19.3426 10.3244 18.9929 10.2173 18.6491C10.1102 18.3054 10.0208 18.0259 10.0186 18.028C10.0164 18.0301 10.0022 18.0718 9.98688 18.1206C9.9716 18.1695 9.89184 18.4234 9.80964 18.6848C9.28475 20.3539 9.16947 20.7218 9.16947 20.7278C9.16947 20.7308 9.55072 20.7332 10.0167 20.7332C10.8189 20.7332 10.8636 20.7324 10.8588 20.7166Z" fill="#FDFFFB"/>
</g>
<defs>
<clipPath id="clip0">
<rect width="40" height="38.6266" fill="white"/>
</clipPath>
</defs>
</svg>
