<svg width="40" height="39" viewBox="0 0 40 39" fill="none" xmlns="http://www.w3.org/2000/svg">
<g clip-path="url(#clip0)">
<path d="M19.9863 38.3532C30.8479 38.3532 39.653 29.8505 39.653 19.3618C39.653 8.87311 30.8479 0.370361 19.9863 0.370361C9.12471 0.370361 0.319641 8.87311 0.319641 19.3618C0.319641 29.8505 9.12471 38.3532 19.9863 38.3532Z" fill="#F29900"/>
<path d="M36.6735 14.2961H3.20508V25.2087H36.6735V14.2961Z" fill="#569307"/>
<path d="M16.7391 23.7022C15.8553 23.6766 14.9495 23.4129 14.0223 22.9113C13.9546 22.8746 13.8981 22.8478 13.8967 22.8516C13.8952 22.8554 13.93 22.9567 13.974 23.0768C14.0179 23.1968 14.0776 23.3602 14.1066 23.44L14.1593 23.5849L12.9711 23.5848L11.7829 23.5847L11.7159 23.3685C11.679 23.2497 11.6037 23.0081 11.5485 22.8318L11.4482 22.5111L10.0151 22.5109L8.58211 22.5108L8.52714 22.6795C8.49691 22.7723 8.41793 23.014 8.35162 23.2166L8.23105 23.5849H7.10095H5.97086L6.07303 23.2974C6.18644 22.9782 6.3515 22.5152 6.41954 22.3254C6.4439 22.2575 6.49188 22.1227 6.52616 22.026C6.56044 21.9293 6.63273 21.7261 6.68681 21.5745C7.27772 19.9178 7.85155 18.3087 7.93085 18.0859C7.98482 17.9343 8.04889 17.7546 8.07324 17.6867C8.13031 17.5273 8.21216 17.2977 8.27819 17.1116C8.30694 17.0305 8.37705 16.8338 8.43399 16.6743C8.49093 16.5149 8.56256 16.3138 8.59317 16.2276C8.62377 16.1413 8.65692 16.0493 8.66682 16.0232L8.68483 15.9757L9.33315 15.9677C9.68973 15.9633 10.3359 15.9628 10.769 15.9665L11.5565 15.9733L11.5924 16.079C11.6122 16.1372 11.7059 16.4115 11.8008 16.6886C11.8956 16.9657 12.1179 17.6159 12.2947 18.1334C12.7606 19.497 13.2202 20.8404 13.476 21.5864C13.5714 21.8648 13.6518 22.0926 13.6545 22.0926C13.6572 22.0926 13.6951 22.0209 13.7387 21.9333C13.8547 21.7005 14.0619 21.2835 14.1485 21.1087C14.1899 21.0251 14.2483 20.9087 14.2781 20.8502L14.3324 20.7437L14.4554 20.816C14.8364 21.0396 15.3132 21.272 15.6662 21.4059C16.3991 21.6841 17.0085 21.741 17.3595 21.564C17.4456 21.5206 17.5161 21.4593 17.5511 21.3974C17.5756 21.3541 17.5806 21.3333 17.5839 21.2598C17.5945 21.0317 17.473 20.8909 17.1293 20.733C16.8976 20.6267 16.6088 20.5304 15.944 20.338C15.5114 20.2127 15.4129 20.1811 15.2134 20.1034C14.767 19.9296 14.4313 19.723 14.1647 19.4581C14.0461 19.3403 13.9944 19.2785 13.9116 19.1553C13.7632 18.9346 13.6606 18.6649 13.6131 18.3711C13.5918 18.2391 13.5836 17.9209 13.5981 17.7858C13.6339 17.451 13.7443 17.1501 13.9296 16.8822C14.3494 16.2755 15.1302 15.8861 16.1485 15.7755C17.0436 15.6783 17.9212 15.8159 18.8231 16.1948C18.9407 16.2442 19.3438 16.4391 19.3599 16.4543C19.3639 16.458 19.2895 16.647 19.1947 16.8743C19.0998 17.1015 18.9485 17.465 18.8584 17.6819C18.7684 17.8989 18.6935 18.0779 18.6921 18.0798C18.6906 18.0816 18.677 18.0769 18.6617 18.0693C18.0301 17.7546 17.6432 17.6218 17.1169 17.5388C16.7722 17.4845 16.5122 17.5007 16.334 17.5876C16.1606 17.6722 16.0911 17.8435 16.1691 17.9943C16.227 18.1061 16.3676 18.2199 16.5671 18.3164C16.6918 18.3767 16.8028 18.4166 17.0492 18.4897C18.023 18.7786 18.47 18.9436 18.8506 19.1548C19.3505 19.4323 19.6717 19.7771 19.8428 20.2199C19.8783 20.3119 19.9285 20.4856 19.9285 20.5166C19.9285 20.5259 19.932 20.5336 19.9362 20.5336C19.9405 20.5336 19.9422 19.507 19.9399 18.2523L19.9359 15.9709L21.5638 15.971C22.5667 15.9711 23.2465 15.9748 23.3344 15.9808C23.9462 16.0222 24.4147 16.1371 24.8848 16.361C25.2141 16.5178 25.4793 16.7015 25.7418 16.9544C26.2161 17.4117 26.542 18.0058 26.7092 18.7181C26.8422 19.2846 26.8613 19.8699 26.7649 20.4243C26.7442 20.5436 26.7405 20.5893 26.7547 20.5516C26.7598 20.538 27.2023 19.2965 27.2964 19.0317C27.4444 18.6152 27.58 18.2347 27.7146 17.8578C28.0092 17.0331 28.2786 16.2771 28.332 16.1253L28.3864 15.9708L29.8242 15.9733L31.2621 15.9757L31.3247 16.161C31.3592 16.263 31.4688 16.5838 31.5683 16.8739C31.6677 17.1641 31.9049 17.8571 32.0952 18.4139C32.2855 18.9707 32.4473 19.4433 32.4547 19.4642C32.4621 19.4852 32.5478 19.7354 32.6452 20.0203C33.0325 21.154 33.5236 22.5897 33.689 23.0717L33.8634 23.5802L32.6775 23.5826C32.0253 23.5839 31.4898 23.5833 31.4876 23.5812C31.4841 23.5778 31.1601 22.5216 31.1601 22.5137C31.1601 22.5121 30.5151 22.5118 29.7268 22.5132L28.2936 22.5156L28.1134 23.0479L27.9333 23.5802L26.8053 23.5826C26.1848 23.5839 25.6772 23.5817 25.6772 23.5775C25.6772 23.5734 25.6865 23.5445 25.698 23.5133C25.7094 23.4821 25.7626 23.3336 25.8161 23.1833C25.8696 23.033 25.9581 22.7849 26.0126 22.632C26.2303 22.0221 26.2875 21.8595 26.2875 21.8509C26.2875 21.846 26.2532 21.8984 26.2112 21.9674C25.6106 22.9551 24.6434 23.4957 23.3344 23.5751C23.2335 23.5812 22.5616 23.5849 21.5612 23.5849L19.9504 23.585L19.9434 23.3544C19.9395 23.2277 19.9379 22.8299 19.9398 22.4704C19.9417 22.111 19.9399 21.8169 19.9359 21.8169C19.9318 21.8169 19.9285 21.8246 19.9285 21.8339C19.9285 21.8433 19.9156 21.8894 19.8998 21.9364C19.6871 22.5701 19.1787 23.095 18.4836 23.3987C18.1789 23.5318 17.8291 23.6239 17.449 23.671C17.3241 23.6865 16.8682 23.7127 16.8327 23.7064C16.8273 23.7054 16.7852 23.7036 16.7391 23.7022V23.7022ZM22.9456 21.6169C23.4912 21.5672 23.8946 21.3208 24.1451 20.8841C24.33 20.5619 24.4227 20.0484 24.3886 19.5356C24.3274 18.6179 23.9572 18.1041 23.2415 17.9438C23.0881 17.9095 22.9562 17.9005 22.6005 17.9005H22.2516V19.7637V21.6268L22.5444 21.6268C22.7055 21.6268 22.886 21.6223 22.9456 21.6169ZM30.5763 20.7297C30.5734 20.7226 30.5307 20.5868 30.4813 20.4279C30.4318 20.2691 30.3723 20.0814 30.349 20.0108C30.298 19.8568 30.2566 19.7272 30.1774 19.4737C30.1447 19.3692 30.0918 19.2002 30.0599 19.0983C30.0279 18.9963 29.9425 18.7215 29.8702 18.4875C29.7978 18.2536 29.7356 18.0654 29.7318 18.0693C29.728 18.0732 29.5405 18.67 29.315 19.3954C29.0896 20.1209 28.9027 20.7208 28.8996 20.7286C28.8946 20.7411 28.9946 20.7427 29.7377 20.7427C30.4476 20.7427 30.5806 20.7407 30.5763 20.7297ZM10.8587 20.7166C10.8181 20.5837 10.4949 19.5385 10.4596 19.4262C10.4334 19.3426 10.3243 18.9929 10.2172 18.6491C10.1101 18.3054 10.0207 18.0259 10.0185 18.028C10.0163 18.0301 10.0021 18.0718 9.98678 18.1206C9.97151 18.1695 9.89175 18.4234 9.80955 18.6848C9.28466 20.3539 9.16938 20.7218 9.16938 20.7278C9.16938 20.7308 9.55063 20.7332 10.0166 20.7332C10.8188 20.7332 10.8635 20.7324 10.8587 20.7166Z" fill="#FDFFFB"/>
</g>
<defs>
<clipPath id="clip0">
<rect width="40" height="38.6266" fill="white"/>
</clipPath>
</defs>
</svg>
