<svg width="57" height="55" viewBox="0 0 57 55" fill="none" xmlns="http://www.w3.org/2000/svg">
<path d="M28.5 55C44.2401 55 57 42.6878 57 27.5C57 12.3122 44.2401 0 28.5 0C12.7599 0 0 12.3122 0 27.5C0 42.6878 12.7599 55 28.5 55Z" fill="#FEE440"/>
<g clip-path="url(#clip0)">
<path d="M39.1025 24.2444C38.4946 17.426 34.0072 11 25.9655 11C17.9239 11 13.4365 17.426 12.8286 24.2444C10.2003 24.4782 9 26.9658 9 29.8601C9 32.3463 10.3784 35.48 13.3884 36.789C17.5379 44.3979 24.0399 45 25.9655 45C27.8911 45 34.3931 44.3979 38.5426 36.789C41.5526 35.4786 42.931 32.3463 42.931 29.8601C42.931 26.9998 41.742 24.4796 39.1025 24.2444ZM37.0878 34.3169C36.74 34.4345 36.4516 34.6838 36.2834 35.0125C32.8818 41.651 27.5263 42.1667 25.9655 42.1667C24.4047 42.1667 19.0492 41.651 15.6477 35.0125C15.4794 34.6853 15.191 34.4359 14.8432 34.3169C11.3822 33.1425 11.2338 28.1346 12.6476 27.2166C12.9388 27.0282 13.3403 27.0268 13.5962 27.1415C14.5293 27.5552 15.584 26.8737 15.584 25.8467L15.6123 25.0448C18.1614 24.4697 21.7354 21.115 22.6304 19.3229C22.5328 20.5299 21.3707 23.9327 19.6953 25.0788C23.5804 25.0788 28.5316 21.5273 30.5603 18.2392C30.6848 21.1873 33.5491 23.9285 36.265 24.3464C36.3131 24.8479 36.347 25.348 36.347 25.8467C36.347 26.8709 37.4003 27.5566 38.3348 27.1415C38.5341 27.0522 38.9498 26.9998 39.2834 27.2166C40.6972 28.1346 40.5488 33.1425 37.0878 34.3169ZM32.3276 28.7083C32.3276 29.8813 31.5359 30.8333 30.5603 30.8333C29.5848 30.8333 28.7931 29.8813 28.7931 28.7083C28.7931 27.5353 29.5848 26.5833 30.5603 26.5833C31.5359 26.5833 32.3276 27.5353 32.3276 28.7083ZM21.3707 30.8333C20.3952 30.8333 19.6034 29.8813 19.6034 28.7083C19.6034 27.5353 20.3952 26.5833 21.3707 26.5833C22.3462 26.5833 23.1379 27.5353 23.1379 28.7083C23.1379 29.8813 22.3462 30.8333 21.3707 30.8333ZM21.7241 35.0833H30.2069C30.2069 35.0833 29.1253 38.4182 25.9655 38.4182C22.9216 38.4182 21.7241 35.0833 21.7241 35.0833ZM50 35.0833C46.0682 36.2124 44.7449 33.5817 44.3448 29.4167C43.6436 22.118 42.9692 16.7715 38.6175 17.7221C38.0831 16.5264 37.43 15.3378 36.3724 14.213C37.6067 12.6164 39.9536 11 42.637 11C52.9803 11 47.967 27.2789 47.967 30.8333C47.967 32.9583 48.3826 34.1242 50 35.0833Z" fill="#355675"/>
</g>
<defs>
<clipPath id="clip0">
<rect width="41" height="34" fill="white" transform="translate(9 11)"/>
</clipPath>
</defs>
</svg>
