<svg width="57" height="55" viewBox="0 0 57 55" fill="none" xmlns="http://www.w3.org/2000/svg">
<path d="M28.5 55C44.2401 55 57 42.6878 57 27.5C57 12.3122 44.2401 0 28.5 0C12.7599 0 0 12.3122 0 27.5C0 42.6878 12.7599 55 28.5 55Z" fill="#FEE440"/>
<g clip-path="url(#clip0)">
<path d="M36.8125 28.68C36.8125 30.071 35.9025 31.2 34.7812 31.2C33.66 31.2 32.75 30.071 32.75 28.68C32.75 27.289 34.193 25.2864 35.3143 25.2864C36.4355 25.2864 36.8125 27.289 36.8125 28.68ZM23 25.2864C21.8787 25.2864 22.1875 27.289 22.1875 28.68C22.1875 30.071 23.0975 31.2 24.2188 31.2C25.34 31.2 26.25 30.071 26.25 28.68C26.25 27.289 24.1213 25.2864 23 25.2864ZM49 30.0458C49 33.011 47.3994 36.7507 43.8991 38.2879C40.5467 43.8235 35.7952 48 29.5 48C23.4209 48 18.3752 43.6958 15.1009 38.2879C11.6006 36.749 10 33.0094 10 30.0458C10 26.5968 11.2253 24.9622 12.3026 24.1843C11.6689 21.624 10.6289 15.539 13.8675 11.7372C15.3918 9.948 17.8715 9.15 20.5625 9.59688C21.7309 7.02312 26.432 6 29.5 6C34.375 6 40.2396 7.07688 44.3541 11.9069C47.5537 15.6634 47.0321 21.5518 46.6096 24.1188C47.7081 24.8681 49 26.5027 49 30.0458ZM33.4 37.92L25.5 38.2879C25.5 38.2879 29.9517 42 32.75 42C35.6555 42 33.4 37.92 33.4 37.92ZM44.8774 26.9866C38.1986 27.6468 32.2381 21.8491 30.1338 18.1262C30.0021 19.4854 30.436 22.422 31.7084 23.7626C26.549 23.8702 22.2265 21.0881 19.5859 17.2644C18.2257 19.6147 17.5676 22.4522 17.5676 25.2864C17.5676 26.4994 16.3554 27.3158 15.2829 26.8219C15.0554 26.7161 14.5744 26.6522 14.1925 26.911C12.5675 27.9996 12.7381 33.9384 16.7161 35.3311C17.0801 35.4588 17.3873 35.7142 17.5871 36.0535C18.6515 37.878 19.7874 39.3799 20.9769 40.6265C22.4751 41.6899 22.6929 37.4765 23.6858 36.0569C24.8005 34.4626 27.6751 34.1652 29.5 35.5159C31.3265 34.1652 34.1995 34.4626 35.3143 36.0569C36.3071 37.4782 36.5249 41.6916 38.0231 40.6265C39.211 39.3816 40.3469 37.878 41.4129 36.0535C41.6127 35.7142 41.9215 35.4588 42.2839 35.3311C46.1237 33.9871 46.5024 28.3003 44.8774 26.9866Z" fill="#355675"/>
</g>
<defs>
<clipPath id="clip0">
<rect width="39" height="42" fill="white" transform="translate(10 6)"/>
</clipPath>
</defs>
</svg>
