<svg width="42" height="38" viewBox="0 0 42 38" fill="none" xmlns="http://www.w3.org/2000/svg">
<path d="M28.2692 19.7917C28.2692 21.1027 27.3646 22.1667 26.25 22.1667C25.1354 22.1667 24.2308 21.1027 24.2308 19.7917C24.2308 18.4807 25.1354 17.4167 26.25 17.4167C27.3646 17.4167 28.2692 18.4807 28.2692 19.7917ZM15.75 17.4167C14.6354 17.4167 13.7308 18.4807 13.7308 19.7917C13.7308 21.1027 14.6354 22.1667 15.75 22.1667C16.8646 22.1667 17.7692 21.1027 17.7692 19.7917C17.7692 18.4807 16.8646 17.4167 15.75 17.4167ZM21 30.6438C24.6104 30.6438 25.8462 26.9167 25.8462 26.9167H16.1538C16.1538 26.9167 17.5221 30.6438 21 30.6438ZM42 19.9563C42 24.4926 40.7222 29.1048 38.8775 33.0078C38.0019 34.8587 36.9988 36.5513 35.9423 38L29.8103 34.9648C27.2968 36.8442 24.3665 38 21 38C17.7805 38 14.8212 36.8141 12.264 34.9268L6.05769 38C5.00123 36.5513 3.99808 34.8587 3.12254 33.0078C1.27777 29.1048 0 24.4926 0 19.9563C0 7.93883 8.53085 0 21 0C33.4692 0 42 7.93883 42 19.9563ZM32.8424 26.7409C33.0411 26.4211 33.348 26.1804 33.7082 26.0601C37.1102 24.9312 37.8598 20.4725 36.6192 18.5456C25.9964 17.9281 19.0276 13.2208 16.1538 8.53575C12.5079 16.5522 7.95092 19.0301 5.06746 19.2945C4.28885 22.0083 5.58762 25.1623 8.29177 26.0601C8.65361 26.1804 8.95892 26.4211 9.15762 26.7409C11.9167 31.2218 15.6434 34.8333 21 34.8333C26.3598 34.8333 30.0849 31.217 32.8424 26.7409Z" fill="black"/>
</svg>
