<svg width="57" height="55" viewBox="0 0 57 55" fill="none" xmlns="http://www.w3.org/2000/svg">
<path d="M28.5 55C44.2401 55 57 42.6878 57 27.5C57 12.3122 44.2401 0 28.5 0C12.7599 0 0 12.3122 0 27.5C0 42.6878 12.7599 55 28.5 55Z" fill="#FEE440"/>
<path d="M36.2692 26.7917C36.2692 28.1027 35.3646 29.1667 34.25 29.1667C33.1354 29.1667 32.2308 28.1027 32.2308 26.7917C32.2308 25.4807 33.1354 24.4167 34.25 24.4167C35.3646 24.4167 36.2692 25.4807 36.2692 26.7917ZM23.75 24.4167C22.6354 24.4167 21.7308 25.4807 21.7308 26.7917C21.7308 28.1027 22.6354 29.1667 23.75 29.1667C24.8646 29.1667 25.7692 28.1027 25.7692 26.7917C25.7692 25.4807 24.8646 24.4167 23.75 24.4167ZM29 37.6438C32.6104 37.6438 33.8462 33.9167 33.8462 33.9167H24.1538C24.1538 33.9167 25.5221 37.6438 29 37.6438ZM50 26.9563C50 31.4926 48.7222 36.1048 46.8775 40.0078C46.0019 41.8587 44.9988 43.5513 43.9423 45L37.8103 41.9648C35.2968 43.8442 32.3665 45 29 45C25.7805 45 22.8212 43.8141 20.264 41.9268L14.0577 45C13.0012 43.5513 11.9981 41.8587 11.1225 40.0078C9.27777 36.1048 8 31.4926 8 26.9563C8 14.9388 16.5308 7 29 7C41.4692 7 50 14.9388 50 26.9563ZM40.8424 33.7409C41.0411 33.4211 41.348 33.1804 41.7082 33.0601C45.1102 31.9312 45.8598 27.4725 44.6192 25.5456C33.9964 24.9281 27.0276 20.2208 24.1538 15.5357C20.5079 23.5522 15.9509 26.0301 13.0675 26.2945C12.2888 29.0083 13.5876 32.1623 16.2918 33.0601C16.6536 33.1804 16.9589 33.4211 17.1576 33.7409C19.9167 38.2218 23.6434 41.8333 29 41.8333C34.3598 41.8333 38.0849 38.217 40.8424 33.7409Z" fill="#355675"/>
</svg>
