<svg width="56" height="56" viewBox="0 0 56 56" fill="none" xmlns="http://www.w3.org/2000/svg">
<path d="M43.0254 0H12.7768C5.72037 0 0 5.71611 0 12.7673V43.2327C0 50.2839 5.72037 56 12.7768 56H43.0254C50.0818 56 55.8022 50.2839 55.8022 43.2327V12.7673C55.8022 5.71611 50.0818 0 43.0254 0Z" fill="#5ECEBD"/>
<path d="M46.7564 7.87395H9.60854C8.33487 7.87395 7.30306 8.90494 7.30306 10.1776V47.2995C7.30306 48.5705 8.33487 49.6015 9.60854 49.6015H29.6092V33.4425H24.1667V27.1451H29.6092V22.5012C29.6092 17.1114 32.903 14.1765 37.7157 14.1765C40.0211 14.1765 42.0012 14.3484 42.5788 14.4249V20.0581L39.2416 20.0596C36.6247 20.0596 36.1184 21.3028 36.1184 23.1249V27.1465H42.3596L41.547 33.4438H36.1184V49.6012H46.7599C48.0301 49.6012 49.0618 48.5702 49.0618 47.2976V10.1774C49.0618 8.90471 48.0301 7.87366 46.7564 7.87366V7.87395Z" fill="white"/>
</svg>
