<svg width="28" height="37" viewBox="0 0 28 37" fill="none" xmlns="http://www.w3.org/2000/svg">
<path d="M8.67181 0C9.61222 11.083 0 14.8986 0 24.6603C0 31.291 4.73134 36.9504 13.8749 36.9997C23.0185 37.0491 27.7498 30.1949 27.7498 23.1927C27.7498 16.8087 24.5709 10.7885 18.5739 7.04537C19.9984 11.0645 18.1021 14.7351 16.2598 15.9993C16.3678 10.8548 14.5255 3.22052 8.67181 0ZM15.9346 20.0415C21.7235 26.1912 18.1684 33.9164 13.5188 33.9164C10.6898 33.9164 9.23452 31.9662 9.24993 29.9436C9.27923 26.1927 13.4694 26.1896 15.9346 20.0415Z" fill="#F8A07B"/>
</svg>
