<svg width="36" height="37" viewBox="0 0 36 37" fill="none" xmlns="http://www.w3.org/2000/svg">
<path d="M15.7484 0.726133C17.0879 -0.242044 18.9104 -0.242044 20.2515 0.726133C23.4645 3.04791 22.7745 2.8259 26.754 2.81357C28.416 2.8074 29.8906 3.865 30.3976 5.42826C31.6171 9.16993 31.1881 8.5918 34.4161 10.892C35.7646 11.8525 36.3286 13.5637 35.8081 15.1224C34.5691 18.8486 34.5631 18.1333 35.8081 21.8765C36.3286 23.4351 35.7646 25.1464 34.4161 26.1069C31.1896 28.407 31.6171 27.8289 30.3976 31.5706C29.8906 33.1338 28.416 34.1914 26.754 34.1868C22.773 34.1729 23.4645 33.9509 20.2515 36.2727C18.9104 37.2424 17.0879 37.2424 15.7484 36.2727C12.5339 33.9525 13.2254 34.1714 9.24584 34.1868C7.58383 34.1914 6.10931 33.1338 5.60231 31.5706C4.38429 27.8243 4.8028 28.404 1.58226 26.1069C0.235251 25.1464 -0.328755 23.4351 0.19175 21.8765C1.43226 18.1487 1.43676 18.8656 0.19175 15.1224C-0.328755 13.5637 0.235251 11.8525 1.58226 10.892C4.8013 8.59642 4.38279 9.17764 5.60231 5.42826C6.10931 3.865 7.58383 2.8074 9.24584 2.81357C13.2149 2.8259 12.5159 3.06178 15.7484 0.726133Z" fill="#F15BB5"/>
</svg>
