<svg width="38" height="41" viewBox="0 0 38 41" fill="none" xmlns="http://www.w3.org/2000/svg">
<g clip-path="url(#clip0)">
<path d="M26.125 22.8523C26.125 24.158 25.2383 25.2177 24.1458 25.2177C23.0533 25.2177 22.1667 24.1596 22.1667 22.8523C22.1667 21.5451 23.0533 20.4869 24.1458 20.4869C25.2383 20.4869 26.125 21.5466 26.125 22.8523ZM13.8542 20.4869C12.7617 20.4869 11.875 21.5466 11.875 22.8523C11.875 24.158 12.7617 25.2177 13.8542 25.2177C14.9467 25.2177 15.8333 24.158 15.8333 22.8523C15.8333 21.5466 14.9467 20.4869 13.8542 20.4869ZM19 33.6606C22.5387 33.6606 23.75 29.9485 23.75 29.9485H14.25C14.25 29.9485 15.5911 33.6606 19 33.6606ZM38 24.1344C38 26.9176 36.4404 30.4279 33.0299 31.8707C29.3123 37.7542 24.3469 40.9869 19 40.9869C13.6531 40.9869 8.68775 37.7542 4.9685 31.8707C1.55958 30.4279 0 26.9176 0 24.1344C0 21.8131 0.61275 19.5029 2.66317 18.4007C2.06625 14.7564 2.47792 8.66159 9.30208 6.42709C10.9345 3.28902 14.25 -0.0130615 19 -0.0130615C23.75 -0.0130615 27.0655 3.28902 28.6979 6.42552C35.5221 8.66159 35.9338 14.7548 35.3368 18.4007C37.3872 19.5029 38 21.8131 38 24.1344ZM34.5547 22.1601C27.1336 21.7532 23.7358 14.8116 23.0898 10.5003C21.242 20.4869 8.83975 13.3261 7.42108 24.7746C6.01825 24.0382 4.70567 22.712 3.914 21.37C2.337 22.9422 3.059 27.9206 6.54392 29.0954C6.89858 29.2152 7.19783 29.4549 7.391 29.7734C10.5434 34.971 14.6664 37.8331 19 37.8331C23.3336 37.8331 27.455 34.971 30.6074 29.7734C30.8006 29.4549 31.1014 29.2152 31.4545 29.0954C34.2586 28.1508 35.4398 24.7289 34.5547 22.1601Z" fill="black"/>
</g>
<defs>
<clipPath id="clip0">
<rect width="38" height="41" fill="white"/>
</clipPath>
</defs>
</svg>
