<svg width="57" height="55" viewBox="0 0 57 55" fill="none" xmlns="http://www.w3.org/2000/svg">
<path d="M28.5 55C44.2401 55 57 42.6878 57 27.5C57 12.3122 44.2401 0 28.5 0C12.7599 0 0 12.3122 0 27.5C0 42.6878 12.7599 55 28.5 55Z" fill="#FEE440"/>
<g clip-path="url(#clip0)">
<path d="M35.125 29.8523C35.125 31.158 34.2383 32.2177 33.1458 32.2177C32.0533 32.2177 31.1667 31.1596 31.1667 29.8523C31.1667 28.5451 32.0533 27.4869 33.1458 27.4869C34.2383 27.4869 35.125 28.5466 35.125 29.8523ZM22.8542 27.4869C21.7617 27.4869 20.875 28.5466 20.875 29.8523C20.875 31.158 21.7617 32.2177 22.8542 32.2177C23.9467 32.2177 24.8333 31.158 24.8333 29.8523C24.8333 28.5466 23.9467 27.4869 22.8542 27.4869ZM28 40.6606C31.5387 40.6606 32.75 36.9485 32.75 36.9485H23.25C23.25 36.9485 24.5911 40.6606 28 40.6606ZM47 31.1344C47 33.9176 45.4404 37.4279 42.0299 38.8707C38.3123 44.7542 33.3469 47.9869 28 47.9869C22.6531 47.9869 17.6877 44.7542 13.9685 38.8707C10.5596 37.4279 9 33.9176 9 31.1344C9 28.8131 9.61275 26.5029 11.6632 25.4007C11.0663 21.7564 11.4779 15.6616 18.3021 13.4271C19.9345 10.289 23.25 6.98694 28 6.98694C32.75 6.98694 36.0655 10.289 37.6979 13.4255C44.5221 15.6616 44.9338 21.7548 44.3368 25.4007C46.3872 26.5029 47 28.8131 47 31.1344ZM43.5547 29.1601C36.1336 28.7532 32.7358 21.8116 32.0898 17.5003C30.242 27.4869 17.8397 20.3261 16.4211 31.7746C15.0182 31.0382 13.7057 29.712 12.914 28.37C11.337 29.9422 12.059 34.9206 15.5439 36.0954C15.8986 36.2152 16.1978 36.4549 16.391 36.7734C19.5434 41.971 23.6664 44.8331 28 44.8331C32.3336 44.8331 36.455 41.971 39.6074 36.7734C39.8006 36.4549 40.1014 36.2152 40.4545 36.0954C43.2586 35.1508 44.4398 31.7289 43.5547 29.1601Z" fill="#355675"/>
</g>
<defs>
<clipPath id="clip0">
<rect width="38" height="41" fill="white" transform="translate(9 7)"/>
</clipPath>
</defs>
</svg>
