<svg width="1117" height="1378" fill="none" xmlns="http://www.w3.org/2000/svg">
  <g clip-path="url(#clip0)">
    <path d="M1117 1117H0V0h1117v1117z" fill="#DFDFDF"/>
    <path d="M709.298 529.347l-5.728-7.15-5.437-22.404V333.396l-183.892 4.834v197.684h38.749V956.403l147.032 23.569V548.81l13.307-9.759-4.031-9.704zM237.131 290.31l.615-13.158-10.709-4.615-5.995 3.987-2.066 8.053-44.322-15.208v-37.165l-18.679-22.708-45.645-42.941-22.871 32.062L170.1 301.452s70.273 95.23 72.243 98.513c1.971 3.284 39.406 99.827 39.406 99.827l62.392.657.548-181.155-107.558-28.984zM910.78 627.443v132.89l62.398-1.532 2.263-131.796-64.661.438z" fill="#F1DFC7"/>
    <path d="M698.79 431.49l276.495 86.035-3.284 17.732-61.735 1.314.657-22.33-68.96-2.627v-15.105l-101.797 1.97-.657-50.57-40.719-.657V431.49z" fill="#F1DFC7"/>
    <path d="M698.79 394.055l41.376-.657v24.3l61.735 16.419v11.821l39.405.657.657 15.762 68.303 1.971-.657-17.733 64.362.657-1.97 78.154L749.36 455.79l-9.851-7.881-40.719-16.419v-37.435zM699.281 930.995l143.326 23.797-1.622 49.758-140.963-24.578-.741-48.977zM553.251 907.196l-78.964-11.356.541-37.32-62.739-.541-.541-48.676-57.331.541-5.408-53.005h-45.432s-8.112 29.748-7.572 31.37c.541 1.623 53.004 138.999 54.626 139.541 1.622.54 210.393 44.889 210.393 44.889l3.245-49.758-10.818-15.685zM430.833 98.514l2.627 166.816 39.405-1.313V99.827l-42.032-1.313zM272.331 938.73l-35.948 22.876 2.451 54.744 36.765 14.7 58.008.82 1.635-87.421-62.911-5.719zM292.938 582.047l144.77.975 34.61.487V717.07l-177.919-.487-1.461-134.536z" fill="#F1DFC7"/>
    <path d="M469.071 252.731l-.745.994a13.202 13.202 0 015.053-.994c5.463 0 10.014 3.205 11.041 7.455l476.636-38.913c0-3.939 2.984-7.296 7.19-8.641l4.072-4.897L974.306 0H473.379v244.327l-4.308 8.404zM116.028 544.12c21.64-8.823 50.788-9.082 50.788-9.082s-13.572 52.541-6.985 95.826c6.589 43.286 31.505 127.692 31.505 127.692s-46.43-2.913-45.755 0c4.333 18.669 3.531 45.301 7.165 62.143 3.502 16.235 8.978 27.717 11.663 41.843-54.73 61.078-33.675 88.654-32.908 91.976 3.455 14.968 37.066 21.862 37.066 21.862l1.671 98.95 104.954-.88.164-42.58s-1.813-18.42-5.51-27.09c-3.699-8.66-20.935-34.87-20.935-34.87l21.212-23.474s20.106 19.456 30.688 27.516c10.581 8.061 34.332 22.015 34.332 22.015l49.479 21.623 43.889 12.47 44.868 8.13.004-28.75s-64.345-26.977-75.948-31.217c-11.602-4.237-139.243-131.825-139.243-131.825l-31.34-95.984-.613-137.982s1.379-76.928 0-76.928c-1.38 0-19.716-79.371-19.716-79.371l-59.981-86.491-42.333-32.698L0 200.4v480.786l77.87-109.883s16.517-18.362 38.158-27.183z" fill="#CBE6A3"/>
    <path d="M842.549 1002.25l-142.527-24.027-130.814-21.225-95.829-20.462s-27.424-9.264-55.902-19.64c-28.48-10.378-55.147-34.52-55.147-34.52s-51.156-36.528-58.465-124.448c-2.219-26.694-1.973-50.713-1.834-76.734v-27.879c-.277-32.126-1.865-69.028-8.668-117.811-8.611-61.757-24.039-108.404-52.736-153.557-21.944-34.525-119.682-146.061-191.676-226.181l-1.665 1.856-43.784-45.536 2.623-3.625A6945.533 6945.533 0 000 101.766v32.639c41.397 58.965 241.548 343.95 243.439 344.58 2.109.704 24.961 116.728 24.961 116.728l6.959 213.24 39.42 73.423 50.31 46.328 85.085 53.055 104.158 11.102 79.02 2.686L854.7 1030.06l262.3 45.13v-18.96l-274.451-53.98z" fill="#CBE6A3"/>
    <path d="M554.332 583.364h-40.476v43.641h40.476v-43.641zM910.779 627.442h-170.28v53.752h170.28v-53.752zM605.357 808.953h43.641v-51.025h-43.641v51.025zM910.779 393.478h-68.23v53.689h68.23v-53.689zM438.526 627.005H302.031v26.31c.083 9.659.049 18.889 0 27.879h136.495v-54.189z" fill="#CBE6A3"/>
    <path d="M302.031 653.315v27.879c.049-8.99.083-18.22 0-27.879zM605.357 447.167h-51.025v51.024h51.025v-51.024zM700.022 1040.96l-62.557-30.87-81.919 13.59-82.163-7.02-.004 21.53 85.121 16.14 181.999 32.3 162.06 30.37h112.131l-243.657-46.44-71.011-29.6zM972.318 230.551c6.221 0 11.262-4.154 11.262-9.278 0-5.124-5.041-9.277-11.262-9.277-1.439 0-2.807.23-4.072.636l-7.19 8.641c0 5.124 5.042 9.278 11.262 9.278z" fill="#CBE6A3"/>
    <path d="M961.056 221.273l7.19-8.641c-4.206 1.345-7.19 4.702-7.19 8.641zM462.116 262.008l6.21-8.283c-3.679 1.526-6.21 4.658-6.21 8.283zM473.379 271.285c6.22 0 11.262-4.153 11.262-9.277 0-.624-.077-1.232-.22-1.822l-22.305 1.822c0 5.124 5.042 9.277 11.263 9.277zM473.379 252.731c-1.819 0-3.532.364-5.053.994l-6.21 8.283 22.305-1.822c-1.028-4.25-5.579-7.455-11.042-7.455zM1030.23 303.422l-20.14-.438-.87 34.152 21.25.412-.24-34.126zM1054.32 366.471v-28.46l-23.85-.463.2 28.923h23.65zM28.897 81.438L18.39 91.508 6.125 108.462a8051.383 8051.383 0 0142.826 47.305l25.044-27.918-45.098-46.41z" fill="#CBE6A3"/>
    <path d="M3.502 112.086l43.785 45.536 1.664-1.856a8048.599 8048.599 0 00-42.826-47.305l-2.623 3.625zM100.249 1063.71c-5.933 0-10.743 4.81-10.743 10.75 0 5.93 4.81 10.74 10.743 10.74 5.933 0 10.743-4.81 10.743-10.74 0-5.94-4.81-10.75-10.743-10.75z" fill="#CBE6A3"/>
    <path d="M648.876 583.201h91.946v-85.816h-91.946v85.816zM473.383 1004.78l-.13 33.33 89.806 16.84-.205 42.28 227.882-1.32 107.271 20.14 2.813.95h79.79l2.887-5.95-510.114-106.27zM986.012 1035.93l-1.324-5.3-142.725-27.1-.054 15.28 36.395 31.13L1117 1096.43v-30.22l-130.988-30.28zM844.153 858.163l-42.033.876v35.902h42.033v-36.778zM1117 985.038l-58.96 2.068-1.13-4.9-82.282 8.184 10.06 40.24L1117 1055.76v-70.722z" fill="#DFDFDF"/>
    <path d="M984.688 1030.63l1.324 5.3L1117 1066.21v-10.45l-132.312-25.13zM1076.43 892.533h-13.8l5.59 20.688h6.24l2.29 6.568h-6.24l8.87 34.48 37.62-1.088v-84.312l-45.83.678 5.26 22.986zM1117 953.596l-3.14.673-63.05 1.313 6.1 26.624 60.09-5.977v-22.633zM1117 985.038v-8.809l-60.09 5.977 1.13 4.9 58.96-2.068zM972.658 633.114l50.572 207.536 93.77-.569V561.957l-143.685-45.089-.657 116.246zM411.13 912.236l10.508 7.224s45.317 15.763 51.884 17.076c0-11.822.657-126.754.657-126.754l-63.049-.657v103.111zM438.057 626.547l1.314 53.854h34.808l-1.314-51.884-34.808-1.97zM114.463 169.564L70.35 214.496l36.703 41.494 48.922-46.494-41.512-39.932zM78.975 435.185c-11.086 0-20.074 10.01-20.074 22.356 0 12.347 8.988 22.357 20.074 22.357 11.086 0 20.075-10.01 20.075-22.357 0-12.346-8.989-22.356-20.075-22.356zM172.071 908.003c-13.058 0-23.644 10.587-23.644 23.643 0 13.058 10.586 23.643 23.644 23.643 13.057 0 23.643-10.585 23.643-23.643 0-13.056-10.586-23.643-23.643-23.643zM556.049 386.617l-1.226 7.352 22.404-.525 9.452 3.324 18.553 6.477v-10.152l-24.679.7-24.504-7.176zM740.385 241.249l.437 48.6 60.422 1.314 2.19-56.044-63.049 6.13zM1053 302.546l-22.33 1.313-.44 32.838.01.405 24.08.471-1.32-35.027zM1030.24 337.102l-20.58-.405-.88 30.211 21.89-.875-.43-28.931zM301.588 680.401v-53.396h-39.104v98.146h39.104v-44.698l-.001-.052h.001zM473.379 272.537l-7.519-4.58-2.721-6.033 4.472-7.247 6.362-3.417v-43.017l-41.795-10.203v150.724l41.201 14.642v-90.869z" fill="#DFDFDF"/>
    <path d="M301.588 680.401v.052l.443 36.436 44.837-.493-3.172-35.995h-42.108zM301.587 680.402l.001.051v-.051h-.001zM212.177 280.363l-33.791-11.682-.103-12.979h49.994v9.628l-.667 4.529-11.747 11.648 3.113.967 2.066-5.95 8.097-3.988V0h-52.658l.275 269.369 35.421 10.994z" fill="#DFDFDF"/>
    <path d="M215.766 281.604l.097-.097-3.686-1.144 3.589 1.241z" fill="#DFDFDF"/>
    <path d="M288.181 684.998a444.44 444.44 0 01-.068-3.858H270.42v3.858h17.761zM288.083 676.707c-.002-1.225.004-2.511.018-3.859H270.42v3.859h17.663zM607.432 1046.57l14.012 2.82 2.482-11.22-13.873-2.81-2.621 11.21zM626.36 1050.37l13.975 2.8 2.318-11.22-13.896-2.81-2.397 11.23z" fill="#A2CDFE"/>
    <path d="M270.42 614.833h1.313v35.789c3.577-4.45 14.232-17.715 15.466-19.322 1.227-1.596 1.211-2.984 1.2-3.999l-.001-.299c.112-24.686-.737-39.448-5.987-78.193-.124-.92-1.314-2.361-2.363-3.632-1.277-1.546-2.483-3.008-2.666-4.308a441.515 441.515 0 00-1.066-7.145l-.306-1.978c-.257-1.664.573-4.136 1.453-6.754.81-2.415 1.65-4.914 1.411-6.297-6.542-37.776-16.887-71.149-30.75-99.189-21.721-43.938-81.767-114.462-131.811-171.147l-9.298 8.558-3.114-3.382 9.367-8.62-1.886-2.133-9.293 8.552-3.114-3.382 9.357-8.61-1.891-2.129-9.278 8.539-3.113-3.382 9.338-8.593-1.893-2.127-9.258 8.52-3.113-3.383 9.313-8.569-1.896-2.124-9.23 8.493-3.113-3.382 9.28-8.539-1.896-2.124-9.196 8.463-3.113-3.383 9.242-8.505-1.898-2.121-9.157 8.426-3.113-3.382 9.2-8.466-1.902-2.118-9.11 8.384-3.114-3.382 9.153-8.424a21624.022 21624.022 0 00-27.748-30.803C32.738 155.177 15.52 136.085 0 118.571v89.632l111.048 136.764c58.799 72.418 78.398 111.662 87.377 174.964.248 1.756 1.569 3.486 2.968 5.316.982 1.285 1.996 2.613 2.634 3.988 1.215 2.62 1.286 5.255 1.361 8.044.03 1.122.061 2.28.174 3.433.152 1.542-.949 3.18-2.012 4.765-.951 1.417-1.936 2.884-1.839 4.015 2.828 33.02 3.917 73.305 5.298 124.306.566 20.961 1.209 44.72 2.042 70.463.05 1.53 3.142 5.039 4.462 6.538.949 1.075 1.048 1.188 1.059 1.494.13 3.741.307 7.493.527 11.153.089 1.473-1.288 2.754-2.618 3.994-1.046.973-2.231 2.076-2.169 2.9 13.947 183.307 140.129 229.648 248.5 249.54 1.11.19 2.397-1.1 3.666-2.36 1.488-1.47 3.066-3.01 4.758-2.7 4.37.76 8.699 1.48 12.977 2.18 1.57.25 2.898 2.17 4.305 4.19 1.121 1.62 2.39 3.45 3.382 3.6 6.458 1.03 12.786 1.99 18.949 2.93.136.02.445.05 1.145.05 6.863 0 36.5-2.38 48.018-3.33l-.596-.12.13-.64.13-.65 5.04 1.02.487-.04.029.15 48.15 9.73.97.19 13.859 2.8 3.678.75 15.029 3.03c12.6 2.42 56.864 11.48 5.097 1.03l-2.392 12.54c3.487.69 20.337 4.06 27.443 5.47 82.998 16.5 203.788 40.08 301.06 57.3H1117v-28.74a.355.355 0 00-.1-.02c-77.11-11.78-230.145-42.6-231.682-42.91l-.265-.12c-.389-.3-39.136-29.31-48.596-31.29-92.797-19.424-156.928-31.562-190.611-36.08-66.88-8.974-117.319-17.59-158.733-27.117-.953-.212-2.139 1.018-3.29 2.212-1.231 1.277-2.502 2.599-3.925 2.599a2.28 2.28 0 01-.527-.062 785.897 785.897 0 01-11.656-2.886c-1.471-.376-2.704-2.406-4.01-4.555-1.032-1.703-2.205-3.632-3.109-3.872-62.501-16.689-101.959-36.524-127.94-64.313-24.069-25.741-37.097-59.528-42.242-109.551-.085-.821-1.381-1.823-2.526-2.708-1.454-1.123-2.956-2.286-3.081-3.72a515.908 515.908 0 01-.829-10.846c-.098-1.489 1.176-2.921 2.408-4.308 1.066-1.2 2.168-2.442 2.116-3.423a746.608 746.608 0 01-.742-18.404c-.058-2.063-6.183-5.61-9.473-7.516-1.046-.605-1.95-1.128-2.529-1.514-3.759-2.509-3.984-2.659-3.994-4.942-.005-1.166-.067-2.337-.128-3.515-.063-1.211-.127-2.463-.131-3.71-.01-3.873.523-4.884 2.599-4.918 7.163-.12 11.109-.185 12.827-1.24 1.555-.954 1.538-2.939 1.499-7.285-.008-.856-.025-1.794-.048-2.815H270.42" fill="#A2CDFE"/>
    <path d="M288.299 660.124c.018-1.254.033-2.542.046-3.859h-16.612v3.859h16.566zM288.169 668.415l.066-3.858H270.42v3.858h17.749zM562.069 1028.24l-11.934 6.67 52.728 10.71 2.713-11.16-44.058-8.91.551 2.69zM624.068 1037.52l.143-.64-13.859-2.8-.149.64 13.865 2.8z" fill="#A2CDFE"/>
    <path d="M610.053 1035.36l13.873 2.81.142-.65-13.866-2.8-.149.64zM628.894 1038.5l13.89 2.81.134-.65-15.029-3.03 1.143.23-.138.64zM609.382 1033.89l-48.15-9.73.145.7 44.354 8.96.155-.64 3.496.71zM671.058 1046.35l-25.303-5.11 2.26.45 22.912 5.3.131-.64zM628.757 1039.14l13.896 2.81.131-.64-13.89-2.81-.137.64z" fill="#A2CDFE"/>
    <path d="M561.519 1025.55l44.057 8.91.155-.64-44.354-8.96.142.69zM560.716 1024.05l-5.04-1.02-.13.65 2.821.57c1.376-.12 2.198-.18 2.256-.19l.093-.01z" fill="#A2CDFE"/>
    <path d="M555.416 1024.32l.596.12c.904-.07 1.695-.14 2.355-.19l-2.821-.57-.13.64zM271.077 696.159h.656v-6.728h-.656v6.728zM271.733 660.124v-3.859h-.656v3.859h.656zM271.077 656.265h-.657v3.859h.657v-3.859zM271.077 614.833v36.606l.656-.817v-35.789h-.656zM270.42 696.159h.657v-6.728h-.657v6.728zM270.42 614.833v37.425l.144-.18c.018-.02.204-.254.513-.639v-36.606h-.657zM67.793 440.598c3.606-4.424 4.248-11.462 1.564-17.113-2.073-4.362-5.627-6.864-9.751-6.864-3.522 0-7.3 1.744-11.23 5.183-8.658 7.575-13.719 22.165-13.21 38.076.477 14.885 5.648 27.523 13.834 33.81 3.856 2.959 7.7 4.461 11.425 4.461 5.356 0 10.21-3.36 12.364-8.563 1.924-4.645 1.16-9.492-1.995-12.645-10.59-10.591-10.08-27.655-3-36.345zM513.072 243.67c3.564 0 7.909-1.417 13.286-4.334 5.778-3.134 11.36-4.532 18.097-4.532 3.999 0 8.139.483 12.523.994 5.225.608 11.146 1.299 17.992 1.299 4.482 0 8.864-.286 13.401-.878 10.922-1.426 16.993-5.233 16.654-10.452-.329-5.053-6.618-9.656-13.194-9.656-1.096 0-2.18.129-3.221.381-14.788 3.585-21.129 4.932-34.225 5.975-3.396.27-7.261 1.004-11 1.713-4.812.914-9.788 1.859-13.945 1.859-6.074 0-9.606-2.095-10.796-6.406-1.185-4.285-2.421-7.869-3.511-11.032-2.912-8.445-4.836-14.025-1.893-21.874 3.745-9.986 1.59-29.377-2.474-43.37-1.827-6.288 2.053-12.686 5.476-18.33 2.744-4.525 5.335-8.799 4.137-11.843-.747-1.9-2.939-3.341-6.703-4.405-1.437-.407-2.776-.614-3.984-.614-6.587 0-10.255 6.268-11.214 19.163-.93 12.496-.762 17.986-.427 28.926.134 4.361.301 9.789.428 16.853.183 10.13-.632 19.578-1.352 27.913-1.007 11.692-1.803 20.927.602 26.391 4.325 9.822 7.729 16.259 15.343 16.259zM860.234 211.406c.426 0 .883-.021 1.374-.064a988.59 988.59 0 013.772-.323c15.634-1.316 52.244-4.4 54.873-11.608.363-.999-.048-2.07-1.256-3.274-6.749-6.724-9.779-8.818-15.586-8.818-3.317 0-7.465.682-13.745 1.713-1.451.238-3.01.494-4.69.763-16.084 2.573-29.166 14.621-28.782 19.445.114 1.437 1.474 2.166 4.04 2.166z" fill="#A2CDFE"/>
    <path d="M218.38 255.673L218.053 0h-1.314l.327 255.674 1.314-.001zM213.127 255.682L212.799 0h-1.314l.328 255.684 1.314-.002zM207.873 255.692L207.544 0h-1.313l.328 255.693 1.314-.001zM202.62 255.702L202.292 0h-1.314l.329 255.703 1.313-.001zM195.736 75.838c.005 3.44-1.309 6.894-2.581 10.234-1.299 3.411-2.643 6.94-2.637 10.542l.042 23.682c.002 3.436-1.31 6.885-2.58 10.219-1.299 3.414-2.643 6.943-2.638 10.547l.201 114.67 1.314-.002-.201-114.67c-.005-3.362 1.236-6.623 2.552-10.078.472-1.237.946-2.49 1.363-3.759l.228 128.499 1.313-.003-.239-135.425v-.011l-.042-23.671c-.005-3.36 1.236-6.622 2.551-10.074.503-1.318 1.01-2.656 1.447-4.01l.222 173.186 1.314-.002L197.037 0h-1.314l.099 75.838h-.086z" fill="#000"/>
    <path d="M850.401 1003.64l123.66-11.327 8.7 35.957c-42.093-7.95-87.184-16.35-132.36-24.63zm-5.751-47.15h74.276l8.685 35.856-82.961 7.6V956.49zm-4.201-242.194h-36.277v-31.002h36.277v31.002zm0 92.557h-36.277v-88.355h36.277v88.355zm0 50.227h-36.277v-46.025h36.277v46.025zm0 35.124h-36.277v-30.922h36.277v30.922zm0 27.172h-36.277v-22.97h36.277v22.97zm0 32.543l-36.277-5.905v-22.436h36.277v28.341zm0 49.901a20927.654 20927.654 0 00-36.277-6.592v-44.956l36.277 5.904v45.644zM799.97 714.296h-57.369v-31.002h57.369v31.002zm0 92.557h-57.369v-88.355h57.369v88.355zm0 50.227h-57.369v-46.025h57.369v46.025zm0 35.124h-57.369v-30.922h57.369v30.922zm0 53.126l-57.369-9.336v-39.588h57.369v48.924zm0 49.137c-19.389-3.502-38.592-6.94-57.369-10.265v-43.951l57.369 9.337v44.879zm-57.369-365.362h166.077v49.987H742.601v-49.987zm0-43.64h57.369v39.438h-57.369v-39.438zm0-85.172h57.369v80.969h-57.369v-80.969zm0-51.025h6.646l50.723 15.744v31.078h-57.369v-46.822zm57.369 0v11.342l-36.542-11.342h36.542zm-57.369-53.688h57.369v49.485h-50.086l-7.283-2.262V395.58zm0-102.753h57.369v98.548h-57.369v-98.548zm61.571 292.638h36.277v39.438h-36.277v-39.438zm0-85.172h36.277v80.969h-36.277v-80.969zm0-33.975l36.277 11.259v18.513h-36.277v-29.772zm0-17.05h36.277v23.907l-36.277-11.259v-12.648zm0-53.688h36.277v49.485h-36.277V395.58zm0-102.753h36.277v98.548h-36.277v-98.548zm40.478 292.638h64.028v39.438H844.65v-39.438zm0-85.172h64.028v80.969H844.65v-80.969zm0-21.412l55.44 17.209h-55.44v-17.209zm0-29.613h64.028v45.085L844.65 474.48v-25.212zm0-53.688h64.028v49.485H844.65V395.58zm0-102.753h64.028v98.548H844.65v-98.548zm66.129 518.228h19.425l6.695 27.67h-42.177l-6.703-27.67h22.76zm2.101-92.557h78.717l28.783 120.227h-37.732l-4.931-20.412a2.104 2.104 0 00-2.537-1.55 2.105 2.105 0 00-1.55 2.538l4.693 19.424h-37.102l-6.693-27.67h28.573a2.101 2.101 0 000-4.202H912.88v-88.355zm114.43 149.185h-37.665l-5.981-24.756h37.716l5.93 24.756zm20.25 84.605h-37.47l-19.429-80.403h37.649l19.25 80.403zm6.81 28.445l-36.6 3.354-6.67-27.597h37.46l5.81 24.243zm-88.976-24.243l7.668 31.692-41.22 3.776-8.592-35.468h42.144zm-50.118-32.912h42.153l6.947 28.71h-42.145l-6.955-28.71zm-4.325 0l6.955 28.71H844.65v-28.71h66.301zm-6.58-27.172l5.564 22.97H844.65v-22.97h59.721zm-5.941-24.521l4.921 20.319H844.65v-20.319h53.78zm45.475-4.202h-42.168l-5.997-24.756h42.175l5.99 24.756zm4.323 0l-5.989-24.756h37.099l5.982 24.756h-37.092zm5.934 24.521l-4.916-20.319h37.089l4.909 20.319h-37.082zm-46.486 0l-4.922-20.319h42.169l4.915 20.319h-42.162zm43.179 4.202l5.559 22.97h-42.155l-5.564-22.97h42.16zm47.971 27.172l6.934 28.71h-37.061l-6.946-28.71h37.073zm-38.09-4.202l-5.559-22.97h37.084l5.548 22.97h-37.073zm-69.322-76.449l5.999 24.756H844.65v-24.756h46.764zm-7.719-31.872l6.703 27.67H844.65v-27.67h39.045zm-39.045-96.759v-31.002h64.028v31.002H844.65zm64.028 4.202v88.355H844.65v-88.355h64.028zm68.613 269.297l-7.574-31.305h37.063l6.76 27.984-36.249 3.321zm-238.893-596.42h-87.299v-98.548h87.299v98.548zm0 50.125l-87.299-27.098V395.58h87.299v45.92zm0 54.59h-87.299v-46.822h87.299v46.822zm0 85.172h-87.299v-80.969h87.299v80.969zm0 43.641h-87.299v-39.438h87.299v39.438zm0 54.189h-87.299v-49.987h87.299v49.987zm0 35.204h-87.299v-31.002h87.299v31.002zm0 92.557h-87.299v-88.355h87.299v88.355zm0 50.227h-87.299v-46.025h87.299v46.025zm0 35.124h-38.376a2.1 2.1 0 100 4.202h38.376v38.903l-87.299-14.208v-59.819h87.299v30.922zm0 91.255c-30.629-5.416-60.071-10.523-87.299-15.115v-42.986l87.299 14.21v43.891zm-87.299-564.655l84.606 26.261h-84.606v-26.261zm-4.202-27.429h-39.438v-98.548h39.438v98.548zm0 21.723l-39.438-12.242v-5.276h39.438v17.518zm0 31.967h-39.438v-39.807l39.438 12.241v27.566zm0 51.025h-39.438v-46.822h39.438v46.822zm0 85.172h-39.438v-80.969h39.438v80.969zm0 43.641h-39.438v-39.438h39.438v39.438zm0 54.189h-39.438v-49.987h39.438v49.987zm0 35.204h-39.438v-31.002h39.438v31.002zm0 92.557h-39.438v-88.355h39.438v88.355zm0 50.227h-39.438v-46.025h39.438v46.025zm0 63.338l-39.438-6.419v-52.717h39.438v59.136zm0 47.218a6540.613 6540.613 0 00-39.438-6.514v-42.866l39.438 6.419v42.961zm-43.64-576.261h-26.343l-20.479-6.356v-92.192h46.822v98.548zm0 8.178l-12.802-3.973h12.802v3.973zm0 45.512h-46.822v-22.276l46.822-16.998v39.274zm0 51.025h-46.822v-46.822h46.822v46.822zm0 85.172h-46.822v-80.969h46.822v80.969zm0 43.641h-46.822v-39.438h46.822v39.438zm0 54.189h-46.822v-49.987h46.822v49.987zm0 35.204h-46.822v-31.002h46.822v31.002zm0 92.557h-46.822v-88.355h46.822v88.355zm0 50.227h-46.822v-46.025h46.822v46.025zm0 56.233l-46.822-7.618v-44.413h46.822v52.031zm0 47.13c-2.425-.39-4.827-.775-7.193-1.152-13.75-2.191-26.942-4.402-39.629-6.677v-42.662l46.822 7.621v42.87zM556.435 395.58h19.842l23.067 7.16-42.909 15.578V395.58zm0-6.16l6.3 1.955h-6.3v-1.955zm-4.204-5.705l-36.273-11.26v-79.628h36.273v90.888zm0 7.66h-36.273v-14.518l36.273 11.259v3.259zm0 28.469l-36.273 13.169V395.58h36.273v24.264zm0 25.221h-36.273v-7.58l36.273-13.17v20.75zm0 51.025h-36.273v-46.822h36.273v46.822zm0 85.172h-36.273v-80.969h36.273v80.969zm0 43.641h-36.273v-39.438h36.273v39.438zm0 54.189h-36.273v-49.987h36.273v49.987zm0 35.204h-36.273v-31.002h36.273v31.002zm0 92.557h-36.273v-88.355h36.273v88.355zm0 50.227h-36.273v-46.025h36.273v46.025zm0 47.929l-36.273-5.903v-37.824h36.273v43.727zm0 46.848c-12.618-2.297-24.696-4.67-36.273-7.155v-41.339l36.273 5.905v42.589zm-40.478-560.482h-38.374c-.083 0-.164.005-.247.016l-38.851 4.6v-44.488l77.472 24.048v15.824zm0 43.163l-28.992 10.527h-48.48v-44.842l39.223-4.643h38.249v38.958zm0 10.527h-16.675l16.675-6.054v6.054zm0 51.025h-75.192l-1.366-29.285 48.305-17.537h28.253v46.822zm0 85.172h-71.221l-3.775-80.969h74.996v80.969zm0 43.641h-71.127l-.001-39.438h71.128v39.438zm0 54.189h-71.127v-49.987h71.127v49.987zm0 35.204h-71.127v-31.002h71.127v31.002zm0 92.557h-71.125l-.002-88.355h71.127v88.355zm0 50.227h-98.297v-46.025h98.297v46.025zm0 41.341l-38.037-6.19a2.097 2.097 0 00-2.411 1.737 2.1 2.1 0 001.736 2.411l38.712 6.301v41.115c-38.332-8.413-70.927-18.198-98.297-31.061v-51.452h98.297v37.139zm-102.5-66.454h-82.898c-3.287-6.62-6.205-13.583-8.763-20.912h37.417l.013.001.028-.001h54.203v20.912zm0 27.214v21.093h-46.134c-14.161-12.662-25.64-27.238-34.613-44.105h80.747v23.012zm0 51.527c-11.706-5.753-22.439-12.1-32.203-19.204a182.07 182.07 0 01-9.043-7.028h41.246v26.232zM303.57 718.498h41.373l7.787 88.355h-36.568c-8.111-25.017-12.19-54.202-12.592-88.355zm-.017-11.307c.092-8.154.138-16.115.137-23.897h38.151l2.732 31.002h-41.041c-.006-2.349-.005-4.709.021-7.105zm33.512-78.086l4.406 49.987h-37.793c-.039-17.563-.311-34.215-.843-49.987h34.23zm-36.509-43.64h32.663l3.476 39.438h-34.017c-.508-13.786-1.213-26.915-2.122-39.438zm-11.067-85.172h76.672v80.969h-65.914c-2.33-30.281-5.884-56.992-10.758-80.969zm-13.697-51.025h64.693v46.822h-51.872c-3.586-16.874-7.848-32.382-12.821-46.822zm-5.774-15.544a315.575 315.575 0 00-16.824-35.365l51.599-13.67 7.603 60.376h-38.072a329.118 329.118 0 00-4.306-11.341zm-45.404-79.021l74.272-16.917 5.378 42.695-53.197 14.094c-7.895-13.824-16.707-26.918-26.453-39.872zm-25.845-31.907l76.247-20.727 20.161 6.258 3.183 25.269-76.538 17.432c-7.191-9.374-14.874-18.71-23.053-28.232zm141.716 52.436v69.833h-23.853l-7.739-61.463 31.592-8.37zm-32.123 4.162l-8.776-69.699 40.899 12.695v48.493l-32.123 8.511zm-12.897-166.702h45.02v105.297l-41.475-12.874-3.545-28.15v-64.273zm0-34.423h45.02v30.22h-45.02v-30.22zm0-35.106h45.02v30.903h-45.02v-30.903zm0-41.749h45.02v37.545h-45.02v-37.545zm0-55.966h45.02V97.21h-45.02V45.448zm49.224 403.82h85.484l.682 14.642-86.166 31.283v-45.925zm0-38.573c.131.027.256.074.392.074.083 0 .167-.004.25-.014l27.745-3.286v37.596h-28.387v-34.37zm0-36.577l28.387-7.52v36.639l-28.239 3.343c-.051.007-.097.024-.148.033v-32.495zm0-50.422l28.387 8.811v29.742l-28.387 7.521v-46.074zm0-144.853l28.387 6.931v142.332l-28.387-8.812V178.843zm0-35.68h28.387v38.285l-28.387-6.932v-31.353zm0-41.749h28.387v37.545h-28.387v-37.545zm0-55.966h28.387V97.21h-28.387V45.448zm32.591 361.524l52.799-6.251v44.344H377.28v-38.093zm0-41.488l52.799-13.989v44.993l-52.799 6.252v-37.256zm0-31.673l47.491 14.741-47.491 12.583v-27.324zm0-147.011l52.798 12.89.001 146.109-52.799-16.389V186.8zm0-43.637h52.798v52.2l-52.798-12.889v-39.311zm0-41.749h52.798v37.545H377.28v-37.545zm0-55.966h24.524v51.165c0 .209.04.407.097.598H377.28V45.448zm28.727 51.165V45.448h24.071V97.21H405.91c.058-.19.097-.39.097-.598zm26.348 399.477h-77.82l76.525-27.784 1.295 27.784zm-91.441 128.813l-3.476-39.438h53.677v39.438h-50.201zm4.776 54.189l-4.406-49.987h49.831v49.987H345.69zm45.425 39.406v88.355h-34.166l-7.787-88.355h41.953zm-42.323-4.202l-2.732-31.002h45.055v31.002h-42.323zm46.526-89.393v-39.438h41.107v39.438h-41.107zm0 54.189v-49.987h41.107v49.987h-41.107zm41.107 39.406v88.355h-41.107v-88.355h41.107zm-41.107-4.202v-31.002h41.107v31.002h-41.107zm39.06-265.028h36.805l-36.192 13.141-.613-13.141zm1.948 131.994h-65.962v-80.969h62.188l3.774 80.969zM174.654 58.173l-18.595-18.979 18.595-20.952v39.931zm0 56.008l-44.678-45.598 23.286-26.236 21.392 21.833v50.001zm0 56.009l-32.475-33.144 23.302-26.219 9.173 9.361v50.002zm0 56.008l-58.576-59.783 23.302-26.22 35.274 36.001v50.002zm0 43.171v26.196a5580.256 5580.256 0 00-19.257-21.132c-8.993-9.835-18.244-19.955-27.954-30.74l27.808-31.291 19.403 19.803v37.164zm-53.762-32.974a5469.33 5469.33 0 01-33.433-37.778l25.82-29.053 39.024 39.829-27.688 31.155a2137.49 2137.49 0 01-3.723-4.153zm-69.543-79.217l23.667-26.667 35.314 36.044-25.664 28.876a8682.174 8682.174 0 01-33.317-38.253zM8.291 107.151l20.86-23.45 42.915 43.801-23.492 26.47a11029.252 11029.252 0 01-40.283-46.821zm46.974-52.805l42.884 43.767-23.286 26.238-42.911-43.797 23.313-26.209zm26.113-29.358l42.852 43.737-23.284 26.237-42.881-43.765 23.313-26.209zm55.054 112.198l-23.303 26.219-35.317-36.045 23.285-26.238 35.335 36.064zm-9.253-65.452l35.354 36.083-23.302 26.219-35.337-36.065 23.285-26.237zm164.082 48.325h-27.908V45.448h27.908v74.611zm0 54.639l-60.021 21.891v-72.326h60.021v50.435zm0 34.423l-60.021 21.892V200.62c.418.125.875.126 1.315-.037l58.706-21.413v29.951zM231.24 45.448h27.909v74.611H231.24V45.448zm681.64 403.82h60.461a2.1 2.1 0 002.1-2.101 2.1 2.1 0 00-2.1-2.102H912.88V395.58h94.67v74.997h-34.209a2.102 2.102 0 100 4.204h34.209v50.264l-79.737-24.752h45.528a2.1 2.1 0 000-4.203h-59.07l-1.391-.432v-46.39zm98.88-8.452h17.19v90.871l-17.19-5.339v-85.532zm0-45.236h17.19v41.032h-17.19V395.58zm0-27.445h17.19v23.24h-17.19v-23.24zm0-63.049h17.19v58.846h-17.19v-58.846zm0-25.888h17.19v21.685h-17.19v-21.685zm21.4 116.382h18.73v143.226l-18.73-5.814V395.58zm0-27.445h18.73v23.24h-18.73v-23.24zm0-63.049h18.73v58.846h-18.73v-58.846zm0-25.888h18.73v21.685h-18.73v-21.685zm22.94 195.583h24.78v73.024l-24.78-7.694v-65.33zm0-60.236h24.78v56.032h-24.78v-56.032zm0-18.965h24.78v14.762h-24.78V395.58zm0-27.445h24.78v23.24h-24.78v-23.24zm0-75.308h24.78v71.105h-24.78v-71.105zm0-37.994h24.78v33.79h-24.78v-33.79zm-68.807 774.297l-9.003-37.204L1117 979.217v-4.221l-58.4 5.351-5.72-23.857H1117v-4.202h-65.12l-19.25-80.403H1117v-4.202h-85.37l-5.93-24.756h91.3v-4.202h-92.3l-49.317-206.018a2.096 2.096 0 00-2.532-1.554 2.1 2.1 0 00-1.554 2.533l19.294 80.61H912.88v-31.002h60.461a2.1 2.1 0 000-4.202H912.88v-49.987h60.461a2.1 2.1 0 000-4.202H912.88v-39.438h60.461a2.1 2.1 0 002.1-2.102 2.1 2.1 0 00-2.1-2.101H912.88v-80.969h.752L1117 563.416v-4.401l-31.91-9.905V395.58H1117v-4.205h-31.91v-98.548H1117v-4.204h-31.91v-33.79H1117v-4.204h-31.91v-38.633a2.1 2.1 0 00-2.1-2.101c-1.17 0-2.11.94-2.11 2.101v38.633h-24.78v-36.395a2.1 2.1 0 00-2.1-2.101c-1.17 0-2.11.94-2.11 2.101v60.761h-18.73v-57.523a2.1 2.1 0 00-2.1-2.101 2.11 2.11 0 00-2.11 2.101v57.523h-17.19v-57.523a2.1 2.1 0 00-2.1-2.101c-1.17 0-2.11.941-2.11 2.101v83.411h-34.209a2.101 2.101 0 100 4.203h34.209v86.289h-94.67v-98.548h60.461a2.102 2.102 0 000-4.204H912.88v-63.004a2.101 2.101 0 10-4.202 0v63.004H844.65v-57.276a2.101 2.101 0 10-4.201 0v57.276h-36.277v-53.878a2.1 2.1 0 10-4.202 0v53.878h-57.369v-48.709a2.101 2.101 0 10-4.203 0v48.709h-87.299v-41.028a2.1 2.1 0 10-4.202 0v41.028h-39.438V251.26a2.102 2.102 0 10-4.202 0v37.363h-46.822v-33.08a2.103 2.103 0 00-4.204 0v33.08h-36.273v-29.682a2.102 2.102 0 00-4.205 0v29.682h-37.78a2.101 2.101 0 100 4.204h37.78v78.324l-77.472-24.048V200.717l39.192 9.568a2.104 2.104 0 002.541-1.544 2.1 2.1 0 00-1.544-2.539l-40.189-9.812v-53.227h39.098a2.103 2.103 0 000-4.204h-39.098v-37.545h39.692a2.1 2.1 0 002.101-2.102 2.1 2.1 0 00-2.101-2.101h-39.692V45.448h39.098a2.102 2.102 0 000-4.203h-39.098V0h-4.203v41.245H377.28V0h-4.204v41.245h-28.387V0h-4.204v41.245h-45.02V0h-4.204v41.245h-27.908V0h-4.204v41.245H231.24V0h-4.203v272.537a2.102 2.102 0 104.203 0v-37.493c.192.057.392.091.595.091.239 0 .482-.041.72-.127l58.706-21.413v63.502c0 .088.006.176.016.262l3.323 26.389-56.223-17.453a2.103 2.103 0 00-1.246 4.015l30.403 9.437-71.808 19.521a1378.806 1378.806 0 00-16.869-19.048v-27.998l39.496 12.259a2.104 2.104 0 001.246-4.014l-40.742-12.647V0h-4.203v2.165L172.533 0h-5.885l8.006 8.17v3.74L153.11 36.185 117.657 0h-5.886l38.542 39.336-23.286 26.237-42.85-43.733L103.607 0H97.98L81.23 18.83 62.779 0h-5.884l21.534 21.98-23.313 26.208-29.601-30.212L41.505 0H35.88L22.566 14.966 7.902 0H2.017l17.75 18.115L0 40.335v6.325l22.715-25.536 29.601 30.212-23.314 26.209L0 47.943v6.006l26.202 26.743-20.668 23.236A9805.382 9805.382 0 010 97.448v6.472c20.66 24.191 72.982 85.196 117.758 135.276 12.157 13.597 23.534 26.04 34.536 38.073 25.97 28.402 48.211 52.729 66.955 77.173.041.067.092.12.14.181 10.672 13.93 20.208 27.903 28.649 42.689.011.076.017.152.036.229.117.444.376.809.706 1.078 8.447 14.962 15.782 30.777 22.044 48.24-.014.101-.03.201-.03.308 0 .614.268 1.162.689 1.547 12.541 35.626 20.694 78.137 24.81 134.15a2.106 2.106 0 00-.065.499c0 .286.058.555.16.802.965 13.401 1.704 27.57 2.217 42.6-.01.08-.025.157-.025.24 0 .151.019.298.049.441.563 16.788.847 34.655.86 53.709 0 .013-.004.026-.004.039 0 .012.004.025.004.038.007 8.404-.039 17.034-.139 25.912-.524 46.678 5.447 84.443 18.255 115.45a180.417 180.417 0 005.612 12.239c.056.143.123.279.207.405 12.079 23.856 28.899 43.476 51.152 59.665 34.258 24.923 79.817 40.737 138.45 53.463.234.101.49.155.759.164 12.707 2.748 26.026 5.352 39.978 7.873.125.034.253.056.385.07 13.191 2.377 26.923 4.686 41.254 6.969 141.789 22.594 391.517 69.338 521.598 94.908v-4.27c-35.85-7.05-80.64-15.67-129.707-24.95z" fill="#fff"/>
    <path d="M717.087 134.248l5.734 47.504-51.988 5.554-14.374-14.433c15.705-17.115 36.871-30.634 60.628-38.625zm45.485-8.011l1.705 22.159-40.686 4.647-2.428-20.101c13.23-4.048 27.191-6.391 41.409-6.705zm3.914 50.85l-39.483 4.219-2.908-24.089 40.506-4.627 1.885 24.497zm87.245-21.001l-13.248 13.107c-.024.002-.045-.006-.068-.003l-69.747 7.45-3.882-50.443c29.516.187 59.913 9.208 86.945 29.889zm-48.989 48.122l-31.698 3.305-2.053-26.68 63.954-6.832-30.203 30.207zm-74.043 7.721l-3.194-26.45 39.303-4.199 2.054 26.669-38.163 3.98zm-32.021 3.339l-24.041-24.141 48.688-5.202 3.191 26.44-27.838 2.903zm332.162-183.29l41.93 81.483c-5.28 6.267-10.27 12.384-14.71 18.136l-53.98-58.531 26.76-41.089zm47.23-3.887l19.79 56.77c-7.45 8.23-15.02 16.775-22.15 25.132l-23.72-46.096 26.08-35.806zm-426.063 146.6c.223.198.476.326.742.412l15.164 15.228a2.09 2.09 0 001.119 1.123l26.951 27.065c.187.321.449.586.766.77l23.425 23.522a2.097 2.097 0 002.973.007 2.102 2.102 0 00.006-2.971l-20.663-20.75 45.9-4.786 1.894 24.613a2.103 2.103 0 004.193-.321l-1.905-24.729 47.779-4.982-26.771 26.483a2.103 2.103 0 002.956 2.99l195.712-193.61 83.222 90.235c-7.26 9.624-12.79 18.042-15.35 24.135-.17.399-.2.819-.13 1.215-27.39-5.302-65.98-.665-67.928-.425a2.104 2.104 0 00-1.83 2.344 2.103 2.103 0 002.343 1.828c.562-.068 56.515-6.795 80.515 4.627 12.1 5.758 39.07 13.962 63.91 20.954v-4.39c-24.41-6.892-50.55-14.864-62.1-20.36-3.26-1.552-7.04-2.789-11.15-3.768.09-.125.18-.248.24-.395 2.56-6.082 8.33-14.718 15.92-24.649 0-.01.01-.019.02-.03 15.33-20.065 38.12-45.42 57.07-65.748v-6.213a1738.193 1738.193 0 00-15.92 17.206l-20-57.364L1098.53 0h-5.2l-13.93 19.13L1072.73 0h-4.45l8.11 23.264-26.55 36.451L1019.12 0h-4.73l14.24 27.676-27.49 42.2-25.967-28.15a2.094 2.094 0 00-.339-2.486 2.102 2.102 0 00-2.971-.016L856.747 153.103c-41.305-31.872-83.691-33.896-112.065-29.928-35.313 4.941-68.373 21.942-91.171 46.736L484.311 0h-5.931l173.024 173.751c.11.35.307.679.603.94zM639.059 1094.68v-24.4c43.206 7.85 89.912 16.36 133.67 24.4h-133.67zm-4.202 0h-69.914v-37.83c21.205 3.83 44.93 8.13 69.914 12.67v25.16zm-74.117-19.57l-85.585-1.77a2.101 2.101 0 00-1.776-.99h-46.355v-40.5c14.66 3.39 29.982 6.2 45.987 8.4 1.186.22 36.642 6.59 87.729 15.84v19.02zm-137.92-2.76h-38.721v-52.77c12.317 4.27 25.226 8.04 38.721 11.29v41.48zm-42.924-42.58h-43.527v-30.836c13.538 7.196 28.057 13.576 43.527 19.146v11.69zm0 42.58h-43.527v-38.38h43.527v38.38zm-47.73-42.58h-54.719c-.446-11.9-4.681-34.551-26.676-59.86l18.522-21.297c17.672 18.648 38.672 34.665 62.873 48.034v33.123zm0 42.58h-54.883c-.093-17.67-.189-32.2-.201-34 .091-.56.296-2.08.377-4.38h54.707v38.38zm-59.256-34.54a2.14 2.14 0 00-.033.39c.002.29.104 15.46.201 34.15H171.707v-93.403c13.807-.122 22.775-8.229 30.486-15.212 11.205-10.145 19.3-17.476 37.66.662 38.723 38.263 33.118 73.073 33.057 73.413zm-102.786-63.028a2.117 2.117 0 00-.519-.071c-.089 0-.176.014-.263.026-5.87-.382-12.7-2.365-20.908-6.687-13.3-7.001-19.615-18.434-18.769-33.981 1.203-22.096 16.453-48.267 34.662-69.266 8.046 16.327 19.316 28.751 35.121 31.571 14.486 2.584 23.677 8.246 27.322 16.832 5.844 13.768-3.997 31.473-6.655 35.843-8.032.063-14.287 5.724-20.743 11.57-8.028 7.269-16.246 14.703-29.248 14.163zm-2.621 33.048c-13.491-1.01-25.298-3.13-35.38-6.35l12.721-30.635c.541.31 1.07.631 1.633.925 8.048 4.237 14.968 6.342 21.026 6.971v29.089zm0 31.01c-18.385-.11-34.691-1.74-48.874-4.86l11.878-28.61c10.565 3.42 22.908 5.64 36.996 6.68v26.79zm0 33.51h-41.129c-4.723 0-9.168-.15-13.536-.44-.754-3.73-3.131-6.88-6.358-8.68l10.514-25.31c14.666 3.3 31.517 5 50.509 5.12v29.31zm-67.254 10.75c-4.765 0-8.641-3.88-8.641-8.65 0-.94.15-1.86.446-2.75a8.64 8.64 0 018.195-5.89c4.765 0 8.641 3.88 8.641 8.64 0 4.77-3.876 8.65-8.641 8.65zm-11.427-14.51c-34.029-7.42-57.482-25.85-69.675-54.84-2.723-6.47-4.806-13.31-6.325-20.393l34.396-13.276a77.555 77.555 0 003.16 9.33c9.778 23.609 30.72 39.479 62.477 47.509l-10.339 24.9c-.738-.13-1.492-.21-2.267-.21-4.874 0-9.255 2.74-11.427 6.98zm-64.95-188.865l34.055 9.412c-10.898 28.7-17.596 59.939-11.726 86.832L12 989.17c-6.333-34.955.407-75.414 11.873-109.445zm24.056-51.926c1.846-2.866 2.693-5.653 2.85-8.422l43.382-.783c-10.349 15.97-24.185 40.035-34.705 66.605l-34.207-9.454c6.665-18.887 14.722-35.585 22.68-47.946zm-4.749-29.022c-5.816-10.098-13.055-22.667-13.055-40.849 0-30.154 8.52-37.518 33.813-59.381l.332-.286h18.105l.332.286C108 720.41 116.52 727.774 116.52 757.928c0 .019.004.036.005.053s-.003.033-.002.051c.015.311 1.406 31.333-8.33 41.069-1.514 1.514-5.695 6.957-11.233 15.24l-46.438.837c-.95-5.297-4.018-10.628-7.343-16.401zM144.3 698.261V757.93c.001 2.3.14 27.293 4.873 55.468l-47.028.849c4.466-6.61 7.765-10.917 9.02-12.173 10.971-10.971 9.64-42.484 9.559-44.203-.013-30.554-9.421-40.094-31.927-59.61H144.3zm-36.678-37.212h55.352c2.345 11.037 5.089 22.052 8.051 33.008h-63.403v-33.008zm0-11.734c0-26.924 16.493-45.29 19.785-48.687h28.313c-.111 3.882-.069 7.788.186 11.746.955 14.802 3.184 29.654 6.187 44.472h-54.471v-7.531zm-7.188 247.208a223.687 223.687 0 015.156-11.047c13.554-27.119 31.916-51.41 44.777-65.447 2.653 13.84 6.468 28.067 11.949 40.469-11.958 13.51-22.725 29.268-29.508 44.972l-32.374-8.947zm25.727 48.583l-36.658 14.15c-3.765-18.861 1.748-40.385 9.288-58.826l32.405 8.955c-3.244 8.338-5.3 16.606-5.727 24.456-.217 3.98.03 7.734.692 11.265zm-34.127 22.965a51.375 51.375 0 01-1.553-4.689l36.678-14.157c2.375 7.874 7.127 14.423 14.155 19.391-.115.147-.22.306-.297.489l-12.875 31.005c-18.342-6.711-30.441-17.416-36.108-32.039zm-5.496-3.167c.457 1.588.982 3.15 1.577 4.685 6.11 15.772 18.98 27.273 38.411 34.411l-12.041 29c-30.738-7.64-50.924-22.75-60.222-45.199a72.222 72.222 0 01-3.095-9.245l35.37-13.652zm-22.765-78.513c10.926-27.463 25.375-52.314 35.547-67.89l47.523-.858c-15.814 17.335-37.232 46.839-50.519 77.745l-32.55-8.997zm30.923 12.906c-8.604 21.21-13.125 42.856-9.173 61.495l-35.327 13.635c-5.341-25.78 1.356-56.108 12.041-84.1l32.46 8.97zm87.381-166.637c7.366 24.999 14.983 50.849 20.278 76.715a494.631 494.631 0 003.559 16.085c-12.003 5.253-26.797 16.839-40.43 31.543-16.649-39.655-16.98-98.217-16.981-99.076v-59.666h23.67c3.178 11.549 6.554 23.032 9.904 34.399zm24.853 96.94c5.447 21.742 13.451 45.879 26.698 70.011l-7.023 5.449c-5.394-6.345-14.234-10.651-26.416-12.825-14.725-2.627-25.249-14.841-32.779-30.907 13.34-14.698 27.887-26.43 39.52-31.728zm53.546 109.169a232.398 232.398 0 005.951 6.735l-18.482 21.251a156.095 156.095 0 00-5.137-5.346c-7.063-6.979-12.968-10.531-18.13-11.799 3.793-6.615 12.053-23.676 5.967-38.033a25.04 25.04 0 00-1.591-3.097l6.652-5.163c6.83 11.948 14.969 23.864 24.77 35.452zm535.683 155.951c-50.766-9.35-107.332-19.67-158.745-29.01-.026 0-.053-.01-.08-.01-26.567-4.83-51.752-9.39-74.048-13.43h-.054c-52.057-9.42-88.336-15.95-89.562-16.17-34.458-4.74-64.401-11.99-90.476-21.16a2.106 2.106 0 00-1.049-.36c-17.06-6.06-32.443-12.95-46.335-20.508a2.094 2.094 0 00-1.158-.644c-80.048-44.014-110.01-110.257-124.135-167.017a2.063 2.063 0 00-.125-.52l-.011-.024a436.073 436.073 0 01-3.909-17.335c-5.331-26.04-12.973-51.976-20.363-77.059-7.282-24.715-14.305-48.601-19.303-72.421.001-.035.01-.069.01-.105 0-.341-.089-.659-.234-.944-3.161-15.257-5.486-30.491-6.481-45.901-1.128-17.48 1.881-34.238 5.068-51.982 8.546-47.592 18.232-101.531-50.875-188.544-33.696-42.426-60.023-75.045-81.177-101.255C20.789 255.048 9.88 241.531 0 229.152v6.733c9.01 11.26 18.864 23.471 29.846 37.077 21.149 26.203 47.47 58.815 81.156 101.228 67.925 85.526 58.418 138.472 50.03 185.186-2.266 12.613-4.436 24.735-5.137 37.049h-15.874v-59.196a2.102 2.102 0 10-4.204 0v59.196H58.901a2.102 2.102 0 000 4.203h62.815c-6.111 7.156-18.298 24.465-18.298 48.687v7.552c-2.998.023-5.922.081-8.743.148-21.763.533-38.955.937-61.15-21.257a2.102 2.102 0 00-2.972 2.973c20.02 20.02 36.048 22.646 54.465 22.646 3.17 0 6.415-.079 9.758-.159 2.794-.068 5.687-.125 8.642-.15v32.989H0v4.204h57.847c-22.52 19.53-31.927 29.068-31.927 59.667 0 19.308 7.55 32.414 13.617 42.947 3.222 5.594 5.834 10.147 6.745 14.38L0 816.091v4.203l46.573-.841c-.182 2.014-.852 4.011-2.178 6.07-8.14 12.641-16.375 29.75-23.167 49.111L0 868.768v4.361l19.86 5.486C8.183 913.451 1.381 954.899 8.03 990.701l-8.03 3.1v4.504l8.866-3.421c1.554 7.116 3.666 13.976 6.407 20.496 12.709 30.22 37.037 49.45 72.27 57.23-.038.27-.076.54-.097.82-25.554 2.68-35.998 12.05-66.714 43.57h5.874c28.331-28.98 37.915-36.94 61.207-39.39 1.244 4.89 5.293 8.67 10.334 9.5V1117h4.204v-29.89c5.403-.89 9.668-5.16 10.557-10.57 2.702-.01 5.512 0 8.498.01 1.61 0 3.283 0 4.999.01h41.098V1117h4.204v-40.44h101.394c.067 13.47.13 28.26.15 40.44h4.203c-.02-12.18-.083-26.97-.15-40.44h54.862V1117h4.203v-40.44h43.527V1117h4.203v-40.44h38.721V1117h4.204v-40.44h40.862c.374.51.968.85 1.652.87l91.202 1.88V1117h4.203v-18.11h69.914V1117h4.202v-18.11h156.512c36.891 6.79 70.688 13.08 97.211 18.11h22.372c-28.34-5.48-71.029-13.44-118.906-22.26-.029-.01-.06-.01-.09-.02zM629.018 498.191v-51.024a1.84 1.84 0 00-3.68 0v51.024a1.84 1.84 0 003.68 0zM591.958 496.352a1.839 1.839 0 00-1.839 1.839v36.349a1.839 1.839 0 103.678 0v-36.349a1.84 1.84 0 00-1.839-1.839zM568.315 496.352a1.839 1.839 0 00-1.839 1.839v37.313a1.838 1.838 0 103.677 0v-37.313a1.838 1.838 0 00-1.838-1.839zM512.017 517.286a1.84 1.84 0 001.839 1.839h40.476a1.839 1.839 0 100-3.678h-40.476a1.838 1.838 0 00-1.839 1.839zM534.094 445.328a1.839 1.839 0 00-1.839 1.839v51.024a1.839 1.839 0 103.677 0v-23.673h18.4a1.839 1.839 0 100-3.678h-18.4v-23.673a1.838 1.838 0 00-1.838-1.839zM676.111 497.385v-50.219a1.84 1.84 0 00-3.678 0v50.219a1.838 1.838 0 003.678 0zM650.715 561.747a1.84 1.84 0 00-1.839-1.839h-43.519a1.84 1.84 0 000 3.678h43.519a1.84 1.84 0 001.839-1.839zM580.547 535.504v47.86a1.84 1.84 0 003.68 0v-47.86a1.838 1.838 0 00-1.839-1.838 1.839 1.839 0 00-1.841 1.838zM554.332 644.411h-40.476a1.838 1.838 0 100 3.677h40.476a1.838 1.838 0 100-3.677z" fill="#fff"/>
    <path d="M607.072 660.698a1.84 1.84 0 00-1.84-1.839h-91.376c-.076 0-.148.012-.222.021a1.838 1.838 0 00-1.801-2.21h-21.476v-93.084h47.363l2.501 19.196a1.839 1.839 0 103.646-.476l-6.13-47.041a1.833 1.833 0 00-2.061-1.585 1.84 1.84 0 00-1.585 2.062l3.148 24.166h-99.182a1.84 1.84 0 000 3.678h48.623v115.471a1.839 1.839 0 103.677 0v-18.71h21.476c.077 0 .149-.011.221-.021a1.84 1.84 0 001.802 2.211h11.463v53.859a1.839 1.839 0 103.677 0v-53.859h76.236a1.84 1.84 0 001.84-1.839zM627.072 583.363a1.838 1.838 0 00-3.678 0v97.831a1.84 1.84 0 003.678 0v-20.847h51.141a1.838 1.838 0 001.838-1.839v-31.503a1.839 1.839 0 10-3.677 0v29.664h-49.302v-73.306z" fill="#fff"/>
    <path d="M669.893 628.385a1.839 1.839 0 001.839-1.838v-43.183a1.84 1.84 0 00-3.678 0v43.183c0 1.015.823 1.838 1.839 1.838zM680.401 679.354a1.84 1.84 0 00-1.839 1.84v35.202a1.84 1.84 0 103.678 0v-35.202a1.84 1.84 0 00-1.839-1.84zM580.547 681.491v34.905a1.84 1.84 0 103.68 0v-34.905a1.84 1.84 0 00-3.68 0zM648.876 734.606h-135.02a1.839 1.839 0 100 3.677h135.02a1.838 1.838 0 100-3.677zM669.893 714.557a1.84 1.84 0 00-1.839 1.839v39.751a1.839 1.839 0 103.678 0v-39.751a1.84 1.84 0 00-1.839-1.839zM435.351 485.212h78.505a1.838 1.838 0 000-3.677h-78.505a1.837 1.837 0 000 3.677zM439.896 600.276a1.84 1.84 0 00-1.839-1.839h-44.841a1.84 1.84 0 000 3.678h44.841a1.84 1.84 0 001.839-1.839zM392.71 612.199c.027.001.053.003.081.003a1.84 1.84 0 00.077-3.677l-21.633-.936-1.135-24.311a1.839 1.839 0 00-3.674.171l1.119 23.981-30.188-1.306a1.858 1.858 0 00-1.793 1.198h-35.65a1.839 1.839 0 100 3.679h36.346c.779 0 1.441-.486 1.709-1.17l29.748 1.287.724 15.514a1.84 1.84 0 001.836 1.753l.087-.002a1.839 1.839 0 001.751-1.922l-.708-15.183 21.303.921zM438.526 612.202h34.853a1.84 1.84 0 000-3.68h-34.853a1.84 1.84 0 000 3.68z" fill="#fff"/>
    <path d="M333.304 583.364a1.84 1.84 0 003.678 0v-27.102h63.203l-8.716 26.529a1.839 1.839 0 003.494 1.147l15.726-47.86c.06-.186.09-.379.09-.574v-37.313a1.837 1.837 0 10-3.676 0v17.256h-38.841a1.84 1.84 0 000 3.678h38.841v16.084l-5.71 17.375H295.817a1.838 1.838 0 000 3.678h37.487v27.102zM375.178 679.652a1.84 1.84 0 00-1.839 1.839v34.905a1.839 1.839 0 103.678 0v-34.905a1.839 1.839 0 00-1.839-1.839zM515.694 698.944a1.838 1.838 0 00-1.838-1.839h-120.64a1.839 1.839 0 100 3.679h120.64a1.84 1.84 0 001.838-1.84zM419.011 715.05a1.84 1.84 0 00-1.839 1.839v41.039a1.84 1.84 0 103.678 0v-41.039a1.84 1.84 0 00-1.839-1.839zM364.142 716.568a1.84 1.84 0 00-3.622.641l6.94 39.259a1.838 1.838 0 103.621-.641l-6.939-39.259zM346.868 734.432H302.04a1.839 1.839 0 100 3.679h44.828a1.839 1.839 0 100-3.679zM605.671 895.648l-51.023-8.866a1.836 1.836 0 00-2.127 1.497 1.838 1.838 0 001.497 2.125l51.025 8.867a1.839 1.839 0 10.628-3.623zM777.005 941.882a1.839 1.839 0 00-1.839 1.84v48.732a1.838 1.838 0 103.678 0v-48.732a1.84 1.84 0 00-1.839-1.84zM952.771 990.321a1.836 1.836 0 00-1.393 2.194l7.434 33.355c.191.86.951 1.44 1.793 1.44.133 0 .267-.02.402-.05a1.832 1.832 0 001.394-2.19l-7.435-33.355a1.831 1.831 0 00-2.195-1.394zM1022.97 1025.5c.1.01.19.02.29.02a1.842 1.842 0 00.29-3.66c-10.48-1.67-13.27-4.4-14.75-8.83-1.71-5.14-6.98-25.419-7.03-25.623a1.85 1.85 0 00-2.247-1.319 1.841 1.841 0 00-1.319 2.242c.218.839 5.356 20.61 7.106 25.86 2.18 6.53 6.96 9.59 17.66 11.31zM1090.05 620.294c-5.81-4.652-6.75-12.385-6.75-29.087 0-17.721-13.92-21.643-14.06-21.68l-95.424-25.56a1.84 1.84 0 00-.952 3.553l95.416 25.557c.46.129 11.34 3.309 11.34 18.13 0 15.374.57 25.905 8.13 31.959 5.29 4.224 19.52 13.424 29.25 19.641v-4.366c-9.52-6.102-22.15-14.306-26.95-18.147zM1035.58 734.432v-16.196h27.05c1.02 0 1.84-.823 1.84-1.84 0-1.015-.82-1.839-1.84-1.839h-11.9v-10.425h22.41c1.02 0 1.84-.824 1.84-1.839 0-1.015-.82-1.839-1.84-1.839h-24.25c-1.01 0-1.84.824-1.84 1.839v12.264h-53.968a1.84 1.84 0 100 3.679h38.818v18.035c0 1.017.82 1.84 1.84 1.84h16.55v13.22a1.835 1.835 0 103.67 0v-13.22h14.72v22.974a1.835 1.835 0 103.67 0v-22.974h14.8c1.02 0 1.84-.823 1.84-1.84 0-1.015-.82-1.839-1.84-1.839h-51.57zM1030.56 1058.45l-140.059-29.13-9.399-19.03a1.838 1.838 0 00-2.463-.83 1.836 1.836 0 00-.834 2.46l9.796 19.83c.251.5.72.87 1.274.98l140.935 29.32c.13.03.25.04.38.04.85 0 1.61-.6 1.8-1.46.2-1-.44-1.97-1.43-2.18zM319.184 142.9a1.839 1.839 0 001.839-1.839V99.312a1.84 1.84 0 00-3.678 0v41.749c0 1.017.824 1.839 1.839 1.839zM260.863 282.562a1.84 1.84 0 001.839-1.839v-58.278a1.84 1.84 0 00-3.678 0v58.278c0 1.015.822 1.839 1.839 1.839zM121.88 121.168c.362 0 .729-.105 1.05-.329l32.619-22.717a1.838 1.838 0 00.458-2.56 1.837 1.837 0 00-2.56-.458l-32.62 22.717a1.84 1.84 0 001.053 3.347zM549.128 168.056c11.525 0 20.901 9.378 20.901 20.902 0 11.525-9.376 20.902-20.901 20.902-11.526 0-20.902-9.377-20.902-20.902 0-11.524 9.376-20.902 20.902-20.902zm0 45.481c11.225 0 20.697-7.574 23.626-17.874 2.735.717 8.254 2.232 13.637 4.113 5.894 2.059 11.437 2.961 16.671 2.961 21.6-.001 37.903-15.368 51.522-28.208l-1.185-1.412-1.339-1.265c-17.037 16.063-36.347 34.273-64.455 24.452-5.623-1.964-11.387-3.538-14.115-4.251a24.48 24.48 0 00.217-3.095c0-13.552-11.026-24.578-24.579-24.578s-24.58 11.026-24.58 24.578c0 13.553 11.027 24.579 24.58 24.579zM858.801 216.417h-.006c-10.356 0-16.613-2.04-17.165-5.594-1.101-7.09 17.304-21.271 43.582-29.639 7.804-2.486 15.98-3.799 23.645-3.799 16.723 0 27.306 6.064 27.875 11.925.661 6.802-10.754 16.447-44.771 23.119-13.493 2.647-24.648 3.988-33.16 3.988zm81.592-27.463c-.859-8.834-14.121-15.246-31.536-15.246-8.038 0-16.601 1.373-24.762 3.972-.755.241-1.504.488-2.248.737-.065-.094-.105-.201-.189-.285l-23.946-23.945a1.84 1.84 0 00-2.601 2.601l22.955 22.955c-24.305 8.866-41.532 22.239-40.071 31.645.898 5.777 7.896 8.707 20.798 8.708h.008c8.748 0 20.143-1.366 33.869-4.057 31.402-6.16 48.796-16.031 47.723-27.085zM161.518 455.626c-10.309-3.096-20.578-1.142-30.507.748-10.935 2.082-21.263 4.047-31.195-.504a1.836 1.836 0 00-2.438.905 1.84 1.84 0 00.905 2.438c4.989 2.287 10.057 3.089 15.135 3.089 6.122 0 12.258-1.167 18.28-2.314 9.497-1.808 19.313-3.677 28.762-.841a1.837 1.837 0 101.058-3.521zM191.547 935.42h.888c1.641 0 5.999 0 7.933-3.375 1.766-3.081.763-7.759-3.067-14.3-3.56-6.075-3.475-10.312-2.323-12.097.272-.421.736-.9 1.435-.831.89.096 2.285 1.158 3.29 3.833 5.958 15.878 12.117 23.864 17.362 22.471 3.088-.819 4.608-4.83 3.779-9.983-.573-3.561-.277-8.324 1.723-10.361.833-.85 1.951-1.16 3.413-.954a1.839 1.839 0 10.516-3.639c-2.628-.376-4.893.324-6.553 2.017-3.11 3.168-3.414 9.263-2.729 13.521.558 3.476-.275 5.627-1.092 5.844-1.268.326-6.388-2.653-12.976-20.21-1.37-3.65-3.681-5.909-6.338-6.195-1.941-.207-3.772.722-4.916 2.49-2.337 3.611-1.502 9.576 2.235 15.954 4.165 7.113 3.52 9.79 3.05 10.611-.783 1.367-3.081 1.526-4.742 1.526h-.888a1.84 1.84 0 000 3.678zM146.377 888.405a1.84 1.84 0 00-.686-2.509l-32.577-18.603a1.839 1.839 0 00-1.824 3.194l32.578 18.604a1.837 1.837 0 002.509-.686zM91.345 921.557c0-1.017-.823-1.84-1.839-1.84H50.26a1.839 1.839 0 100 3.679h39.247a1.84 1.84 0 001.84-1.839zM48.05 951.036a1.841 1.841 0 00-2.021-1.637l-38.714 4.062a1.839 1.839 0 10.383 3.658l38.714-4.062a1.839 1.839 0 001.637-2.021zM55.768 996.617l-32.332 31.023a1.839 1.839 0 00-.054 2.6c.36.38.844.57 1.326.57.459 0 .917-.17 1.274-.51l32.332-31.029a1.84 1.84 0 10-2.546-2.654zM135.216 960.269l-30.748 28.54a1.837 1.837 0 00-.096 2.598 1.84 1.84 0 002.599.099l30.748-28.54a1.84 1.84 0 00-2.503-2.697zM114.335 993.942a1.84 1.84 0 00-2.541.556l-20.74 32.342c-.55.85-.301 1.99.554 2.54a1.836 1.836 0 002.54-.56l20.741-32.336a1.84 1.84 0 00-.554-2.542zM150.538 1006.11a1.844 1.844 0 00-2.043 1.61l-3.921 33.02a1.846 1.846 0 001.61 2.05c.073 0 .147.01.219.01a1.84 1.84 0 001.823-1.62l3.921-33.03c.119-1.01-.6-1.92-1.609-2.04zM30.82 856.332l38.509 12.182a1.841 1.841 0 002.308-1.199 1.84 1.84 0 00-1.2-2.308L31.93 852.826a1.839 1.839 0 10-1.11 3.506zM43.654 1047.93a1.842 1.842 0 00-2.577-.35L0 1078.8v4.62l43.302-32.91c.809-.61.966-1.77.352-2.58zM14.508 912.678a1.83 1.83 0 00-1.93-1.742L0 911.582v3.683l12.766-.655a1.84 1.84 0 001.742-1.932zM275.293 1048.79l-73.9 2.59-8.029-81.65c-.099-1.01-.979-1.734-2.01-1.65a1.84 1.84 0 00-1.65 2.01l8.008 81.42-27.893.98a1.842 1.842 0 00-1.773 1.9c.034.99.85 1.78 1.836 1.78h.066l105.475-3.7a1.842 1.842 0 001.773-1.9c-.035-1.02-.857-1.77-1.903-1.78zM447.268 1032.1c-1.021-.08-1.884.72-1.943 1.73l-2.316 39.96a1.84 1.84 0 001.729 1.94h.108c.966 0 1.777-.75 1.833-1.73l2.317-39.96a1.839 1.839 0 00-1.728-1.94zM865.169 756.089a1.84 1.84 0 00-1.839 1.839v51.197a1.84 1.84 0 003.678 0v-51.197a1.84 1.84 0 00-1.839-1.839zM763.591 756.09a1.839 1.839 0 00-1.839 1.838v34.122a1.839 1.839 0 003.678 0v-34.122a1.839 1.839 0 00-1.839-1.838zM883.508 693.973a1.84 1.84 0 001.839 1.839h25.433a1.84 1.84 0 000-3.678h-25.433a1.84 1.84 0 00-1.839 1.839zM937.763 583.201v43.346a1.839 1.839 0 003.678 0v-43.346a1.84 1.84 0 00-3.678 0zM897.219 608.753v-25.389a1.84 1.84 0 00-3.678 0v25.389a1.84 1.84 0 103.678 0zM867.445 374.168v-15.71h19.886v15.71h-19.886zm19.886 19.31c0 1.015.823 1.837 1.839 1.837s1.84-.822 1.84-1.837v-56.534a1.839 1.839 0 10-3.679 0v17.836h-19.886v-17.836a1.838 1.838 0 10-3.678 0v56.534a1.838 1.838 0 003.678 0v-15.632h19.886v15.632zM764.493 335.105c-1.016 0-1.84.822-1.84 1.839v56.534c0 1.015.824 1.837 1.84 1.837a1.837 1.837 0 001.839-1.837v-56.534a1.838 1.838 0 00-1.839-1.839zM375.178 161.779h57a1.839 1.839 0 100-3.678h-57a1.839 1.839 0 100 3.678zM679.316 807.286a1.84 1.84 0 00-1.84 1.839v50.056a1.84 1.84 0 103.679 0v-50.056a1.84 1.84 0 00-1.839-1.839zM786.139 581.525a1.839 1.839 0 00-1.839 1.839v19.324a1.84 1.84 0 003.678 0v-19.324a1.84 1.84 0 00-1.839-1.839zM715.866 445.328a1.838 1.838 0 00-1.839 1.838v25.11a1.84 1.84 0 003.678 0v-25.11a1.839 1.839 0 00-1.839-1.838zM700.022 365.07h-30.129a1.838 1.838 0 100 3.677h30.129a1.838 1.838 0 100-3.677zM593.797 336.944a1.84 1.84 0 00-3.678 0v22.959a1.839 1.839 0 103.678 0v-22.959zM607.534 310.763a1.839 1.839 0 00-1.839-1.839h-33.827a1.838 1.838 0 100 3.678h33.827a1.84 1.84 0 001.839-1.839zM930.757 251.584v39.14a1.838 1.838 0 103.678 0v-37.301h38.906a1.839 1.839 0 100-3.678h-40.745a1.84 1.84 0 00-1.839 1.839zM103.68 716.396a1.84 1.84 0 001.839 1.841H146.4a1.84 1.84 0 000-3.68h-40.881a1.84 1.84 0 00-1.839 1.839zM132.862 696.159v-23.968a1.84 1.84 0 00-3.678 0v23.968a1.838 1.838 0 103.678 0zM103.111 575.451a1.84 1.84 0 00-1.839 1.839v21.237a1.84 1.84 0 003.678 0V577.29a1.84 1.84 0 00-1.839-1.839zM534.094 807.286a1.84 1.84 0 00-1.839 1.839v50.056a1.84 1.84 0 103.677 0v-50.056a1.838 1.838 0 00-1.838-1.839zM865.606 533.665a1.84 1.84 0 00-1.839 1.839v18.919a1.84 1.84 0 003.678 0v-18.919a1.839 1.839 0 00-1.839-1.839zM973.341 413.889h-33.739a1.839 1.839 0 100 3.677h33.739a1.84 1.84 0 000-3.677zM314.779 233.186h27.808a1.839 1.839 0 100-3.678h-27.808a1.838 1.838 0 100 3.678z" fill="#fff"/>
    <path d="M473.379 751.236a6.698 6.698 0 016.692 6.691 6.7 6.7 0 01-6.692 6.694 6.702 6.702 0 01-6.694-6.694c0-3.69 3.003-6.691 6.694-6.691zm-6.69-489.228a6.7 6.7 0 016.682-6.692l.008.001.012-.001a6.699 6.699 0 016.684 6.692 6.7 6.7 0 01-6.692 6.693 6.7 6.7 0 01-6.694-6.693zm20.245 2.476l209.541-17.497v86.409h-219.55v-58.079c5.107-1.362 9.051-5.576 10.009-10.833zM700.022 528.82c.014 0 .028-.004.042-.004 3.671.022 6.652 3.012 6.652 6.688a6.7 6.7 0 01-6.694 6.693 6.7 6.7 0 01-6.692-6.693c0-3.676 2.98-6.666 6.651-6.688.015 0 .028.004.041.004zm3.548-188.329h266.223v191.466H713.329a13.813 13.813 0 00-9.759-9.76V340.491zm0-94.097l256.804-21.443a13.82 13.82 0 009.419 8.667v99.778H703.57v-87.002zm269.771-32.776a6.701 6.701 0 016.692 6.693 6.7 6.7 0 01-6.692 6.693 6.7 6.7 0 01-6.694-6.693 6.701 6.701 0 016.694-6.693zm6.692 595.335a6.7 6.7 0 01-6.692 6.693 6.7 6.7 0 01-6.694-6.693 6.702 6.702 0 016.694-6.693c3.689 0 6.692 3.004 6.692 6.693zM703.57 754.382V548.81a13.81 13.81 0 009.759-9.759h256.464v215.331H703.57zM476.925 531.957V340.491h219.55v181.706a13.815 13.815 0 00-9.759 9.76H476.925zm219.55 222.425H486.686a13.81 13.81 0 00-9.761-9.76V539.051h209.791a13.812 13.812 0 009.759 9.759v205.572zM229.139 289.469a6.7 6.7 0 01-6.693-6.693 6.7 6.7 0 016.693-6.692 6.698 6.698 0 016.692 6.692 6.7 6.7 0 01-6.692 6.693zM77.602 577.793c.055-.08.106-.16.154-.244.224-.385 23.047-38.498 86.846-38.498h305.23v205.571a13.813 13.813 0 00-9.76 9.76H0v7.094h460.072a13.814 13.814 0 009.76 9.758v165.302c0 .013.004.026.004.038V1117h7.093V936.536c0-.013-.004-.026-.004-.038V771.234a13.812 13.812 0 009.76-9.758h209.79v214.949a3.548 3.548 0 007.095 0V761.476h266.223v34.17c-5.885 1.572-10.24 6.934-10.24 13.307 0 7.602 6.185 13.786 13.788 13.786 7.601 0 13.786-6.184 13.786-13.786 0-6.373-4.355-11.735-10.24-13.307v-34.17h24.533a3.55 3.55 0 003.55-3.548 3.549 3.549 0 00-3.55-3.546h-24.533V340.491H1117v-7.095H976.887v-99.778c5.119-1.366 9.07-5.602 10.013-10.88l130.1-10.825v-7.116L986.307 215.67a13.825 13.825 0 00-9.42-8.665V0h-7.094v207.005c-5.119 1.366-9.07 5.601-10.013 10.878l-473.414 39.532a13.825 13.825 0 00-9.441-8.715V0h-7.093v248.702c-5.134 1.373-9.089 5.63-10.016 10.93L241.989 277.82c-1.997-5.157-6.997-8.83-12.85-8.83-7.602 0-13.787 6.185-13.787 13.786 0 7.602 6.185 13.787 13.787 13.787 6.886 0 12.594-5.082 13.609-11.689l217.688-18.177a13.818 13.818 0 009.396 8.617v256.643h-305.23c-66.578 0-91.07 38.828-92.903 41.901L0 677.205v12.443l77.602-111.855z" fill="#FFF100"/>
    <path d="M1073.73 114.825v-8.774H1079.04V123.6H1073.73v-8.775z" fill="#fff"/>
    <path d="M1076.47 98.826c9.96 0 18.85 6.807 18.85 16.118 0 3.301-1.16 6.543-3.21 9.059-.09 2.948 1.6 7.177 3.13 10.256-4.09-.757-9.9-2.428-12.53-4.084-14.51 3.619-25.09-5.484-25.09-15.231 0-9.361 8.96-16.118 18.85-16.118zm-1.57 24.159h3.14v-9.663h-3.14v9.663zm1.57-12.482c1.09 0 1.97-.902 1.97-2.013 0-1.111-.88-2.013-1.97-2.013-1.08 0-1.96.902-1.96 2.013 0 1.111.88 2.013 1.96 2.013z" fill="#25C2EA"/>
  </g>
  <path d="M1042.08 580.898H766.066c-31.454 0-56.953 25.48-56.953 56.91v675.352c0 31.43 25.499 56.91 56.953 56.91h276.014c31.46 0 56.96-25.48 56.96-56.91V637.808c0-31.43-25.5-56.91-56.96-56.91z" fill="#000" stroke="#939393" stroke-width="10"/>
  <path d="M925.576 610.279H884.4a3.537 3.537 0 00-3.538 3.535 3.536 3.536 0 003.538 3.534h41.176a3.535 3.535 0 100-7.069zM946.164 618.436a5.62 5.62 0 005.623-5.619 5.62 5.62 0 00-5.623-5.619 5.62 5.62 0 00-5.623 5.619 5.62 5.62 0 005.623 5.619z" fill="#939393"/>
  <path d="M785.297 784.683l80.423 93.741 79.813-93.741 80.297 93.741v-93.741l-80.297-94.012" stroke="#fff" stroke-width="7.765"/>
  <path d="M945.533 690.671H785.297v94.012" stroke="#fff" stroke-width="7.765"/>
  <path d="M1040.32 663h-30.17c-7.03 0-12.739 5.701-12.739 12.733v30.385c0 7.033 5.709 12.733 12.739 12.733h30.17c7.04 0 12.75-5.7 12.75-12.733v-30.385c0-7.032-5.71-12.733-12.75-12.733zM800.911 851h-30.168c-7.038 0-12.743 5.701-12.743 12.733v30.385c0 7.033 5.705 12.733 12.743 12.733h30.168c7.038 0 12.743-5.7 12.743-12.733v-30.385c0-7.032-5.705-12.733-12.743-12.733zM959.911 851h-30.168c-7.038 0-12.743 5.701-12.743 12.733v30.385c0 7.033 5.705 12.733 12.743 12.733h30.168c7.038 0 12.743-5.7 12.743-12.733v-30.385c0-7.032-5.705-12.733-12.743-12.733z" fill="#969696"/>
  <defs>
    <clipPath id="clip0">
      <path fill="#fff" d="M0 0h1117v1117H0z"/>
    </clipPath>
  </defs>
</svg>
