<svg width="1125" height="908" viewBox="0 0 1125 908" fill="none"
  xmlns="http://www.w3.org/2000/svg">
  <g clip-path="url(#clip0)" filter="url(#filter0_d)">
    <path d="M1121 1086H4V-31H1121V1086Z" fill="#D4D9F7"/>
    <path d="M713.298 498.347L707.57 491.197L702.133 468.793V302.396L518.241 307.23V504.914H556.99V728.869V925.403L704.022 948.972V517.81L717.329 508.051L713.298 498.347Z" fill="#CEA1E4"/>
    <path d="M241.131 259.31L241.746 246.152L231.037 241.537L225.042 245.524L222.976 253.577L178.654 238.369V201.205L159.975 178.496L114.33 135.555L91.459 167.617L174.1 270.452C174.1 270.452 244.373 365.682 246.343 368.965C248.314 372.249 285.749 468.792 285.749 468.792L348.141 469.449L348.689 288.294L241.131 259.31Z" fill="#CEA1E4"/>
    <path d="M914.78 596.443V729.333L977.178 727.801L979.441 596.005L914.78 596.443Z" fill="#CEA1E4"/>
    <path d="M702.79 400.49L979.285 486.525L976.001 504.257L914.266 505.571L914.923 483.241L845.963 480.614V465.509L744.166 467.479L743.509 416.909L702.79 416.252V400.49Z" fill="#CEA1E4"/>
    <path d="M702.79 363.055L744.166 362.398V386.698L805.901 403.117V414.938L845.306 415.595L845.963 431.357L914.266 433.328L913.609 415.595L977.971 416.252L976.001 494.406L753.36 424.79L743.509 416.909L702.79 400.49V363.055Z" fill="#CEA1E4"/>
    <path d="M703.281 899.995L846.607 923.792L844.985 973.55L704.022 948.972L703.281 899.995Z" fill="#CEA1E4"/>
    <path d="M557.251 876.196L478.287 864.84L478.828 827.52L416.089 826.979L415.548 778.302L358.217 778.844L352.809 725.839H307.377C307.377 725.839 299.265 755.587 299.805 757.209C300.346 758.832 352.809 896.208 354.431 896.75C356.053 897.29 564.824 941.639 564.824 941.639L568.069 891.881L557.251 876.196Z" fill="#CEA1E4"/>
    <path d="M434.833 67.5137L437.46 234.33L476.865 233.017V68.8272L434.833 67.5137Z" fill="#CEA1E4"/>
    <path d="M296.938 551.047L441.708 552.022L476.318 552.509V686.07L298.399 685.583L296.938 551.047Z" fill="#CEA1E4"/>
    <path d="M473.071 221.731L472.326 222.725C473.847 222.095 475.56 221.731 477.379 221.731C482.842 221.731 487.393 224.936 488.42 229.186L965.056 190.273C965.056 186.334 968.04 182.977 972.246 181.632L976.318 176.735L978.306 -31.0001H477.379V213.327L473.071 221.731Z" fill="#8CD3B1"/>
    <path d="M120.028 513.12C141.668 504.297 170.816 504.038 170.816 504.038C170.816 504.038 157.244 556.579 163.831 599.864C170.42 643.15 195.336 727.556 195.336 727.556C195.336 727.556 148.906 724.643 149.581 727.556C153.914 746.225 153.112 772.857 156.746 789.699C160.248 805.934 165.724 817.416 168.409 831.542C113.679 892.62 134.734 920.196 135.501 923.518C138.956 938.486 172.567 945.38 172.567 945.38L174.238 1044.33L279.192 1043.45L279.356 1000.87C279.356 1000.87 277.543 982.45 273.846 973.785C270.147 965.12 252.911 938.91 252.911 938.91L274.123 915.436C274.123 915.436 294.229 934.892 304.811 942.952C315.392 951.013 339.143 964.967 339.143 964.967L388.622 986.591L432.511 999.062L477.379 1007.19L477.383 978.436C477.383 978.436 413.038 951.463 401.435 947.223C389.833 942.986 262.192 815.398 262.192 815.398L230.852 719.414L230.239 581.432C230.239 581.432 231.618 504.504 230.239 504.504C228.859 504.504 210.523 425.133 210.523 425.133L150.542 338.642L108.209 305.944L4 169.4V650.186L81.8699 540.303C81.8699 540.303 98.3873 521.941 120.028 513.12Z" fill="#8CD3B1"/>
    <path d="M846.549 971.25L704.022 947.223L573.208 925.998L477.379 905.536C477.379 905.536 449.955 896.272 421.477 885.896C392.997 875.518 366.33 851.376 366.33 851.376C366.33 851.376 315.174 814.848 307.865 726.928C305.646 700.234 305.892 676.215 306.031 650.194V622.315C305.754 590.189 304.166 553.287 297.363 504.504C288.752 442.747 273.324 396.1 244.627 350.947C222.683 316.422 124.945 204.886 52.951 124.766L51.2865 126.622L7.50237 81.0862L10.1253 77.4609C8.01084 75.1465 5.96976 72.9161 4 70.7659V103.405C45.3967 162.37 245.547 447.355 247.439 447.985C249.548 448.689 272.4 564.713 272.4 564.713L279.359 777.953L318.779 851.376L369.089 897.704L454.174 950.759L558.332 961.861L637.352 964.547L858.7 999.062L1121 1044.19V1025.23L846.549 971.25Z" fill="#8CD3B1"/>
    <path d="M558.332 552.364H517.856V596.005H558.332V552.364Z" fill="#8CD3B1"/>
    <path d="M914.779 596.442H744.499V650.194H914.779V596.442Z" fill="#8CD3B1"/>
    <path d="M609.357 777.953H652.998V726.928H609.357V777.953Z" fill="#8CD3B1"/>
    <path d="M914.779 362.478H846.549V416.167H914.779V362.478Z" fill="#8CD3B1"/>
    <path d="M442.526 596.005H306.031V622.315C306.114 631.974 306.08 641.204 306.031 650.194H442.526V596.005Z" fill="#8CD3B1"/>
    <path d="M306.031 622.315V650.194C306.08 641.204 306.114 631.974 306.031 622.315Z" fill="#8CD3B1"/>
    <path d="M609.357 416.167H558.332V467.191H609.357V416.167Z" fill="#8CD3B1"/>
    <path d="M976.318 199.551C982.539 199.551 987.58 195.397 987.58 190.273C987.58 185.149 982.539 180.996 976.318 180.996C974.879 180.996 973.511 181.226 972.246 181.632L965.056 190.273C965.056 195.397 970.098 199.551 976.318 199.551Z" fill="#8CD3B1"/>
    <path d="M965.056 190.273L972.246 181.632C968.04 182.977 965.056 186.334 965.056 190.273Z" fill="#8CD3B1"/>
    <path d="M466.116 231.008L472.326 222.725C468.647 224.251 466.116 227.383 466.116 231.008Z" fill="#8CD3B1"/>
    <path d="M477.379 240.285C483.599 240.285 488.641 236.132 488.641 231.008C488.641 230.384 488.564 229.776 488.421 229.186L466.116 231.008C466.116 236.132 471.158 240.285 477.379 240.285Z" fill="#8CD3B1"/>
    <path d="M477.379 221.731C475.56 221.731 473.847 222.095 472.326 222.725L466.116 231.008L488.421 229.186C487.393 224.936 482.842 221.731 477.379 221.731Z" fill="#8CD3B1"/>
    <path d="M1034.23 272.422L1014.09 271.984L1013.22 306.136L1034.47 306.548L1034.23 272.422Z" fill="#8CD3B1"/>
    <path d="M1058.32 335.471V307.011L1034.47 306.548L1034.67 335.471H1058.32Z" fill="#8CD3B1"/>
    <path d="M32.8971 50.438L22.389 60.5087L10.125 77.4609C22.4156 90.9192 37.0572 107.078 52.9508 124.766L77.9948 96.8484L32.8971 50.438Z" fill="#8CD3B1"/>
    <path d="M7.50244 81.0862L51.2866 126.622L52.9511 124.766C37.0576 107.078 22.4159 90.9192 10.1254 77.4609L7.50244 81.0862Z" fill="#8CD3B1"/>
    <path d="M652.876 552.201H744.822V466.385H652.876V552.201Z" fill="#D4D9F7"/>
    <path d="M848.153 827.163L806.12 828.039V863.941H848.153V827.163Z" fill="#D4D9F7"/>
    <path d="M1080.43 861.533H1066.63L1072.22 882.221H1078.46L1080.75 888.789H1074.51L1083.38 923.269L1121 922.181V837.869L1075.17 838.547L1080.43 861.533Z" fill="#D4D9F7"/>
    <path d="M976.658 602.114L1027.23 809.65L1121 809.081V530.957L977.315 485.868L976.658 602.114Z" fill="#D4D9F7"/>
    <path d="M415.13 881.236L425.638 888.46C425.638 888.46 470.955 904.223 477.522 905.536C477.522 893.714 478.179 778.782 478.179 778.782L415.13 778.125V881.236Z" fill="#D4D9F7"/>
    <path d="M442.057 595.547L443.371 649.401H478.179L476.865 597.517L442.057 595.547Z" fill="#D4D9F7"/>
    <path d="M118.463 138.564L74.3496 183.496L111.053 224.99L159.975 178.496L118.463 138.564Z" fill="#D4D9F7"/>
    <path d="M82.9751 404.185C71.8893 404.185 62.9009 414.195 62.9009 426.541C62.9009 438.888 71.8893 448.898 82.9751 448.898C94.0614 448.898 103.05 438.888 103.05 426.541C103.05 414.195 94.0614 404.185 82.9751 404.185Z" fill="#D4D9F7"/>
    <path d="M176.071 877.003C163.013 877.003 152.427 887.59 152.427 900.646C152.427 913.704 163.013 924.289 176.071 924.289C189.128 924.289 199.714 913.704 199.714 900.646C199.714 887.59 189.128 877.003 176.071 877.003Z" fill="#D4D9F7"/>
    <path d="M560.049 355.617L558.823 362.969L581.227 362.444L590.679 365.768L609.232 372.245V362.093L584.553 362.793L560.049 355.617Z" fill="#D4D9F7"/>
    <path d="M744.385 210.249L744.822 258.849L805.244 260.163L807.434 204.119L744.385 210.249Z" fill="#D4D9F7"/>
    <path d="M1057 271.546L1034.67 272.859L1034.23 305.697L1034.24 306.102L1058.32 306.573L1057 271.546Z" fill="#D4D9F7"/>
    <path d="M1034.24 306.102L1013.66 305.697L1012.78 335.908L1034.67 335.033L1034.24 306.102Z" fill="#D4D9F7"/>
    <path d="M305.588 649.401V596.005H266.484V694.151H305.588V649.453L305.587 649.401H305.588Z" fill="#D4D9F7"/>
    <path d="M477.379 241.537L469.86 236.957L467.139 230.924L471.611 223.677L477.973 220.26V177.243L436.178 167.04V317.764L477.379 332.406V241.537Z" fill="#D4D9F7"/>
    <path d="M305.588 649.401V649.453L306.031 685.889L350.868 685.396L347.696 649.401H305.588Z" fill="#D4D9F7"/>
    <path d="M305.587 649.402L305.588 649.453V649.402H305.587Z" fill="#D4D9F7"/>
    <path d="M216.177 249.363L182.386 237.681L182.283 224.702H232.277V234.33L231.61 238.859L219.863 250.507L222.976 251.474L225.042 245.524L233.139 241.536V-31H180.481L180.756 238.369L216.177 249.363Z" fill="#D4D9F7"/>
    <path d="M219.766 250.604L219.863 250.507L216.177 249.363L219.766 250.604Z" fill="#D4D9F7"/>
    <path d="M292.181 653.998C292.155 652.8 292.131 651.517 292.113 650.14H274.42V653.998H292.181Z" fill="#75E5ED"/>
    <path d="M292.083 645.707C292.081 644.482 292.087 643.196 292.101 641.848H274.42V645.707H292.083Z" fill="#75E5ED"/>
    <path d="M274.42 583.833H275.733V619.622C279.31 615.172 289.965 601.907 291.199 600.3C292.426 598.704 292.41 597.316 292.399 596.301L292.398 596.002C292.51 571.316 291.661 556.554 286.411 517.809C286.287 516.889 285.097 515.449 284.048 514.177C282.771 512.631 281.565 511.169 281.382 509.869C280.898 506.472 280.725 505.353 280.316 502.724L280.01 500.746C279.753 499.082 280.583 496.61 281.463 493.992C282.273 491.577 283.113 489.078 282.874 487.695C276.332 449.919 265.987 416.546 252.124 388.506C230.403 344.568 170.357 274.044 120.313 217.359L111.015 225.917L107.901 222.535L117.268 213.915L115.382 211.782L106.089 220.334L102.975 216.952L112.332 208.342L110.441 206.213L101.163 214.752L98.0498 211.37L107.388 202.777L105.495 200.65L96.2375 209.17L93.1241 205.787L102.437 197.218L100.541 195.094L91.3118 203.587L88.1984 200.205L97.4781 191.666L95.5818 189.542L86.3861 198.005L83.2727 194.622L92.515 186.117L90.6166 183.996L81.4605 192.422L78.347 189.04L87.5462 180.574L85.6452 178.456L76.5348 186.84L73.4214 183.458L82.5743 175.034C73.2217 164.626 63.9317 154.325 54.8263 144.231C36.7378 124.177 19.5185 105.085 4 87.5709V177.203C32.6177 212.447 70.5823 259.203 115.048 313.967C173.847 386.385 193.446 425.629 202.425 488.931C202.673 490.687 203.994 492.417 205.393 494.247C206.375 495.532 207.389 496.86 208.027 498.235C209.242 500.855 209.313 503.49 209.388 506.279C209.418 507.401 209.449 508.559 209.562 509.712C209.713 511.254 208.613 512.892 207.55 514.476C206.599 515.894 205.614 517.361 205.711 518.492C208.539 551.512 209.628 591.797 211.009 642.798C211.575 663.759 212.218 687.518 213.051 713.261C213.101 714.791 216.193 718.3 217.513 719.799C218.462 720.874 218.561 720.987 218.572 721.293C218.702 725.034 218.879 728.786 219.099 732.446C219.188 733.919 217.811 735.2 216.481 736.44C215.435 737.413 214.25 738.516 214.312 739.34C228.259 922.647 354.441 968.988 462.812 988.88C463.922 989.065 465.209 987.775 466.478 986.52C467.966 985.046 469.544 983.513 471.236 983.819C475.606 984.578 479.935 985.303 484.213 985.999C485.783 986.253 487.111 988.168 488.518 990.193C489.639 991.809 490.908 993.639 491.9 993.795C498.358 994.816 504.686 995.781 510.849 996.722C510.985 996.743 511.294 996.766 511.994 996.766C518.857 996.766 548.494 994.389 560.012 993.443L559.416 993.322L559.546 992.679L559.676 992.035L564.716 993.053L565.203 993.012L565.232 993.157L613.382 1002.89L614.352 1003.08L628.211 1005.88L631.889 1006.63L646.918 1009.66C659.518 1012.08 703.782 1021.14 652.015 1010.69L649.623 1023.23C653.11 1023.92 669.96 1027.29 677.066 1028.7C760.064 1045.2 880.854 1068.78 978.126 1086H1121V1057.26C1120.97 1057.25 1120.93 1057.24 1120.9 1057.24C1043.79 1045.46 890.755 1014.64 889.218 1014.33L888.953 1014.21C888.564 1013.91 849.817 984.896 840.357 982.917C747.56 963.496 683.429 951.358 649.746 946.84C582.866 937.866 532.427 929.25 491.013 919.723C490.06 919.511 488.873 920.741 487.723 921.935C486.492 923.212 485.221 924.534 483.798 924.534C483.621 924.534 483.443 924.513 483.271 924.472C479.299 923.52 475.377 922.549 471.615 921.586C470.144 921.21 468.911 919.18 467.605 917.031C466.573 915.328 465.4 913.399 464.496 913.159C401.995 896.47 362.537 876.635 336.556 848.846C312.487 823.105 299.459 789.318 294.314 739.295C294.229 738.474 292.933 737.472 291.788 736.587C290.334 735.464 288.832 734.301 288.707 732.867C288.402 729.385 288.124 725.734 287.878 722.021C287.78 720.532 289.054 719.1 290.286 717.713C291.352 716.513 292.454 715.271 292.402 714.29C292.093 708.513 291.844 702.32 291.66 695.886C291.602 693.823 285.477 690.276 282.187 688.37C281.141 687.765 280.237 687.242 279.658 686.856C275.899 684.347 275.674 684.197 275.664 681.914C275.659 680.748 275.597 679.577 275.536 678.399C275.473 677.188 275.409 675.936 275.405 674.689C275.394 670.816 275.928 669.805 278.004 669.771C285.167 669.651 289.113 669.586 290.831 668.531C292.386 667.577 292.369 665.592 292.33 661.246C292.322 660.39 292.305 659.452 292.282 658.431H274.42" fill="#75E5ED"/>
    <path d="M292.299 629.124C292.317 627.87 292.332 626.582 292.345 625.265H275.733V629.124H292.299Z" fill="#75E5ED"/>
    <path d="M292.169 637.415L292.235 633.557H274.42V637.415H292.169Z" fill="#75E5ED"/>
    <path d="M275.077 665.159H275.733V658.431H275.077V665.159Z" fill="#75E5ED"/>
    <path d="M275.733 629.124V625.265H275.077V629.124H275.733Z" fill="#75E5ED"/>
    <path d="M275.077 625.265H274.42V629.124H275.077V625.265Z" fill="#75E5ED"/>
    <path d="M275.077 583.833V620.439C275.255 620.218 275.475 619.944 275.733 619.622V583.833H275.077Z" fill="#75E5ED"/>
    <path d="M274.42 665.159H275.077V658.431H274.42V665.159Z" fill="#75E5ED"/>
    <path d="M274.42 583.833V621.258L274.564 621.078C274.582 621.058 274.768 620.824 275.077 620.439V583.833H274.42Z" fill="#75E5ED"/>
    <path d="M71.793 409.598C75.3985 405.174 76.041 398.136 73.3564 392.485C71.2835 388.123 67.7299 385.621 63.6056 385.621C60.0842 385.621 56.3064 387.365 52.3756 390.804C43.7182 398.379 38.6571 412.969 39.1665 428.88C39.6427 443.765 44.8142 456.403 53.0001 462.69C56.8554 465.649 60.6995 467.151 64.4245 467.151C69.7807 467.151 74.634 463.791 76.789 458.588C78.7132 453.943 77.9486 449.096 74.7936 445.943C64.2029 435.352 64.7129 418.288 71.793 409.598Z" fill="#75E5ED"/>
    <path d="M517.072 212.67C520.636 212.67 524.981 211.253 530.358 208.336C536.136 205.202 541.718 203.804 548.455 203.804C552.454 203.804 556.594 204.287 560.978 204.798C566.203 205.406 572.124 206.097 578.97 206.097C583.452 206.097 587.834 205.811 592.371 205.219C603.293 203.793 609.364 199.986 609.025 194.767C608.696 189.714 602.407 185.111 595.831 185.111C594.735 185.111 593.651 185.24 592.61 185.492C577.822 189.077 571.481 190.424 558.385 191.467C554.989 191.737 551.124 192.471 547.385 193.18C542.573 194.094 537.597 195.039 533.44 195.039C527.366 195.039 523.834 192.944 522.644 188.633C521.459 184.348 520.223 180.764 519.133 177.601C516.221 169.156 514.297 163.576 517.24 155.727C520.985 145.741 518.83 126.35 514.766 112.357C512.939 106.069 516.819 99.6711 520.242 94.0269C522.986 89.5018 525.577 85.2277 524.379 82.1842C523.632 80.2836 521.44 78.8426 517.676 77.7787C516.239 77.3715 514.9 77.1653 513.692 77.1653C507.105 77.1653 503.437 83.4334 502.478 96.3282C501.548 108.824 501.716 114.314 502.051 125.254C502.185 129.615 502.352 135.043 502.479 142.107C502.662 152.237 501.847 161.685 501.127 170.02C500.12 181.712 499.324 190.947 501.729 196.411C506.054 206.233 509.458 212.67 517.072 212.67Z" fill="#75E5ED"/>
    <path d="M864.234 180.406C864.66 180.406 865.117 180.385 865.608 180.342C866.697 180.246 867.966 180.138 869.38 180.019C885.014 178.703 921.624 175.619 924.253 168.411C924.616 167.412 924.205 166.341 922.997 165.137C916.248 158.413 913.218 156.319 907.411 156.319C904.094 156.319 899.946 157.001 893.666 158.032C892.215 158.27 890.656 158.526 888.976 158.795C872.892 161.368 859.81 173.416 860.194 178.24C860.308 179.677 861.668 180.406 864.234 180.406Z" fill="#75E5ED"/>
    <path d="M222.38 224.673L222.053 -31.0001H220.739L221.066 224.674L222.38 224.673Z" fill="#272238"/>
    <path d="M217.127 224.682L216.799 -31.0001H215.485L215.813 224.684L217.127 224.682Z" fill="#272238"/>
    <path d="M211.873 224.692L211.544 -30.9999H210.231L210.559 224.693L211.873 224.692Z" fill="#272238"/>
    <path d="M206.62 224.702L206.292 -31H204.978L205.307 224.703L206.62 224.702Z" fill="#272238"/>
    <path d="M199.736 44.8385C199.741 48.2785 198.427 51.7317 197.155 55.072C195.856 58.4832 194.512 62.0113 194.518 65.6143L194.56 89.2957C194.562 92.7318 193.25 96.1811 191.98 99.5148C190.681 102.929 189.337 106.458 189.342 110.062L189.543 224.732L190.857 224.73L190.656 110.06C190.651 106.698 191.892 103.437 193.208 99.9824C193.68 98.7451 194.154 97.492 194.571 96.2231L194.799 224.722L196.112 224.719L195.873 89.2943C195.873 89.2904 195.873 89.2865 195.873 89.2825L195.831 65.6117C195.826 62.2517 197.067 58.9903 198.382 55.5383C198.885 54.2196 199.392 52.8824 199.829 51.5281L200.051 224.714L201.365 224.712L201.037 -31.0001H199.723L199.822 44.8385H199.736Z" fill="#272238"/>
    <path d="M854.401 972.642L978.061 961.313L986.761 997.272C944.668 989.32 899.577 980.917 854.401 972.642ZM848.65 925.49H922.926L931.611 961.346L848.65 968.946V925.49ZM844.449 683.296H808.172V652.294H844.449V683.296ZM844.449 775.853H808.172V687.498H844.449V775.853ZM844.449 826.08H808.172V780.055H844.449V826.08ZM844.449 861.204H808.172V830.282H844.449V861.204ZM844.449 888.376H808.172V865.406H844.449V888.376ZM844.449 920.919L808.172 915.014V892.578H844.449V920.919ZM844.449 970.822C832.327 968.607 820.217 966.405 808.172 964.228V919.272L844.449 925.176V970.822ZM803.97 683.296H746.601V652.294H803.97V683.296ZM803.97 775.853H746.601V687.498H803.97V775.853ZM803.97 826.08H746.601V780.055H803.97V826.08ZM803.97 861.204H746.601V830.282H803.97V861.204ZM803.97 914.33L746.601 904.994V865.406H803.97V914.33ZM803.97 963.467C784.581 959.966 765.378 956.527 746.601 953.202V909.251L803.97 918.588V963.467ZM746.601 598.105H912.678V648.092H746.601V598.105ZM746.601 554.465H803.97V593.903H746.601V554.465ZM746.601 469.293H803.97V550.262H746.601V469.293ZM746.601 418.268H753.247L803.97 434.012V465.09H746.601V418.268ZM803.97 418.268V429.61L767.428 418.268H803.97ZM746.601 364.58H803.97V414.065H753.884L746.601 411.803V364.58ZM746.601 261.827H803.97V360.375H746.601V261.827ZM808.172 554.465H844.449V593.903H808.172V554.465ZM808.172 469.293H844.449V550.262H808.172V469.293ZM808.172 435.318L844.449 446.577V465.09H808.172V435.318ZM808.172 418.268H844.449V442.175L808.172 430.916V418.268ZM808.172 364.58H844.449V414.065H808.172V364.58ZM808.172 261.827H844.449V360.375H808.172V261.827ZM848.65 554.465H912.678V593.903H848.65V554.465ZM848.65 469.293H912.678V550.262H848.65V469.293ZM848.65 447.881L904.09 465.09H848.65V447.881ZM848.65 418.268H912.678V463.353L848.65 443.48V418.268ZM848.65 364.58H912.678V414.065H848.65V364.58ZM848.65 261.827H912.678V360.375H848.65V261.827ZM914.779 780.055H934.204L940.899 807.725H898.722L892.019 780.055H914.779ZM916.88 687.498H995.597L1024.38 807.725H986.648L981.717 787.313C981.444 786.186 980.309 785.491 979.18 785.763C978.053 786.036 977.358 787.173 977.63 788.301L982.323 807.725H945.221L938.528 780.055H967.101C968.26 780.055 969.201 779.114 969.201 777.953C969.201 776.792 968.26 775.853 967.101 775.853H935.796C935.79 775.853 935.785 775.853 935.78 775.853H916.88V687.498ZM1031.31 836.683H993.645L987.664 811.927H1025.38L1031.31 836.683ZM1051.56 921.288H1014.09L994.661 840.885H1032.31L1051.56 921.288ZM1058.37 949.733L1021.77 953.087L1015.1 925.49H1052.56L1058.37 949.733ZM969.394 925.49L977.062 957.182L935.842 960.958L927.25 925.49H969.394ZM919.276 892.578H961.429L968.376 921.288H926.231L919.276 892.578ZM914.951 892.578L921.907 921.288H848.65V892.578H914.951ZM908.371 865.406L913.935 888.376H848.65V865.406H908.371ZM902.43 840.885L907.351 861.204H848.65V840.885H902.43ZM947.905 836.683H905.737L899.74 811.927H941.915L947.905 836.683ZM952.228 836.683L946.239 811.927H983.338L989.32 836.683H952.228ZM958.162 861.204L953.246 840.885H990.335L995.244 861.204H958.162ZM911.676 861.204L906.754 840.885H948.923L953.838 861.204H911.676ZM954.855 865.406L960.414 888.376H918.259L912.695 865.406H954.855ZM1002.83 892.578L1009.76 921.288H972.699L965.753 892.578H1002.83ZM964.736 888.376L959.177 865.406H996.261L1001.81 888.376H964.736ZM895.414 811.927L901.413 836.683H848.65V811.927H895.414ZM887.695 780.055L894.398 807.725H848.65V780.055H887.695ZM848.65 683.296V652.294H912.678V683.296H848.65ZM912.678 687.498V775.853H889.288C889.281 775.853 889.277 775.853 889.271 775.853H848.65V687.498H912.678ZM981.291 956.795L973.717 925.49H1010.78L1017.54 953.474L981.291 956.795ZM742.398 360.375H655.099V261.827H742.398V360.375ZM742.398 410.5L655.099 383.402V364.58H742.398V410.5ZM742.398 465.09H655.099V418.268H742.398V465.09ZM742.398 550.262H655.099V469.293H742.398V550.262ZM742.398 593.903H655.099V554.465H742.398V593.903ZM742.398 648.092H655.099V598.105H742.398V648.092ZM742.398 683.296H655.099V652.294H742.398V683.296ZM742.398 775.853H655.099V687.498H742.398V775.853ZM742.398 826.08H655.099V780.055H742.398V826.08ZM742.398 861.204H704.022C702.862 861.204 701.922 862.144 701.922 863.305C701.922 864.465 702.862 865.406 704.022 865.406H742.398V904.309L655.099 890.101V830.282H742.398V861.204ZM742.398 952.459C711.769 947.043 682.327 941.936 655.099 937.344V894.358L742.398 908.568V952.459ZM655.099 387.804L739.705 414.065H655.099V387.804ZM650.897 360.375H611.459V261.827H650.897V360.375ZM650.897 382.098L611.459 369.856V364.58H650.897V382.098ZM650.897 414.065H611.459V374.258L650.897 386.499V414.065ZM650.897 465.09H611.459V418.268H650.897V465.09ZM650.897 550.262H611.459V469.293H650.897V550.262ZM650.897 593.903H611.459V554.465H650.897V593.903ZM650.897 648.092H611.459V598.105H650.897V648.092ZM650.897 683.296H611.459V652.294H650.897V683.296ZM650.897 775.853H611.459V687.498H650.897V775.853ZM650.897 826.08H611.459V780.055H650.897V826.08ZM650.897 889.418L611.459 882.999V830.282H650.897V889.418ZM650.897 936.636C637.112 934.318 623.921 932.139 611.459 930.122V887.256L650.897 893.675V936.636ZM607.257 360.375H580.914L560.435 354.019V261.827H607.257V360.375ZM607.257 368.553L594.455 364.58H607.257V368.553ZM607.257 414.065H560.435V391.789L607.257 374.791V414.065ZM607.257 465.09H560.435V418.268H607.257V465.09ZM607.257 550.262H560.435V469.293H607.257V550.262ZM607.257 593.903H560.435V554.465H607.257V593.903ZM607.257 648.092H560.435V598.105H607.257V648.092ZM607.257 683.296H560.435V652.294H607.257V683.296ZM607.257 775.853H560.435V687.498H607.257V775.853ZM607.257 826.08H560.435V780.055H607.257V826.08ZM607.257 882.313L560.435 874.695V830.282H607.257V882.313ZM607.257 929.443C604.832 929.053 602.43 928.668 600.064 928.291C586.314 926.1 573.122 923.889 560.435 921.614V878.952L607.257 886.573V929.443ZM560.435 364.58H580.277L603.344 371.74L560.435 387.318V364.58ZM560.435 358.42L566.735 360.375H560.435V358.42ZM556.231 352.715L519.958 341.455V261.827H556.231V352.715ZM556.231 360.375H519.958V345.857L556.231 357.116V360.375ZM556.231 388.844L519.958 402.013V364.58H556.231V388.844ZM556.231 414.065H519.958V406.485L556.231 393.315V414.065ZM556.231 465.09H519.958V418.268H556.231V465.09ZM556.231 550.262H519.958V469.293H556.231V550.262ZM556.231 593.903H519.958V554.465H556.231V593.903ZM556.231 648.092H519.958V598.105H556.231V648.092ZM556.231 683.296H519.958V652.294H556.231V683.296ZM556.231 775.853H519.958V687.498H556.231V775.853ZM556.231 826.08H519.958V780.055H556.231V826.08ZM556.231 874.009L519.958 868.106V830.282H556.231V874.009ZM556.231 920.857C543.613 918.56 531.535 916.187 519.958 913.702V872.363L556.231 878.268V920.857ZM515.753 360.375H477.379C477.296 360.375 477.215 360.38 477.132 360.391L438.281 364.991V320.503L515.753 344.551V360.375ZM515.753 403.538L486.761 414.065H438.281V369.223L477.504 364.58H515.753V403.538ZM515.753 414.065H499.078L515.753 408.011V414.065ZM515.753 465.09H440.561L439.195 435.805L487.5 418.268H515.753V465.09ZM515.753 550.262H444.532L440.757 469.293H515.753V550.262ZM515.753 593.903H444.626L444.625 554.465H515.753V593.903ZM515.753 648.092H444.626V598.105H515.753V648.092ZM515.753 683.296H444.626V652.294H515.753V683.296ZM515.753 775.853H444.628L444.626 687.498H515.753V775.853ZM515.753 826.08H417.456V780.055H515.753V826.08ZM515.753 867.421L477.717 861.231C476.574 861.038 475.49 861.822 475.305 862.968C475.118 864.113 475.896 865.193 477.041 865.379L515.753 871.68V912.795C477.421 904.382 444.826 894.597 417.456 881.734V830.282H515.753V867.421ZM413.253 800.967H330.355C327.068 794.347 324.15 787.384 321.592 780.055H359.009C359.013 780.055 359.018 780.056 359.022 780.056C359.031 780.056 359.04 780.055 359.05 780.055H413.253V800.967ZM413.253 828.181V849.274H367.119C352.958 836.612 341.479 822.036 332.506 805.169H413.253V828.181ZM413.253 879.708C401.547 873.955 390.814 867.608 381.05 860.504C377.929 858.232 374.918 855.889 372.007 853.476H413.253V879.708ZM307.57 687.498H348.943L356.73 775.853H320.162C312.051 750.836 307.972 721.651 307.57 687.498ZM307.553 676.191C307.645 668.037 307.691 660.076 307.69 652.294H345.841L348.573 683.296H307.532C307.526 680.947 307.527 678.587 307.553 676.191ZM341.065 598.105L345.471 648.092H307.678C307.639 630.529 307.367 613.877 306.835 598.105H341.065ZM304.556 554.465H337.219L340.695 593.903H306.678C306.17 580.117 305.465 566.988 304.556 554.465ZM293.489 469.293H370.161V550.262H304.247C301.917 519.981 298.363 493.27 293.489 469.293ZM279.792 418.268H344.485V465.09H292.613C289.027 448.216 284.765 432.708 279.792 418.268ZM274.018 402.724C268.995 390.221 263.384 378.541 257.194 367.359L308.793 353.689L316.396 414.065H278.324C276.939 410.212 275.507 406.431 274.018 402.724ZM228.614 323.703L302.886 306.786L308.264 349.481L255.067 363.575C247.172 349.751 238.36 336.657 228.614 323.703ZM202.769 291.796L279.016 271.069L299.177 277.327L302.36 302.596L225.822 320.028C218.631 310.654 210.948 301.318 202.769 291.796ZM344.485 344.232V414.065H320.632L312.893 352.602L344.485 344.232ZM312.362 348.394L303.586 278.695L344.485 291.39V339.883L312.362 348.394ZM299.465 181.692H344.485V286.989L303.01 274.115L299.465 245.965V181.692ZM299.465 147.269H344.485V177.489H299.465V147.269ZM299.465 112.163H344.485V143.066H299.465V112.163ZM299.465 70.414H344.485V107.959H299.465V70.414ZM299.465 14.4477H344.485V66.2107H299.465V14.4477ZM348.689 418.268H434.173L434.855 432.91L348.689 464.193V418.268ZM348.689 379.695C348.82 379.722 348.945 379.769 349.081 379.769C349.164 379.769 349.248 379.765 349.331 379.755L377.076 376.469V414.065H348.689V379.695ZM348.689 343.118L377.076 335.598V372.237L348.837 375.58C348.786 375.587 348.74 375.604 348.689 375.613V343.118ZM348.689 292.696L377.076 301.507V331.249L348.689 338.77V292.696ZM348.689 147.843L377.076 154.774V297.106L348.689 288.295V147.843ZM348.689 112.163H377.076V150.448L348.689 143.516V112.163ZM348.689 70.414H377.076V107.959H348.689V70.414ZM348.689 14.4477H377.076V66.2107H348.689V14.4477ZM381.28 375.972L434.079 369.721V414.065H381.28V375.972ZM381.28 334.484L434.079 320.495V365.488L381.28 371.74V334.484ZM381.28 302.811L428.771 317.552L381.28 330.135V302.811ZM381.28 155.8L434.078 168.69L434.079 314.799L381.28 298.41V155.8ZM381.28 112.163H434.078V164.363L381.28 151.474V112.163ZM381.28 70.414H434.078V107.959H381.28V70.414ZM381.28 14.4477H405.804V65.613C405.804 65.8219 405.844 66.0203 405.901 66.2107H381.28V14.4477ZM410.007 65.613V14.4477H434.078V66.2107H409.91C409.968 66.0203 410.007 65.8219 410.007 65.613ZM436.355 465.09H358.535L435.06 437.306L436.355 465.09ZM344.914 593.903L341.438 554.465H395.115V593.903H344.914ZM349.69 648.092L345.284 598.105H395.115V648.092H349.69ZM395.115 687.498V775.853H360.949L353.162 687.498H395.115ZM352.792 683.296L350.06 652.294H395.115V683.296H352.792ZM399.318 593.903V554.465H440.425V593.903H399.318ZM399.318 648.092V598.105H440.425V648.092H399.318ZM440.425 687.498V775.853H399.318V687.498H440.425ZM399.318 683.296V652.294H440.425V683.296H399.318ZM438.378 418.268H475.183L438.991 431.409L438.378 418.268ZM440.326 550.262H374.364V469.293H436.552L440.326 550.262ZM178.654 27.173L160.059 8.19413L178.654 -12.7577V27.173ZM178.654 83.1813L133.976 37.5827L157.262 11.3465L178.654 33.1797V83.1813ZM178.654 139.19L146.179 106.046L169.481 79.8266L178.654 89.188V139.19ZM178.654 195.198L120.078 135.415L143.38 109.195L178.654 145.196V195.198ZM178.654 238.369V264.565C172.467 257.728 166.051 250.71 159.397 243.433C150.404 233.598 141.153 223.478 131.443 212.693L159.251 181.402L178.654 201.205V238.369ZM124.892 205.395C114.006 193.22 102.674 180.399 91.4591 167.617L117.279 138.564L156.303 178.393L128.615 209.548C127.38 208.173 126.142 206.794 124.892 205.395ZM55.3492 126.178L79.0155 99.511L114.33 135.555L88.6663 164.431C77.1843 151.33 65.8763 138.333 55.3492 126.178ZM12.291 76.1514L33.1508 52.7012L76.0663 96.5017L52.5744 122.972C36.3135 104.18 22.1101 87.6302 12.291 76.1514ZM59.2646 23.3454L102.149 67.1131L78.8631 93.3505L35.9518 49.554L59.2646 23.3454ZM85.3779 -6.01159L128.23 37.7245L104.946 63.962L62.0646 20.197L85.3779 -6.01159ZM140.432 106.186L117.129 132.405L81.8124 96.3598L105.097 70.1223L140.432 106.186ZM131.179 40.7338L166.533 76.8174L143.231 103.036L107.894 66.9713L131.179 40.7338ZM295.261 89.0593H267.353V14.4477H295.261V89.0593ZM295.261 143.698L235.24 165.589V93.2625H295.261V143.698ZM295.261 178.121L235.24 200.013V169.62C235.658 169.745 236.115 169.746 236.555 169.583L295.261 148.17V178.121ZM235.24 14.4477H263.149V89.0593H235.24V14.4477ZM916.88 418.268H977.341C978.501 418.268 979.441 417.328 979.441 416.167C979.441 415.005 978.501 414.065 977.341 414.065H916.88V364.58H1011.55V439.577H977.341C976.18 439.577 975.239 440.518 975.239 441.679C975.239 442.84 976.18 443.781 977.341 443.781H1011.55V494.045L931.813 469.293H977.341C978.501 469.293 979.441 468.352 979.441 467.191C979.441 466.03 978.501 465.09 977.341 465.09H918.271L916.88 464.658V418.268ZM1015.76 409.816H1032.96V500.687L1015.76 495.348V409.816ZM1015.76 364.58H1032.96V405.612H1015.76V364.58ZM1015.76 337.135H1032.96V360.375H1015.76V337.135ZM1015.76 274.086H1032.96V332.932H1015.76V274.086ZM1015.76 248.198H1032.96V269.883H1015.76V248.198ZM1037.16 364.58H1055.89V507.806L1037.16 501.992V364.58ZM1037.16 337.135H1055.89V360.375H1037.16V337.135ZM1037.16 274.086H1055.89V332.932H1037.16V274.086ZM1037.16 248.198H1055.89V269.883H1037.16V248.198ZM1060.1 443.781H1084.88V516.805L1060.1 509.111V443.781ZM1060.1 383.545H1084.88V439.577H1060.1V383.545ZM1060.1 364.58H1084.88V379.342H1060.1V364.58ZM1060.1 337.135H1084.88V360.375H1060.1V337.135ZM1060.1 261.827H1084.88V332.932H1060.1V261.827ZM1060.1 223.832H1084.88V257.623H1060.1V223.832ZM991.293 998.127L982.29 960.926L1121 948.217V943.996L1062.6 949.347L1056.88 925.49H1121V921.288H1055.88L1036.63 840.885H1121V836.683H1035.63L1029.7 811.927H1121V807.725H1028.7L979.383 601.707C979.114 600.579 977.983 599.879 976.851 600.153C975.723 600.422 975.026 601.556 975.297 602.686L994.591 683.296H916.88V652.294H977.341C978.501 652.294 979.441 651.354 979.441 650.194C979.441 649.033 978.501 648.092 977.341 648.092H916.88V598.105H977.341C978.501 598.105 979.441 597.165 979.441 596.005C979.441 594.844 978.501 593.903 977.341 593.903H916.88V554.465H977.341C978.501 554.465 979.441 553.525 979.441 552.363C979.441 551.202 978.501 550.262 977.341 550.262H916.88V469.293H917.632L1121 532.416V528.015L1089.09 518.11V364.58H1121V360.375H1089.09V261.827H1121V257.623H1089.09V223.832H1121V219.629H1089.09V180.996C1089.09 179.835 1088.15 178.895 1086.99 178.895C1085.82 178.895 1084.88 179.835 1084.88 180.996V219.629H1060.1V183.234C1060.1 182.073 1059.16 181.133 1058 181.133C1056.83 181.133 1055.89 182.073 1055.89 183.234V243.995H1037.16V186.472C1037.16 185.312 1036.22 184.371 1035.06 184.371C1033.9 184.371 1032.96 185.312 1032.96 186.472V243.995H1015.76V186.472C1015.76 185.312 1014.82 184.371 1013.66 184.371C1012.49 184.371 1011.55 185.312 1011.55 186.472V269.883H977.341C976.18 269.883 975.239 270.823 975.239 271.985C975.239 273.146 976.18 274.086 977.341 274.086H1011.55V360.375H916.88V261.827H977.341C978.501 261.827 979.441 260.885 979.441 259.724C979.441 258.564 978.501 257.623 977.341 257.623H916.88V194.619C916.88 193.457 915.939 192.517 914.779 192.517C913.618 192.517 912.678 193.457 912.678 194.619V257.623H848.65V200.347C848.65 199.186 847.71 198.245 846.549 198.245C845.389 198.245 844.449 199.186 844.449 200.347V257.623H808.172V203.745C808.172 202.584 807.233 201.643 806.072 201.643C804.91 201.643 803.97 202.584 803.97 203.745V257.623H746.601V208.914C746.601 207.752 745.66 206.812 744.499 206.812C743.338 206.812 742.398 207.752 742.398 208.914V257.623H704.022H655.099V216.595C655.099 215.434 654.16 214.493 652.999 214.493C651.837 214.493 650.897 215.434 650.897 216.595V257.623H611.459V220.26C611.459 219.099 610.518 218.158 609.357 218.158C608.196 218.158 607.257 219.099 607.257 220.26V257.623H560.435V224.543C560.435 223.382 559.493 222.441 558.332 222.441C557.172 222.441 556.231 223.382 556.231 224.543V257.623H519.958V227.941C519.958 226.78 519.016 225.84 517.856 225.84C516.695 225.84 515.753 226.78 515.753 227.941V257.623H477.973C476.811 257.623 475.871 258.564 475.871 259.724C475.871 260.885 476.811 261.827 477.973 261.827H515.753V340.151L438.281 316.103V169.717L477.473 179.285C477.642 179.327 477.808 179.346 477.974 179.346C478.92 179.346 479.78 178.701 480.014 177.741C480.29 176.614 479.599 175.477 478.47 175.202L438.281 165.39V112.163H477.379C478.539 112.163 479.481 111.222 479.481 110.061C479.481 108.9 478.539 107.959 477.379 107.959H438.281V70.414H477.973C479.134 70.414 480.074 69.4735 480.074 68.3124C480.074 67.1512 479.134 66.2107 477.973 66.2107H438.281V14.4477H477.379C478.539 14.4477 479.481 13.5073 479.481 12.3461C479.481 11.185 478.539 10.2445 477.379 10.2445H438.281V-30.9999H434.078V10.2445H381.28V-30.9999H377.076V10.2445H348.689V-30.9999H344.485V10.2445H299.465V-30.9999H295.261V10.2445H267.353V-30.9999H263.149V10.2445H235.24V-30.9999H231.037V241.537C231.037 242.699 231.978 243.639 233.139 243.639C234.3 243.639 235.24 242.699 235.24 241.537V204.044C235.432 204.101 235.632 204.135 235.835 204.135C236.074 204.135 236.317 204.094 236.555 204.008L295.261 182.595V246.097C295.261 246.185 295.267 246.273 295.277 246.359L298.6 272.748L242.377 255.295C241.272 254.951 240.091 255.571 239.747 256.68C239.403 257.788 240.023 258.965 241.131 259.31L271.534 268.747L199.726 288.268C194.314 282.03 188.695 275.703 182.857 269.22V241.222L222.353 253.481C222.561 253.545 222.77 253.577 222.976 253.577C223.873 253.577 224.703 252.998 224.983 252.097C225.327 250.989 224.707 249.811 223.599 249.467L182.857 236.821V-30.9999H178.654V-28.8352L176.533 -30.9999H170.648L178.654 -22.8299V-19.0903L157.11 5.18484L121.657 -30.9999H115.771L154.313 8.336L131.027 34.5734L88.1778 -9.16004L107.606 -30.9999H101.98L85.2296 -12.1693L66.7788 -30.9999H60.8946L82.4292 -9.02087L59.1163 17.1877L29.5145 -13.0244L45.505 -30.9999H39.88L26.5663 -16.0337L11.9021 -30.9999H6.01748L23.7663 -12.8852L4 9.3355V15.6601L26.7146 -9.87594L56.3164 20.3362L33.0025 46.5448L4 16.9434V22.9488L30.202 49.6919L9.53369 72.928C7.41872 70.4533 5.5675 68.2847 4 66.4471V72.9201C24.6601 97.1111 76.9816 158.116 121.758 208.196C133.915 221.793 145.292 234.236 156.294 246.269C182.264 274.671 204.505 298.998 223.249 323.442C223.29 323.509 223.341 323.562 223.389 323.623C234.061 337.553 243.597 351.526 252.038 366.312C252.049 366.388 252.055 366.464 252.074 366.541C252.191 366.985 252.45 367.35 252.78 367.619C261.227 382.581 268.562 398.396 274.824 415.859C274.81 415.96 274.794 416.06 274.794 416.167C274.794 416.781 275.062 417.329 275.483 417.714C288.024 453.34 296.177 495.851 300.293 551.864C300.254 552.025 300.228 552.19 300.228 552.363C300.228 552.649 300.286 552.918 300.388 553.165C301.353 566.567 302.092 580.735 302.605 595.765C302.595 595.845 302.58 595.922 302.58 596.005C302.58 596.156 302.599 596.303 302.629 596.446C303.192 613.234 303.476 631.101 303.489 650.155C303.489 650.168 303.485 650.181 303.485 650.194C303.485 650.206 303.489 650.219 303.489 650.232C303.496 658.636 303.45 667.266 303.35 676.144C302.826 722.822 308.797 760.587 321.605 791.594C323.342 795.798 325.221 799.868 327.217 803.833C327.273 803.976 327.34 804.112 327.424 804.238C339.503 828.094 356.323 847.714 378.576 863.903C412.834 888.826 458.393 904.64 517.026 917.366C517.26 917.467 517.516 917.521 517.785 917.53C530.492 920.278 543.811 922.882 557.763 925.403C557.888 925.437 558.016 925.459 558.148 925.473C571.339 927.85 585.071 930.159 599.402 932.442C741.191 955.036 990.919 1001.78 1121 1027.35V1023.08C1085.15 1016.03 1040.36 1007.41 991.293 998.127Z" fill="#EDEEF2"/>
    <path d="M721.087 103.248L726.821 150.752L674.833 156.306L660.459 141.873C676.164 124.758 697.33 111.239 721.087 103.248ZM766.572 95.2367L768.277 117.396L727.591 122.043L725.163 101.942C738.393 97.894 752.354 95.5507 766.572 95.2367ZM770.486 146.087L731.003 150.306L728.095 126.217L768.601 121.59L770.486 146.087ZM857.731 125.086L844.483 138.193C844.459 138.195 844.438 138.187 844.415 138.19L774.668 145.64L770.786 95.1973C800.302 95.3838 830.699 104.405 857.731 125.086ZM808.742 173.208L777.044 176.513L774.991 149.833L838.945 143.001L808.742 173.208ZM734.699 180.929L731.505 154.479L770.808 150.28L772.862 176.949L734.699 180.929ZM702.678 184.268L678.637 160.127L727.325 154.925L730.516 181.365L702.678 184.268ZM1034.84 0.977531L1076.77 82.4615C1071.49 88.7282 1066.5 94.8453 1062.06 100.597L1008.08 42.0656L1034.84 0.977531ZM1082.07 -2.90914L1101.86 53.861C1094.41 62.0915 1086.84 70.6359 1079.71 78.9925L1055.99 32.8973L1082.07 -2.90914ZM656.007 143.691C656.23 143.889 656.483 144.017 656.749 144.103L671.913 159.331C672.126 159.843 672.531 160.243 673.032 160.454L699.983 187.519C700.17 187.84 700.432 188.105 700.749 188.289L724.174 211.811C724.585 212.224 725.125 212.431 725.664 212.431C726.2 212.431 726.735 212.226 727.147 211.818C727.969 210.999 727.971 209.669 727.153 208.847L706.49 188.097L752.39 183.311L754.284 207.924C754.37 209.028 755.29 209.866 756.378 209.866C756.431 209.866 756.487 209.865 756.542 209.859C757.699 209.77 758.565 208.76 758.477 207.603L756.572 182.874L804.351 177.892L777.58 204.375C776.755 205.192 776.749 206.523 777.565 207.348C777.976 207.763 778.517 207.972 779.058 207.972C779.593 207.972 780.127 207.77 780.536 207.365L976.248 13.7554L1059.47 103.99C1052.21 113.614 1046.68 122.032 1044.12 128.125C1043.95 128.524 1043.92 128.944 1043.99 129.34C1016.6 124.038 978.01 128.675 976.062 128.915C974.91 129.057 974.09 130.107 974.232 131.259C974.375 132.41 975.427 133.231 976.575 133.087C977.137 133.019 1033.09 126.292 1057.09 137.714C1069.19 143.472 1096.16 151.676 1121 158.668V154.278C1096.59 147.386 1070.45 139.414 1058.9 133.918C1055.64 132.366 1051.86 131.129 1047.75 130.15C1047.84 130.025 1047.93 129.902 1047.99 129.755C1050.55 123.673 1056.32 115.037 1063.91 105.106C1063.91 105.096 1063.92 105.087 1063.93 105.076C1079.26 85.011 1102.05 59.6562 1121 39.3283V33.1154C1115.95 38.5034 1110.57 44.3025 1105.08 50.3211L1085.08 -7.04274L1102.53 -31H1097.33L1083.4 -11.8699L1076.73 -31H1072.28L1080.39 -7.73631L1053.84 28.7151L1023.12 -31H1018.39L1032.63 -3.32423L1005.14 38.8764L979.173 10.7265C979.611 9.93311 979.504 8.91774 978.834 8.23996C978.016 7.41639 976.686 7.40849 975.863 8.22418L860.747 122.103C819.442 90.2309 777.056 88.2068 748.682 92.1749C713.369 97.1164 680.309 114.117 657.511 138.911L488.311 -31H482.38L655.404 142.751C655.514 143.101 655.711 143.43 656.007 143.691Z" fill="#EDEEF2"/>
    <path d="M643.059 1063.68V1039.28C686.265 1047.13 732.971 1055.64 776.729 1063.68H643.059ZM638.857 1063.68H568.943V1025.85C590.148 1029.68 613.873 1033.98 638.857 1038.52V1063.68ZM564.74 1044.11L479.155 1042.34C478.783 1041.75 478.129 1041.35 477.379 1041.35H431.024V1000.85C445.684 1004.24 461.006 1007.05 477.011 1009.25C478.197 1009.47 513.653 1015.84 564.74 1025.09V1044.11ZM426.82 1041.35H388.099V988.583C400.416 992.853 413.325 996.616 426.82 999.869V1041.35ZM383.896 998.771H340.369V967.934C353.907 975.13 368.426 981.513 383.896 987.083V998.771ZM383.896 1041.35H340.369V1002.97H383.896V1041.35ZM336.166 998.771H281.447C281.001 986.865 276.766 964.219 254.771 938.91L273.293 917.613C290.965 936.261 311.965 952.278 336.166 965.647V998.771ZM336.166 1041.35H281.283C281.19 1023.68 281.094 1009.15 281.082 1007.35C281.173 1006.79 281.378 1005.27 281.459 1002.97H336.166V1041.35ZM276.91 1006.81C276.887 1006.94 276.876 1007.07 276.877 1007.2C276.879 1007.49 276.981 1022.66 277.078 1041.35H175.707V947.947C189.514 947.825 198.482 939.718 206.193 932.735C217.398 922.59 225.493 915.259 243.853 933.397C282.576 971.657 276.971 1006.47 276.91 1006.81ZM174.124 943.782C173.957 943.74 173.785 943.711 173.605 943.711C173.516 943.711 173.429 943.725 173.342 943.737C167.472 943.355 160.642 941.372 152.434 937.05C139.134 930.049 132.819 918.616 133.665 903.069C134.868 880.973 150.118 854.802 168.327 833.803C176.373 850.13 187.643 862.554 203.448 865.374C217.934 867.958 227.125 873.62 230.77 882.206C236.614 895.974 226.773 913.679 224.115 918.049C216.083 918.112 209.828 923.773 203.372 929.619C195.344 936.888 187.126 944.322 174.124 943.782ZM171.503 976.831C158.012 975.824 146.205 973.705 136.123 970.481L148.844 939.845C149.385 940.155 149.914 940.476 150.477 940.77C158.525 945.007 165.445 947.112 171.503 947.741V976.831ZM171.503 1007.84C153.118 1007.73 136.812 1006.1 122.629 1002.98L134.507 974.373C145.072 977.786 157.415 980.011 171.503 981.045V1007.84ZM171.503 1041.35H131.49C131.11 1041.35 130.749 1041.35 130.374 1041.35C125.651 1041.35 121.206 1041.2 116.838 1040.91C116.084 1037.18 113.707 1034.03 110.48 1032.23L120.994 1006.92C135.66 1010.22 152.511 1011.92 171.503 1012.04V1041.35ZM104.249 1052.1C99.4844 1052.1 95.608 1048.22 95.608 1043.45C95.608 1042.51 95.7582 1041.59 96.0543 1040.7C97.2385 1037.18 100.531 1034.81 104.249 1034.81C109.014 1034.81 112.89 1038.69 112.89 1043.45C112.89 1048.22 109.014 1052.1 104.249 1052.1ZM92.8219 1037.59C58.793 1030.17 35.3402 1011.74 23.1471 982.753C20.4235 976.275 18.341 969.441 16.8217 962.357L51.2178 949.081C52.0824 952.261 53.1228 955.378 54.3784 958.411C64.1564 982.015 85.0977 997.894 116.855 1005.92L106.516 1030.82C105.778 1030.69 105.024 1030.61 104.249 1030.61C99.375 1030.61 94.9943 1033.35 92.8219 1037.59ZM27.8726 848.725L61.9271 858.137C51.0295 886.837 44.3311 918.076 50.2008 944.969L15.9997 958.17C9.66709 923.215 16.4066 882.756 27.8726 848.725ZM51.9285 796.799C53.7741 793.933 54.6206 791.146 54.7776 788.377L98.16 787.594C87.8114 803.564 73.9749 827.629 63.4551 854.199L29.2483 844.745C35.9133 825.858 43.9704 809.16 51.9285 796.799ZM47.1792 767.777C41.3628 757.679 34.1236 745.11 34.1236 726.928C34.1236 696.774 42.644 689.41 67.9369 667.547L68.2694 667.261H86.3743L86.7063 667.547C112 689.41 120.52 696.774 120.52 726.928C120.52 726.947 120.524 726.964 120.525 726.981C120.526 726.998 120.522 727.014 120.523 727.032C120.538 727.343 121.929 758.365 112.193 768.101C110.679 769.615 106.498 775.058 100.96 783.341L54.5216 784.178C53.5723 778.881 50.5041 773.55 47.1792 767.777ZM148.299 667.261V726.928C148.299 726.93 148.299 726.93 148.299 726.93C148.3 729.23 148.439 754.223 153.172 782.398L106.144 783.247C110.61 776.637 113.909 772.33 115.164 771.074C126.135 760.103 124.804 728.59 124.723 726.871C124.71 696.317 115.302 686.777 92.7962 667.261H148.299ZM111.621 630.049H166.973C169.318 641.086 172.062 652.101 175.024 663.057H111.621V630.049ZM111.621 618.315C111.621 591.391 128.114 573.025 131.406 569.628H159.719C159.608 573.51 159.65 577.416 159.905 581.374C160.86 596.176 163.089 611.028 166.092 625.846H111.621V618.315ZM104.433 865.523C106.107 861.662 107.848 857.957 109.589 854.476C123.143 827.357 141.505 803.066 154.366 789.029C157.019 802.869 160.834 817.096 166.315 829.498C154.357 843.008 143.59 858.766 136.807 874.47L104.433 865.523ZM130.16 914.106L93.5017 928.256C89.7367 909.395 95.2503 887.871 102.79 869.43L135.195 878.385C131.951 886.723 129.895 894.991 129.468 902.841C129.251 906.821 129.498 910.575 130.16 914.106ZM96.0333 937.071C95.4381 935.534 94.9251 933.969 94.4802 932.382L131.158 918.225C133.533 926.099 138.285 932.648 145.313 937.616C145.198 937.763 145.093 937.922 145.016 938.105L132.141 969.113C113.799 962.399 101.7 951.694 96.0333 937.071ZM90.5365 933.904C90.9942 935.492 91.5186 937.054 92.1137 938.589C98.2247 954.361 111.094 965.862 130.525 973.002L118.484 1002C87.7463 994.357 67.5598 979.249 58.262 956.801C57.0213 953.807 56.0009 950.718 55.1671 947.556L90.5365 933.904ZM67.7722 855.391C78.6984 827.928 93.1467 803.077 103.319 787.501L150.842 786.643C135.028 803.978 113.61 833.482 100.323 864.388L67.7722 855.391ZM98.6952 868.297C90.0912 889.507 85.5703 911.153 89.5222 929.792L54.1953 943.427C48.8539 917.647 55.5509 887.319 66.2364 859.327L98.6952 868.297ZM186.076 701.66C193.442 726.659 201.059 752.509 206.354 778.375C207.41 783.536 208.585 788.916 209.913 794.46C197.91 799.713 183.116 811.299 169.483 826.003C152.834 786.348 152.503 727.786 152.502 726.927V667.261H176.172C179.35 678.81 182.726 690.293 186.076 701.66ZM210.929 798.6C216.376 820.342 224.38 844.479 237.627 868.611L230.604 874.06C225.21 867.715 216.37 863.409 204.188 861.235C189.463 858.608 178.939 846.394 171.409 830.328C184.749 815.63 199.296 803.898 210.929 798.6ZM264.475 907.769C266.407 910.053 268.403 912.292 270.425 914.504L251.944 935.755C250.312 933.982 248.621 932.202 246.807 930.409C239.744 923.43 233.839 919.878 228.677 918.61C232.47 911.995 240.73 894.933 234.644 880.577C234.188 879.501 233.648 878.473 233.053 877.48L239.705 872.317C246.535 884.265 254.674 896.181 264.475 907.769ZM800.158 1063.72C749.392 1054.37 692.826 1044.05 641.413 1034.71C641.387 1034.71 641.36 1034.7 641.333 1034.7C614.766 1029.87 589.581 1025.31 567.285 1021.27C567.267 1021.27 567.25 1021.27 567.231 1021.27C515.174 1011.85 478.895 1005.32 477.669 1005.1C443.211 1000.36 413.268 993.112 387.193 983.938C386.891 983.729 386.532 983.606 386.144 983.577C369.084 977.518 353.701 970.627 339.809 963.072C339.507 962.745 339.108 962.513 338.651 962.428C258.603 918.414 228.641 852.171 214.516 795.411C214.495 795.236 214.459 795.063 214.391 794.891C214.388 794.883 214.383 794.875 214.38 794.867C212.922 788.975 211.627 783.182 210.471 777.532C205.14 751.492 197.498 725.556 190.108 700.473C182.826 675.758 175.803 651.872 170.805 628.052C170.806 628.017 170.815 627.983 170.815 627.947C170.815 627.606 170.726 627.288 170.581 627.003C167.42 611.746 165.095 596.512 164.1 581.102C162.972 563.622 165.981 546.864 169.168 529.12C177.714 481.528 187.4 427.589 118.293 340.576C84.597 298.15 58.2702 265.531 37.1159 239.321C24.789 224.048 13.8801 210.531 4 198.152V204.885C13.0099 216.145 22.8643 228.356 33.8456 241.962C54.9946 268.165 81.3157 300.777 115.002 343.19C182.927 428.716 173.42 481.662 165.032 528.376C162.766 540.989 160.596 553.111 159.895 565.425H144.021V506.229C144.021 505.068 143.08 504.127 141.919 504.127C140.758 504.127 139.817 505.068 139.817 506.229V565.425H62.9009C61.7403 565.425 60.7993 566.366 60.7993 567.527C60.7993 568.688 61.7403 569.628 62.9009 569.628H125.716C119.605 576.784 107.418 594.093 107.418 618.315V625.867C104.42 625.89 101.496 625.948 98.6751 626.015C76.9124 626.548 59.7197 626.952 37.5259 604.758C36.7049 603.94 35.375 603.94 34.5541 604.758C33.7331 605.579 33.7331 606.91 34.5541 607.731C54.5739 627.751 70.6014 630.377 89.0183 630.377C92.1877 630.377 95.4325 630.298 98.7758 630.218C101.57 630.15 104.463 630.093 107.418 630.068V663.057H4V667.261H61.8469C39.3269 686.791 29.9204 696.329 29.9204 726.928C29.9204 746.236 37.4701 759.342 43.5368 769.875C46.759 775.469 49.3706 780.022 50.2824 784.255L4 785.091V789.294L50.5733 788.453C50.3912 790.467 49.7211 792.464 48.3947 794.523C40.2556 807.164 32.0204 824.273 25.2276 843.634L4 837.768V842.129L23.8592 847.615C12.1838 882.451 5.38175 923.899 12.0299 959.701L4 962.802V967.305L12.8662 963.884C14.4199 970.999 16.5318 977.865 19.2726 984.382C31.9819 1014.6 56.3102 1033.83 91.5437 1041.61C91.5048 1041.88 91.4672 1042.15 91.4457 1042.43C65.8916 1045.11 55.4483 1054.48 24.732 1086H30.6059C58.9372 1057.02 68.5208 1049.06 91.8131 1046.61C93.0568 1051.5 97.1061 1055.28 102.147 1056.11V1086H106.351V1056.11C111.754 1055.22 116.019 1050.95 116.908 1045.54C119.61 1045.53 122.42 1045.54 125.406 1045.55C127.016 1045.55 128.689 1045.55 130.405 1045.56C130.449 1045.56 130.491 1045.56 130.536 1045.56C130.539 1045.56 130.542 1045.56 130.545 1045.56C130.862 1045.56 131.168 1045.56 131.49 1045.56H171.503V1086H175.707V1045.56H277.101C277.168 1059.03 277.231 1073.82 277.251 1086H281.454C281.434 1073.82 281.371 1059.03 281.304 1045.56H336.166V1086H340.369V1045.56H383.896V1086H388.099V1045.56H426.82V1086H431.024V1045.56H471.886C472.26 1046.07 472.854 1046.41 473.538 1046.43L564.74 1048.31V1086H568.943V1067.89H638.857V1086H643.059V1067.89H799.571C836.462 1074.68 870.259 1080.97 896.782 1086H919.153C890.814 1080.52 848.125 1072.56 800.248 1063.74C800.219 1063.73 800.188 1063.73 800.158 1063.72Z" fill="#EDEEF2"/>
    <path d="M633.018 467.191V416.167C633.018 415.151 632.194 414.328 631.177 414.328C630.162 414.328 629.338 415.151 629.338 416.167V467.191C629.338 468.207 630.162 469.03 631.177 469.03C632.194 469.03 633.018 468.207 633.018 467.191Z" fill="#EDEEF2"/>
    <path d="M595.958 465.352C594.942 465.352 594.119 466.175 594.119 467.191V503.54C594.119 504.556 594.942 505.379 595.958 505.379C596.973 505.379 597.797 504.556 597.797 503.54V467.191C597.797 466.175 596.973 465.352 595.958 465.352Z" fill="#EDEEF2"/>
    <path d="M572.315 465.352C571.299 465.352 570.476 466.175 570.476 467.191V504.504C570.476 505.52 571.299 506.342 572.315 506.342C573.33 506.342 574.153 505.52 574.153 504.504V467.191C574.153 466.175 573.33 465.352 572.315 465.352Z" fill="#EDEEF2"/>
    <path d="M516.017 486.286C516.017 487.301 516.84 488.125 517.856 488.125H558.332C559.349 488.125 560.171 487.301 560.171 486.286C560.171 485.269 559.349 484.447 558.332 484.447H517.856C516.84 484.447 516.017 485.269 516.017 486.286Z" fill="#EDEEF2"/>
    <path d="M538.094 414.328C537.078 414.328 536.255 415.151 536.255 416.167V467.191C536.255 468.207 537.078 469.03 538.094 469.03C539.11 469.03 539.932 468.207 539.932 467.191V443.518H558.332C559.349 443.518 560.171 442.694 560.171 441.679C560.171 440.662 559.349 439.84 558.332 439.84H539.932V416.167C539.932 415.151 539.11 414.328 538.094 414.328Z" fill="#EDEEF2"/>
    <path d="M680.111 466.385V416.166C680.111 415.151 679.287 414.327 678.272 414.327C677.256 414.327 676.433 415.151 676.433 416.166V466.385C676.433 467.4 677.256 468.222 678.272 468.222C679.287 468.222 680.111 467.4 680.111 466.385Z" fill="#EDEEF2"/>
    <path d="M654.715 530.747C654.715 529.732 653.892 528.908 652.876 528.908H609.357C608.342 528.908 607.518 529.732 607.518 530.747C607.518 531.762 608.342 532.586 609.357 532.586H652.876C653.892 532.586 654.715 531.762 654.715 530.747Z" fill="#EDEEF2"/>
    <path d="M584.547 504.504V552.364C584.547 553.379 585.371 554.203 586.388 554.203C587.403 554.203 588.227 553.379 588.227 552.364V504.504C588.227 503.488 587.403 502.666 586.388 502.666C585.371 502.666 584.547 503.488 584.547 504.504Z" fill="#EDEEF2"/>
    <path d="M558.332 613.411H517.856C516.84 613.411 516.017 614.234 516.017 615.249C516.017 616.265 516.84 617.088 517.856 617.088H558.332C559.349 617.088 560.171 616.265 560.171 615.249C560.171 614.234 559.349 613.411 558.332 613.411Z" fill="#EDEEF2"/>
    <path d="M611.072 629.698C611.072 628.683 610.249 627.859 609.232 627.859H517.856C517.78 627.859 517.708 627.871 517.634 627.88C517.659 627.761 517.672 627.636 517.672 627.508C517.672 626.493 516.849 625.67 515.833 625.67H494.357V532.586H541.72L544.221 551.782C544.342 552.709 545.133 553.383 546.042 553.383C546.122 553.383 546.202 553.378 546.282 553.368C547.289 553.236 547.999 552.314 547.867 551.306L541.737 504.265C541.607 503.259 540.686 502.543 539.676 502.68C538.669 502.811 537.96 503.735 538.091 504.742L541.239 528.908H442.057C441.042 528.908 440.218 529.732 440.218 530.747C440.218 531.762 441.042 532.586 442.057 532.586H490.68V648.057C490.68 649.072 491.503 649.896 492.518 649.896C493.534 649.896 494.357 649.072 494.357 648.057V629.347H515.833C515.91 629.347 515.982 629.336 516.054 629.326C516.029 629.446 516.017 629.569 516.017 629.698C516.017 630.713 516.84 631.537 517.856 631.537H529.319V685.396C529.319 686.413 530.141 687.237 531.157 687.237C532.173 687.237 532.996 686.413 532.996 685.396V631.537H609.232C610.249 631.537 611.072 630.713 611.072 629.698Z" fill="#EDEEF2"/>
    <path d="M631.072 552.363C631.072 551.348 630.249 550.525 629.233 550.525C628.218 550.525 627.394 551.348 627.394 552.363V650.194C627.394 651.209 628.218 652.033 629.233 652.033C630.249 652.033 631.072 651.209 631.072 650.194V629.347H682.213C683.228 629.347 684.051 628.524 684.051 627.508V596.005C684.051 594.988 683.228 594.165 682.213 594.165C681.197 594.165 680.374 594.988 680.374 596.005V625.669H631.072V552.363Z" fill="#EDEEF2"/>
    <path d="M673.893 597.385C674.908 597.385 675.732 596.562 675.732 595.547V552.364C675.732 551.348 674.908 550.525 673.893 550.525C672.877 550.525 672.054 551.348 672.054 552.364V595.547C672.054 596.562 672.877 597.385 673.893 597.385Z" fill="#EDEEF2"/>
    <path d="M684.401 648.354C683.385 648.354 682.562 649.178 682.562 650.194V685.396C682.562 686.413 683.385 687.237 684.401 687.237C685.416 687.237 686.24 686.413 686.24 685.396V650.194C686.24 649.178 685.416 648.354 684.401 648.354Z" fill="#EDEEF2"/>
    <path d="M584.547 650.491V685.396C584.547 686.413 585.371 687.237 586.388 687.237C587.403 687.237 588.227 686.413 588.227 685.396V650.491C588.227 649.476 587.403 648.652 586.388 648.652C585.371 648.652 584.547 649.476 584.547 650.491Z" fill="#EDEEF2"/>
    <path d="M652.876 703.606H517.856C516.84 703.606 516.017 704.429 516.017 705.445C516.017 706.46 516.84 707.283 517.856 707.283H652.876C653.892 707.283 654.715 706.46 654.715 705.445C654.715 704.429 653.892 703.606 652.876 703.606Z" fill="#EDEEF2"/>
    <path d="M673.893 683.557C672.877 683.557 672.054 684.381 672.054 685.396V725.147C672.054 726.163 672.877 726.986 673.893 726.986C674.908 726.986 675.732 726.163 675.732 725.147V685.396C675.732 684.381 674.908 683.557 673.893 683.557Z" fill="#EDEEF2"/>
    <path d="M439.351 454.212H517.856C518.871 454.212 519.694 453.389 519.694 452.373C519.694 451.358 518.871 450.535 517.856 450.535H439.351C438.336 450.535 437.514 451.358 437.514 452.373C437.514 453.389 438.336 454.212 439.351 454.212Z" fill="#EDEEF2"/>
    <path d="M443.896 569.276C443.896 568.261 443.072 567.437 442.057 567.437H397.216C396.2 567.437 395.377 568.261 395.377 569.276C395.377 570.292 396.2 571.115 397.216 571.115H442.057C443.072 571.115 443.896 570.292 443.896 569.276Z" fill="#EDEEF2"/>
    <path d="M396.71 581.199C396.737 581.2 396.763 581.202 396.791 581.202C397.77 581.202 398.584 580.429 398.627 579.442C398.671 578.428 397.884 577.568 396.868 577.525L375.235 576.589L374.1 552.278C374.053 551.263 373.202 550.482 372.177 550.527C371.163 550.574 370.379 551.435 370.426 552.449L371.545 576.43L341.357 575.124C340.553 575.096 339.838 575.598 339.564 576.322H303.914C302.897 576.322 302.075 577.146 302.075 578.162C302.075 579.178 302.897 580.001 303.914 580.001H340.26C341.039 580.001 341.701 579.515 341.969 578.831L371.717 580.118L372.441 595.632C372.488 596.617 373.301 597.385 374.277 597.385C374.306 597.385 374.335 597.384 374.364 597.383C375.378 597.336 376.162 596.475 376.115 595.461L375.407 580.278L396.71 581.199Z" fill="#EDEEF2"/>
    <path d="M442.526 581.202H477.379C478.394 581.202 479.218 580.378 479.218 579.363C479.218 578.346 478.394 577.522 477.379 577.522H442.526C441.51 577.522 440.687 578.346 440.687 579.363C440.687 580.378 441.51 581.202 442.526 581.202Z" fill="#EDEEF2"/>
    <path d="M337.304 552.364C337.304 553.379 338.127 554.203 339.143 554.203C340.159 554.203 340.982 553.379 340.982 552.364V525.262H404.185L395.469 551.791C395.153 552.755 395.677 553.794 396.642 554.111C396.833 554.174 397.026 554.203 397.216 554.203C397.99 554.203 398.709 553.711 398.963 552.938L414.689 505.078C414.749 504.892 414.779 504.699 414.779 504.504V467.191C414.779 466.175 413.957 465.353 412.94 465.353C411.926 465.353 411.103 466.175 411.103 467.191V484.447H372.262C371.247 484.447 370.423 485.271 370.423 486.286C370.423 487.303 371.247 488.125 372.262 488.125H411.103V504.209L405.393 521.584H299.817C298.801 521.584 297.979 522.408 297.979 523.423C297.979 524.44 298.801 525.262 299.817 525.262H337.304V552.364Z" fill="#EDEEF2"/>
    <path d="M379.178 648.652C378.163 648.652 377.339 649.476 377.339 650.491V685.396C377.339 686.413 378.163 687.237 379.178 687.237C380.195 687.237 381.017 686.413 381.017 685.396V650.491C381.017 649.476 380.195 648.652 379.178 648.652Z" fill="#EDEEF2"/>
    <path d="M519.694 667.944C519.694 666.928 518.871 666.105 517.856 666.105H397.216C396.2 666.105 395.377 666.928 395.377 667.944C395.377 668.96 396.2 669.784 397.216 669.784H517.856C518.871 669.784 519.694 668.96 519.694 667.944Z" fill="#EDEEF2"/>
    <path d="M423.011 684.05C421.996 684.05 421.172 684.873 421.172 685.889V726.928C421.172 727.945 421.996 728.769 423.011 728.769C424.027 728.769 424.85 727.945 424.85 726.928V685.889C424.85 684.873 424.027 684.05 423.011 684.05Z" fill="#EDEEF2"/>
    <path d="M368.142 685.568C367.966 684.569 367.016 683.902 366.01 684.078C365.01 684.255 364.343 685.21 364.52 686.209L371.46 725.468C371.617 726.36 372.394 726.986 373.269 726.986C373.375 726.986 373.483 726.978 373.59 726.959C374.591 726.781 375.259 725.828 375.081 724.827L368.142 685.568Z" fill="#EDEEF2"/>
    <path d="M350.868 703.432H306.04C305.023 703.432 304.201 704.256 304.201 705.271C304.201 706.288 305.023 707.111 306.04 707.111H350.868C351.884 707.111 352.707 706.288 352.707 705.271C352.707 704.256 351.884 703.432 350.868 703.432Z" fill="#EDEEF2"/>
    <path d="M609.671 864.648L558.648 855.782C557.649 855.603 556.694 856.278 556.521 857.279C556.348 858.279 557.017 859.231 558.018 859.404L609.043 868.271C609.15 868.29 609.255 868.298 609.36 868.298C610.237 868.298 611.014 867.668 611.169 866.773C611.343 865.774 610.672 864.821 609.671 864.648Z" fill="#EDEEF2"/>
    <path d="M1094.05 589.294C1088.24 584.642 1087.3 576.909 1087.3 560.207C1087.3 542.486 1073.38 538.564 1073.24 538.527L977.816 512.967C976.837 512.705 975.827 513.286 975.564 514.268C975.301 515.249 975.883 516.258 976.864 516.52L1072.28 542.077C1072.74 542.206 1083.62 545.386 1083.62 560.207C1083.62 575.581 1084.19 586.112 1091.75 592.166C1097.04 596.39 1111.27 605.59 1121 611.807V607.441C1111.48 601.339 1098.85 593.135 1094.05 589.294Z" fill="#EDEEF2"/>
    <path d="M1039.58 703.432V687.236H1066.63C1067.65 687.236 1068.47 686.413 1068.47 685.396C1068.47 684.381 1067.65 683.557 1066.63 683.557H1054.73V673.132H1077.14C1078.16 673.132 1078.98 672.308 1078.98 671.293C1078.98 670.278 1078.16 669.454 1077.14 669.454H1052.89C1051.88 669.454 1051.05 670.278 1051.05 671.293V683.557H997.082C996.065 683.557 995.242 684.381 995.242 685.396C995.242 686.413 996.065 687.236 997.082 687.236H1035.9V705.271C1035.9 706.288 1036.72 707.111 1037.74 707.111H1054.29V720.331C1054.29 721.346 1055.11 722.169 1056.13 722.169C1057.14 722.169 1057.96 721.346 1057.96 720.331V707.111H1072.68V730.085C1072.68 731.1 1073.5 731.924 1074.51 731.924C1075.53 731.924 1076.35 731.1 1076.35 730.085V707.111H1091.15C1092.17 707.111 1092.99 706.288 1092.99 705.271C1092.99 704.256 1092.17 703.432 1091.15 703.432H1039.58Z" fill="#EDEEF2"/>
    <path d="M323.184 111.9C324.199 111.9 325.023 111.078 325.023 110.061V68.3122C325.023 67.2969 324.199 66.4733 323.184 66.4733C322.169 66.4733 321.345 67.2969 321.345 68.3122V110.061C321.345 111.078 322.169 111.9 323.184 111.9Z" fill="#EDEEF2"/>
    <path d="M264.863 251.562C265.878 251.562 266.702 250.738 266.702 249.723V191.445C266.702 190.43 265.878 189.606 264.863 189.606C263.846 189.606 263.024 190.43 263.024 191.445V249.723C263.024 250.738 263.846 251.562 264.863 251.562Z" fill="#EDEEF2"/>
    <path d="M125.88 90.1677C126.242 90.1677 126.609 90.0626 126.93 89.8393L159.549 67.1221C160.383 66.5416 160.588 65.3962 160.007 64.5621C159.427 63.728 158.281 63.5218 157.447 64.1037L124.827 86.8209C123.994 87.4002 123.789 88.5469 124.369 89.381C124.726 89.8932 125.299 90.1677 125.88 90.1677Z" fill="#EDEEF2"/>
    <path d="M553.128 137.056C564.653 137.056 574.029 146.434 574.029 157.958C574.029 169.483 564.653 178.86 553.128 178.86C541.602 178.86 532.226 169.483 532.226 157.958C532.226 146.434 541.602 137.056 553.128 137.056ZM553.128 182.537C564.353 182.537 573.825 174.963 576.754 164.663C579.489 165.38 585.008 166.895 590.391 168.776C596.285 170.835 601.828 171.737 607.062 171.737C628.662 171.736 644.965 156.369 658.584 143.529L657.399 142.117L656.06 140.852C639.023 156.915 619.713 175.125 591.605 165.304C585.982 163.34 580.218 161.766 577.49 161.053C577.619 160.038 577.707 159.009 577.707 157.958C577.707 144.406 566.681 133.38 553.128 133.38C539.575 133.38 528.548 144.406 528.548 157.958C528.548 171.511 539.575 182.537 553.128 182.537Z" fill="#EDEEF2"/>
    <path d="M862.801 185.417C862.798 185.417 862.796 185.417 862.795 185.417C852.439 185.417 846.182 183.377 845.63 179.823C844.529 172.733 862.934 158.552 889.212 150.184C897.016 147.698 905.192 146.385 912.857 146.385C929.58 146.385 940.163 152.449 940.732 158.31C941.393 165.112 929.978 174.757 895.961 181.429C882.468 184.076 871.313 185.417 862.801 185.417ZM944.393 157.954C943.534 149.12 930.272 142.708 912.857 142.708C904.819 142.708 896.256 144.081 888.095 146.68C887.34 146.921 886.591 147.168 885.847 147.417C885.782 147.323 885.742 147.216 885.658 147.132L861.712 123.187C860.994 122.468 859.83 122.468 859.111 123.187C858.393 123.905 858.393 125.069 859.111 125.788L882.066 148.743C857.761 157.609 840.534 170.982 841.995 180.388C842.893 186.165 849.891 189.095 862.793 189.096C862.796 189.096 862.798 189.096 862.801 189.096C871.549 189.096 882.944 187.73 896.67 185.039C928.072 178.879 945.466 169.008 944.393 157.954Z" fill="#EDEEF2"/>
    <path d="M165.518 424.626C155.209 421.53 144.94 423.484 135.011 425.374C124.076 427.456 113.748 429.421 103.816 424.87C102.889 424.443 101.801 424.853 101.378 425.775C100.955 426.698 101.361 427.79 102.283 428.213C107.272 430.5 112.34 431.302 117.418 431.302C123.54 431.302 129.676 430.135 135.698 428.988C145.195 427.18 155.011 425.311 164.46 428.147C165.435 428.44 166.458 427.887 166.75 426.915C167.041 425.942 166.491 424.917 165.518 424.626Z" fill="#EDEEF2"/>
    <path d="M195.547 904.42H196.435C198.076 904.42 202.434 904.42 204.368 901.045C206.134 897.964 205.131 893.286 201.301 886.745C197.741 880.67 197.826 876.433 198.978 874.648C199.25 874.227 199.714 873.748 200.413 873.817C201.303 873.913 202.698 874.975 203.703 877.65C209.661 893.528 215.82 901.514 221.065 900.121C224.153 899.302 225.673 895.291 224.844 890.138C224.271 886.577 224.567 881.814 226.567 879.777C227.4 878.927 228.518 878.617 229.98 878.823C230.982 878.968 231.917 878.266 232.059 877.261C232.201 876.255 231.502 875.325 230.496 875.184C227.868 874.808 225.603 875.508 223.943 877.201C220.833 880.369 220.529 886.464 221.214 890.722C221.772 894.198 220.939 896.349 220.122 896.566C218.854 896.892 213.734 893.913 207.146 876.356C205.776 872.706 203.465 870.447 200.808 870.161C198.867 869.954 197.036 870.883 195.892 872.651C193.555 876.262 194.39 882.227 198.127 888.605C202.292 895.718 201.647 898.395 201.177 899.216C200.394 900.583 198.096 900.742 196.435 900.742H195.547C194.532 900.742 193.708 901.565 193.708 902.581C193.708 903.596 194.532 904.42 195.547 904.42Z" fill="#EDEEF2"/>
    <path d="M150.377 857.405C150.88 856.524 150.574 855.401 149.691 854.896L117.114 836.293C116.231 835.789 115.109 836.097 114.605 836.979C114.102 837.861 114.409 838.983 115.29 839.487L147.868 858.091C148.156 858.255 148.468 858.333 148.778 858.333C149.417 858.333 150.038 858 150.377 857.405Z" fill="#EDEEF2"/>
    <path d="M95.3452 890.557C95.3452 889.54 94.5221 888.717 93.5062 888.717H54.2593C53.2433 888.717 52.4204 889.54 52.4204 890.557C52.4204 891.572 53.2433 892.396 54.2593 892.396H93.5062C94.5221 892.396 95.3452 891.572 95.3452 890.557Z" fill="#EDEEF2"/>
    <path d="M34.8202 825.332L73.3283 837.514C73.513 837.572 73.6997 837.6 73.8834 837.6C74.6643 837.6 75.3883 837.098 75.6366 836.315C75.9424 835.347 75.4063 834.313 74.4375 834.007L35.9295 821.826C34.9629 821.524 33.928 822.056 33.6211 823.025C33.3153 823.992 33.8515 825.026 34.8202 825.332Z" fill="#EDEEF2"/>
    <path d="M18.5082 881.678C18.4564 880.664 17.6062 879.885 16.5779 879.936L4 880.582V884.265L16.7662 883.61C17.7811 883.557 18.561 882.692 18.5082 881.678Z" fill="#EDEEF2"/>
    <path d="M869.169 725.089C868.154 725.089 867.33 725.913 867.33 726.928V778.125C867.33 779.141 868.154 779.964 869.169 779.964C870.184 779.964 871.008 779.141 871.008 778.125V726.928C871.008 725.913 870.184 725.089 869.169 725.089Z" fill="#EDEEF2"/>
    <path d="M767.591 725.09C766.576 725.09 765.752 725.913 765.752 726.928V761.05C765.752 762.065 766.576 762.888 767.591 762.888C768.606 762.888 769.43 762.065 769.43 761.05V726.928C769.43 725.913 768.606 725.09 767.591 725.09Z" fill="#EDEEF2"/>
    <path d="M887.508 662.973C887.508 663.989 888.332 664.812 889.347 664.812H914.78C915.795 664.812 916.619 663.989 916.619 662.973C916.619 661.958 915.795 661.134 914.78 661.134H889.347C888.332 661.134 887.508 661.958 887.508 662.973Z" fill="#EDEEF2"/>
    <path d="M941.763 552.201V595.547C941.763 596.562 942.587 597.385 943.602 597.385C944.617 597.385 945.441 596.562 945.441 595.547V552.201C945.441 551.185 944.617 550.362 943.602 550.362C942.587 550.362 941.763 551.185 941.763 552.201Z" fill="#EDEEF2"/>
    <path d="M901.219 577.753V552.364C901.219 551.348 900.395 550.525 899.38 550.525C898.364 550.525 897.541 551.348 897.541 552.364V577.753C897.541 578.769 898.364 579.593 899.38 579.593C900.395 579.593 901.219 578.769 901.219 577.753Z" fill="#EDEEF2"/>
    <path d="M871.445 343.168V327.458H891.331V343.168H871.445ZM891.331 362.478C891.331 363.493 892.154 364.315 893.17 364.315C894.186 364.315 895.01 363.493 895.01 362.478V305.944C895.01 304.927 894.186 304.105 893.17 304.105C892.154 304.105 891.331 304.927 891.331 305.944V323.78H871.445V305.944C871.445 304.927 870.622 304.105 869.606 304.105C868.591 304.105 867.767 304.927 867.767 305.944V362.478C867.767 363.493 868.591 364.315 869.606 364.315C870.622 364.315 871.445 363.493 871.445 362.478V346.846H891.331V362.478Z" fill="#EDEEF2"/>
    <path d="M768.493 304.105C767.477 304.105 766.653 304.927 766.653 305.944V362.478C766.653 363.493 767.477 364.315 768.493 364.315C769.509 364.315 770.332 363.493 770.332 362.478V305.944C770.332 304.927 769.509 304.105 768.493 304.105Z" fill="#EDEEF2"/>
    <path d="M379.178 130.779H436.178C437.195 130.779 438.017 129.955 438.017 128.94C438.017 127.923 437.195 127.101 436.178 127.101H379.178C378.163 127.101 377.339 127.923 377.339 128.94C377.339 129.955 378.163 130.779 379.178 130.779Z" fill="#EDEEF2"/>
    <path d="M683.316 776.286C682.299 776.286 681.476 777.11 681.476 778.125V828.181C681.476 829.197 682.299 830.021 683.316 830.021C684.331 830.021 685.155 829.197 685.155 828.181V778.125C685.155 777.11 684.331 776.286 683.316 776.286Z" fill="#EDEEF2"/>
    <path d="M790.139 550.525C789.123 550.525 788.3 551.348 788.3 552.364V571.688C788.3 572.703 789.123 573.527 790.139 573.527C791.154 573.527 791.978 572.703 791.978 571.688V552.364C791.978 551.348 791.154 550.525 790.139 550.525Z" fill="#EDEEF2"/>
    <path d="M719.866 414.328C718.85 414.328 718.027 415.151 718.027 416.166V441.276C718.027 442.291 718.85 443.115 719.866 443.115C720.881 443.115 721.705 442.291 721.705 441.276V416.166C721.705 415.151 720.881 414.328 719.866 414.328Z" fill="#EDEEF2"/>
    <path d="M704.022 334.07H673.893C672.877 334.07 672.054 334.893 672.054 335.908C672.054 336.925 672.877 337.747 673.893 337.747H704.022C705.039 337.747 705.862 336.925 705.862 335.908C705.862 334.893 705.039 334.07 704.022 334.07Z" fill="#EDEEF2"/>
    <path d="M597.797 305.944C597.797 304.928 596.973 304.105 595.958 304.105C594.942 304.105 594.119 304.928 594.119 305.944V328.903C594.119 329.919 594.942 330.742 595.958 330.742C596.973 330.742 597.797 329.919 597.797 328.903V305.944Z" fill="#EDEEF2"/>
    <path d="M611.534 279.763C611.534 278.746 610.71 277.924 609.695 277.924H575.868C574.852 277.924 574.029 278.746 574.029 279.763C574.029 280.778 574.852 281.602 575.868 281.602H609.695C610.71 281.602 611.534 280.778 611.534 279.763Z" fill="#EDEEF2"/>
    <path d="M934.757 220.584V259.724C934.757 260.741 935.58 261.563 936.596 261.563C937.611 261.563 938.435 260.741 938.435 259.724V222.423H977.341C978.356 222.423 979.18 221.601 979.18 220.584C979.18 219.569 978.356 218.745 977.341 218.745H936.596C935.58 218.745 934.757 219.569 934.757 220.584Z" fill="#EDEEF2"/>
    <path d="M107.68 685.396C107.68 686.413 108.503 687.237 109.519 687.237H150.4C151.416 687.237 152.239 686.413 152.239 685.396C152.239 684.381 151.416 683.557 150.4 683.557H109.519C108.503 683.557 107.68 684.381 107.68 685.396Z" fill="#EDEEF2"/>
    <path d="M136.862 665.159V641.191C136.862 640.176 136.038 639.352 135.023 639.352C134.007 639.352 133.184 640.176 133.184 641.191V665.159C133.184 666.176 134.007 666.998 135.023 666.998C136.038 666.998 136.862 666.176 136.862 665.159Z" fill="#EDEEF2"/>
    <path d="M107.111 544.451C106.095 544.451 105.272 545.275 105.272 546.29V567.527C105.272 568.542 106.095 569.366 107.111 569.366C108.127 569.366 108.95 568.542 108.95 567.527V546.29C108.95 545.275 108.127 544.451 107.111 544.451Z" fill="#EDEEF2"/>
    <path d="M538.094 776.286C537.078 776.286 536.255 777.11 536.255 778.125V828.181C536.255 829.197 537.078 830.021 538.094 830.021C539.11 830.021 539.932 829.197 539.932 828.181V778.125C539.932 777.11 539.11 776.286 538.094 776.286Z" fill="#EDEEF2"/>
    <path d="M869.606 502.665C868.591 502.665 867.767 503.488 867.767 504.504V523.423C867.767 524.439 868.591 525.262 869.606 525.262C870.622 525.262 871.445 524.439 871.445 523.423V504.504C871.445 503.488 870.622 502.665 869.606 502.665Z" fill="#EDEEF2"/>
    <path d="M977.341 382.889H943.602C942.587 382.889 941.763 383.712 941.763 384.727C941.763 385.743 942.587 386.566 943.602 386.566H977.341C978.356 386.566 979.18 385.743 979.18 384.727C979.18 383.712 978.356 382.889 977.341 382.889Z" fill="#EDEEF2"/>
    <path d="M318.779 202.186H346.587C347.604 202.186 348.426 201.362 348.426 200.347C348.426 199.33 347.604 198.508 346.587 198.508H318.779C317.763 198.508 316.94 199.33 316.94 200.347C316.94 201.362 317.763 202.186 318.779 202.186Z" fill="#EDEEF2"/>
    <path d="M477.379 720.236C481.07 720.236 484.071 723.237 484.071 726.927C484.071 730.618 481.07 733.621 477.379 733.621C473.688 733.621 470.685 730.618 470.685 726.927C470.685 723.237 473.688 720.236 477.379 720.236ZM470.689 231.008C470.689 227.321 473.685 224.322 477.371 224.316C477.374 224.316 477.376 224.317 477.379 224.317C477.383 224.317 477.387 224.316 477.391 224.316C481.078 224.32 484.075 227.32 484.075 231.008C484.075 234.699 481.074 237.701 477.383 237.701C473.692 237.701 470.689 234.699 470.689 231.008ZM490.934 233.484L700.475 215.987V302.396H480.925V244.317C486.032 242.955 489.976 238.741 490.934 233.484ZM704.022 497.82C704.036 497.82 704.05 497.816 704.064 497.816C707.735 497.838 710.716 500.828 710.716 504.504C710.716 508.195 707.713 511.197 704.022 511.197C700.332 511.197 697.33 508.195 697.33 504.504C697.33 500.828 700.31 497.838 703.981 497.816C703.996 497.816 704.009 497.82 704.022 497.82ZM707.57 309.491H973.793V500.957H717.329C716.062 496.206 712.321 492.465 707.57 491.197V309.491ZM707.57 215.394L964.374 193.951C965.894 198.18 969.412 201.449 973.793 202.618V302.396H707.57V215.394ZM977.341 182.618C981.03 182.618 984.033 185.621 984.033 189.311C984.033 193.002 981.03 196.004 977.341 196.004C973.65 196.004 970.647 193.002 970.647 189.311C970.647 185.621 973.65 182.618 977.341 182.618ZM984.033 777.953C984.033 781.644 981.03 784.646 977.341 784.646C973.65 784.646 970.647 781.644 970.647 777.953C970.647 774.264 973.65 771.26 977.341 771.26C981.03 771.26 984.033 774.264 984.033 777.953ZM707.57 723.382V517.81C712.321 516.543 716.062 512.802 717.329 508.051H973.793V723.382H707.57ZM480.925 500.957V309.491H700.475V491.197C695.724 492.465 691.984 496.206 690.716 500.957H480.925ZM700.475 723.382H490.686C489.419 718.63 485.678 714.89 480.925 713.622V508.051H690.716C691.984 512.802 695.724 516.543 700.475 517.81V723.382ZM233.139 258.469C229.448 258.469 226.446 255.467 226.446 251.776C226.446 248.085 229.448 245.084 233.139 245.084C236.83 245.084 239.831 248.085 239.831 251.776C239.831 255.467 236.83 258.469 233.139 258.469ZM81.6021 546.793C81.657 546.713 81.7082 546.633 81.7565 546.549C81.9797 546.164 104.803 508.051 168.602 508.051H297.363H473.832V713.622C469.08 714.889 465.341 718.63 464.072 723.382H308.071H307.865H4V730.476H307.865H308.071H464.072C465.341 735.227 469.081 738.967 473.832 740.234V905.536C473.832 905.549 473.836 905.562 473.836 905.574V1086H480.929V905.536C480.929 905.523 480.925 905.51 480.925 905.498V740.234C485.676 738.967 489.417 735.227 490.685 730.476H700.475V945.425C700.475 947.383 702.064 948.972 704.022 948.972C705.982 948.972 707.57 947.383 707.57 945.425V730.476H973.793V764.646C967.908 766.218 963.553 771.58 963.553 777.953C963.553 785.554 969.738 791.739 977.341 791.739C984.942 791.739 991.127 785.554 991.127 777.953C991.127 771.58 986.772 766.218 980.887 764.646V730.476H1005.42C1007.38 730.476 1008.97 728.888 1008.97 726.928C1008.97 724.97 1007.38 723.382 1005.42 723.382H980.887V309.491H1121V302.396H980.887V202.618C986.006 201.252 989.957 197.016 990.9 191.738L1121 180.913V173.797L990.307 184.67C988.787 180.443 985.268 177.174 980.887 176.005V-31H973.793V176.005C968.674 177.371 964.723 181.606 963.78 186.883L490.366 226.415C488.856 222.163 485.324 218.873 480.925 217.7V-31H473.832V217.702C468.698 219.075 464.743 223.332 463.816 228.632L245.989 246.82C243.992 241.663 238.992 237.99 233.139 237.99C225.537 237.99 219.352 244.175 219.352 251.776C219.352 259.377 225.537 265.563 233.139 265.563C240.025 265.563 245.733 260.481 246.748 253.874L464.436 235.697C465.963 239.901 469.47 243.148 473.832 244.314V500.957H297.363H168.602C102.024 500.957 77.5312 539.785 75.6994 542.858L4 646.205V658.648L81.6021 546.793Z" fill="#E4EFC2"/>
    <path d="M1077.73 83.8253V75.0509H1080.38H1083.04V83.8253V92.5996H1080.38H1077.73V83.8253Z" fill="#EDEEF2"/>
    <path d="M1046.08 549.898H770.066C738.612 549.898 713.113 575.378 713.113 606.808V1282.16C713.113 1313.59 738.612 1339.07 770.066 1339.07H1046.08C1077.54 1339.07 1103.04 1313.59 1103.04 1282.16V606.808C1103.04 575.378 1077.54 549.898 1046.08 549.898Z" fill="#272238" stroke="#9F9EA7" stroke-width="10"/>
    <path d="M929.576 579.279H888.4C886.446 579.279 884.862 580.862 884.862 582.814C884.862 584.766 886.446 586.348 888.4 586.348H929.576C931.53 586.348 933.113 584.766 933.113 582.814C933.113 580.862 931.53 579.279 929.576 579.279Z" fill="#9F9EA7"/>
    <path d="M950.164 587.436C953.27 587.436 955.787 584.92 955.787 581.817C955.787 578.714 953.27 576.198 950.164 576.198C947.058 576.198 944.541 578.714 944.541 581.817C944.541 584.92 947.058 587.436 950.164 587.436Z" fill="#9F9EA7"/>
    <path d="M1044.32 632H1014.15C1007.12 632 1001.41 637.701 1001.41 644.733V675.118C1001.41 682.151 1007.12 687.851 1014.15 687.851H1044.32C1051.36 687.851 1057.07 682.151 1057.07 675.118V644.733C1057.07 637.701 1051.36 632 1044.32 632Z" fill="#9F9EA7"/>
    <path d="M804.911 820H774.743C767.705 820 762 825.701 762 832.733V863.118C762 870.151 767.705 875.851 774.743 875.851H804.911C811.949 875.851 817.654 870.151 817.654 863.118V832.733C817.654 825.701 811.949 820 804.911 820Z" fill="#9F9EA7"/>
    <path d="M963.911 820H933.743C926.705 820 921 825.701 921 832.733V863.118C921 870.151 926.705 875.851 933.743 875.851H963.911C970.949 875.851 976.654 870.151 976.654 863.118V832.733C976.654 825.701 970.949 820 963.911 820Z" fill="#9F9EA7"/>
  </g>
  <path d="M963.911 727H933.743C926.705 727 921 732.701 921 739.733V770.118C921 777.151 926.705 782.851 933.743 782.851H963.911C970.949 782.851 976.654 777.151 976.654 770.118V739.733C976.654 732.701 970.949 727 963.911 727Z" fill="#9F9EA7"/>
  <defs>
    <filter id="filter0_d" x="0" y="0" width="1125" height="908" filterUnits="userSpaceOnUse" color-interpolation-filters="sRGB">
      <feFlood flood-opacity="0" result="BackgroundImageFix"/>
      <feColorMatrix in="SourceAlpha" type="matrix" values="0 0 0 0 0 0 0 0 0 0 0 0 0 0 0 0 0 0 127 0"/>
      <feOffset dy="4"/>
      <feGaussianBlur stdDeviation="2"/>
      <feColorMatrix type="matrix" values="0 0 0 0 0 0 0 0 0 0 0 0 0 0 0 0 0 0 0.25 0"/>
      <feBlend mode="normal" in2="BackgroundImageFix" result="effect1_dropShadow"/>
      <feBlend mode="normal" in="SourceGraphic" in2="effect1_dropShadow" result="shape"/>
    </filter>
    <clipPath id="clip0">
      <rect width="1117" height="900" fill="white" transform="translate(4)"/>
    </clipPath>
  </defs>
</svg>
