<svg width="1117" height="900" viewBox="0 0 1117 900" fill="none" xmlns="http://www.w3.org/2000/svg">
<g clip-path="url(#clip0)">
<path d="M1117 1086H0V-31H1117V1086Z" fill="#DFDFDF"/>
<path d="M709.298 498.347L703.57 491.197L698.133 468.793V302.396L514.241 307.23V504.914H552.99V728.869V925.403L700.022 948.972V517.81L713.329 508.051L709.298 498.347" fill="#F1DFC7"/>
<path d="M237.131 259.31L237.746 246.152L227.037 241.537L221.042 245.524L218.976 253.577L174.654 238.369V201.205L155.975 178.496L110.33 135.555L87.459 167.617L170.1 270.452C170.1 270.452 240.373 365.682 242.343 368.965C244.314 372.249 281.749 468.792 281.749 468.792L344.141 469.449L344.689 288.294L237.131 259.31" fill="#F1DFC7"/>
<path d="M910.78 596.443V729.333L973.178 727.801L975.441 596.005L910.78 596.443" fill="#F1DFC7"/>
<path d="M698.79 400.49L975.285 486.525L972.001 504.257L910.266 505.571L910.923 483.241L841.963 480.614V465.509L740.166 467.479L739.509 416.909L698.79 416.252V400.49Z" fill="#F1DFC7"/>
<path d="M698.79 363.055L740.166 362.398V386.698L801.901 403.117V414.938L841.306 415.595L841.963 431.357L910.266 433.328L909.609 415.595L973.971 416.252L972.001 494.406L749.36 424.79L739.509 416.909L698.79 400.49V363.055Z" fill="#F1DFC7"/>
<path d="M699.281 899.995L842.607 923.792L840.985 973.55L700.022 948.972L699.281 899.995" fill="#F1DFC7"/>
<path d="M553.251 876.196L474.287 864.84L474.828 827.52L412.089 826.979L411.548 778.302L354.217 778.844L348.809 725.839H303.377C303.377 725.839 295.265 755.587 295.805 757.209C296.346 758.832 348.809 896.208 350.431 896.75C352.053 897.29 560.824 941.639 560.824 941.639L564.069 891.881L553.251 876.196Z" fill="#F1DFC7"/>
<path d="M430.833 67.5137L433.46 234.33L472.865 233.017V68.8272L430.833 67.5137Z" fill="#F1DFC7"/>
<path d="M292.938 551.047L437.708 552.022L472.318 552.509V686.07L294.399 685.583L292.938 551.047" fill="#F1DFC7"/>
<path d="M469.071 221.731L468.326 222.725C469.847 222.095 471.56 221.731 473.379 221.731C478.842 221.731 483.393 224.936 484.42 229.186L961.056 190.273C961.056 186.334 964.04 182.977 968.246 181.632L972.318 176.735L974.306 -31.0001H473.379V213.327L469.071 221.731" fill="#CBE6A3"/>
<path d="M116.028 513.12C137.668 504.297 166.816 504.038 166.816 504.038C166.816 504.038 153.244 556.579 159.831 599.864C166.42 643.15 191.336 727.556 191.336 727.556C191.336 727.556 144.906 724.643 145.581 727.556C149.914 746.225 149.112 772.857 152.746 789.699C156.248 805.934 161.724 817.416 164.409 831.542C109.679 892.62 130.734 920.196 131.501 923.518C134.956 938.486 168.567 945.38 168.567 945.38L170.238 1044.33L275.192 1043.45L275.356 1000.87C275.356 1000.87 273.543 982.45 269.846 973.785C266.147 965.12 248.911 938.91 248.911 938.91L270.123 915.436C270.123 915.436 290.229 934.892 300.811 942.952C311.392 951.013 335.143 964.967 335.143 964.967L384.622 986.591L428.511 999.062L473.379 1007.19L473.383 978.436C473.383 978.436 409.038 951.463 397.435 947.223C385.833 942.986 258.192 815.398 258.192 815.398L226.852 719.414L226.239 581.432C226.239 581.432 227.618 504.504 226.239 504.504C224.859 504.504 206.523 425.133 206.523 425.133L146.542 338.642L104.209 305.944L0 169.4V650.186L77.8699 540.303C77.8699 540.303 94.3873 521.941 116.028 513.12" fill="#CBE6A3"/>
<path d="M842.549 971.25L700.022 947.223L569.208 925.998L473.379 905.536C473.379 905.536 445.955 896.272 417.477 885.896C388.997 875.518 362.33 851.376 362.33 851.376C362.33 851.376 311.174 814.848 303.865 726.928C301.646 700.234 301.892 676.215 302.031 650.194V622.315C301.754 590.189 300.166 553.287 293.363 504.504C284.752 442.747 269.324 396.1 240.627 350.947C218.683 316.422 120.945 204.886 48.951 124.766L47.2865 126.622L3.50237 81.0862L6.12529 77.4609C4.01084 75.1465 1.96976 72.9161 0 70.7659V103.405C41.3967 162.37 241.547 447.355 243.439 447.985C245.548 448.689 268.4 564.713 268.4 564.713L275.359 777.953L314.779 851.376L365.089 897.704L450.174 950.759L554.332 961.861L633.352 964.547L854.7 999.062L1117 1044.19V1025.23L842.549 971.25Z" fill="#CBE6A3"/>
<path d="M554.332 552.364H513.856V596.005H554.332V552.364Z" fill="#CBE6A3"/>
<path d="M910.779 596.442H740.499V650.194H910.779V596.442Z" fill="#CBE6A3"/>
<path d="M605.357 777.953H648.998V726.928H605.357V777.953Z" fill="#CBE6A3"/>
<path d="M910.779 362.478H842.549V416.167H910.779V362.478Z" fill="#CBE6A3"/>
<path d="M438.526 596.005H302.031V622.315C302.114 631.974 302.08 641.204 302.031 650.194H438.526V596.005" fill="#CBE6A3"/>
<path d="M302.031 622.315V650.194C302.08 641.204 302.114 631.974 302.031 622.315Z" fill="#CBE6A3"/>
<path d="M605.357 416.167H554.332V467.191H605.357V416.167Z" fill="#CBE6A3"/>
<path d="M972.318 199.551C978.539 199.551 983.58 195.397 983.58 190.273C983.58 185.149 978.539 180.996 972.318 180.996C970.879 180.996 969.511 181.226 968.246 181.632L961.056 190.273C961.056 195.397 966.098 199.551 972.318 199.551Z" fill="#CBE6A3"/>
<path d="M961.056 190.273L968.246 181.632C964.04 182.977 961.056 186.334 961.056 190.273Z" fill="#CBE6A3"/>
<path d="M462.116 231.008L468.326 222.725C464.647 224.251 462.116 227.383 462.116 231.008Z" fill="#CBE6A3"/>
<path d="M473.379 240.285C479.599 240.285 484.641 236.132 484.641 231.008C484.641 230.384 484.564 229.776 484.421 229.186L462.116 231.008C462.116 236.132 467.158 240.285 473.379 240.285Z" fill="#CBE6A3"/>
<path d="M473.379 221.731C471.56 221.731 469.847 222.095 468.326 222.725L462.116 231.008L484.421 229.186C483.393 224.936 478.842 221.731 473.379 221.731Z" fill="#CBE6A3"/>
<path d="M1030.23 272.422L1010.09 271.984L1009.22 306.136L1030.47 306.548L1030.23 272.422Z" fill="#CBE6A3"/>
<path d="M1054.32 335.471V307.011L1030.47 306.548L1030.67 335.471H1054.32" fill="#CBE6A3"/>
<path d="M28.8973 50.438L18.3892 60.5087L6.12524 77.4609C18.4158 90.9192 33.0574 107.078 48.951 124.766L73.995 96.8484L28.8973 50.438Z" fill="#CBE6A3"/>
<path d="M3.50244 81.0862L47.2866 126.622L48.9511 124.766C33.0576 107.078 18.4159 90.9192 6.12536 77.4609L3.50244 81.0862" fill="#CBE6A3"/>
<path d="M648.876 552.201H740.822V466.385H648.876V552.201Z" fill="#DFDFDF"/>
<path d="M844.153 827.163L802.12 828.039V863.941H844.153V827.163Z" fill="#DFDFDF"/>
<path d="M1076.43 861.533H1062.63L1068.22 882.221H1074.46L1076.75 888.789H1070.51L1079.38 923.269L1117 922.181V837.869L1071.17 838.547L1076.43 861.533" fill="#DFDFDF"/>
<path d="M972.658 602.114L1023.23 809.65L1117 809.081V530.957L973.315 485.868L972.658 602.114" fill="#DFDFDF"/>
<path d="M411.13 881.236L421.638 888.46C421.638 888.46 466.955 904.223 473.522 905.536C473.522 893.714 474.179 778.782 474.179 778.782L411.13 778.125V881.236Z" fill="#DFDFDF"/>
<path d="M438.057 595.547L439.371 649.401H474.179L472.865 597.517L438.057 595.547Z" fill="#DFDFDF"/>
<path d="M114.463 138.564L70.3496 183.496L107.053 224.99L155.975 178.496L114.463 138.564" fill="#DFDFDF"/>
<path d="M78.9751 404.185C67.8893 404.185 58.9009 414.195 58.9009 426.541C58.9009 438.888 67.8893 448.898 78.9751 448.898C90.0614 448.898 99.0498 438.888 99.0498 426.541C99.0498 414.195 90.0614 404.185 78.9751 404.185Z" fill="#DFDFDF"/>
<path d="M172.071 877.003C159.013 877.003 148.427 887.59 148.427 900.646C148.427 913.704 159.013 924.289 172.071 924.289C185.128 924.289 195.714 913.704 195.714 900.646C195.714 887.59 185.128 877.003 172.071 877.003Z" fill="#DFDFDF"/>
<path d="M556.049 355.617L554.823 362.969L577.227 362.444L586.679 365.768L605.232 372.245V362.093L580.553 362.793L556.049 355.617" fill="#DFDFDF"/>
<path d="M740.385 210.249L740.822 258.849L801.244 260.163L803.434 204.119L740.385 210.249Z" fill="#DFDFDF"/>
<path d="M1053 271.546L1030.67 272.859L1030.23 305.697L1030.24 306.102L1054.32 306.573L1053 271.546Z" fill="#DFDFDF"/>
<path d="M1030.24 306.102L1009.66 305.697L1008.78 335.908L1030.67 335.033L1030.24 306.102Z" fill="#DFDFDF"/>
<path d="M301.588 649.401V596.005H262.484V694.151H301.588V649.453L301.587 649.401H301.588Z" fill="#DFDFDF"/>
<path d="M473.379 241.537L465.86 236.957L463.139 230.924L467.611 223.677L473.973 220.26V177.243L432.178 167.04V317.764L473.379 332.406V241.537" fill="#DFDFDF"/>
<path d="M301.588 649.401V649.453L302.031 685.889L346.868 685.396L343.696 649.401H301.588" fill="#DFDFDF"/>
<path d="M301.587 649.402L301.588 649.453V649.402H301.587Z" fill="#DFDFDF"/>
<path d="M212.177 249.363L178.386 237.681L178.283 224.702H228.277V234.33L227.61 238.859L215.863 250.507L218.976 251.474L221.042 245.524L229.139 241.536V-31H176.481L176.756 238.369L212.177 249.363Z" fill="#DFDFDF"/>
<path d="M215.766 250.604L215.863 250.507L212.177 249.363L215.766 250.604Z" fill="#DFDFDF"/>
<path d="M288.181 653.998C288.155 652.8 288.131 651.517 288.113 650.14H270.42V653.998H288.181Z" fill="#A2CDFE"/>
<path d="M288.083 645.707C288.081 644.482 288.087 643.196 288.101 641.848H270.42V645.707H288.083" fill="#A2CDFE"/>
<path d="M270.42 583.833H271.733V619.622C275.31 615.172 285.965 601.907 287.199 600.3C288.426 598.704 288.41 597.316 288.399 596.301L288.398 596.002C288.51 571.316 287.661 556.554 282.411 517.809C282.287 516.889 281.097 515.449 280.048 514.177C278.771 512.631 277.565 511.169 277.382 509.869C276.898 506.472 276.725 505.353 276.316 502.724L276.01 500.746C275.753 499.082 276.583 496.61 277.463 493.992C278.273 491.577 279.113 489.078 278.874 487.695C272.332 449.919 261.987 416.546 248.124 388.506C226.403 344.568 166.357 274.044 116.313 217.359L107.015 225.917L103.901 222.535L113.268 213.915L111.382 211.782L102.089 220.334L98.9754 216.952L108.332 208.342L106.441 206.213L97.1632 214.752L94.0498 211.37L103.388 202.777L101.495 200.65L92.2375 209.17L89.1241 205.787L98.4366 197.218L96.5407 195.094L87.3118 203.587L84.1984 200.205L93.4781 191.666L91.5818 189.542L82.3861 198.005L79.2727 194.622L88.515 186.117L86.6166 183.996L77.4605 192.422L74.347 189.04L83.5462 180.574L81.6452 178.456L72.5348 186.84L69.4214 183.458L78.5743 175.034C69.2217 164.626 59.9317 154.325 50.8263 144.231C32.7378 124.177 15.5185 105.085 0 87.5709V177.203C28.6177 212.447 66.5823 259.203 111.048 313.967C169.847 386.385 189.446 425.629 198.425 488.931C198.673 490.687 199.994 492.417 201.393 494.247C202.375 495.532 203.389 496.86 204.027 498.235C205.242 500.855 205.313 503.49 205.388 506.279C205.418 507.401 205.449 508.559 205.562 509.712C205.713 511.254 204.613 512.892 203.55 514.476C202.599 515.894 201.614 517.361 201.711 518.492C204.539 551.512 205.628 591.797 207.009 642.798C207.575 663.759 208.218 687.518 209.051 713.261C209.101 714.791 212.193 718.3 213.513 719.799C214.462 720.874 214.561 720.987 214.572 721.293C214.702 725.034 214.879 728.786 215.099 732.446C215.188 733.919 213.811 735.2 212.481 736.44C211.435 737.413 210.25 738.516 210.312 739.34C224.259 922.647 350.441 968.988 458.812 988.88C459.922 989.065 461.209 987.775 462.478 986.52C463.966 985.046 465.544 983.513 467.236 983.819C471.606 984.578 475.935 985.303 480.213 985.999C481.783 986.253 483.111 988.168 484.518 990.193C485.639 991.809 486.908 993.639 487.9 993.795C494.358 994.816 500.686 995.781 506.849 996.722C506.985 996.743 507.294 996.766 507.994 996.766C514.857 996.766 544.494 994.389 556.012 993.443L555.416 993.322L555.546 992.679L555.676 992.035L560.716 993.053L561.203 993.012L561.232 993.157L609.382 1002.89L610.352 1003.08L624.211 1005.88V1005.88L627.889 1006.63L642.918 1009.66V1009.66C655.518 1012.08 699.782 1021.14 648.015 1010.69L645.623 1023.23C649.11 1023.92 665.96 1027.29 673.066 1028.7C756.064 1045.2 876.854 1068.78 974.126 1086H1117V1057.26C1116.97 1057.25 1116.93 1057.24 1116.9 1057.24C1039.79 1045.46 886.755 1014.64 885.218 1014.33L884.953 1014.21C884.564 1013.91 845.817 984.896 836.357 982.917C743.56 963.496 679.429 951.358 645.746 946.84C578.866 937.866 528.427 929.25 487.013 919.723C486.06 919.511 484.873 920.741 483.723 921.935C482.492 923.212 481.221 924.534 479.798 924.534C479.621 924.534 479.443 924.513 479.271 924.472C475.299 923.52 471.377 922.549 467.615 921.586C466.144 921.21 464.911 919.18 463.605 917.031C462.573 915.328 461.4 913.399 460.496 913.159C397.995 896.47 358.537 876.635 332.556 848.846C308.487 823.105 295.459 789.318 290.314 739.295C290.229 738.474 288.933 737.472 287.788 736.587C286.334 735.464 284.832 734.301 284.707 732.867C284.402 729.385 284.124 725.734 283.878 722.021C283.78 720.532 285.054 719.1 286.286 717.713C287.352 716.513 288.454 715.271 288.402 714.29C288.093 708.513 287.844 702.32 287.66 695.886C287.602 693.823 281.477 690.276 278.187 688.37C277.141 687.765 276.237 687.242 275.658 686.856C271.899 684.347 271.674 684.197 271.664 681.914C271.659 680.748 271.597 679.577 271.536 678.399C271.473 677.188 271.409 675.936 271.405 674.689C271.394 670.816 271.928 669.805 274.004 669.771C281.167 669.651 285.113 669.586 286.831 668.531C288.386 667.577 288.369 665.592 288.33 661.246C288.322 660.39 288.305 659.452 288.282 658.431H270.42" fill="#A2CDFE"/>
<path d="M288.299 629.124C288.317 627.87 288.332 626.582 288.345 625.265H271.733V629.124H288.299Z" fill="#A2CDFE"/>
<path d="M288.169 637.415L288.235 633.557H270.42V637.415H288.169Z" fill="#A2CDFE"/>
<path d="M271.077 665.159H271.733V658.431H271.077V665.159Z" fill="#A2CDFE"/>
<path d="M271.733 629.124V625.265H271.077V629.124H271.733Z" fill="#A2CDFE"/>
<path d="M271.077 625.265H270.42V629.124H271.077V625.265Z" fill="#A2CDFE"/>
<path d="M271.077 583.833V620.439C271.255 620.218 271.475 619.944 271.733 619.622V583.833H271.077Z" fill="#A2CDFE"/>
<path d="M270.42 665.159H271.077V658.431H270.42V665.159Z" fill="#A2CDFE"/>
<path d="M270.42 583.833V621.258L270.564 621.078C270.582 621.058 270.768 620.824 271.077 620.439V583.833H270.42Z" fill="#A2CDFE"/>
<path d="M67.7932 409.598C71.3987 405.174 72.0412 398.136 69.3566 392.485C67.2837 388.123 63.7301 385.621 59.6058 385.621C56.0844 385.621 52.3066 387.365 48.3758 390.804C39.7184 398.379 34.6573 412.969 35.1667 428.88C35.6429 443.765 40.8144 456.403 49.0003 462.69C52.8556 465.649 56.6997 467.151 60.4247 467.151C65.7809 467.151 70.6342 463.791 72.7892 458.588C74.7134 453.943 73.9488 449.096 70.7938 445.943C60.2031 435.352 60.7131 418.288 67.7932 409.598Z" fill="#A2CDFE"/>
<path d="M513.072 212.67C516.636 212.67 520.981 211.253 526.358 208.336C532.136 205.202 537.718 203.804 544.455 203.804C548.454 203.804 552.594 204.287 556.978 204.798C562.203 205.406 568.124 206.097 574.97 206.097C579.452 206.097 583.834 205.811 588.371 205.219C599.293 203.793 605.364 199.986 605.025 194.767C604.696 189.714 598.407 185.111 591.831 185.111C590.735 185.111 589.651 185.24 588.61 185.492C573.822 189.077 567.481 190.424 554.385 191.467C550.989 191.737 547.124 192.471 543.385 193.18C538.573 194.094 533.597 195.039 529.44 195.039C523.366 195.039 519.834 192.944 518.644 188.633C517.459 184.348 516.223 180.764 515.133 177.601C512.221 169.156 510.297 163.576 513.24 155.727C516.985 145.741 514.83 126.35 510.766 112.357C508.939 106.069 512.819 99.6711 516.242 94.0269C518.986 89.5018 521.577 85.2277 520.379 82.1842C519.632 80.2836 517.44 78.8426 513.676 77.7787C512.239 77.3715 510.9 77.1653 509.692 77.1653C503.105 77.1653 499.437 83.4334 498.478 96.3282C497.548 108.824 497.716 114.314 498.051 125.254C498.185 129.615 498.352 135.043 498.479 142.107C498.662 152.237 497.847 161.685 497.127 170.02C496.12 181.712 495.324 190.947 497.729 196.411C502.054 206.233 505.458 212.67 513.072 212.67Z" fill="#A2CDFE"/>
<path d="M860.234 180.406C860.66 180.406 861.117 180.385 861.608 180.342C862.697 180.246 863.966 180.138 865.38 180.019C881.014 178.703 917.624 175.619 920.253 168.411C920.616 167.412 920.205 166.341 918.997 165.137C912.248 158.413 909.218 156.319 903.411 156.319C900.094 156.319 895.946 157.001 889.666 158.032C888.215 158.27 886.656 158.526 884.976 158.795C868.892 161.368 855.81 173.416 856.194 178.24C856.308 179.677 857.668 180.406 860.234 180.406Z" fill="#A2CDFE"/>
<path d="M218.38 224.673L218.053 -31.0001H216.739L217.066 224.674L218.38 224.673Z" fill="black"/>
<path d="M213.127 224.682L212.799 -31.0001H211.485L211.813 224.684L213.127 224.682Z" fill="black"/>
<path d="M207.873 224.692L207.544 -30.9999H206.231L206.559 224.693L207.873 224.692Z" fill="black"/>
<path d="M202.62 224.702L202.292 -31H200.978L201.307 224.703L202.62 224.702Z" fill="black"/>
<path d="M195.736 44.8385C195.741 48.2785 194.427 51.7317 193.155 55.072C191.856 58.4832 190.512 62.0113 190.518 65.6143L190.56 89.2957C190.562 92.7318 189.25 96.1811 187.98 99.5148C186.681 102.929 185.337 106.458 185.342 110.062L185.543 224.732L186.857 224.73L186.656 110.06C186.651 106.698 187.892 103.437 189.208 99.9824C189.68 98.7451 190.154 97.492 190.571 96.2231L190.799 224.722L192.112 224.719L191.873 89.2943C191.873 89.2904 191.873 89.2865 191.873 89.2825L191.831 65.6117C191.826 62.2517 193.067 58.9903 194.382 55.5383C194.885 54.2196 195.392 52.8824 195.829 51.5281L196.051 224.714L197.365 224.712L197.037 -31.0001H195.723L195.822 44.8385H195.736" fill="black"/>
<path d="M850.401 972.642L974.061 961.313L982.761 997.272C940.668 989.32 895.577 980.917 850.401 972.642ZM844.65 925.49H918.926L927.611 961.346L844.65 968.946V925.49ZM840.449 683.296H804.172V652.294H840.449V683.296ZM840.449 775.853H804.172V687.498H840.449V775.853ZM840.449 826.08H804.172V780.055H840.449V826.08ZM840.449 861.204H804.172V830.282H840.449V861.204ZM840.449 888.376H804.172V865.406H840.449V888.376ZM840.449 920.919L804.172 915.014V892.578H840.449V920.919ZM840.449 970.822C828.327 968.607 816.217 966.405 804.172 964.228V919.272L840.449 925.176V970.822ZM799.97 683.296H742.601V652.294H799.97V683.296ZM799.97 775.853H742.601V687.498H799.97V775.853ZM799.97 826.08H742.601V780.055H799.97V826.08ZM799.97 861.204H742.601V830.282H799.97V861.204ZM799.97 914.33L742.601 904.994V865.406H799.97V914.33ZM799.97 963.467C780.581 959.966 761.378 956.527 742.601 953.202V909.251L799.97 918.588V963.467ZM742.601 598.105H908.678V648.092H742.601V598.105ZM742.601 554.465H799.97V593.903H742.601V554.465ZM742.601 469.293H799.97V550.262H742.601V469.293ZM742.601 418.268H749.247L799.97 434.012V465.09H742.601V418.268ZM799.97 418.268V429.61L763.428 418.268H799.97ZM742.601 364.58H799.97V414.065H749.884L742.601 411.803V364.58ZM742.601 261.827H799.97V360.375H742.601V261.827ZM804.172 554.465H840.449V593.903H804.172V554.465ZM804.172 469.293H840.449V550.262H804.172V469.293ZM804.172 435.318L840.449 446.577V465.09H804.172V435.318ZM804.172 418.268H840.449V442.175L804.172 430.916V418.268ZM804.172 364.58H840.449V414.065H804.172V364.58ZM804.172 261.827H840.449V360.375H804.172V261.827ZM844.65 554.465H908.678V593.903H844.65V554.465ZM844.65 469.293H908.678V550.262H844.65V469.293ZM844.65 447.881L900.09 465.09H844.65V447.881ZM844.65 418.268H908.678V463.353L844.65 443.48V418.268ZM844.65 364.58H908.678V414.065H844.65V364.58ZM844.65 261.827H908.678V360.375H844.65V261.827ZM910.779 780.055H930.204L936.899 807.725H894.722L888.019 780.055H910.779ZM912.88 687.498H991.597L1020.38 807.725H982.648L977.717 787.313C977.444 786.186 976.309 785.491 975.18 785.763C974.053 786.036 973.358 787.173 973.63 788.301L978.323 807.725H941.221L934.528 780.055H963.101C964.26 780.055 965.201 779.114 965.201 777.953C965.201 776.792 964.26 775.853 963.101 775.853H931.796C931.79 775.853 931.785 775.853 931.78 775.853H912.88V687.498ZM1027.31 836.683H989.645L983.664 811.927H1021.38L1027.31 836.683ZM1047.56 921.288H1010.09L990.661 840.885H1028.31L1047.56 921.288ZM1054.37 949.733L1017.77 953.087L1011.1 925.49H1048.56L1054.37 949.733ZM965.394 925.49L973.062 957.182L931.842 960.958L923.25 925.49H965.394ZM915.276 892.578H957.429L964.376 921.288H922.231L915.276 892.578ZM910.951 892.578L917.907 921.288H844.65V892.578H910.951ZM904.371 865.406L909.935 888.376H844.65V865.406H904.371ZM898.43 840.885L903.351 861.204H844.65V840.885H898.43ZM943.905 836.683H901.737L895.74 811.927H937.915L943.905 836.683ZM948.228 836.683L942.239 811.927H979.338L985.32 836.683H948.228ZM954.162 861.204L949.246 840.885H986.335L991.244 861.204H954.162ZM907.676 861.204L902.754 840.885H944.923L949.838 861.204H907.676ZM950.855 865.406L956.414 888.376H914.259L908.695 865.406H950.855ZM998.826 892.578L1005.76 921.288H968.699L961.753 892.578H998.826ZM960.736 888.376L955.177 865.406H992.261L997.809 888.376H960.736ZM891.414 811.927L897.413 836.683H844.65V811.927H891.414ZM883.695 780.055L890.398 807.725H844.65V780.055H883.695ZM844.65 683.296V652.294H908.678V683.296H844.65ZM908.678 687.498V775.853H885.288C885.281 775.853 885.277 775.853 885.271 775.853H844.65V687.498H908.678ZM977.291 956.795L969.717 925.49H1006.78L1013.54 953.474L977.291 956.795ZM738.398 360.375H651.099V261.827H738.398V360.375ZM738.398 410.5L651.099 383.402V364.58H738.398V410.5ZM738.398 465.09H651.099V418.268H738.398V465.09ZM738.398 550.262H651.099V469.293H738.398V550.262ZM738.398 593.903H651.099V554.465H738.398V593.903ZM738.398 648.092H651.099V598.105H738.398V648.092ZM738.398 683.296H651.099V652.294H738.398V683.296ZM738.398 775.853H651.099V687.498H738.398V775.853ZM738.398 826.08H651.099V780.055H738.398V826.08ZM738.398 861.204H700.022C698.862 861.204 697.922 862.144 697.922 863.305C697.922 864.465 698.862 865.406 700.022 865.406H738.398V904.309L651.099 890.101V830.282H738.398V861.204ZM738.398 952.459C707.769 947.043 678.327 941.936 651.099 937.344V894.358L738.398 908.568V952.459ZM651.099 387.804L735.705 414.065H651.099V387.804ZM646.897 360.375H607.459V261.827H646.897V360.375ZM646.897 382.098L607.459 369.856V364.58H646.897V382.098ZM646.897 414.065H607.459V374.258L646.897 386.499V414.065ZM646.897 465.09H607.459V418.268H646.897V465.09ZM646.897 550.262H607.459V469.293H646.897V550.262ZM646.897 593.903H607.459V554.465H646.897V593.903ZM646.897 648.092H607.459V598.105H646.897V648.092ZM646.897 683.296H607.459V652.294H646.897V683.296ZM646.897 775.853H607.459V687.498H646.897V775.853ZM646.897 826.08H607.459V780.055H646.897V826.08ZM646.897 889.418L607.459 882.999V830.282H646.897V889.418ZM646.897 936.636C633.112 934.318 619.921 932.139 607.459 930.122V887.256L646.897 893.675V936.636ZM603.257 360.375H576.914L556.435 354.019V261.827H603.257V360.375ZM603.257 368.553L590.455 364.58H603.257V368.553ZM603.257 414.065H556.435V391.789L603.257 374.791V414.065ZM603.257 465.09H556.435V418.268H603.257V465.09ZM603.257 550.262H556.435V469.293H603.257V550.262ZM603.257 593.903H556.435V554.465H603.257V593.903ZM603.257 648.092H556.435V598.105H603.257V648.092ZM603.257 683.296H556.435V652.294H603.257V683.296ZM603.257 775.853H556.435V687.498H603.257V775.853ZM603.257 826.08H556.435V780.055H603.257V826.08ZM603.257 882.313L556.435 874.695V830.282H603.257V882.313ZM603.257 929.443C600.832 929.053 598.43 928.668 596.064 928.291C582.314 926.1 569.122 923.889 556.435 921.614V878.952L603.257 886.573V929.443ZM556.435 364.58H576.277L599.344 371.74L556.435 387.318V364.58ZM556.435 358.42L562.735 360.375H556.435V358.42ZM552.231 352.715L515.958 341.455V261.827H552.231V352.715ZM552.231 360.375H515.958V345.857L552.231 357.116V360.375ZM552.231 388.844L515.958 402.013V364.58H552.231V388.844ZM552.231 414.065H515.958V406.485L552.231 393.315V414.065ZM552.231 465.09H515.958V418.268H552.231V465.09ZM552.231 550.262H515.958V469.293H552.231V550.262ZM552.231 593.903H515.958V554.465H552.231V593.903ZM552.231 648.092H515.958V598.105H552.231V648.092ZM552.231 683.296H515.958V652.294H552.231V683.296ZM552.231 775.853H515.958V687.498H552.231V775.853ZM552.231 826.08H515.958V780.055H552.231V826.08ZM552.231 874.009L515.958 868.106V830.282H552.231V874.009ZM552.231 920.857C539.613 918.56 527.535 916.187 515.958 913.702V872.363L552.231 878.268V920.857ZM511.753 360.375H473.379C473.296 360.375 473.215 360.38 473.132 360.391L434.281 364.991V320.503L511.753 344.551V360.375ZM511.753 403.538L482.761 414.065H434.281V369.223L473.504 364.58H511.753V403.538ZM511.753 414.065H495.078L511.753 408.011V414.065ZM511.753 465.09H436.561L435.195 435.805L483.5 418.268H511.753V465.09ZM511.753 550.262H440.532L436.757 469.293H511.753V550.262ZM511.753 593.903H440.626L440.625 554.465H511.753V593.903ZM511.753 648.092H440.626V598.105H511.753V648.092ZM511.753 683.296H440.626V652.294H511.753V683.296ZM511.753 775.853H440.628L440.626 687.498H511.753V775.853ZM511.753 826.08H413.456V780.055H511.753V826.08ZM511.753 867.421L473.717 861.231C472.574 861.038 471.49 861.822 471.305 862.968C471.118 864.113 471.896 865.193 473.041 865.379L511.753 871.68V912.795C473.421 904.382 440.826 894.597 413.456 881.734V830.282H511.753V867.421ZM409.253 800.967H326.355C323.068 794.347 320.15 787.384 317.592 780.055H355.009C355.013 780.055 355.018 780.056 355.022 780.056C355.031 780.056 355.04 780.055 355.05 780.055H409.253V800.967ZM409.253 828.181V849.274H363.119C348.958 836.612 337.479 822.036 328.506 805.169H409.253V828.181ZM409.253 879.708C397.547 873.955 386.814 867.608 377.05 860.504C373.929 858.232 370.918 855.889 368.007 853.476H409.253V879.708ZM303.57 687.498H344.943L352.73 775.853H316.162C308.051 750.836 303.972 721.651 303.57 687.498ZM303.553 676.191C303.645 668.037 303.691 660.076 303.69 652.294H341.841L344.573 683.296H303.532C303.526 680.947 303.527 678.587 303.553 676.191ZM337.065 598.105L341.471 648.092H303.678C303.639 630.529 303.367 613.877 302.835 598.105H337.065ZM300.556 554.465H333.219L336.695 593.903H302.678C302.17 580.117 301.465 566.988 300.556 554.465ZM289.489 469.293H366.161V550.262H300.247C297.917 519.981 294.363 493.27 289.489 469.293ZM275.792 418.268H340.485V465.09H288.613C285.027 448.216 280.765 432.708 275.792 418.268ZM270.018 402.724C264.995 390.221 259.384 378.541 253.194 367.359L304.793 353.689L312.396 414.065H274.324C272.939 410.212 271.507 406.431 270.018 402.724ZM224.614 323.703L298.886 306.786L304.264 349.481L251.067 363.575C243.172 349.751 234.36 336.657 224.614 323.703V323.703ZM198.769 291.796L275.016 271.069L295.177 277.327L298.36 302.596L221.822 320.028C214.631 310.654 206.948 301.318 198.769 291.796V291.796ZM340.485 344.232V414.065H316.632L308.893 352.602L340.485 344.232ZM308.362 348.394L299.586 278.695L340.485 291.39V339.883L308.362 348.394ZM295.465 181.692H340.485V286.989L299.01 274.115L295.465 245.965V181.692ZM295.465 147.269H340.485V177.489H295.465V147.269ZM295.465 112.163H340.485V143.066H295.465V112.163ZM295.465 70.414H340.485V107.959H295.465V70.414ZM295.465 14.4477H340.485V66.2107H295.465V14.4477ZM344.689 418.268H430.173L430.855 432.91L344.689 464.193V418.268ZM344.689 379.695C344.82 379.722 344.945 379.769 345.081 379.769C345.164 379.769 345.248 379.765 345.331 379.755L373.076 376.469V414.065H344.689V379.695ZM344.689 343.118L373.076 335.598V372.237L344.837 375.58C344.786 375.587 344.74 375.604 344.689 375.613V343.118ZM344.689 292.696L373.076 301.507V331.249L344.689 338.77V292.696ZM344.689 147.843L373.076 154.774V297.106L344.689 288.295V147.843ZM344.689 112.163H373.076V150.448L344.689 143.516V112.163ZM344.689 70.414H373.076V107.959H344.689V70.414ZM344.689 14.4477H373.076V66.2107H344.689V14.4477ZM377.28 375.972L430.079 369.721V414.065H377.28V375.972ZM377.28 334.484L430.079 320.495V365.488L377.28 371.74V334.484ZM377.28 302.811L424.771 317.552L377.28 330.135V302.811ZM377.28 155.8L430.078 168.69L430.079 314.799L377.28 298.41V155.8ZM377.28 112.163H430.078V164.363L377.28 151.474V112.163ZM377.28 70.414H430.078V107.959H377.28V70.414ZM377.28 14.4477H401.804V65.613C401.804 65.8219 401.844 66.0203 401.901 66.2107H377.28V14.4477ZM406.007 65.613V14.4477H430.078V66.2107H405.91C405.968 66.0203 406.007 65.8219 406.007 65.613ZM432.355 465.09H354.535L431.06 437.306L432.355 465.09ZM340.914 593.903L337.438 554.465H391.115V593.903H340.914ZM345.69 648.092L341.284 598.105H391.115V648.092H345.69ZM391.115 687.498V775.853H356.949L349.162 687.498H391.115ZM348.792 683.296L346.06 652.294H391.115V683.296H348.792ZM395.318 593.903V554.465H436.425V593.903H395.318ZM395.318 648.092V598.105H436.425V648.092H395.318ZM436.425 687.498V775.853H395.318V687.498H436.425ZM395.318 683.296V652.294H436.425V683.296H395.318ZM434.378 418.268H471.183L434.991 431.409L434.378 418.268ZM436.326 550.262H370.364V469.293H432.552L436.326 550.262ZM174.654 27.173L156.059 8.19411L174.654 -12.7577V27.173ZM174.654 83.1813L129.976 37.5827L153.262 11.3465L174.654 33.1797V83.1813ZM174.654 139.19L142.179 106.046L165.481 79.8266L174.654 89.188V139.19ZM174.654 195.198L116.078 135.415L139.38 109.195L174.654 145.196V195.198ZM174.654 238.369V264.565C168.467 257.728 162.051 250.71 155.397 243.433C146.404 233.598 137.153 223.478 127.443 212.693L155.251 181.402L174.654 201.205V238.369ZM120.892 205.395C110.006 193.22 98.6743 180.399 87.4591 167.617L113.279 138.564L152.303 178.393L124.615 209.548C123.38 208.173 122.142 206.794 120.892 205.395V205.395ZM51.3492 126.178L75.0155 99.511L110.33 135.555L84.6663 164.431C73.1843 151.33 61.8763 138.333 51.3492 126.178V126.178ZM8.29105 76.1514L29.1508 52.7012L72.0663 96.5017L48.5744 122.972C32.3135 104.18 18.1101 87.6302 8.29105 76.1514ZM55.2646 23.3454L98.1489 67.1131L74.8631 93.3505L31.9518 49.554L55.2646 23.3454ZM81.3779 -6.01161L124.23 37.7245L100.946 63.962L58.0646 20.197L81.3779 -6.01161ZM136.432 106.186L113.129 132.405L77.8124 96.3598L101.097 70.1223L136.432 106.186ZM127.179 40.7338L162.533 76.8174L139.231 103.036L103.894 66.9713L127.179 40.7338ZM291.261 89.0593H263.353V14.4477H291.261V89.0593ZM291.261 143.698L231.24 165.589V93.2625H291.261V143.698ZM291.261 178.121L231.24 200.013V169.62C231.658 169.745 232.115 169.746 232.555 169.583L291.261 148.17V178.121ZM231.24 14.4477H259.149V89.0593H231.24V14.4477ZM912.88 418.268H973.341C974.501 418.268 975.441 417.328 975.441 416.167C975.441 415.005 974.501 414.065 973.341 414.065H912.88V364.58H1007.55V439.577H973.341C972.18 439.577 971.239 440.518 971.239 441.679C971.239 442.84 972.18 443.781 973.341 443.781H1007.55V494.045L927.813 469.293H973.341C974.501 469.293 975.441 468.352 975.441 467.191C975.441 466.03 974.501 465.09 973.341 465.09H914.271L912.88 464.658V418.268ZM1011.76 409.816H1028.96V500.687L1011.76 495.348V409.816ZM1011.76 364.58H1028.96V405.612H1011.76V364.58ZM1011.76 337.135H1028.96V360.375H1011.76V337.135ZM1011.76 274.086H1028.96V332.932H1011.76V274.086ZM1011.76 248.198H1028.96V269.883H1011.76V248.198ZM1033.16 364.58H1051.89V507.806L1033.16 501.992V364.58ZM1033.16 337.135H1051.89V360.375H1033.16V337.135ZM1033.16 274.086H1051.89V332.932H1033.16V274.086ZM1033.16 248.198H1051.89V269.883H1033.16V248.198ZM1056.1 443.781H1080.88V516.805L1056.1 509.111V443.781ZM1056.1 383.545H1080.88V439.577H1056.1V383.545ZM1056.1 364.58H1080.88V379.342H1056.1V364.58ZM1056.1 337.135H1080.88V360.375H1056.1V337.135ZM1056.1 261.827H1080.88V332.932H1056.1V261.827ZM1056.1 223.832H1080.88V257.623H1056.1V223.832ZM987.293 998.127L978.29 960.926L1117 948.217V943.996L1058.6 949.347L1052.88 925.49H1117V921.288H1051.88L1032.63 840.885H1117V836.683H1031.63L1025.7 811.927H1117V807.725H1024.7L975.383 601.707C975.114 600.579 973.983 599.879 972.851 600.153C971.723 600.422 971.026 601.556 971.297 602.686L990.591 683.296H912.88V652.294H973.341C974.501 652.294 975.441 651.354 975.441 650.194C975.441 649.033 974.501 648.092 973.341 648.092H912.88V598.105H973.341C974.501 598.105 975.441 597.165 975.441 596.005C975.441 594.844 974.501 593.903 973.341 593.903H912.88V554.465H973.341C974.501 554.465 975.441 553.525 975.441 552.363C975.441 551.202 974.501 550.262 973.341 550.262H912.88V469.293H913.632L1117 532.416V528.015L1085.09 518.11V364.58H1117V360.375H1085.09V261.827H1117V257.623H1085.09V223.832H1117V219.629H1085.09V180.996C1085.09 179.835 1084.15 178.895 1082.99 178.895C1081.82 178.895 1080.88 179.835 1080.88 180.996V219.629H1056.1V183.234C1056.1 182.073 1055.16 181.133 1054 181.133C1052.83 181.133 1051.89 182.073 1051.89 183.234V243.995H1033.16V186.472C1033.16 185.312 1032.22 184.371 1031.06 184.371C1029.9 184.371 1028.96 185.312 1028.96 186.472V243.995H1011.76V186.472C1011.76 185.312 1010.82 184.371 1009.66 184.371C1008.49 184.371 1007.55 185.312 1007.55 186.472V269.883H973.341C972.18 269.883 971.239 270.823 971.239 271.985C971.239 273.146 972.18 274.086 973.341 274.086H1007.55V360.375H912.88V261.827H973.341C974.501 261.827 975.441 260.885 975.441 259.724C975.441 258.564 974.501 257.623 973.341 257.623H912.88V194.619C912.88 193.457 911.939 192.517 910.779 192.517C909.618 192.517 908.678 193.457 908.678 194.619V257.623H844.65V200.347C844.65 199.186 843.71 198.245 842.549 198.245C841.389 198.245 840.449 199.186 840.449 200.347V257.623H804.172V203.745C804.172 202.584 803.233 201.643 802.072 201.643C800.91 201.643 799.97 202.584 799.97 203.745V257.623H742.601V208.914C742.601 207.752 741.66 206.812 740.499 206.812C739.338 206.812 738.398 207.752 738.398 208.914V257.623H700.022H651.099V216.595C651.099 215.434 650.16 214.493 648.999 214.493C647.837 214.493 646.897 215.434 646.897 216.595V257.623H607.459V220.26C607.459 219.099 606.518 218.158 605.357 218.158C604.196 218.158 603.257 219.099 603.257 220.26V257.623H556.435V224.543C556.435 223.382 555.493 222.441 554.332 222.441C553.172 222.441 552.231 223.382 552.231 224.543V257.623H515.958V227.941C515.958 226.78 515.016 225.84 513.856 225.84C512.695 225.84 511.753 226.78 511.753 227.941V257.623H473.973C472.811 257.623 471.871 258.564 471.871 259.724C471.871 260.885 472.811 261.827 473.973 261.827H511.753V340.151L434.281 316.103V169.717L473.473 179.285C473.642 179.327 473.808 179.346 473.974 179.346C474.92 179.346 475.78 178.701 476.014 177.741C476.29 176.614 475.599 175.477 474.47 175.202L434.281 165.39V112.163H473.379C474.539 112.163 475.481 111.222 475.481 110.061C475.481 108.9 474.539 107.959 473.379 107.959H434.281V70.414H473.973C475.134 70.414 476.074 69.4735 476.074 68.3124C476.074 67.1512 475.134 66.2107 473.973 66.2107H434.281V14.4477H473.379C474.539 14.4477 475.481 13.5073 475.481 12.3461C475.481 11.185 474.539 10.2445 473.379 10.2445H434.281V-30.9999H430.078V10.2445H377.28V-30.9999H373.076V10.2445H344.689V-30.9999H340.485V10.2445H295.465V-30.9999H291.261V10.2445H263.353V-30.9999H259.149V10.2445H231.24V-30.9999H227.037V241.537C227.037 242.699 227.978 243.639 229.139 243.639C230.3 243.639 231.24 242.699 231.24 241.537V204.044C231.432 204.101 231.632 204.135 231.835 204.135C232.074 204.135 232.317 204.094 232.555 204.008L291.261 182.595V246.097C291.261 246.185 291.267 246.273 291.277 246.359L294.6 272.748L238.377 255.295C237.272 254.951 236.091 255.571 235.747 256.68C235.403 257.788 236.023 258.965 237.131 259.31L267.534 268.747L195.726 288.268C190.314 282.03 184.695 275.703 178.857 269.22V241.222L218.353 253.481C218.561 253.545 218.77 253.577 218.976 253.577C219.873 253.577 220.703 252.998 220.983 252.097C221.327 250.989 220.707 249.811 219.599 249.467L178.857 236.821V-30.9999H174.654V-28.8352L172.533 -30.9999H166.648L174.654 -22.8299V-19.0903L153.11 5.18482L117.657 -30.9999H111.771L150.313 8.33598L127.027 34.5734L84.1778 -9.16006L103.606 -30.9999H97.9801L81.2296 -12.1693L62.7788 -30.9999H56.8946L78.4292 -9.02089L55.1163 17.1877L25.5145 -13.0244L41.505 -30.9999H35.88L22.5663 -16.0337L7.90213 -30.9999H2.01748L19.7663 -12.8852L0 9.33548V15.6601L22.7146 -9.87596L52.3164 20.3362L29.0025 46.5448L0 16.9434V22.9488L26.202 49.6919L5.53369 72.928C3.41872 70.4533 1.5675 68.2847 0 66.4471V72.9201C20.6601 97.1111 72.9816 158.116 117.758 208.196C129.915 221.793 141.292 234.236 152.294 246.269C178.264 274.671 200.505 298.998 219.249 323.442C219.29 323.509 219.341 323.562 219.389 323.623C230.061 337.553 239.597 351.526 248.038 366.312C248.049 366.388 248.055 366.464 248.074 366.541C248.191 366.985 248.45 367.35 248.78 367.619C257.227 382.581 264.562 398.396 270.824 415.859C270.81 415.96 270.794 416.06 270.794 416.167C270.794 416.781 271.062 417.329 271.483 417.714C284.024 453.34 292.177 495.851 296.293 551.864C296.254 552.025 296.228 552.19 296.228 552.363C296.228 552.649 296.286 552.918 296.388 553.165C297.353 566.567 298.092 580.735 298.605 595.765C298.595 595.845 298.58 595.922 298.58 596.005C298.58 596.156 298.599 596.303 298.629 596.446C299.192 613.234 299.476 631.101 299.489 650.155C299.489 650.168 299.485 650.181 299.485 650.194C299.485 650.206 299.489 650.219 299.489 650.232C299.496 658.636 299.45 667.266 299.35 676.144C298.826 722.822 304.797 760.587 317.605 791.594C319.342 795.798 321.221 799.868 323.217 803.833C323.273 803.976 323.34 804.112 323.424 804.238C335.503 828.094 352.323 847.714 374.576 863.903C408.834 888.826 454.393 904.64 513.026 917.366C513.26 917.467 513.516 917.521 513.785 917.53C526.492 920.278 539.811 922.882 553.763 925.403C553.888 925.437 554.016 925.459 554.148 925.473C567.339 927.85 581.071 930.159 595.402 932.442C737.191 955.036 986.919 1001.78 1117 1027.35V1023.08C1081.15 1016.03 1036.36 1007.41 987.293 998.127Z" fill="white"/>
<path d="M717.087 103.248L722.821 150.752L670.833 156.306L656.459 141.873C672.164 124.758 693.33 111.239 717.087 103.248V103.248ZM762.572 95.2367L764.277 117.396L723.591 122.043L721.163 101.942C734.393 97.894 748.354 95.5507 762.572 95.2367ZM766.486 146.087L727.003 150.306L724.095 126.217L764.601 121.59L766.486 146.087ZM853.731 125.086L840.483 138.193C840.459 138.195 840.438 138.187 840.415 138.19L770.668 145.64L766.786 95.1973C796.302 95.3838 826.699 104.405 853.731 125.086ZM804.742 173.208L773.044 176.513L770.991 149.833L834.945 143.001L804.742 173.208ZM730.699 180.929L727.505 154.479L766.808 150.28L768.862 176.949L730.699 180.929ZM698.678 184.268L674.637 160.127L723.325 154.925L726.516 181.365L698.678 184.268ZM1030.84 0.977532L1072.77 82.4615C1067.49 88.7282 1062.5 94.8453 1058.06 100.597L1004.08 42.0656L1030.84 0.977532ZM1078.07 -2.90914L1097.86 53.861C1090.41 62.0915 1082.84 70.6359 1075.71 78.9925L1051.99 32.8973L1078.07 -2.90914ZM652.007 143.691C652.23 143.889 652.483 144.017 652.749 144.103L667.913 159.331C668.126 159.843 668.531 160.243 669.032 160.454L695.983 187.519C696.17 187.84 696.432 188.105 696.749 188.289L720.174 211.811C720.585 212.224 721.125 212.431 721.664 212.431C722.2 212.431 722.735 212.226 723.147 211.818C723.969 210.999 723.971 209.669 723.153 208.847L702.49 188.097L748.39 183.311L750.284 207.924C750.37 209.028 751.29 209.866 752.378 209.866C752.431 209.866 752.487 209.865 752.542 209.859C753.699 209.77 754.565 208.76 754.477 207.603L752.572 182.874L800.351 177.892L773.58 204.375C772.755 205.192 772.749 206.523 773.565 207.348C773.976 207.763 774.517 207.972 775.058 207.972C775.593 207.972 776.127 207.77 776.536 207.365L972.248 13.7554L1055.47 103.99C1048.21 113.614 1042.68 122.032 1040.12 128.125C1039.95 128.524 1039.92 128.944 1039.99 129.34C1012.6 124.038 974.01 128.675 972.062 128.915C970.91 129.057 970.09 130.107 970.232 131.259C970.375 132.41 971.427 133.231 972.575 133.087C973.137 133.019 1029.09 126.292 1053.09 137.714C1065.19 143.472 1092.16 151.676 1117 158.668V154.278C1092.59 147.386 1066.45 139.414 1054.9 133.918C1051.64 132.366 1047.86 131.129 1043.75 130.15C1043.84 130.025 1043.93 129.902 1043.99 129.755C1046.55 123.673 1052.32 115.037 1059.91 105.106C1059.91 105.096 1059.92 105.087 1059.93 105.076C1075.26 85.011 1098.05 59.6562 1117 39.3283V33.1154C1111.95 38.5034 1106.57 44.3025 1101.08 50.3211L1081.08 -7.04274L1098.53 -31H1093.33L1079.4 -11.8699L1072.73 -31H1068.28L1076.39 -7.73631L1049.84 28.7151L1019.12 -31H1014.39L1028.63 -3.32423L1001.14 38.8764L975.173 10.7265C975.611 9.93311 975.504 8.91774 974.834 8.23996C974.016 7.41639 972.686 7.40849 971.863 8.22418L856.747 122.103C815.442 90.2309 773.056 88.2068 744.682 92.1749C709.369 97.1164 676.309 114.117 653.511 138.911L484.311 -31H478.38L651.404 142.751C651.514 143.101 651.711 143.43 652.007 143.691Z" fill="white"/>
<path d="M639.059 1063.68V1039.28C682.265 1047.13 728.971 1055.64 772.729 1063.68H639.059ZM634.857 1063.68H564.943V1025.85C586.148 1029.68 609.873 1033.98 634.857 1038.52V1063.68ZM560.74 1044.11L475.155 1042.34C474.783 1041.75 474.129 1041.35 473.379 1041.35H427.024V1000.85C441.684 1004.24 457.006 1007.05 473.011 1009.25C474.197 1009.47 509.653 1015.84 560.74 1025.09V1044.11ZM422.82 1041.35H384.099V988.583C396.416 992.853 409.325 996.616 422.82 999.869V1041.35ZM379.896 998.771H336.369V967.934C349.907 975.13 364.426 981.513 379.896 987.083V998.771ZM379.896 1041.35H336.369V1002.97H379.896V1041.35ZM332.166 998.771H277.447C277.001 986.865 272.766 964.219 250.771 938.91L269.293 917.613C286.965 936.261 307.965 952.278 332.166 965.647V998.771ZM332.166 1041.35H277.283C277.19 1023.68 277.094 1009.15 277.082 1007.35C277.173 1006.79 277.378 1005.27 277.459 1002.97H332.166V1041.35ZM272.91 1006.81C272.887 1006.94 272.876 1007.07 272.877 1007.2C272.879 1007.49 272.981 1022.66 273.078 1041.35H171.707V947.947C185.514 947.825 194.482 939.718 202.193 932.735C213.398 922.59 221.493 915.259 239.853 933.397C278.576 971.657 272.971 1006.47 272.91 1006.81V1006.81ZM170.124 943.782C169.957 943.74 169.785 943.711 169.605 943.711C169.516 943.711 169.429 943.725 169.342 943.737C163.472 943.355 156.642 941.372 148.434 937.05C135.134 930.049 128.819 918.616 129.665 903.069C130.868 880.973 146.118 854.802 164.327 833.803C172.373 850.13 183.643 862.554 199.448 865.374C213.934 867.958 223.125 873.62 226.77 882.206C232.614 895.974 222.773 913.679 220.115 918.049C212.083 918.112 205.828 923.773 199.372 929.619C191.344 936.888 183.126 944.322 170.124 943.782V943.782ZM167.503 976.831C154.012 975.824 142.205 973.705 132.123 970.481L144.844 939.845C145.385 940.155 145.914 940.476 146.477 940.77C154.525 945.007 161.445 947.112 167.503 947.741V976.831ZM167.503 1007.84C149.118 1007.73 132.812 1006.1 118.629 1002.98L130.507 974.373C141.072 977.786 153.415 980.011 167.503 981.045V1007.84ZM167.503 1041.35H127.49C127.11 1041.35 126.749 1041.35 126.374 1041.35C121.651 1041.35 117.206 1041.2 112.838 1040.91C112.084 1037.18 109.707 1034.03 106.48 1032.23L116.994 1006.92C131.66 1010.22 148.511 1011.92 167.503 1012.04V1041.35ZM100.249 1052.1C95.4844 1052.1 91.608 1048.22 91.608 1043.45C91.608 1042.51 91.7582 1041.59 92.0543 1040.7C93.2385 1037.18 96.531 1034.81 100.249 1034.81C105.014 1034.81 108.89 1038.69 108.89 1043.45C108.89 1048.22 105.014 1052.1 100.249 1052.1ZM88.8219 1037.59C54.793 1030.17 31.3402 1011.74 19.1471 982.753C16.4235 976.275 14.341 969.441 12.8217 962.357L47.2178 949.081C48.0824 952.261 49.1228 955.378 50.3784 958.411C60.1564 982.015 81.0977 997.894 112.855 1005.92L102.516 1030.82C101.778 1030.69 101.024 1030.61 100.249 1030.61C95.375 1030.61 90.9943 1033.35 88.8219 1037.59ZM23.8726 848.725L57.9271 858.137C47.0295 886.837 40.3311 918.076 46.2008 944.969L11.9997 958.17C5.66709 923.215 12.4066 882.756 23.8726 848.725ZM47.9285 796.799C49.7741 793.933 50.6206 791.146 50.7776 788.377L94.16 787.594C83.8114 803.564 69.9749 827.629 59.4551 854.199L25.2483 844.745C31.9133 825.858 39.9704 809.16 47.9285 796.799ZM43.1792 767.777C37.3628 757.679 30.1236 745.11 30.1236 726.928C30.1236 696.774 38.644 689.41 63.9369 667.547L64.2694 667.261H82.3743L82.7063 667.547C108 689.41 116.52 696.774 116.52 726.928C116.52 726.947 116.524 726.964 116.525 726.981C116.526 726.998 116.522 727.014 116.523 727.032C116.538 727.343 117.929 758.365 108.193 768.101C106.679 769.615 102.498 775.058 96.9595 783.341L50.5216 784.178C49.5723 778.881 46.5041 773.55 43.1792 767.777V767.777ZM144.299 667.261V726.928C144.299 726.93 144.299 726.93 144.299 726.93C144.3 729.23 144.439 754.223 149.172 782.398L102.144 783.247C106.61 776.637 109.909 772.33 111.164 771.074C122.135 760.103 120.804 728.59 120.723 726.871C120.71 696.317 111.302 686.777 88.7962 667.261H144.299ZM107.621 630.049H162.973C165.318 641.086 168.062 652.101 171.024 663.057H107.621V630.049ZM107.621 618.315C107.621 591.391 124.114 573.025 127.406 569.628H155.719C155.608 573.51 155.65 577.416 155.905 581.374C156.86 596.176 159.089 611.028 162.092 625.846H107.621V618.315ZM100.433 865.523C102.107 861.662 103.848 857.957 105.589 854.476C119.143 827.357 137.505 803.066 150.366 789.029C153.019 802.869 156.834 817.096 162.315 829.498C150.357 843.008 139.59 858.766 132.807 874.47L100.433 865.523ZM126.16 914.106L89.5017 928.256C85.7367 909.395 91.2503 887.871 98.7897 869.43L131.195 878.385C127.951 886.723 125.895 894.991 125.468 902.841C125.251 906.821 125.498 910.575 126.16 914.106V914.106ZM92.0333 937.071C91.4381 935.534 90.9251 933.969 90.4802 932.382L127.158 918.225C129.533 926.099 134.285 932.648 141.313 937.616C141.198 937.763 141.093 937.922 141.016 938.105L128.141 969.113C109.799 962.399 97.6999 951.694 92.0333 937.071ZM86.5365 933.904C86.9942 935.492 87.5186 937.054 88.1137 938.589C94.2247 954.361 107.094 965.862 126.525 973.002L114.484 1002C83.7463 994.357 63.5598 979.249 54.262 956.801C53.0213 953.807 52.0009 950.718 51.1671 947.556L86.5365 933.904ZM63.7722 855.391C74.6984 827.928 89.1467 803.077 99.3192 787.501L146.842 786.643C131.028 803.978 109.61 833.482 96.3232 864.388L63.7722 855.391ZM94.6952 868.297C86.0912 889.507 81.5703 911.153 85.5222 929.792L50.1953 943.427C44.8539 917.647 51.5509 887.319 62.2364 859.327L94.6952 868.297ZM182.076 701.66C189.442 726.659 197.059 752.509 202.354 778.375C203.41 783.536 204.585 788.916 205.913 794.46C193.91 799.713 179.116 811.299 165.483 826.003C148.834 786.348 148.503 727.786 148.502 726.927V667.261H172.172C175.35 678.81 178.726 690.293 182.076 701.66V701.66ZM206.929 798.6C212.376 820.342 220.38 844.479 233.627 868.611L226.604 874.06C221.21 867.715 212.37 863.409 200.188 861.235C185.463 858.608 174.939 846.394 167.409 830.328C180.749 815.63 195.296 803.898 206.929 798.6ZM260.475 907.769C262.407 910.053 264.403 912.292 266.425 914.504L247.944 935.755C246.312 933.982 244.621 932.202 242.807 930.409C235.744 923.43 229.839 919.878 224.677 918.61C228.47 911.995 236.73 894.933 230.644 880.577C230.188 879.501 229.648 878.473 229.053 877.48L235.705 872.317C242.535 884.265 250.674 896.181 260.475 907.769V907.769ZM796.158 1063.72C745.392 1054.37 688.826 1044.05 637.413 1034.71C637.387 1034.71 637.36 1034.7 637.333 1034.7C610.766 1029.87 585.581 1025.31 563.285 1021.27C563.267 1021.27 563.25 1021.27 563.231 1021.27C511.174 1011.85 474.895 1005.32 473.669 1005.1C439.211 1000.36 409.268 993.112 383.193 983.938C382.891 983.729 382.532 983.606 382.144 983.577C365.084 977.518 349.701 970.627 335.809 963.072C335.507 962.745 335.108 962.513 334.651 962.428C254.603 918.414 224.641 852.171 210.516 795.411C210.495 795.236 210.459 795.063 210.391 794.891C210.388 794.883 210.383 794.875 210.38 794.867C208.922 788.975 207.627 783.182 206.471 777.532C201.14 751.492 193.498 725.556 186.108 700.473C178.826 675.758 171.803 651.872 166.805 628.052C166.806 628.017 166.815 627.983 166.815 627.947C166.815 627.606 166.726 627.288 166.581 627.003C163.42 611.746 161.095 596.512 160.1 581.102C158.972 563.622 161.981 546.864 165.168 529.12C173.714 481.528 183.4 427.589 114.293 340.576C80.597 298.15 54.2702 265.531 33.1159 239.321C20.789 224.048 9.8801 210.531 0 198.152V204.885C9.0099 216.145 18.8643 228.356 29.8456 241.962C50.9946 268.165 77.3157 300.777 111.002 343.19C178.927 428.716 169.42 481.662 161.032 528.376C158.766 540.989 156.596 553.111 155.895 565.425H140.021V506.229C140.021 505.068 139.08 504.127 137.919 504.127C136.758 504.127 135.817 505.068 135.817 506.229V565.425H58.9009C57.7403 565.425 56.7993 566.366 56.7993 567.527C56.7993 568.688 57.7403 569.628 58.9009 569.628H121.716C115.605 576.784 103.418 594.093 103.418 618.315V625.867C100.42 625.89 97.4956 625.948 94.6751 626.015C72.9124 626.548 55.7197 626.952 33.5259 604.758C32.7049 603.94 31.375 603.94 30.5541 604.758C29.7331 605.579 29.7331 606.91 30.5541 607.731C50.5739 627.751 66.6014 630.377 85.0183 630.377C88.1877 630.377 91.4325 630.298 94.7758 630.218C97.5696 630.15 100.463 630.093 103.418 630.068V663.057H0V667.261H57.8469C35.3269 686.791 25.9204 696.329 25.9204 726.928C25.9204 746.236 33.4701 759.342 39.5368 769.875C42.759 775.469 45.3706 780.022 46.2824 784.255L0 785.091V789.294L46.5733 788.453C46.3912 790.467 45.7211 792.464 44.3947 794.523C36.2556 807.164 28.0204 824.273 21.2276 843.634L0 837.768V842.129L19.8592 847.615C8.18382 882.451 1.38175 923.899 8.02989 959.701L0 962.802V967.305L8.86623 963.884C10.4199 970.999 12.5318 977.865 15.2726 984.382C27.9819 1014.6 52.3102 1033.83 87.5437 1041.61C87.5048 1041.88 87.4672 1042.15 87.4457 1042.43C61.8916 1045.11 51.4483 1054.48 20.732 1086H26.6059C54.9372 1057.02 64.5208 1049.06 87.8131 1046.61C89.0568 1051.5 93.1061 1055.28 98.1473 1056.11V1086H102.351V1056.11C107.754 1055.22 112.019 1050.95 112.908 1045.54C115.61 1045.53 118.42 1045.54 121.406 1045.55C123.016 1045.55 124.689 1045.55 126.405 1045.56C126.449 1045.56 126.491 1045.56 126.536 1045.56C126.539 1045.56 126.542 1045.56 126.545 1045.56C126.862 1045.56 127.168 1045.56 127.49 1045.56H167.503V1086H171.707V1045.56H273.101C273.168 1059.03 273.231 1073.82 273.251 1086H277.454C277.434 1073.82 277.371 1059.03 277.304 1045.56H332.166V1086H336.369V1045.56H379.896V1086H384.099V1045.56H422.82V1086H427.024V1045.56H467.886C468.26 1046.07 468.854 1046.41 469.538 1046.43L560.74 1048.31V1086H564.943V1067.89H634.857V1086H639.059V1067.89H795.571C832.462 1074.68 866.259 1080.97 892.782 1086H915.153C886.814 1080.52 844.125 1072.56 796.248 1063.74C796.219 1063.73 796.188 1063.73 796.158 1063.72" fill="white"/>
<path d="M629.018 467.191V416.167C629.018 415.151 628.194 414.328 627.177 414.328C626.162 414.328 625.338 415.151 625.338 416.167V467.191C625.338 468.207 626.162 469.03 627.177 469.03C628.194 469.03 629.018 468.207 629.018 467.191Z" fill="white"/>
<path d="M591.958 465.352C590.942 465.352 590.119 466.175 590.119 467.191V503.54C590.119 504.556 590.942 505.379 591.958 505.379C592.973 505.379 593.797 504.556 593.797 503.54V467.191C593.797 466.175 592.973 465.352 591.958 465.352Z" fill="white"/>
<path d="M568.315 465.352C567.299 465.352 566.476 466.175 566.476 467.191V504.504C566.476 505.52 567.299 506.342 568.315 506.342C569.33 506.342 570.153 505.52 570.153 504.504V467.191C570.153 466.175 569.33 465.352 568.315 465.352Z" fill="white"/>
<path d="M512.017 486.286C512.017 487.301 512.84 488.125 513.856 488.125H554.332C555.349 488.125 556.171 487.301 556.171 486.286C556.171 485.269 555.349 484.447 554.332 484.447H513.856C512.84 484.447 512.017 485.269 512.017 486.286Z" fill="white"/>
<path d="M534.094 414.328C533.078 414.328 532.255 415.151 532.255 416.167V467.191C532.255 468.207 533.078 469.03 534.094 469.03C535.11 469.03 535.932 468.207 535.932 467.191V443.518H554.332C555.349 443.518 556.171 442.694 556.171 441.679C556.171 440.662 555.349 439.84 554.332 439.84H535.932V416.167C535.932 415.151 535.11 414.328 534.094 414.328" fill="white"/>
<path d="M676.111 466.385V416.166C676.111 415.151 675.287 414.327 674.272 414.327C673.256 414.327 672.433 415.151 672.433 416.166V466.385C672.433 467.4 673.256 468.222 674.272 468.222C675.287 468.222 676.111 467.4 676.111 466.385Z" fill="white"/>
<path d="M650.715 530.747C650.715 529.732 649.892 528.908 648.876 528.908H605.357C604.342 528.908 603.518 529.732 603.518 530.747C603.518 531.762 604.342 532.586 605.357 532.586H648.876C649.892 532.586 650.715 531.762 650.715 530.747Z" fill="white"/>
<path d="M580.547 504.504V552.364C580.547 553.379 581.371 554.203 582.388 554.203C583.403 554.203 584.227 553.379 584.227 552.364V504.504C584.227 503.488 583.403 502.666 582.388 502.666C581.371 502.666 580.547 503.488 580.547 504.504Z" fill="white"/>
<path d="M554.332 613.411H513.856C512.84 613.411 512.017 614.234 512.017 615.249C512.017 616.265 512.84 617.088 513.856 617.088H554.332C555.349 617.088 556.171 616.265 556.171 615.249C556.171 614.234 555.349 613.411 554.332 613.411Z" fill="white"/>
<path d="M607.072 629.698C607.072 628.683 606.249 627.859 605.232 627.859H513.856C513.78 627.859 513.708 627.871 513.634 627.88C513.659 627.761 513.672 627.636 513.672 627.508C513.672 626.493 512.849 625.67 511.833 625.67H490.357V532.586H537.72L540.221 551.782C540.342 552.709 541.133 553.383 542.042 553.383C542.122 553.383 542.202 553.378 542.282 553.368C543.289 553.236 543.999 552.314 543.867 551.306L537.737 504.265C537.607 503.259 536.686 502.543 535.676 502.68C534.669 502.811 533.96 503.735 534.091 504.742L537.239 528.908H438.057C437.042 528.908 436.218 529.732 436.218 530.747C436.218 531.762 437.042 532.586 438.057 532.586H486.68V648.057C486.68 649.072 487.503 649.896 488.518 649.896C489.534 649.896 490.357 649.072 490.357 648.057V629.347H511.833C511.91 629.347 511.982 629.336 512.054 629.326C512.029 629.446 512.017 629.569 512.017 629.698C512.017 630.713 512.84 631.537 513.856 631.537H525.319V685.396C525.319 686.413 526.141 687.237 527.157 687.237C528.173 687.237 528.996 686.413 528.996 685.396V631.537H605.232C606.249 631.537 607.072 630.713 607.072 629.698" fill="white"/>
<path d="M627.072 552.363C627.072 551.348 626.249 550.525 625.233 550.525C624.218 550.525 623.394 551.348 623.394 552.363V650.194C623.394 651.209 624.218 652.033 625.233 652.033C626.249 652.033 627.072 651.209 627.072 650.194V629.347H678.213C679.228 629.347 680.051 628.524 680.051 627.508V596.005C680.051 594.988 679.228 594.165 678.213 594.165C677.197 594.165 676.374 594.988 676.374 596.005V625.669H627.072V552.363" fill="white"/>
<path d="M669.893 597.385C670.908 597.385 671.732 596.562 671.732 595.547V552.364C671.732 551.348 670.908 550.525 669.893 550.525C668.877 550.525 668.054 551.348 668.054 552.364V595.547C668.054 596.562 668.877 597.385 669.893 597.385Z" fill="white"/>
<path d="M680.401 648.354C679.385 648.354 678.562 649.178 678.562 650.194V685.396C678.562 686.413 679.385 687.237 680.401 687.237C681.416 687.237 682.24 686.413 682.24 685.396V650.194C682.24 649.178 681.416 648.354 680.401 648.354Z" fill="white"/>
<path d="M580.547 650.491V685.396C580.547 686.413 581.371 687.237 582.388 687.237C583.403 687.237 584.227 686.413 584.227 685.396V650.491C584.227 649.476 583.403 648.652 582.388 648.652C581.371 648.652 580.547 649.476 580.547 650.491" fill="white"/>
<path d="M648.876 703.606H513.856C512.84 703.606 512.017 704.429 512.017 705.445C512.017 706.46 512.84 707.283 513.856 707.283H648.876C649.892 707.283 650.715 706.46 650.715 705.445C650.715 704.429 649.892 703.606 648.876 703.606Z" fill="white"/>
<path d="M669.893 683.557C668.877 683.557 668.054 684.381 668.054 685.396V725.147C668.054 726.163 668.877 726.986 669.893 726.986C670.908 726.986 671.732 726.163 671.732 725.147V685.396C671.732 684.381 670.908 683.557 669.893 683.557Z" fill="white"/>
<path d="M435.351 454.212H513.856C514.871 454.212 515.694 453.389 515.694 452.373C515.694 451.358 514.871 450.535 513.856 450.535H435.351C434.336 450.535 433.514 451.358 433.514 452.373C433.514 453.389 434.336 454.212 435.351 454.212Z" fill="white"/>
<path d="M439.896 569.276C439.896 568.261 439.072 567.437 438.057 567.437H393.216C392.2 567.437 391.377 568.261 391.377 569.276C391.377 570.292 392.2 571.115 393.216 571.115H438.057C439.072 571.115 439.896 570.292 439.896 569.276Z" fill="white"/>
<path d="M392.71 581.199C392.737 581.2 392.763 581.202 392.791 581.202C393.77 581.202 394.584 580.429 394.627 579.442C394.671 578.428 393.884 577.568 392.868 577.525L371.235 576.589L370.1 552.278C370.053 551.263 369.202 550.482 368.177 550.527C367.163 550.574 366.379 551.435 366.426 552.449L367.545 576.43L337.357 575.124C336.553 575.096 335.838 575.598 335.564 576.322H299.914C298.897 576.322 298.075 577.146 298.075 578.162C298.075 579.178 298.897 580.001 299.914 580.001H336.26C337.039 580.001 337.701 579.515 337.969 578.831L367.717 580.118L368.441 595.632C368.488 596.617 369.301 597.385 370.277 597.385C370.306 597.385 370.335 597.384 370.364 597.383C371.378 597.336 372.162 596.475 372.115 595.461L371.407 580.278L392.71 581.199" fill="white"/>
<path d="M438.526 581.202H473.379C474.394 581.202 475.218 580.378 475.218 579.363C475.218 578.346 474.394 577.522 473.379 577.522H438.526C437.51 577.522 436.687 578.346 436.687 579.363C436.687 580.378 437.51 581.202 438.526 581.202Z" fill="white"/>
<path d="M333.304 552.364C333.304 553.379 334.127 554.203 335.143 554.203C336.159 554.203 336.982 553.379 336.982 552.364V525.262H400.185L391.469 551.791C391.153 552.755 391.677 553.794 392.642 554.111C392.833 554.174 393.026 554.203 393.216 554.203C393.99 554.203 394.709 553.711 394.963 552.938L410.689 505.078C410.749 504.892 410.779 504.699 410.779 504.504V467.191C410.779 466.175 409.957 465.353 408.94 465.353C407.926 465.353 407.103 466.175 407.103 467.191V484.447H368.262C367.247 484.447 366.423 485.271 366.423 486.286C366.423 487.303 367.247 488.125 368.262 488.125H407.103V504.209L401.393 521.584H295.817C294.801 521.584 293.979 522.408 293.979 523.423C293.979 524.44 294.801 525.262 295.817 525.262H333.304V552.364" fill="white"/>
<path d="M375.178 648.652C374.163 648.652 373.339 649.476 373.339 650.491V685.396C373.339 686.413 374.163 687.237 375.178 687.237C376.195 687.237 377.017 686.413 377.017 685.396V650.491C377.017 649.476 376.195 648.652 375.178 648.652" fill="white"/>
<path d="M515.694 667.944C515.694 666.928 514.871 666.105 513.856 666.105H393.216C392.2 666.105 391.377 666.928 391.377 667.944C391.377 668.96 392.2 669.784 393.216 669.784H513.856C514.871 669.784 515.694 668.96 515.694 667.944" fill="white"/>
<path d="M419.011 684.05C417.996 684.05 417.172 684.873 417.172 685.889V726.928C417.172 727.945 417.996 728.769 419.011 728.769C420.027 728.769 420.85 727.945 420.85 726.928V685.889C420.85 684.873 420.027 684.05 419.011 684.05Z" fill="white"/>
<path d="M364.142 685.568C363.966 684.569 363.016 683.902 362.01 684.078C361.01 684.255 360.343 685.21 360.52 686.209L367.46 725.468C367.617 726.36 368.394 726.986 369.269 726.986C369.375 726.986 369.483 726.978 369.59 726.959C370.591 726.781 371.259 725.828 371.081 724.827L364.142 685.568" fill="white"/>
<path d="M346.868 703.432H302.04C301.023 703.432 300.201 704.256 300.201 705.271C300.201 706.288 301.023 707.111 302.04 707.111H346.868C347.884 707.111 348.707 706.288 348.707 705.271C348.707 704.256 347.884 703.432 346.868 703.432Z" fill="white"/>
<path d="M605.671 864.648L554.648 855.782C553.649 855.603 552.694 856.278 552.521 857.279C552.348 858.279 553.017 859.231 554.018 859.404L605.043 868.271C605.15 868.29 605.255 868.298 605.36 868.298C606.237 868.298 607.014 867.668 607.169 866.773C607.343 865.774 606.672 864.821 605.671 864.648" fill="white"/>
<path d="M1090.05 589.294C1084.24 584.642 1083.3 576.909 1083.3 560.207C1083.3 542.486 1069.38 538.564 1069.24 538.527L973.816 512.967C972.837 512.705 971.827 513.286 971.564 514.268C971.301 515.249 971.883 516.258 972.864 516.52L1068.28 542.077C1068.74 542.206 1079.62 545.386 1079.62 560.207C1079.62 575.581 1080.19 586.112 1087.75 592.166C1093.04 596.39 1107.27 605.59 1117 611.807V607.441C1107.48 601.339 1094.85 593.135 1090.05 589.294Z" fill="white"/>
<path d="M1035.58 703.432V687.236H1062.63C1063.65 687.236 1064.47 686.413 1064.47 685.396C1064.47 684.381 1063.65 683.557 1062.63 683.557H1050.73V673.132H1073.14C1074.16 673.132 1074.98 672.308 1074.98 671.293C1074.98 670.278 1074.16 669.454 1073.14 669.454H1048.89C1047.88 669.454 1047.05 670.278 1047.05 671.293V683.557H993.082C992.065 683.557 991.242 684.381 991.242 685.396C991.242 686.413 992.065 687.236 993.082 687.236H1031.9V705.271C1031.9 706.288 1032.72 707.111 1033.74 707.111H1050.29V720.331C1050.29 721.346 1051.11 722.169 1052.13 722.169C1053.14 722.169 1053.96 721.346 1053.96 720.331V707.111H1068.68V730.085C1068.68 731.1 1069.5 731.924 1070.51 731.924C1071.53 731.924 1072.35 731.1 1072.35 730.085V707.111H1087.15C1088.17 707.111 1088.99 706.288 1088.99 705.271C1088.99 704.256 1088.17 703.432 1087.15 703.432H1035.58Z" fill="white"/>
<path d="M319.184 111.9C320.199 111.9 321.023 111.078 321.023 110.061V68.3122C321.023 67.2969 320.199 66.4733 319.184 66.4733C318.169 66.4733 317.345 67.2969 317.345 68.3122V110.061C317.345 111.078 318.169 111.9 319.184 111.9Z" fill="white"/>
<path d="M260.863 251.562C261.878 251.562 262.702 250.738 262.702 249.723V191.445C262.702 190.43 261.878 189.606 260.863 189.606C259.846 189.606 259.024 190.43 259.024 191.445V249.723C259.024 250.738 259.846 251.562 260.863 251.562Z" fill="white"/>
<path d="M121.88 90.1677C122.242 90.1677 122.609 90.0626 122.93 89.8393L155.549 67.1221C156.383 66.5416 156.588 65.3962 156.007 64.5621C155.427 63.728 154.281 63.5218 153.447 64.1037L120.827 86.8209C119.994 87.4002 119.789 88.5469 120.369 89.381C120.726 89.8932 121.299 90.1677 121.88 90.1677Z" fill="white"/>
<path d="M549.128 137.056C560.653 137.056 570.029 146.434 570.029 157.958C570.029 169.483 560.653 178.86 549.128 178.86C537.602 178.86 528.226 169.483 528.226 157.958C528.226 146.434 537.602 137.056 549.128 137.056ZM549.128 182.537C560.353 182.537 569.825 174.963 572.754 164.663C575.489 165.38 581.008 166.895 586.391 168.776C592.285 170.835 597.828 171.737 603.062 171.737C624.662 171.736 640.965 156.369 654.584 143.529L653.399 142.117L652.06 140.852C635.023 156.915 615.713 175.125 587.605 165.304C581.982 163.34 576.218 161.766 573.49 161.053C573.619 160.038 573.707 159.009 573.707 157.958C573.707 144.406 562.681 133.38 549.128 133.38C535.575 133.38 524.548 144.406 524.548 157.958C524.548 171.511 535.575 182.537 549.128 182.537" fill="white"/>
<path d="M858.801 185.417C858.798 185.417 858.796 185.417 858.795 185.417C848.439 185.417 842.182 183.377 841.63 179.823C840.529 172.733 858.934 158.552 885.212 150.184C893.016 147.698 901.192 146.385 908.857 146.385C925.58 146.385 936.163 152.449 936.732 158.31C937.393 165.112 925.978 174.757 891.961 181.429C878.468 184.076 867.313 185.417 858.801 185.417ZM940.393 157.954C939.534 149.12 926.272 142.708 908.857 142.708C900.819 142.708 892.256 144.081 884.095 146.68C883.34 146.921 882.591 147.168 881.847 147.417C881.782 147.323 881.742 147.216 881.658 147.132L857.712 123.187C856.994 122.468 855.83 122.468 855.111 123.187C854.393 123.905 854.393 125.069 855.111 125.788L878.066 148.743C853.761 157.609 836.534 170.982 837.995 180.388C838.893 186.165 845.891 189.095 858.793 189.096C858.796 189.096 858.798 189.096 858.801 189.096C867.549 189.096 878.944 187.73 892.67 185.039C924.072 178.879 941.466 169.008 940.393 157.954" fill="white"/>
<path d="M161.518 424.626C151.209 421.53 140.94 423.484 131.011 425.374C120.076 427.456 109.748 429.421 99.8163 424.87C98.8886 424.443 97.8008 424.853 97.3776 425.775C96.9553 426.698 97.3607 427.79 98.2832 428.213C103.272 430.5 108.34 431.302 113.418 431.302C119.54 431.302 125.676 430.135 131.698 428.988C141.195 427.18 151.011 425.311 160.46 428.147C161.435 428.44 162.458 427.887 162.75 426.915C163.041 425.942 162.491 424.917 161.518 424.626" fill="white"/>
<path d="M191.547 904.42H192.435C194.076 904.42 198.434 904.42 200.368 901.045C202.134 897.964 201.131 893.286 197.301 886.745C193.741 880.67 193.826 876.433 194.978 874.648C195.25 874.227 195.714 873.748 196.413 873.817C197.303 873.913 198.698 874.975 199.703 877.65C205.661 893.528 211.82 901.514 217.065 900.121C220.153 899.302 221.673 895.291 220.844 890.138C220.271 886.577 220.567 881.814 222.567 879.777C223.4 878.927 224.518 878.617 225.98 878.823C226.982 878.968 227.917 878.266 228.059 877.261C228.201 876.255 227.502 875.325 226.496 875.184C223.868 874.808 221.603 875.508 219.943 877.201C216.833 880.369 216.529 886.464 217.214 890.722C217.772 894.198 216.939 896.349 216.122 896.566C214.854 896.892 209.734 893.913 203.146 876.356C201.776 872.706 199.465 870.447 196.808 870.161C194.867 869.954 193.036 870.883 191.892 872.651C189.555 876.262 190.39 882.227 194.127 888.605C198.292 895.718 197.647 898.395 197.177 899.216C196.394 900.583 194.096 900.742 192.435 900.742H191.547C190.532 900.742 189.708 901.565 189.708 902.581C189.708 903.596 190.532 904.42 191.547 904.42" fill="white"/>
<path d="M146.377 857.405C146.88 856.524 146.574 855.401 145.691 854.896L113.114 836.293C112.231 835.789 111.109 836.097 110.605 836.979C110.102 837.861 110.409 838.983 111.29 839.487L143.868 858.091C144.156 858.255 144.468 858.333 144.778 858.333C145.417 858.333 146.038 858 146.377 857.405" fill="white"/>
<path d="M91.3452 890.557C91.3452 889.54 90.5221 888.717 89.5062 888.717H50.2593C49.2433 888.717 48.4204 889.54 48.4204 890.557C48.4204 891.572 49.2433 892.396 50.2593 892.396H89.5062C90.5221 892.396 91.3452 891.572 91.3452 890.557" fill="white"/>
<path d="M30.8204 825.332L69.3285 837.514C69.5132 837.572 69.6999 837.6 69.8836 837.6C70.6645 837.6 71.3885 837.098 71.6368 836.315C71.9426 835.347 71.4065 834.313 70.4377 834.007L31.9297 821.826C30.9631 821.524 29.9282 822.056 29.6213 823.025C29.3155 823.992 29.8517 825.026 30.8204 825.332" fill="white"/>
<path d="M14.5082 881.678C14.4564 880.664 13.6062 879.885 12.5779 879.936L0 880.582V884.265L12.7662 883.61C13.7811 883.557 14.561 882.692 14.5082 881.678" fill="white"/>
<path d="M865.169 725.089C864.154 725.089 863.33 725.913 863.33 726.928V778.125C863.33 779.141 864.154 779.964 865.169 779.964C866.184 779.964 867.008 779.141 867.008 778.125V726.928C867.008 725.913 866.184 725.089 865.169 725.089Z" fill="white"/>
<path d="M763.591 725.09C762.576 725.09 761.752 725.913 761.752 726.928V761.05C761.752 762.065 762.576 762.888 763.591 762.888C764.606 762.888 765.43 762.065 765.43 761.05V726.928C765.43 725.913 764.606 725.09 763.591 725.09Z" fill="white"/>
<path d="M883.508 662.973C883.508 663.989 884.332 664.812 885.347 664.812H910.78C911.795 664.812 912.619 663.989 912.619 662.973C912.619 661.958 911.795 661.134 910.78 661.134H885.347C884.332 661.134 883.508 661.958 883.508 662.973Z" fill="white"/>
<path d="M937.763 552.201V595.547C937.763 596.562 938.587 597.385 939.602 597.385C940.617 597.385 941.441 596.562 941.441 595.547V552.201C941.441 551.185 940.617 550.362 939.602 550.362C938.587 550.362 937.763 551.185 937.763 552.201Z" fill="white"/>
<path d="M897.219 577.753V552.364C897.219 551.348 896.395 550.525 895.38 550.525C894.364 550.525 893.541 551.348 893.541 552.364V577.753C893.541 578.769 894.364 579.593 895.38 579.593C896.395 579.593 897.219 578.769 897.219 577.753Z" fill="white"/>
<path d="M867.445 343.168V327.458H887.331V343.168H867.445ZM887.331 362.478C887.331 363.493 888.154 364.315 889.17 364.315C890.186 364.315 891.01 363.493 891.01 362.478V305.944C891.01 304.927 890.186 304.105 889.17 304.105C888.154 304.105 887.331 304.927 887.331 305.944V323.78H867.445V305.944C867.445 304.927 866.622 304.105 865.606 304.105C864.591 304.105 863.767 304.927 863.767 305.944V362.478C863.767 363.493 864.591 364.315 865.606 364.315C866.622 364.315 867.445 363.493 867.445 362.478V346.846H887.331V362.478Z" fill="white"/>
<path d="M764.493 304.105C763.477 304.105 762.653 304.927 762.653 305.944V362.478C762.653 363.493 763.477 364.315 764.493 364.315C765.509 364.315 766.332 363.493 766.332 362.478V305.944C766.332 304.927 765.509 304.105 764.493 304.105Z" fill="white"/>
<path d="M375.178 130.779H432.178C433.195 130.779 434.017 129.955 434.017 128.94C434.017 127.923 433.195 127.101 432.178 127.101H375.178C374.163 127.101 373.339 127.923 373.339 128.94C373.339 129.955 374.163 130.779 375.178 130.779Z" fill="white"/>
<path d="M679.316 776.286C678.299 776.286 677.476 777.11 677.476 778.125V828.181C677.476 829.197 678.299 830.021 679.316 830.021C680.331 830.021 681.155 829.197 681.155 828.181V778.125C681.155 777.11 680.331 776.286 679.316 776.286Z" fill="white"/>
<path d="M786.139 550.525C785.123 550.525 784.3 551.348 784.3 552.364V571.688C784.3 572.703 785.123 573.527 786.139 573.527C787.154 573.527 787.978 572.703 787.978 571.688V552.364C787.978 551.348 787.154 550.525 786.139 550.525Z" fill="white"/>
<path d="M715.866 414.328C714.85 414.328 714.027 415.151 714.027 416.166V441.276C714.027 442.291 714.85 443.115 715.866 443.115C716.881 443.115 717.705 442.291 717.705 441.276V416.166C717.705 415.151 716.881 414.328 715.866 414.328Z" fill="white"/>
<path d="M700.022 334.07H669.893C668.877 334.07 668.054 334.893 668.054 335.908C668.054 336.925 668.877 337.747 669.893 337.747H700.022C701.039 337.747 701.862 336.925 701.862 335.908C701.862 334.893 701.039 334.07 700.022 334.07Z" fill="white"/>
<path d="M593.797 305.944C593.797 304.928 592.973 304.105 591.958 304.105C590.942 304.105 590.119 304.928 590.119 305.944V328.903C590.119 329.919 590.942 330.742 591.958 330.742C592.973 330.742 593.797 329.919 593.797 328.903V305.944Z" fill="white"/>
<path d="M607.534 279.763C607.534 278.746 606.71 277.924 605.695 277.924H571.868C570.852 277.924 570.029 278.746 570.029 279.763C570.029 280.778 570.852 281.602 571.868 281.602H605.695C606.71 281.602 607.534 280.778 607.534 279.763Z" fill="white"/>
<path d="M930.757 220.584V259.724C930.757 260.741 931.58 261.563 932.596 261.563C933.611 261.563 934.435 260.741 934.435 259.724V222.423H973.341C974.356 222.423 975.18 221.601 975.18 220.584C975.18 219.569 974.356 218.745 973.341 218.745H932.596C931.58 218.745 930.757 219.569 930.757 220.584" fill="white"/>
<path d="M103.68 685.396C103.68 686.413 104.503 687.237 105.519 687.237H146.4C147.416 687.237 148.239 686.413 148.239 685.396C148.239 684.381 147.416 683.557 146.4 683.557H105.519C104.503 683.557 103.68 684.381 103.68 685.396Z" fill="white"/>
<path d="M132.862 665.159V641.191C132.862 640.176 132.038 639.352 131.023 639.352C130.007 639.352 129.184 640.176 129.184 641.191V665.159C129.184 666.176 130.007 666.998 131.023 666.998C132.038 666.998 132.862 666.176 132.862 665.159Z" fill="white"/>
<path d="M103.111 544.451C102.095 544.451 101.272 545.275 101.272 546.29V567.527C101.272 568.542 102.095 569.366 103.111 569.366C104.127 569.366 104.95 568.542 104.95 567.527V546.29C104.95 545.275 104.127 544.451 103.111 544.451Z" fill="white"/>
<path d="M534.094 776.286C533.078 776.286 532.255 777.11 532.255 778.125V828.181C532.255 829.197 533.078 830.021 534.094 830.021C535.11 830.021 535.932 829.197 535.932 828.181V778.125C535.932 777.11 535.11 776.286 534.094 776.286Z" fill="white"/>
<path d="M865.606 502.665C864.591 502.665 863.767 503.488 863.767 504.504V523.423C863.767 524.439 864.591 525.262 865.606 525.262C866.622 525.262 867.445 524.439 867.445 523.423V504.504C867.445 503.488 866.622 502.665 865.606 502.665Z" fill="white"/>
<path d="M973.341 382.889H939.602C938.587 382.889 937.763 383.712 937.763 384.727C937.763 385.743 938.587 386.566 939.602 386.566H973.341C974.356 386.566 975.18 385.743 975.18 384.727C975.18 383.712 974.356 382.889 973.341 382.889Z" fill="white"/>
<path d="M314.779 202.186H342.587C343.604 202.186 344.426 201.362 344.426 200.347C344.426 199.33 343.604 198.508 342.587 198.508H314.779C313.763 198.508 312.94 199.33 312.94 200.347C312.94 201.362 313.763 202.186 314.779 202.186Z" fill="white"/>
<path d="M473.379 720.236C477.07 720.236 480.071 723.237 480.071 726.927C480.071 730.618 477.07 733.621 473.379 733.621C469.688 733.621 466.685 730.618 466.685 726.927C466.685 723.237 469.688 720.236 473.379 720.236ZM466.689 231.008C466.689 227.321 469.685 224.322 473.371 224.316C473.374 224.316 473.376 224.317 473.379 224.317C473.383 224.317 473.387 224.316 473.391 224.316C477.078 224.32 480.075 227.32 480.075 231.008C480.075 234.699 477.074 237.701 473.383 237.701C469.692 237.701 466.689 234.699 466.689 231.008ZM486.934 233.484L696.475 215.987V302.396H476.925V244.317C482.032 242.955 485.976 238.741 486.934 233.484ZM700.022 497.82C700.036 497.82 700.05 497.816 700.064 497.816C703.735 497.838 706.716 500.828 706.716 504.504C706.716 508.195 703.713 511.197 700.022 511.197C696.332 511.197 693.33 508.195 693.33 504.504C693.33 500.828 696.31 497.838 699.981 497.816C699.996 497.816 700.009 497.82 700.022 497.82ZM703.57 309.491H969.793V500.957H713.329C712.062 496.206 708.321 492.465 703.57 491.197V309.491ZM703.57 215.394L960.374 193.951C961.894 198.18 965.412 201.449 969.793 202.618V302.396H703.57V215.394ZM973.341 182.618C977.03 182.618 980.033 185.621 980.033 189.311C980.033 193.002 977.03 196.004 973.341 196.004C969.65 196.004 966.647 193.002 966.647 189.311C966.647 185.621 969.65 182.618 973.341 182.618ZM980.033 777.953C980.033 781.644 977.03 784.646 973.341 784.646C969.65 784.646 966.647 781.644 966.647 777.953C966.647 774.264 969.65 771.26 973.341 771.26C977.03 771.26 980.033 774.264 980.033 777.953ZM703.57 723.382V517.81C708.321 516.543 712.062 512.802 713.329 508.051H969.793V723.382H703.57ZM476.925 500.957V309.491H696.475V491.197C691.724 492.465 687.984 496.206 686.716 500.957H476.925ZM696.475 723.382H486.686C485.419 718.63 481.678 714.89 476.925 713.622V508.051H686.716C687.984 512.802 691.724 516.543 696.475 517.81V723.382ZM229.139 258.469C225.448 258.469 222.446 255.467 222.446 251.776C222.446 248.085 225.448 245.084 229.139 245.084C232.83 245.084 235.831 248.085 235.831 251.776C235.831 255.467 232.83 258.469 229.139 258.469ZM77.6021 546.793C77.657 546.713 77.7082 546.633 77.7565 546.549C77.9797 546.164 100.803 508.051 164.602 508.051H293.363H469.832V713.622C465.08 714.889 461.341 718.63 460.072 723.382H304.071H303.865H0V730.476H303.865H304.071H460.072C461.341 735.227 465.081 738.967 469.832 740.234V905.536C469.832 905.549 469.836 905.562 469.836 905.574V1086H476.929V905.536C476.929 905.523 476.925 905.51 476.925 905.498V740.234C481.676 738.967 485.417 735.227 486.685 730.476H696.475V945.425C696.475 947.383 698.064 948.972 700.022 948.972C701.982 948.972 703.57 947.383 703.57 945.425V730.476H969.793V764.646C963.908 766.218 959.553 771.58 959.553 777.953C959.553 785.554 965.738 791.739 973.341 791.739C980.942 791.739 987.127 785.554 987.127 777.953C987.127 771.58 982.772 766.218 976.887 764.646V730.476H1001.42C1003.38 730.476 1004.97 728.888 1004.97 726.928C1004.97 724.97 1003.38 723.382 1001.42 723.382H976.887V309.491H1117V302.396H976.887V202.618C982.006 201.252 985.957 197.016 986.9 191.738L1117 180.913V173.797L986.307 184.67C984.787 180.443 981.268 177.174 976.887 176.005V-31H969.793V176.005C964.674 177.371 960.723 181.606 959.78 186.883L486.366 226.415C484.856 222.163 481.324 218.873 476.925 217.7V-31H469.832V217.702C464.698 219.075 460.743 223.332 459.816 228.632L241.989 246.82C239.992 241.663 234.992 237.99 229.139 237.99C221.537 237.99 215.352 244.175 215.352 251.776C215.352 259.377 221.537 265.563 229.139 265.563C236.025 265.563 241.733 260.481 242.748 253.874L460.436 235.697C461.963 239.901 465.47 243.148 469.832 244.314V500.957H293.363H164.602C98.0241 500.957 73.5312 539.785 71.6994 542.858L0 646.205V658.648L77.6021 546.793Z" fill="#FFF100"/>
<path d="M1073.73 83.8253V75.0509H1076.38H1079.04V83.8253V92.5996H1076.38H1073.73V83.8253Z" fill="white"/>
<path d="M1076.47 67.8263C1086.43 67.8263 1095.32 74.6327 1095.32 83.9436C1095.32 87.2453 1094.16 90.4874 1092.11 93.0031C1092.02 95.9505 1093.71 100.18 1095.24 103.259C1091.15 102.502 1085.34 100.831 1082.71 99.1749C1068.2 102.794 1057.62 93.6909 1057.62 83.9436C1057.62 74.5828 1066.58 67.8263 1076.47 67.8263ZM1074.9 91.9852H1078.04V82.3217H1074.9V91.9852ZM1076.47 79.5031C1077.56 79.5031 1078.44 78.6012 1078.44 77.4899C1078.44 76.3786 1077.56 75.4767 1076.47 75.4767C1075.39 75.4767 1074.51 76.3786 1074.51 77.4899C1074.51 78.6012 1075.39 79.5031 1076.47 79.5031Z" fill="#25C2EA"/>
<path d="M1042.08 549.898H766.066C734.612 549.898 709.113 575.378 709.113 606.808V1282.16C709.113 1313.59 734.612 1339.07 766.066 1339.07H1042.08C1073.54 1339.07 1099.04 1313.59 1099.04 1282.16V606.808C1099.04 575.378 1073.54 549.898 1042.08 549.898Z" fill="black" stroke="#939393" stroke-width="10"/>
<path d="M925.576 579.279H884.4C882.446 579.279 880.862 580.862 880.862 582.814C880.862 584.766 882.446 586.348 884.4 586.348H925.576C927.53 586.348 929.113 584.766 929.113 582.814C929.113 580.862 927.53 579.279 925.576 579.279Z" fill="#939393"/>
<path d="M946.164 587.436C949.27 587.436 951.787 584.92 951.787 581.817C951.787 578.714 949.27 576.198 946.164 576.198C943.058 576.198 940.541 578.714 940.541 581.817C940.541 584.92 943.058 587.436 946.164 587.436Z" fill="#939393"/>
<path d="M785.297 753.683L865.72 847.424L945.533 753.683L1025.83 847.424V753.683L945.533 659.671" stroke="white" stroke-width="7.7654"/>
<path d="M945.533 659.671H865.72H785.297V753.683" stroke="white" stroke-width="7.7654"/>
<path d="M1040.32 632H1010.15C1003.12 632 997.411 637.701 997.411 644.733V675.118C997.411 682.151 1003.12 687.851 1010.15 687.851H1040.32C1047.36 687.851 1053.07 682.151 1053.07 675.118V644.733C1053.07 637.701 1047.36 632 1040.32 632Z" fill="#969696"/>
<path d="M800.911 820H770.743C763.705 820 758 825.701 758 832.733V863.118C758 870.151 763.705 875.851 770.743 875.851H800.911C807.949 875.851 813.654 870.151 813.654 863.118V832.733C813.654 825.701 807.949 820 800.911 820Z" fill="#969696"/>
<path d="M959.911 820H929.743C922.705 820 917 825.701 917 832.733V863.118C917 870.151 922.705 875.851 929.743 875.851H959.911C966.949 875.851 972.654 870.151 972.654 863.118V832.733C972.654 825.701 966.949 820 959.911 820Z" fill="#969696"/>
</g>
<defs>
<clipPath id="clip0">
<rect width="1117" height="1117" fill="white" transform="translate(0 -31)"/>
</clipPath>
</defs>
</svg>
