<svg width="1117" height="1378" viewBox="0 0 1117 1378" fill="none" xmlns="http://www.w3.org/2000/svg">
<g clip-path="url(#clip0)">
<path d="M1117 1117H0V0H1117V1117Z" fill="#DFDFDF"/>
<path d="M709.298 529.347L703.57 522.197L698.133 499.793V333.396L514.241 338.23V535.914H552.99V759.869V956.403L700.022 979.972V548.81L713.329 539.051L709.298 529.347Z" fill="#F1DFC7"/>
<path d="M237.131 290.31L237.746 277.152L227.037 272.537L221.042 276.524L218.976 284.577L174.654 269.369V232.204L155.975 209.496L110.33 166.555L87.459 198.617L170.1 301.452C170.1 301.452 240.373 396.682 242.343 399.965C244.314 403.249 281.749 499.792 281.749 499.792L344.141 500.449L344.689 319.294L237.131 290.31Z" fill="#F1DFC7"/>
<path d="M910.78 627.443V760.333L973.178 758.801L975.441 627.005L910.78 627.443Z" fill="#F1DFC7"/>
<path d="M698.79 431.49L975.285 517.525L972.001 535.257L910.266 536.571L910.923 514.241L841.963 511.614V496.509L740.166 498.479L739.509 447.909L698.79 447.252V431.49Z" fill="#F1DFC7"/>
<path d="M698.79 394.055L740.166 393.398V417.698L801.901 434.117V445.938L841.306 446.595L841.963 462.357L910.266 464.328L909.609 446.595L973.971 447.252L972.001 525.406L749.36 455.79L739.509 447.909L698.79 431.49V394.055Z" fill="#F1DFC7"/>
<path d="M699.281 930.995L842.607 954.792L840.985 1004.55L700.022 979.972L699.281 930.995Z" fill="#F1DFC7"/>
<path d="M553.251 907.196L474.287 895.84L474.828 858.52L412.089 857.979L411.548 809.303L354.217 809.844L348.809 756.839H303.377C303.377 756.839 295.265 786.587 295.805 788.209C296.346 789.832 348.809 927.208 350.431 927.75C352.053 928.29 560.824 972.639 560.824 972.639L564.069 922.881L553.251 907.196Z" fill="#F1DFC7"/>
<path d="M430.833 98.5137L433.46 265.33L472.865 264.017V99.8272L430.833 98.5137Z" fill="#F1DFC7"/>
<path d="M272.331 938.73L236.383 961.606L238.834 1016.35L275.599 1031.05L333.607 1031.87L335.242 944.449L272.331 938.73Z" fill="#F1DFC7"/>
<path d="M292.938 582.047L437.708 583.022L472.318 583.509V717.07L294.399 716.583L292.938 582.047Z" fill="#F1DFC7"/>
<path d="M469.071 252.731L468.326 253.725C469.847 253.095 471.56 252.731 473.379 252.731C478.842 252.731 483.393 255.936 484.42 260.186L961.056 221.273C961.056 217.334 964.04 213.977 968.246 212.632L972.318 207.735L974.306 -6.10352e-05H473.379V244.327L469.071 252.731Z" fill="#CBE6A3"/>
<path d="M116.028 544.12C137.668 535.297 166.816 535.038 166.816 535.038C166.816 535.038 153.244 587.579 159.831 630.864C166.42 674.15 191.336 758.556 191.336 758.556C191.336 758.556 144.906 755.643 145.581 758.556C149.914 777.225 149.112 803.857 152.746 820.699C156.248 836.934 161.724 848.416 164.409 862.542C109.679 923.62 130.734 951.196 131.501 954.518C134.956 969.486 168.567 976.38 168.567 976.38L170.238 1075.33L275.192 1074.45L275.356 1031.87C275.356 1031.87 273.543 1013.45 269.846 1004.78C266.147 996.12 248.911 969.91 248.911 969.91L270.123 946.436C270.123 946.436 290.229 965.892 300.811 973.952C311.392 982.013 335.143 995.967 335.143 995.967L384.622 1017.59L428.511 1030.06L473.379 1038.19L473.383 1009.44C473.383 1009.44 409.038 982.463 397.435 978.223C385.833 973.986 258.192 846.398 258.192 846.398L226.852 750.414L226.239 612.432C226.239 612.432 227.618 535.504 226.239 535.504C224.859 535.504 206.523 456.133 206.523 456.133L146.542 369.642L104.209 336.944L0 200.4V681.186L77.8699 571.303C77.8699 571.303 94.3874 552.941 116.028 544.12Z" fill="#CBE6A3"/>
<path d="M842.549 1002.25L700.022 978.223L569.208 956.998L473.379 936.536C473.379 936.536 445.955 927.272 417.477 916.896C388.997 906.518 362.33 882.376 362.33 882.376C362.33 882.376 311.174 845.848 303.865 757.928C301.646 731.234 301.892 707.215 302.031 681.194V653.315C301.754 621.189 300.166 584.287 293.363 535.504C284.752 473.747 269.324 427.1 240.627 381.947C218.683 347.422 120.945 235.886 48.951 155.766L47.2865 157.622L3.50237 112.086L6.12529 108.461C4.01084 106.147 1.96976 103.916 0 101.766V134.405C41.3967 193.37 241.548 478.355 243.439 478.985C245.548 479.689 268.4 595.713 268.4 595.713L275.359 808.953L314.779 882.376L365.089 928.704L450.174 981.759L554.332 992.861L633.352 995.547L854.7 1030.06L1117 1075.19V1056.23L842.549 1002.25Z" fill="#CBE6A3"/>
<path d="M554.332 583.364H513.856V627.005H554.332V583.364Z" fill="#CBE6A3"/>
<path d="M910.779 627.442H740.499V681.194H910.779V627.442Z" fill="#CBE6A3"/>
<path d="M605.357 808.953H648.998V757.928H605.357V808.953Z" fill="#CBE6A3"/>
<path d="M910.779 393.478H842.549V447.167H910.779V393.478Z" fill="#CBE6A3"/>
<path d="M438.526 627.005H302.031V653.315C302.114 662.974 302.08 672.204 302.031 681.194H438.526V627.005Z" fill="#CBE6A3"/>
<path d="M302.031 653.315V681.194C302.08 672.204 302.114 662.974 302.031 653.315Z" fill="#CBE6A3"/>
<path d="M605.357 447.167H554.332V498.191H605.357V447.167Z" fill="#CBE6A3"/>
<path d="M700.022 1040.96L637.465 1010.09L555.546 1023.68L473.383 1016.66L473.379 1038.19L558.5 1054.33L740.499 1086.63L902.559 1117H1014.69L771.033 1070.56L700.022 1040.96Z" fill="#CBE6A3"/>
<path d="M972.318 230.551C978.539 230.551 983.58 226.397 983.58 221.273C983.58 216.149 978.539 211.996 972.318 211.996C970.879 211.996 969.511 212.226 968.246 212.632L961.056 221.273C961.056 226.397 966.098 230.551 972.318 230.551Z" fill="#CBE6A3"/>
<path d="M961.056 221.273L968.246 212.632C964.04 213.977 961.056 217.334 961.056 221.273Z" fill="#CBE6A3"/>
<path d="M462.116 262.008L468.326 253.725C464.647 255.251 462.116 258.383 462.116 262.008Z" fill="#CBE6A3"/>
<path d="M473.379 271.285C479.599 271.285 484.641 267.132 484.641 262.008C484.641 261.384 484.564 260.776 484.421 260.186L462.116 262.008C462.116 267.132 467.158 271.285 473.379 271.285Z" fill="#CBE6A3"/>
<path d="M473.379 252.731C471.56 252.731 469.847 253.095 468.326 253.725L462.116 262.008L484.421 260.186C483.393 255.936 478.842 252.731 473.379 252.731Z" fill="#CBE6A3"/>
<path d="M1030.23 303.422L1010.09 302.984L1009.22 337.136L1030.47 337.548L1030.23 303.422Z" fill="#CBE6A3"/>
<path d="M1054.32 366.471V338.011L1030.47 337.548L1030.67 366.471H1054.32Z" fill="#CBE6A3"/>
<path d="M28.8973 81.438L18.3892 91.5087L6.12524 108.461C18.4158 121.919 33.0574 138.078 48.951 155.766L73.995 127.848L28.8973 81.438Z" fill="#CBE6A3"/>
<path d="M3.50244 112.086L47.2866 157.622L48.9511 155.766C33.0576 138.078 18.4159 121.919 6.12536 108.461L3.50244 112.086Z" fill="#CBE6A3"/>
<path d="M100.249 1063.71C94.316 1063.71 89.5063 1068.52 89.5063 1074.46C89.5063 1080.39 94.316 1085.2 100.249 1085.2C106.182 1085.2 110.992 1080.39 110.992 1074.46C110.992 1068.52 106.182 1063.71 100.249 1063.71Z" fill="#CBE6A3"/>
<path d="M648.876 583.201H740.822V497.385H648.876V583.201Z" fill="#DFDFDF"/>
<path d="M473.383 1004.78L473.253 1038.11L563.059 1054.95L562.854 1097.23L790.736 1095.91L898.007 1116.05L900.82 1117H980.61L983.497 1111.05L473.383 1004.78Z" fill="#DFDFDF"/>
<path d="M986.012 1035.93L984.688 1030.63L841.963 1003.53L841.909 1018.81L878.304 1049.94L1117 1096.43V1066.21L986.012 1035.93Z" fill="#DFDFDF"/>
<path d="M844.153 858.163L802.12 859.039V894.941H844.153V858.163Z" fill="#DFDFDF"/>
<path d="M1117 985.038L1058.04 987.106L1056.91 982.206L974.628 990.39L984.688 1030.63L1117 1055.76V985.038Z" fill="#DFDFDF"/>
<path d="M984.688 1030.63L986.012 1035.93L1117 1066.21V1055.76L984.688 1030.63Z" fill="#DFDFDF"/>
<path d="M1076.43 892.533H1062.63L1068.22 913.221H1074.46L1076.75 919.789H1070.51L1079.38 954.269L1117 953.181V868.869L1071.17 869.547L1076.43 892.533Z" fill="#DFDFDF"/>
<path d="M1117 953.596L1113.86 954.269L1050.81 955.582L1056.91 982.206L1117 976.229V953.596Z" fill="#DFDFDF"/>
<path d="M1117 985.038V976.229L1056.91 982.206L1058.04 987.106L1117 985.038Z" fill="#DFDFDF"/>
<path d="M972.658 633.114L1023.23 840.65L1117 840.081V561.957L973.315 516.868L972.658 633.114Z" fill="#DFDFDF"/>
<path d="M411.13 912.236L421.638 919.46C421.638 919.46 466.955 935.223 473.522 936.536C473.522 924.714 474.179 809.782 474.179 809.782L411.13 809.125V912.236Z" fill="#DFDFDF"/>
<path d="M438.057 626.547L439.371 680.401H474.179L472.865 628.517L438.057 626.547Z" fill="#DFDFDF"/>
<path d="M114.463 169.564L70.3496 214.496L107.053 255.99L155.975 209.496L114.463 169.564Z" fill="#DFDFDF"/>
<path d="M78.9751 435.185C67.8893 435.185 58.9009 445.195 58.9009 457.541C58.9009 469.888 67.8893 479.898 78.9751 479.898C90.0614 479.898 99.0498 469.888 99.0498 457.541C99.0498 445.195 90.0614 435.185 78.9751 435.185Z" fill="#DFDFDF"/>
<path d="M172.071 908.003C159.013 908.003 148.427 918.59 148.427 931.646C148.427 944.704 159.013 955.289 172.071 955.289C185.128 955.289 195.714 944.704 195.714 931.646C195.714 918.59 185.128 908.003 172.071 908.003Z" fill="#DFDFDF"/>
<path d="M556.049 386.617L554.823 393.969L577.227 393.444L586.679 396.768L605.232 403.245V393.093L580.553 393.793L556.049 386.617Z" fill="#DFDFDF"/>
<path d="M740.385 241.249L740.822 289.849L801.244 291.163L803.434 235.119L740.385 241.249Z" fill="#DFDFDF"/>
<path d="M1053 302.546L1030.67 303.859L1030.23 336.697L1030.24 337.102L1054.32 337.573L1053 302.546Z" fill="#DFDFDF"/>
<path d="M1030.24 337.102L1009.66 336.697L1008.78 366.908L1030.67 366.033L1030.24 337.102Z" fill="#DFDFDF"/>
<path d="M301.588 680.401V627.005H262.484V725.151H301.588V680.453L301.587 680.401H301.588Z" fill="#DFDFDF"/>
<path d="M473.379 272.537L465.86 267.957L463.139 261.924L467.611 254.677L473.973 251.26V208.243L432.178 198.04V348.764L473.379 363.406V272.537Z" fill="#DFDFDF"/>
<path d="M301.588 680.401V680.453L302.031 716.889L346.868 716.396L343.696 680.401H301.588Z" fill="#DFDFDF"/>
<path d="M301.587 680.402L301.588 680.453V680.402H301.587Z" fill="#DFDFDF"/>
<path d="M212.177 280.363L178.386 268.681L178.283 255.702H228.277V265.33L227.61 269.859L215.863 281.507L218.976 282.474L221.042 276.524L229.139 272.536V0H176.481L176.756 269.369L212.177 280.363Z" fill="#DFDFDF"/>
<path d="M215.766 281.604L215.863 281.507L212.177 280.363L215.766 281.604Z" fill="#DFDFDF"/>
<path d="M288.181 684.998C288.155 683.8 288.131 682.517 288.113 681.14H270.42V684.998H288.181Z" fill="#A2CDFE"/>
<path d="M288.083 676.707C288.081 675.482 288.087 674.196 288.101 672.848H270.42V676.707H288.083Z" fill="#A2CDFE"/>
<path d="M607.432 1046.57L621.444 1049.39L623.926 1038.17L610.053 1035.36L607.432 1046.57Z" fill="#A2CDFE"/>
<path d="M626.36 1050.37L640.335 1053.17L642.653 1041.95L628.757 1039.14L626.36 1050.37Z" fill="#A2CDFE"/>
<path d="M270.42 614.833H271.733V650.622C275.31 646.172 285.965 632.907 287.199 631.3C288.426 629.704 288.41 628.316 288.399 627.301L288.398 627.002C288.51 602.316 287.661 587.554 282.411 548.809C282.287 547.889 281.097 546.448 280.048 545.177C278.771 543.631 277.565 542.169 277.382 540.869C276.898 537.472 276.725 536.353 276.316 533.724L276.01 531.746C275.753 530.082 276.583 527.61 277.463 524.992C278.273 522.577 279.113 520.078 278.874 518.695C272.332 480.919 261.987 447.546 248.124 419.506C226.403 375.568 166.357 305.044 116.313 248.359L107.015 256.917L103.901 253.535L113.268 244.915L111.382 242.782L102.089 251.334L98.9754 247.952L108.332 239.342L106.441 237.213L97.1632 245.752L94.0498 242.37L103.388 233.777L101.495 231.65L92.2375 240.17L89.1241 236.787L98.4366 228.218L96.5407 226.094L87.3118 234.587L84.1984 231.205L93.4781 222.666L91.5818 220.542L82.3861 229.005L79.2727 225.622L88.515 217.117L86.6166 214.996L77.4605 223.422L74.347 220.04L83.5462 211.574L81.6452 209.456L72.5348 217.84L69.4214 214.458L78.5743 206.034C69.2217 195.626 59.9317 185.325 50.8263 175.231C32.7378 155.177 15.5185 136.085 0 118.571V208.203C28.6177 243.447 66.5823 290.203 111.048 344.967C169.847 417.385 189.446 456.629 198.425 519.931C198.673 521.687 199.994 523.417 201.393 525.247C202.375 526.532 203.389 527.86 204.027 529.235C205.242 531.855 205.313 534.49 205.388 537.279C205.418 538.401 205.449 539.559 205.562 540.712C205.714 542.254 204.613 543.892 203.55 545.477C202.599 546.894 201.614 548.361 201.711 549.492C204.539 582.512 205.628 622.797 207.009 673.798C207.575 694.759 208.218 718.518 209.051 744.261C209.101 745.791 212.193 749.3 213.513 750.799C214.462 751.874 214.561 751.987 214.572 752.293C214.702 756.034 214.879 759.786 215.099 763.446C215.188 764.919 213.811 766.2 212.481 767.44C211.435 768.413 210.25 769.516 210.312 770.34C224.259 953.647 350.441 999.988 458.812 1019.88C459.922 1020.07 461.209 1018.78 462.478 1017.52C463.966 1016.05 465.544 1014.51 467.236 1014.82C471.606 1015.58 475.935 1016.3 480.213 1017C481.783 1017.25 483.111 1019.17 484.518 1021.19C485.639 1022.81 486.908 1024.64 487.9 1024.79C494.358 1025.82 500.686 1026.78 506.849 1027.72C506.985 1027.74 507.294 1027.77 507.994 1027.77C514.857 1027.77 544.494 1025.39 556.012 1024.44L555.416 1024.32L555.546 1023.68L555.676 1023.03L560.716 1024.05L561.203 1024.01L561.232 1024.16L609.382 1033.89L610.352 1034.08L624.211 1036.88V1036.88L627.889 1037.63L642.918 1040.66V1040.66C655.518 1043.08 699.782 1052.14 648.015 1041.69L645.623 1054.23C649.11 1054.92 665.96 1058.29 673.066 1059.7C756.064 1076.2 876.854 1099.78 974.126 1117H1117V1088.26C1116.97 1088.25 1116.93 1088.24 1116.9 1088.24C1039.79 1076.46 886.755 1045.64 885.218 1045.33L884.953 1045.21C884.564 1044.91 845.817 1015.9 836.357 1013.92C743.56 994.496 679.429 982.358 645.746 977.84C578.866 968.866 528.427 960.25 487.013 950.723C486.06 950.511 484.874 951.741 483.723 952.935C482.492 954.212 481.221 955.534 479.798 955.534C479.621 955.534 479.443 955.513 479.271 955.472C475.299 954.52 471.377 953.549 467.615 952.586C466.144 952.21 464.911 950.18 463.605 948.031C462.573 946.328 461.4 944.399 460.496 944.159C397.995 927.47 358.537 907.635 332.556 879.846C308.487 854.105 295.459 820.318 290.314 770.295C290.229 769.474 288.933 768.472 287.788 767.587C286.334 766.464 284.832 765.301 284.707 763.867C284.402 760.385 284.124 756.734 283.878 753.021C283.78 751.532 285.054 750.1 286.286 748.713C287.352 747.513 288.454 746.271 288.402 745.29C288.093 739.513 287.844 733.32 287.66 726.886C287.602 724.823 281.477 721.276 278.187 719.37C277.141 718.765 276.237 718.242 275.658 717.856C271.899 715.347 271.674 715.197 271.664 712.914C271.659 711.748 271.597 710.577 271.536 709.399C271.473 708.188 271.409 706.936 271.405 705.689C271.395 701.816 271.928 700.805 274.004 700.771C281.167 700.651 285.113 700.586 286.831 699.531C288.386 698.577 288.369 696.592 288.33 692.246C288.322 691.39 288.305 690.452 288.282 689.431H270.42" fill="#A2CDFE"/>
<path d="M288.299 660.124C288.317 658.87 288.332 657.582 288.345 656.265H271.733V660.124H288.299Z" fill="#A2CDFE"/>
<path d="M288.169 668.415L288.235 664.557H270.42V668.415H288.169Z" fill="#A2CDFE"/>
<path d="M562.069 1028.24L550.135 1034.91L602.863 1045.62L605.576 1034.46L561.518 1025.55L562.069 1028.24Z" fill="#A2CDFE"/>
<path d="M624.068 1037.52L624.211 1036.88L610.352 1034.08L610.203 1034.72L624.068 1037.52Z" fill="#A2CDFE"/>
<path d="M610.053 1035.36L623.926 1038.17L624.068 1037.52L610.202 1034.72L610.053 1035.36Z" fill="#A2CDFE"/>
<path d="M628.894 1038.5L642.784 1041.31L642.918 1040.66L627.889 1037.63L629.032 1037.86L628.894 1038.5Z" fill="#A2CDFE"/>
<path d="M609.382 1033.89L561.232 1024.16L561.377 1024.86L605.731 1033.82L605.886 1033.18L609.382 1033.89Z" fill="#A2CDFE"/>
<path d="M671.058 1046.35L645.755 1041.24L648.015 1041.69L670.927 1046.99L671.058 1046.35Z" fill="#A2CDFE"/>
<path d="M628.757 1039.14L642.653 1041.95L642.784 1041.31L628.894 1038.5L628.757 1039.14Z" fill="#A2CDFE"/>
<path d="M561.519 1025.55L605.576 1034.46L605.731 1033.82L561.377 1024.86L561.519 1025.55Z" fill="#A2CDFE"/>
<path d="M560.716 1024.05L555.676 1023.03L555.546 1023.68L558.367 1024.25C559.743 1024.13 560.565 1024.07 560.623 1024.06L560.716 1024.05Z" fill="#A2CDFE"/>
<path d="M555.416 1024.32L556.012 1024.44C556.916 1024.37 557.707 1024.3 558.367 1024.25L555.546 1023.68L555.416 1024.32Z" fill="#A2CDFE"/>
<path d="M271.077 696.159H271.733V689.431H271.077V696.159Z" fill="#A2CDFE"/>
<path d="M271.733 660.124V656.265H271.077V660.124H271.733Z" fill="#A2CDFE"/>
<path d="M271.077 656.265H270.42V660.124H271.077V656.265Z" fill="#A2CDFE"/>
<path d="M271.077 614.833V651.439C271.255 651.218 271.475 650.944 271.733 650.622V614.833H271.077Z" fill="#A2CDFE"/>
<path d="M270.42 696.159H271.077V689.431H270.42V696.159Z" fill="#A2CDFE"/>
<path d="M270.42 614.833V652.258L270.564 652.078C270.582 652.058 270.768 651.824 271.077 651.439V614.833H270.42Z" fill="#A2CDFE"/>
<path d="M67.7932 440.598C71.3987 436.174 72.0412 429.136 69.3566 423.485C67.2837 419.123 63.7301 416.621 59.6058 416.621C56.0844 416.621 52.3066 418.365 48.3758 421.804C39.7184 429.379 34.6573 443.969 35.1667 459.88C35.6429 474.765 40.8144 487.403 49.0003 493.69C52.8556 496.649 56.6997 498.151 60.4247 498.151C65.7809 498.151 70.6342 494.791 72.7892 489.588C74.7134 484.943 73.9488 480.096 70.7938 476.943C60.2031 466.352 60.7131 449.288 67.7932 440.598Z" fill="#A2CDFE"/>
<path d="M513.072 243.67C516.636 243.67 520.981 242.253 526.358 239.336C532.136 236.202 537.718 234.804 544.455 234.804C548.454 234.804 552.594 235.287 556.978 235.798C562.203 236.406 568.124 237.097 574.97 237.097C579.452 237.097 583.834 236.811 588.371 236.219C599.293 234.793 605.364 230.986 605.025 225.767C604.696 220.714 598.407 216.111 591.831 216.111C590.735 216.111 589.651 216.24 588.61 216.492C573.822 220.077 567.481 221.424 554.385 222.467C550.989 222.737 547.124 223.471 543.385 224.18C538.573 225.094 533.597 226.039 529.44 226.039C523.366 226.039 519.834 223.944 518.644 219.633C517.459 215.348 516.223 211.764 515.133 208.601C512.221 200.156 510.297 194.576 513.24 186.727C516.985 176.741 514.83 157.35 510.766 143.357C508.939 137.069 512.819 130.671 516.242 125.027C518.986 120.502 521.577 116.228 520.379 113.184C519.632 111.284 517.44 109.843 513.676 108.779C512.239 108.372 510.9 108.165 509.692 108.165C503.105 108.165 499.437 114.433 498.478 127.328C497.548 139.824 497.716 145.314 498.051 156.254C498.185 160.615 498.352 166.043 498.479 173.107C498.662 183.237 497.847 192.685 497.127 201.02C496.12 212.712 495.324 221.947 497.729 227.411C502.054 237.233 505.458 243.67 513.072 243.67Z" fill="#A2CDFE"/>
<path d="M860.234 211.406C860.66 211.406 861.117 211.385 861.608 211.342C862.697 211.246 863.966 211.138 865.38 211.019C881.014 209.703 917.624 206.619 920.253 199.411C920.616 198.412 920.205 197.341 918.997 196.137C912.248 189.413 909.218 187.319 903.411 187.319C900.094 187.319 895.946 188.001 889.666 189.032C888.215 189.27 886.656 189.526 884.976 189.795C868.892 192.368 855.81 204.416 856.194 209.24C856.308 210.677 857.668 211.406 860.234 211.406Z" fill="#A2CDFE"/>
<path d="M218.38 255.673L218.053 -9.15527e-05H216.739L217.066 255.674L218.38 255.673Z" fill="black"/>
<path d="M213.127 255.682L212.799 -6.10352e-05H211.485L211.813 255.684L213.127 255.682Z" fill="black"/>
<path d="M207.873 255.692L207.544 4.57764e-05H206.231L206.559 255.693L207.873 255.692Z" fill="black"/>
<path d="M202.62 255.702L202.292 0H200.978L201.307 255.703L202.62 255.702Z" fill="black"/>
<path d="M195.736 75.8385C195.741 79.2785 194.427 82.7317 193.155 86.072C191.856 89.4832 190.512 93.0113 190.518 96.6143L190.56 120.296C190.562 123.732 189.25 127.181 187.98 130.515C186.681 133.929 185.337 137.458 185.342 141.062L185.543 255.732L186.857 255.73L186.656 141.06C186.651 137.698 187.892 134.437 189.208 130.982C189.68 129.745 190.154 128.492 190.571 127.223L190.799 255.722L192.112 255.719L191.873 120.294C191.873 120.29 191.873 120.286 191.873 120.283L191.831 96.6117C191.826 93.2517 193.067 89.9903 194.382 86.5383C194.885 85.2196 195.392 83.8824 195.829 82.5281L196.051 255.714L197.365 255.712L197.037 -4.57764e-05H195.723L195.822 75.8385H195.736Z" fill="black"/>
<path d="M850.401 1003.64L974.061 992.313L982.761 1028.27C940.668 1020.32 895.577 1011.92 850.401 1003.64ZM844.65 956.49H918.926L927.611 992.346L844.65 999.946V956.49ZM840.449 714.296H804.172V683.294H840.449V714.296ZM840.449 806.853H804.172V718.498H840.449V806.853ZM840.449 857.08H804.172V811.055H840.449V857.08ZM840.449 892.204H804.172V861.282H840.449V892.204ZM840.449 919.376H804.172V896.406H840.449V919.376ZM840.449 951.919L804.172 946.014V923.578H840.449V951.919ZM840.449 1001.82C828.327 999.607 816.217 997.405 804.172 995.228V950.272L840.449 956.176V1001.82ZM799.97 714.296H742.601V683.294H799.97V714.296ZM799.97 806.853H742.601V718.498H799.97V806.853ZM799.97 857.08H742.601V811.055H799.97V857.08ZM799.97 892.204H742.601V861.282H799.97V892.204ZM799.97 945.33L742.601 935.994V896.406H799.97V945.33ZM799.97 994.467C780.581 990.965 761.378 987.527 742.601 984.202V940.251L799.97 949.588V994.467ZM742.601 629.105H908.678V679.092H742.601V629.105ZM742.601 585.465H799.97V624.903H742.601V585.465ZM742.601 500.293H799.97V581.262H742.601V500.293ZM742.601 449.268H749.247L799.97 465.012V496.09H742.601V449.268ZM799.97 449.268V460.61L763.428 449.268H799.97ZM742.601 395.58H799.97V445.065H749.884L742.601 442.803V395.58ZM742.601 292.827H799.97V391.375H742.601V292.827ZM804.172 585.465H840.449V624.903H804.172V585.465ZM804.172 500.293H840.449V581.262H804.172V500.293ZM804.172 466.318L840.449 477.577V496.09H804.172V466.318ZM804.172 449.268H840.449V473.175L804.172 461.916V449.268ZM804.172 395.58H840.449V445.065H804.172V395.58ZM804.172 292.827H840.449V391.375H804.172V292.827ZM844.65 585.465H908.678V624.903H844.65V585.465ZM844.65 500.293H908.678V581.262H844.65V500.293ZM844.65 478.881L900.09 496.09H844.65V478.881ZM844.65 449.268H908.678V494.353L844.65 474.48V449.268ZM844.65 395.58H908.678V445.065H844.65V395.58ZM844.65 292.827H908.678V391.375H844.65V292.827ZM910.779 811.055H930.204L936.899 838.725H894.722L888.019 811.055H910.779ZM912.88 718.498H991.597L1020.38 838.725H982.648L977.717 818.313C977.444 817.186 976.309 816.491 975.18 816.763C974.053 817.036 973.358 818.173 973.63 819.301L978.323 838.725H941.221L934.528 811.055H963.101C964.26 811.055 965.201 810.114 965.201 808.953C965.201 807.792 964.26 806.853 963.101 806.853H931.796C931.79 806.853 931.785 806.853 931.78 806.853H912.88V718.498ZM1027.31 867.683H989.645L983.664 842.927H1021.38L1027.31 867.683ZM1047.56 952.288H1010.09L990.661 871.885H1028.31L1047.56 952.288ZM1054.37 980.733L1017.77 984.087L1011.1 956.49H1048.56L1054.37 980.733ZM965.394 956.49L973.062 988.182L931.842 991.958L923.25 956.49H965.394ZM915.276 923.578H957.429L964.376 952.288H922.231L915.276 923.578ZM910.951 923.578L917.906 952.288H844.65V923.578H910.951ZM904.371 896.406L909.935 919.376H844.65V896.406H904.371ZM898.43 871.885L903.351 892.204H844.65V871.885H898.43ZM943.905 867.683H901.737L895.74 842.927H937.915L943.905 867.683ZM948.228 867.683L942.239 842.927H979.338L985.32 867.683H948.228ZM954.162 892.204L949.246 871.885H986.335L991.244 892.204H954.162ZM907.676 892.204L902.754 871.885H944.923L949.838 892.204H907.676ZM950.855 896.406L956.414 919.376H914.259L908.695 896.406H950.855ZM998.826 923.578L1005.76 952.288H968.699L961.753 923.578H998.826ZM960.736 919.376L955.177 896.406H992.261L997.809 919.376H960.736ZM891.414 842.927L897.413 867.683H844.65V842.927H891.414ZM883.695 811.055L890.398 838.725H844.65V811.055H883.695ZM844.65 714.296V683.294H908.678V714.296H844.65ZM908.678 718.498V806.853H885.288C885.281 806.853 885.277 806.853 885.271 806.853H844.65V718.498H908.678ZM977.291 987.795L969.717 956.49H1006.78L1013.54 984.474L977.291 987.795ZM738.398 391.375H651.099V292.827H738.398V391.375ZM738.398 441.5L651.099 414.402V395.58H738.398V441.5ZM738.398 496.09H651.099V449.268H738.398V496.09ZM738.398 581.262H651.099V500.293H738.398V581.262ZM738.398 624.903H651.099V585.465H738.398V624.903ZM738.398 679.092H651.099V629.105H738.398V679.092ZM738.398 714.296H651.099V683.294H738.398V714.296ZM738.398 806.853H651.099V718.498H738.398V806.853ZM738.398 857.08H651.099V811.055H738.398V857.08ZM738.398 892.204H700.022C698.862 892.204 697.922 893.144 697.922 894.305C697.922 895.465 698.862 896.406 700.022 896.406H738.398V935.309L651.099 921.101V861.282H738.398V892.204ZM738.398 983.459C707.769 978.043 678.327 972.936 651.099 968.344V925.358L738.398 939.568V983.459ZM651.099 418.804L735.705 445.065H651.099V418.804ZM646.897 391.375H607.459V292.827H646.897V391.375ZM646.897 413.098L607.459 400.856V395.58H646.897V413.098ZM646.897 445.065H607.459V405.258L646.897 417.499V445.065ZM646.897 496.09H607.459V449.268H646.897V496.09ZM646.897 581.262H607.459V500.293H646.897V581.262ZM646.897 624.903H607.459V585.465H646.897V624.903ZM646.897 679.092H607.459V629.105H646.897V679.092ZM646.897 714.296H607.459V683.294H646.897V714.296ZM646.897 806.853H607.459V718.498H646.897V806.853ZM646.897 857.08H607.459V811.055H646.897V857.08ZM646.897 920.418L607.459 913.999V861.282H646.897V920.418ZM646.897 967.636C633.112 965.318 619.921 963.139 607.459 961.122V918.256L646.897 924.675V967.636ZM603.257 391.375H576.914L556.435 385.019V292.827H603.257V391.375ZM603.257 399.553L590.455 395.58H603.257V399.553ZM603.257 445.065H556.435V422.789L603.257 405.791V445.065ZM603.257 496.09H556.435V449.268H603.257V496.09ZM603.257 581.262H556.435V500.293H603.257V581.262ZM603.257 624.903H556.435V585.465H603.257V624.903ZM603.257 679.092H556.435V629.105H603.257V679.092ZM603.257 714.296H556.435V683.294H603.257V714.296ZM603.257 806.853H556.435V718.498H603.257V806.853ZM603.257 857.08H556.435V811.055H603.257V857.08ZM603.257 913.313L556.435 905.695V861.282H603.257V913.313ZM603.257 960.443C600.832 960.053 598.43 959.668 596.064 959.291C582.314 957.1 569.122 954.889 556.435 952.614V909.952L603.257 917.573V960.443ZM556.435 395.58H576.277L599.344 402.74L556.435 418.318V395.58ZM556.435 389.42L562.735 391.375H556.435V389.42ZM552.231 383.715L515.958 372.455V292.827H552.231V383.715ZM552.231 391.375H515.958V376.857L552.231 388.116V391.375ZM552.231 419.844L515.958 433.013V395.58H552.231V419.844ZM552.231 445.065H515.958V437.485L552.231 424.315V445.065ZM552.231 496.09H515.958V449.268H552.231V496.09ZM552.231 581.262H515.958V500.293H552.231V581.262ZM552.231 624.903H515.958V585.465H552.231V624.903ZM552.231 679.092H515.958V629.105H552.231V679.092ZM552.231 714.296H515.958V683.294H552.231V714.296ZM552.231 806.853H515.958V718.498H552.231V806.853ZM552.231 857.08H515.958V811.055H552.231V857.08ZM552.231 905.009L515.958 899.106V861.282H552.231V905.009ZM552.231 951.857C539.613 949.56 527.535 947.187 515.958 944.702V903.363L552.231 909.268V951.857ZM511.753 391.375H473.379C473.296 391.375 473.215 391.38 473.132 391.391L434.281 395.991V351.503L511.753 375.551V391.375ZM511.753 434.538L482.761 445.065H434.281V400.223L473.504 395.58H511.753V434.538ZM511.753 445.065H495.078L511.753 439.011V445.065ZM511.753 496.09H436.561L435.195 466.805L483.5 449.268H511.753V496.09ZM511.753 581.262H440.532L436.757 500.293H511.753V581.262ZM511.753 624.903H440.626L440.625 585.465H511.753V624.903ZM511.753 679.092H440.626V629.105H511.753V679.092ZM511.753 714.296H440.626V683.294H511.753V714.296ZM511.753 806.853H440.628L440.626 718.498H511.753V806.853ZM511.753 857.08H413.456V811.055H511.753V857.08ZM511.753 898.421L473.716 892.231C472.574 892.038 471.49 892.822 471.305 893.968C471.118 895.113 471.896 896.193 473.041 896.379L511.753 902.68V943.795C473.421 935.382 440.826 925.597 413.456 912.734V861.282H511.753V898.421ZM409.253 831.967H326.355C323.068 825.347 320.15 818.384 317.592 811.055H355.009C355.013 811.055 355.018 811.056 355.022 811.056C355.031 811.056 355.04 811.055 355.05 811.055H409.253V831.967ZM409.253 859.181V880.274H363.119C348.958 867.612 337.479 853.036 328.506 836.169H409.253V859.181ZM409.253 910.708C397.547 904.955 386.814 898.608 377.05 891.504C373.929 889.232 370.918 886.889 368.007 884.476H409.253V910.708ZM303.57 718.498H344.943L352.73 806.853H316.162C308.051 781.836 303.972 752.651 303.57 718.498ZM303.553 707.191C303.645 699.037 303.691 691.076 303.69 683.294H341.841L344.573 714.296H303.532C303.526 711.947 303.527 709.587 303.553 707.191ZM337.065 629.105L341.471 679.092H303.678C303.639 661.529 303.367 644.877 302.835 629.105H337.065ZM300.556 585.465H333.219L336.695 624.903H302.678C302.17 611.117 301.465 597.988 300.556 585.465ZM289.489 500.293H366.161V581.262H300.247C297.917 550.981 294.363 524.27 289.489 500.293ZM275.792 449.268H340.485V496.09H288.613C285.027 479.216 280.765 463.708 275.792 449.268ZM270.018 433.724C264.995 421.221 259.384 409.541 253.194 398.359L304.793 384.689L312.396 445.065H274.324C272.939 441.212 271.507 437.431 270.018 433.724ZM224.614 354.703L298.886 337.786L304.264 380.481L251.067 394.575C243.172 380.751 234.36 367.657 224.614 354.703ZM198.769 322.796L275.016 302.069L295.177 308.327L298.36 333.596L221.822 351.028C214.631 341.654 206.948 332.318 198.769 322.796ZM340.485 375.232V445.065H316.632L308.893 383.602L340.485 375.232ZM308.362 379.394L299.586 309.695L340.485 322.39V370.883L308.362 379.394ZM295.465 212.692H340.485V317.989L299.01 305.115L295.465 276.965V212.692ZM295.465 178.269H340.485V208.489H295.465V178.269ZM295.465 143.163H340.485V174.066H295.465V143.163ZM295.465 101.414H340.485V138.959H295.465V101.414ZM295.465 45.4478H340.485V97.2108H295.465V45.4478ZM344.689 449.268H430.173L430.855 463.91L344.689 495.193V449.268ZM344.689 410.695C344.82 410.722 344.945 410.769 345.081 410.769C345.164 410.769 345.248 410.765 345.331 410.755L373.076 407.469V445.065H344.689V410.695ZM344.689 374.118L373.076 366.598V403.237L344.837 406.58C344.786 406.587 344.74 406.604 344.689 406.613V374.118ZM344.689 323.696L373.076 332.507V362.249L344.689 369.77V323.696ZM344.689 178.843L373.076 185.774V328.106L344.689 319.294V178.843ZM344.689 143.163H373.076V181.448L344.689 174.516V143.163ZM344.689 101.414H373.076V138.959H344.689V101.414ZM344.689 45.4478H373.076V97.2108H344.689V45.4478ZM377.28 406.972L430.079 400.721V445.065H377.28V406.972ZM377.28 365.484L430.079 351.495V396.488L377.28 402.74V365.484ZM377.28 333.811L424.771 348.552L377.28 361.135V333.811ZM377.28 186.8L430.078 199.69L430.079 345.799L377.28 329.41V186.8ZM377.28 143.163H430.078V195.363L377.28 182.474V143.163ZM377.28 101.414H430.078V138.959H377.28V101.414ZM377.28 45.4478H401.804V96.613C401.804 96.8219 401.844 97.0203 401.901 97.2108H377.28V45.4478ZM406.007 96.613V45.4478H430.078V97.2108H405.91C405.968 97.0203 406.007 96.8219 406.007 96.613ZM432.355 496.09H354.535L431.06 468.306L432.355 496.09ZM340.914 624.903L337.438 585.465H391.115V624.903H340.914ZM345.69 679.092L341.284 629.105H391.115V679.092H345.69ZM391.115 718.498V806.853H356.949L349.162 718.498H391.115ZM348.792 714.296L346.06 683.294H391.115V714.296H348.792ZM395.318 624.903V585.465H436.425V624.903H395.318ZM395.318 679.092V629.105H436.425V679.092H395.318ZM436.425 718.498V806.853H395.318V718.498H436.425ZM395.318 714.296V683.294H436.425V714.296H395.318ZM434.378 449.268H471.183L434.991 462.409L434.378 449.268ZM436.326 581.262H370.364V500.293H432.552L436.326 581.262ZM174.654 58.173L156.059 39.1941L174.654 18.2423V58.173ZM174.654 114.181L129.976 68.5826L153.262 42.3466L174.654 64.1797V114.181ZM174.654 170.19L142.179 137.046L165.481 110.827L174.654 120.188V170.19ZM174.654 226.198L116.078 166.415L139.38 140.195L174.654 176.196V226.198ZM174.654 269.369V295.565C168.467 288.728 162.051 281.71 155.397 274.433C146.404 264.598 137.153 254.478 127.443 243.693L155.251 212.402L174.654 232.205V269.369ZM120.892 236.395C110.006 224.22 98.6743 211.398 87.4591 198.617L113.279 169.564L152.303 209.393L124.615 240.548C123.38 239.173 122.142 237.794 120.892 236.395ZM51.3492 157.178L75.0155 130.511L110.33 166.555L84.6663 195.431C73.1843 182.33 61.8763 169.333 51.3492 157.178ZM8.29105 107.151L29.1508 83.7012L72.0663 127.502L48.5744 153.972C32.3135 135.18 18.1101 118.63 8.29105 107.151ZM55.2646 54.3455L98.1489 98.113L74.8631 124.351L31.9518 80.554L55.2646 54.3455ZM81.3779 24.9884L124.23 68.7245L100.946 94.962L58.0646 51.197L81.3779 24.9884ZM136.432 137.186L113.129 163.405L77.8124 127.36L101.097 101.122L136.432 137.186ZM127.179 71.7338L162.533 107.817L139.231 134.036L103.894 97.9713L127.179 71.7338ZM291.261 120.059H263.353V45.4478H291.261V120.059ZM291.261 174.698L231.24 196.589V124.263H291.261V174.698ZM291.261 209.121L231.24 231.013V200.62C231.658 200.745 232.115 200.746 232.555 200.583L291.261 179.17V209.121ZM231.24 45.4478H259.149V120.059H231.24V45.4478ZM912.88 449.268H973.341C974.501 449.268 975.441 448.328 975.441 447.167C975.441 446.005 974.501 445.065 973.341 445.065H912.88V395.58H1007.55V470.577H973.341C972.18 470.577 971.239 471.518 971.239 472.679C971.239 473.84 972.18 474.781 973.341 474.781H1007.55V525.045L927.813 500.293H973.341C974.501 500.293 975.441 499.352 975.441 498.191C975.441 497.03 974.501 496.09 973.341 496.09H914.271L912.88 495.658V449.268ZM1011.76 440.816H1028.95V531.687L1011.76 526.348V440.816ZM1011.76 395.58H1028.95V436.612H1011.76V395.58ZM1011.76 368.135H1028.95V391.375H1011.76V368.135ZM1011.76 305.086H1028.95V363.932H1011.76V305.086ZM1011.76 279.198H1028.95V300.883H1011.76V279.198ZM1033.16 395.58H1051.89V538.806L1033.16 532.992V395.58ZM1033.16 368.135H1051.89V391.375H1033.16V368.135ZM1033.16 305.086H1051.89V363.932H1033.16V305.086ZM1033.16 279.198H1051.89V300.883H1033.16V279.198ZM1056.1 474.781H1080.88V547.805L1056.1 540.111V474.781ZM1056.1 414.545H1080.88V470.577H1056.1V414.545ZM1056.1 395.58H1080.88V410.342H1056.1V395.58ZM1056.1 368.135H1080.88V391.375H1056.1V368.135ZM1056.1 292.827H1080.88V363.932H1056.1V292.827ZM1056.1 254.833H1080.88V288.623H1056.1V254.833ZM987.293 1029.13L978.29 991.926L1117 979.217V974.996L1058.6 980.347L1052.88 956.49H1117V952.288H1051.88L1032.63 871.885H1117V867.683H1031.63L1025.7 842.927H1117V838.725H1024.7L975.383 632.707C975.114 631.579 973.983 630.879 972.851 631.153C971.723 631.422 971.026 632.556 971.297 633.686L990.591 714.296H912.88V683.294H973.341C974.501 683.294 975.441 682.354 975.441 681.194C975.441 680.033 974.501 679.092 973.341 679.092H912.88V629.105H973.341C974.501 629.105 975.441 628.165 975.441 627.005C975.441 625.844 974.501 624.903 973.341 624.903H912.88V585.465H973.341C974.501 585.465 975.441 584.525 975.441 583.363C975.441 582.202 974.501 581.262 973.341 581.262H912.88V500.293H913.632L1117 563.416V559.015L1085.09 549.11V395.58H1117V391.375H1085.09V292.827H1117V288.623H1085.09V254.833H1117V250.629H1085.09V211.996C1085.09 210.835 1084.15 209.895 1082.99 209.895C1081.82 209.895 1080.88 210.835 1080.88 211.996V250.629H1056.1V214.234C1056.1 213.073 1055.16 212.133 1054 212.133C1052.83 212.133 1051.89 213.073 1051.89 214.234V274.995H1033.16V217.472C1033.16 216.312 1032.22 215.371 1031.06 215.371C1029.9 215.371 1028.95 216.312 1028.95 217.472V274.995H1011.76V217.472C1011.76 216.312 1010.82 215.371 1009.66 215.371C1008.49 215.371 1007.55 216.312 1007.55 217.472V300.883H973.341C972.18 300.883 971.239 301.823 971.239 302.985C971.239 304.146 972.18 305.086 973.341 305.086H1007.55V391.375H912.88V292.827H973.341C974.501 292.827 975.441 291.885 975.441 290.724C975.441 289.564 974.501 288.623 973.341 288.623H912.88V225.619C912.88 224.457 911.939 223.517 910.779 223.517C909.618 223.517 908.678 224.457 908.678 225.619V288.623H844.65V231.347C844.65 230.186 843.71 229.245 842.549 229.245C841.389 229.245 840.449 230.186 840.449 231.347V288.623H804.172V234.745C804.172 233.584 803.233 232.643 802.072 232.643C800.91 232.643 799.97 233.584 799.97 234.745V288.623H742.601V239.914C742.601 238.752 741.66 237.812 740.499 237.812C739.338 237.812 738.398 238.752 738.398 239.914V288.623H700.022H651.099V247.595C651.099 246.434 650.16 245.493 648.999 245.493C647.837 245.493 646.897 246.434 646.897 247.595V288.623H607.459V251.26C607.459 250.099 606.518 249.158 605.357 249.158C604.196 249.158 603.257 250.099 603.257 251.26V288.623H556.435V255.543C556.435 254.382 555.493 253.441 554.332 253.441C553.172 253.441 552.231 254.382 552.231 255.543V288.623H515.958V258.941C515.958 257.78 515.016 256.84 513.856 256.84C512.695 256.84 511.753 257.78 511.753 258.941V288.623H473.973C472.811 288.623 471.871 289.564 471.871 290.724C471.871 291.885 472.811 292.827 473.973 292.827H511.753V371.151L434.281 347.103V200.717L473.473 210.285C473.642 210.327 473.808 210.346 473.974 210.346C474.92 210.346 475.78 209.701 476.014 208.741C476.29 207.614 475.599 206.477 474.47 206.202L434.281 196.39V143.163H473.379C474.539 143.163 475.481 142.222 475.481 141.061C475.481 139.9 474.539 138.959 473.379 138.959H434.281V101.414H473.973C475.134 101.414 476.074 100.474 476.074 99.3124C476.074 98.1512 475.134 97.2108 473.973 97.2108H434.281V45.4478H473.379C474.539 45.4478 475.481 44.5073 475.481 43.3461C475.481 42.1849 474.539 41.2445 473.379 41.2445H434.281V0H430.078V41.2445H377.28V0H373.076V41.2445H344.689V0H340.485V41.2445H295.465V0H291.261V41.2445H263.353V0H259.149V41.2445H231.24V0H227.037V272.537C227.037 273.698 227.978 274.639 229.139 274.639C230.3 274.639 231.24 273.698 231.24 272.537V235.044C231.432 235.101 231.632 235.135 231.835 235.135C232.074 235.135 232.317 235.094 232.555 235.008L291.261 213.595V277.097C291.261 277.185 291.267 277.273 291.277 277.359L294.6 303.748L238.377 286.295C237.272 285.951 236.091 286.571 235.747 287.68C235.403 288.788 236.023 289.965 237.131 290.31L267.534 299.747L195.726 319.268C190.314 313.03 184.695 306.703 178.857 300.22V272.222L218.353 284.481C218.561 284.545 218.77 284.577 218.976 284.577C219.873 284.577 220.703 283.998 220.983 283.097C221.327 281.989 220.707 280.811 219.599 280.467L178.857 267.82V0H174.654V2.16479L172.533 0H166.648L174.654 8.17017V11.9097L153.11 36.1848L117.657 0H111.771L150.313 39.336L127.027 65.5734L84.1778 21.84L103.606 0H97.9801L81.2296 18.8307L62.7788 0H56.8946L78.4292 21.9791L55.1163 48.1877L25.5145 17.9756L41.505 0H35.88L22.5663 14.9663L7.90213 0H2.01748L19.7663 18.1147L0 40.3354V46.6601L22.7146 21.124L52.3164 51.3362L29.0025 77.5447L0 47.9434V53.9488L26.202 80.692L5.53369 103.928C3.41872 101.453 1.5675 99.2847 0 97.4471V103.92C20.6601 128.111 72.9816 189.116 117.758 239.196C129.915 252.793 141.292 265.236 152.294 277.269C178.264 305.671 200.505 329.998 219.249 354.442C219.29 354.509 219.341 354.562 219.389 354.623C230.061 368.553 239.597 382.526 248.038 397.312C248.049 397.388 248.055 397.464 248.074 397.541C248.191 397.985 248.45 398.35 248.78 398.619C257.227 413.581 264.562 429.396 270.824 446.859C270.81 446.96 270.794 447.06 270.794 447.167C270.794 447.781 271.062 448.329 271.483 448.714C284.024 484.34 292.177 526.851 296.293 582.864C296.254 583.025 296.228 583.19 296.228 583.363C296.228 583.649 296.286 583.918 296.388 584.165C297.353 597.566 298.092 611.735 298.605 626.765C298.595 626.845 298.58 626.922 298.58 627.005C298.58 627.156 298.599 627.303 298.629 627.446C299.192 644.234 299.476 662.101 299.489 681.155C299.489 681.168 299.485 681.181 299.485 681.194C299.485 681.206 299.489 681.219 299.489 681.232C299.496 689.636 299.45 698.266 299.35 707.144C298.826 753.822 304.797 791.587 317.605 822.594C319.342 826.798 321.221 830.868 323.217 834.833C323.273 834.976 323.34 835.112 323.424 835.238C335.503 859.094 352.323 878.714 374.576 894.903C408.834 919.826 454.393 935.64 513.026 948.366C513.26 948.467 513.516 948.521 513.785 948.53C526.492 951.278 539.811 953.882 553.763 956.403C553.888 956.437 554.016 956.459 554.148 956.473C567.339 958.85 581.071 961.159 595.402 963.442C737.191 986.036 986.919 1032.78 1117 1058.35V1054.08C1081.15 1047.03 1036.36 1038.41 987.293 1029.13Z" fill="white"/>
<path d="M717.087 134.248L722.821 181.752L670.833 187.306L656.459 172.873C672.164 155.758 693.33 142.239 717.087 134.248ZM762.572 126.237L764.277 148.396L723.591 153.043L721.163 132.942C734.393 128.894 748.354 126.551 762.572 126.237ZM766.486 177.087L727.003 181.306L724.095 157.217L764.601 152.59L766.486 177.087ZM853.731 156.086L840.483 169.193C840.459 169.195 840.438 169.187 840.415 169.19L770.668 176.64L766.786 126.197C796.302 126.384 826.699 135.405 853.731 156.086ZM804.742 204.208L773.044 207.513L770.991 180.833L834.945 174.001L804.742 204.208ZM730.699 211.929L727.505 185.479L766.808 181.28L768.862 207.949L730.699 211.929ZM698.678 215.268L674.637 191.127L723.325 185.925L726.516 212.365L698.678 215.268ZM1030.84 31.9775L1072.77 113.461C1067.49 119.728 1062.5 125.845 1058.06 131.597L1004.08 73.0656L1030.84 31.9775ZM1078.07 28.0909L1097.86 84.861C1090.41 93.0915 1082.84 101.636 1075.71 109.993L1051.99 63.8973L1078.07 28.0909ZM652.007 174.691C652.23 174.889 652.483 175.017 652.749 175.103L667.913 190.331C668.126 190.843 668.531 191.243 669.032 191.454L695.983 218.519C696.17 218.84 696.432 219.105 696.749 219.289L720.174 242.811C720.585 243.224 721.125 243.431 721.664 243.431C722.2 243.431 722.735 243.226 723.147 242.818C723.969 241.999 723.971 240.669 723.153 239.847L702.49 219.097L748.39 214.311L750.284 238.924C750.37 240.028 751.29 240.866 752.378 240.866C752.431 240.866 752.487 240.865 752.542 240.859C753.699 240.77 754.565 239.76 754.477 238.603L752.572 213.874L800.351 208.892L773.58 235.375C772.755 236.192 772.749 237.523 773.565 238.348C773.976 238.763 774.517 238.972 775.058 238.972C775.593 238.972 776.127 238.77 776.536 238.365L972.248 44.7554L1055.47 134.99C1048.21 144.614 1042.68 153.032 1040.12 159.125C1039.95 159.524 1039.92 159.944 1039.99 160.34C1012.6 155.038 974.01 159.675 972.062 159.915C970.91 160.057 970.09 161.107 970.232 162.259C970.375 163.41 971.427 164.231 972.575 164.087C973.137 164.019 1029.09 157.292 1053.09 168.714C1065.19 174.472 1092.16 182.676 1117 189.668V185.278C1092.59 178.386 1066.45 170.414 1054.9 164.918C1051.64 163.366 1047.86 162.129 1043.75 161.15C1043.84 161.025 1043.93 160.902 1043.99 160.755C1046.55 154.673 1052.32 146.037 1059.91 136.106C1059.91 136.096 1059.92 136.087 1059.93 136.076C1075.26 116.011 1098.05 90.6562 1117 70.3283V64.1154C1111.95 69.5034 1106.57 75.3025 1101.08 81.3211L1081.08 23.9573L1098.53 -1.52588e-05H1093.33L1079.4 19.1301L1072.73 -1.52588e-05H1068.28L1076.39 23.2637L1049.84 59.7151L1019.12 -1.52588e-05H1014.39L1028.63 27.6758L1001.14 69.8764L975.173 41.7265C975.611 40.9331 975.504 39.9177 974.834 39.24C974.016 38.4164 972.686 38.4085 971.863 39.2242L856.747 153.103C815.442 121.231 773.056 119.207 744.682 123.175C709.369 128.116 676.309 145.117 653.511 169.911L484.311 -1.52588e-05H478.38L651.404 173.751C651.514 174.101 651.711 174.43 652.007 174.691Z" fill="white"/>
<path d="M639.059 1094.68V1070.28C682.265 1078.13 728.971 1086.64 772.729 1094.68H639.059ZM634.857 1094.68H564.943V1056.85C586.148 1060.68 609.873 1064.98 634.857 1069.52V1094.68ZM560.74 1075.11L475.155 1073.34C474.783 1072.75 474.129 1072.35 473.379 1072.35H427.024V1031.85C441.684 1035.24 457.006 1038.05 473.011 1040.25C474.197 1040.47 509.653 1046.84 560.74 1056.09V1075.11ZM422.82 1072.35H384.099V1019.58C396.416 1023.85 409.325 1027.62 422.82 1030.87V1072.35ZM379.896 1029.77H336.369V998.934C349.907 1006.13 364.426 1012.51 379.896 1018.08V1029.77ZM379.896 1072.35H336.369V1033.97H379.896V1072.35ZM332.166 1029.77H277.447C277.001 1017.87 272.766 995.219 250.771 969.91L269.293 948.613C286.965 967.261 307.965 983.278 332.166 996.647V1029.77ZM332.166 1072.35H277.283C277.19 1054.68 277.094 1040.15 277.082 1038.35C277.173 1037.79 277.378 1036.27 277.459 1033.97H332.166V1072.35ZM272.91 1037.81C272.887 1037.94 272.876 1038.07 272.877 1038.2C272.879 1038.49 272.981 1053.66 273.078 1072.35H171.707V978.947C185.514 978.825 194.482 970.718 202.193 963.735C213.398 953.59 221.493 946.259 239.853 964.397C278.576 1002.66 272.971 1037.47 272.91 1037.81ZM170.124 974.782C169.957 974.74 169.785 974.711 169.605 974.711C169.516 974.711 169.429 974.725 169.342 974.737C163.472 974.355 156.642 972.372 148.434 968.05C135.134 961.049 128.819 949.616 129.665 934.069C130.868 911.973 146.118 885.802 164.327 864.803C172.373 881.13 183.643 893.554 199.448 896.374C213.934 898.958 223.125 904.62 226.77 913.206C232.614 926.974 222.773 944.679 220.115 949.049C212.083 949.112 205.828 954.773 199.372 960.619C191.344 967.888 183.126 975.322 170.124 974.782ZM167.503 1007.83C154.012 1006.82 142.205 1004.7 132.123 1001.48L144.844 970.845C145.385 971.155 145.914 971.476 146.477 971.77C154.525 976.007 161.445 978.112 167.503 978.741V1007.83ZM167.503 1038.84C149.118 1038.73 132.812 1037.1 118.629 1033.98L130.507 1005.37C141.072 1008.79 153.415 1011.01 167.503 1012.05V1038.84ZM167.503 1072.35H127.49C127.11 1072.35 126.749 1072.35 126.374 1072.35C121.651 1072.35 117.206 1072.2 112.838 1071.91C112.084 1068.18 109.707 1065.03 106.48 1063.23L116.994 1037.92C131.66 1041.22 148.511 1042.92 167.503 1043.04V1072.35ZM100.249 1083.1C95.4844 1083.1 91.608 1079.22 91.608 1074.45C91.608 1073.51 91.7582 1072.59 92.0543 1071.7C93.2385 1068.18 96.531 1065.81 100.249 1065.81C105.014 1065.81 108.89 1069.69 108.89 1074.45C108.89 1079.22 105.014 1083.1 100.249 1083.1ZM88.8219 1068.59C54.793 1061.17 31.3402 1042.74 19.1471 1013.75C16.4235 1007.28 14.341 1000.44 12.8217 993.357L47.2178 980.081C48.0824 983.261 49.1228 986.378 50.3784 989.411C60.1564 1013.02 81.0977 1028.89 112.855 1036.92L102.516 1061.82C101.778 1061.69 101.024 1061.61 100.249 1061.61C95.375 1061.61 90.9943 1064.35 88.8219 1068.59ZM23.8726 879.725L57.9271 889.137C47.0295 917.837 40.3311 949.076 46.2008 975.969L11.9997 989.17C5.66709 954.215 12.4066 913.756 23.8726 879.725ZM47.9285 827.799C49.7741 824.933 50.6206 822.146 50.7776 819.377L94.16 818.594C83.8114 834.564 69.9749 858.629 59.4551 885.199L25.2483 875.745C31.9133 856.858 39.9704 840.16 47.9285 827.799ZM43.1792 798.777C37.3628 788.679 30.1236 776.11 30.1236 757.928C30.1236 727.774 38.644 720.41 63.9369 698.547L64.2694 698.261H82.3743L82.7063 698.547C108 720.41 116.52 727.774 116.52 757.928C116.52 757.947 116.524 757.964 116.525 757.981C116.526 757.998 116.522 758.014 116.523 758.032C116.538 758.343 117.929 789.365 108.193 799.101C106.679 800.615 102.498 806.058 96.9595 814.341L50.5216 815.178C49.5723 809.881 46.5041 804.55 43.1792 798.777ZM144.299 698.261V757.928C144.299 757.93 144.299 757.93 144.299 757.93C144.3 760.23 144.439 785.223 149.172 813.398L102.144 814.247C106.61 807.637 109.909 803.33 111.164 802.074C122.135 791.103 120.804 759.59 120.723 757.871C120.71 727.317 111.302 717.777 88.7962 698.261H144.299ZM107.621 661.049H162.973C165.318 672.086 168.062 683.101 171.024 694.057H107.621V661.049ZM107.621 649.315C107.621 622.391 124.114 604.025 127.406 600.628H155.719C155.608 604.51 155.65 608.416 155.905 612.374C156.86 627.176 159.089 642.028 162.092 656.846H107.621V649.315ZM100.433 896.523C102.107 892.662 103.848 888.957 105.589 885.476C119.143 858.357 137.505 834.066 150.366 820.029C153.019 833.869 156.834 848.096 162.315 860.498C150.357 874.008 139.59 889.766 132.807 905.47L100.433 896.523ZM126.16 945.106L89.5017 959.256C85.7367 940.395 91.2503 918.871 98.7897 900.43L131.195 909.385C127.951 917.723 125.895 925.991 125.468 933.841C125.251 937.821 125.498 941.575 126.16 945.106ZM92.0333 968.071C91.4381 966.534 90.9251 964.969 90.4802 963.382L127.158 949.225C129.533 957.099 134.285 963.648 141.313 968.616C141.198 968.763 141.093 968.922 141.016 969.105L128.141 1000.11C109.799 993.399 97.6999 982.694 92.0333 968.071ZM86.5365 964.904C86.9942 966.492 87.5186 968.054 88.1137 969.589C94.2247 985.361 107.094 996.862 126.525 1004L114.484 1033C83.7463 1025.36 63.5598 1010.25 54.262 987.801C53.0213 984.807 52.0009 981.718 51.1671 978.556L86.5365 964.904ZM63.7722 886.391C74.6984 858.928 89.1467 834.077 99.3192 818.501L146.842 817.643C131.028 834.978 109.61 864.482 96.3232 895.388L63.7722 886.391ZM94.6952 899.297C86.0912 920.507 81.5703 942.153 85.5222 960.792L50.1953 974.427C44.8539 948.647 51.5509 918.319 62.2364 890.327L94.6952 899.297ZM182.076 732.66C189.442 757.659 197.059 783.509 202.354 809.375C203.41 814.536 204.585 819.916 205.913 825.46C193.91 830.713 179.116 842.299 165.483 857.003C148.834 817.348 148.503 758.786 148.502 757.927V698.261H172.172C175.35 709.81 178.726 721.293 182.076 732.66ZM206.929 829.6C212.376 851.342 220.38 875.479 233.627 899.611L226.604 905.06C221.21 898.715 212.37 894.409 200.188 892.235C185.463 889.608 174.939 877.394 167.409 861.328C180.749 846.63 195.296 834.898 206.929 829.6ZM260.475 938.769C262.407 941.053 264.403 943.292 266.426 945.504L247.944 966.755C246.312 964.982 244.621 963.202 242.807 961.409C235.744 954.43 229.839 950.878 224.677 949.61C228.47 942.995 236.73 925.934 230.644 911.577C230.188 910.501 229.648 909.473 229.053 908.48L235.705 903.317C242.535 915.265 250.674 927.181 260.475 938.769ZM796.158 1094.72C745.392 1085.37 688.826 1075.05 637.413 1065.71C637.387 1065.71 637.36 1065.7 637.333 1065.7C610.766 1060.87 585.581 1056.31 563.285 1052.27C563.267 1052.27 563.25 1052.27 563.231 1052.27C511.174 1042.85 474.895 1036.32 473.669 1036.1C439.211 1031.36 409.268 1024.11 383.193 1014.94C382.891 1014.73 382.532 1014.61 382.144 1014.58C365.084 1008.52 349.701 1001.63 335.809 994.072C335.507 993.745 335.108 993.513 334.651 993.428C254.603 949.414 224.641 883.171 210.516 826.411C210.495 826.236 210.459 826.063 210.391 825.891C210.388 825.883 210.383 825.875 210.38 825.867C208.922 819.975 207.627 814.182 206.471 808.532C201.14 782.492 193.498 756.556 186.108 731.473C178.826 706.758 171.803 682.872 166.805 659.052C166.806 659.017 166.815 658.983 166.815 658.947C166.815 658.606 166.726 658.288 166.581 658.003C163.42 642.746 161.095 627.512 160.1 612.102C158.972 594.622 161.981 577.864 165.168 560.12C173.714 512.528 183.4 458.589 114.293 371.576C80.597 329.15 54.2702 296.531 33.1159 270.321C20.789 255.048 9.8801 241.531 0 229.152V235.885C9.0099 247.145 18.8643 259.356 29.8456 272.962C50.9946 299.165 77.3157 331.777 111.002 374.19C178.927 459.716 169.42 512.662 161.032 559.376C158.766 571.989 156.596 584.111 155.895 596.425H140.021V537.229C140.021 536.068 139.08 535.127 137.919 535.127C136.758 535.127 135.817 536.068 135.817 537.229V596.425H58.9009C57.7403 596.425 56.7993 597.366 56.7993 598.527C56.7993 599.688 57.7403 600.628 58.9009 600.628H121.716C115.605 607.784 103.418 625.093 103.418 649.315V656.867C100.42 656.89 97.4957 656.948 94.6751 657.015C72.9124 657.548 55.7197 657.952 33.5259 635.758C32.7049 634.94 31.375 634.94 30.5541 635.758C29.7331 636.579 29.7331 637.91 30.5541 638.731C50.5739 658.751 66.6014 661.377 85.0183 661.377C88.1877 661.377 91.4325 661.298 94.7758 661.218C97.5696 661.15 100.463 661.093 103.418 661.068V694.057H0V698.261H57.8469C35.3269 717.791 25.9204 727.329 25.9204 757.928C25.9204 777.236 33.4701 790.342 39.5368 800.875C42.759 806.469 45.3706 811.022 46.2824 815.255L0 816.091V820.294L46.5733 819.453C46.3913 821.467 45.7211 823.464 44.3947 825.523C36.2556 838.164 28.0204 855.273 21.2276 874.634L0 868.768V873.129L19.8592 878.615C8.18382 913.451 1.38175 954.899 8.02989 990.701L0 993.801V998.305L8.86623 994.884C10.4199 1002 12.5318 1008.86 15.2726 1015.38C27.9819 1045.6 52.3102 1064.83 87.5437 1072.61C87.5048 1072.88 87.4672 1073.15 87.4457 1073.43C61.8916 1076.11 51.4483 1085.48 20.732 1117H26.6059C54.9372 1088.02 64.5208 1080.06 87.8131 1077.61C89.0568 1082.5 93.1061 1086.28 98.1473 1087.11V1117H102.351V1087.11C107.754 1086.22 112.019 1081.95 112.908 1076.54C115.61 1076.53 118.42 1076.54 121.406 1076.55C123.016 1076.55 124.689 1076.55 126.405 1076.56C126.449 1076.56 126.491 1076.56 126.536 1076.56C126.539 1076.56 126.542 1076.56 126.545 1076.56C126.862 1076.56 127.168 1076.56 127.49 1076.56H167.503V1117H171.707V1076.56H273.101C273.168 1090.03 273.231 1104.82 273.251 1117H277.454C277.434 1104.82 277.371 1090.03 277.304 1076.56H332.166V1117H336.369V1076.56H379.896V1117H384.099V1076.56H422.82V1117H427.024V1076.56H467.886C468.26 1077.07 468.854 1077.41 469.538 1077.43L560.74 1079.31V1117H564.943V1098.89H634.857V1117H639.059V1098.89H795.571C832.462 1105.68 866.259 1111.97 892.782 1117H915.154C886.814 1111.52 844.125 1103.56 796.248 1094.74C796.219 1094.73 796.188 1094.73 796.158 1094.72Z" fill="white"/>
<path d="M629.018 498.191V447.167C629.018 446.151 628.194 445.328 627.177 445.328C626.162 445.328 625.338 446.151 625.338 447.167V498.191C625.338 499.207 626.162 500.03 627.177 500.03C628.194 500.03 629.018 499.207 629.018 498.191Z" fill="white"/>
<path d="M591.958 496.352C590.942 496.352 590.119 497.175 590.119 498.191V534.54C590.119 535.556 590.942 536.379 591.958 536.379C592.973 536.379 593.797 535.556 593.797 534.54V498.191C593.797 497.175 592.973 496.352 591.958 496.352Z" fill="white"/>
<path d="M568.315 496.352C567.299 496.352 566.476 497.175 566.476 498.191V535.504C566.476 536.52 567.299 537.342 568.315 537.342C569.33 537.342 570.153 536.52 570.153 535.504V498.191C570.153 497.175 569.33 496.352 568.315 496.352Z" fill="white"/>
<path d="M512.017 517.286C512.017 518.301 512.84 519.125 513.856 519.125H554.332C555.349 519.125 556.171 518.301 556.171 517.286C556.171 516.269 555.349 515.447 554.332 515.447H513.856C512.84 515.447 512.017 516.269 512.017 517.286Z" fill="white"/>
<path d="M534.094 445.328C533.078 445.328 532.255 446.151 532.255 447.167V498.191C532.255 499.207 533.078 500.03 534.094 500.03C535.11 500.03 535.932 499.207 535.932 498.191V474.518H554.332C555.349 474.518 556.171 473.694 556.171 472.679C556.171 471.662 555.349 470.84 554.332 470.84H535.932V447.167C535.932 446.151 535.11 445.328 534.094 445.328Z" fill="white"/>
<path d="M676.111 497.385V447.166C676.111 446.151 675.287 445.327 674.272 445.327C673.256 445.327 672.433 446.151 672.433 447.166V497.385C672.433 498.4 673.256 499.222 674.272 499.222C675.287 499.222 676.111 498.4 676.111 497.385Z" fill="white"/>
<path d="M650.715 561.747C650.715 560.732 649.892 559.908 648.876 559.908H605.357C604.342 559.908 603.518 560.732 603.518 561.747C603.518 562.762 604.342 563.586 605.357 563.586H648.876C649.892 563.586 650.715 562.762 650.715 561.747Z" fill="white"/>
<path d="M580.547 535.504V583.364C580.547 584.379 581.371 585.203 582.388 585.203C583.403 585.203 584.227 584.379 584.227 583.364V535.504C584.227 534.488 583.403 533.666 582.388 533.666C581.371 533.666 580.547 534.488 580.547 535.504Z" fill="white"/>
<path d="M554.332 644.411H513.856C512.84 644.411 512.017 645.234 512.017 646.249C512.017 647.265 512.84 648.088 513.856 648.088H554.332C555.349 648.088 556.171 647.265 556.171 646.249C556.171 645.234 555.349 644.411 554.332 644.411Z" fill="white"/>
<path d="M607.072 660.698C607.072 659.683 606.249 658.859 605.232 658.859H513.856C513.78 658.859 513.708 658.871 513.634 658.88C513.659 658.761 513.672 658.636 513.672 658.508C513.672 657.493 512.849 656.67 511.833 656.67H490.357V563.586H537.72L540.221 582.782C540.342 583.709 541.133 584.383 542.042 584.383C542.122 584.383 542.202 584.378 542.282 584.368C543.289 584.236 543.999 583.314 543.867 582.306L537.737 535.265C537.607 534.259 536.686 533.543 535.676 533.68C534.669 533.811 533.96 534.735 534.091 535.742L537.239 559.908H438.057C437.042 559.908 436.218 560.732 436.218 561.747C436.218 562.762 437.042 563.586 438.057 563.586H486.68V679.057C486.68 680.072 487.503 680.896 488.518 680.896C489.534 680.896 490.357 680.072 490.357 679.057V660.347H511.833C511.91 660.347 511.982 660.336 512.054 660.326C512.029 660.446 512.017 660.569 512.017 660.698C512.017 661.713 512.84 662.537 513.856 662.537H525.319V716.396C525.319 717.413 526.141 718.237 527.157 718.237C528.173 718.237 528.996 717.413 528.996 716.396V662.537H605.232C606.249 662.537 607.072 661.713 607.072 660.698Z" fill="white"/>
<path d="M627.072 583.363C627.072 582.348 626.249 581.525 625.233 581.525C624.218 581.525 623.394 582.348 623.394 583.363V681.194C623.394 682.209 624.218 683.033 625.233 683.033C626.249 683.033 627.072 682.209 627.072 681.194V660.347H678.213C679.228 660.347 680.051 659.524 680.051 658.508V627.005C680.051 625.988 679.228 625.165 678.213 625.165C677.197 625.165 676.374 625.988 676.374 627.005V656.669H627.072V583.363Z" fill="white"/>
<path d="M669.893 628.385C670.908 628.385 671.732 627.562 671.732 626.547V583.364C671.732 582.348 670.908 581.525 669.893 581.525C668.877 581.525 668.054 582.348 668.054 583.364V626.547C668.054 627.562 668.877 628.385 669.893 628.385Z" fill="white"/>
<path d="M680.401 679.354C679.385 679.354 678.562 680.178 678.562 681.194V716.396C678.562 717.413 679.385 718.237 680.401 718.237C681.416 718.237 682.24 717.413 682.24 716.396V681.194C682.24 680.178 681.416 679.354 680.401 679.354Z" fill="white"/>
<path d="M580.547 681.491V716.396C580.547 717.413 581.371 718.237 582.388 718.237C583.403 718.237 584.227 717.413 584.227 716.396V681.491C584.227 680.476 583.403 679.652 582.388 679.652C581.371 679.652 580.547 680.476 580.547 681.491Z" fill="white"/>
<path d="M648.876 734.606H513.856C512.84 734.606 512.017 735.429 512.017 736.445C512.017 737.46 512.84 738.283 513.856 738.283H648.876C649.892 738.283 650.715 737.46 650.715 736.445C650.715 735.429 649.892 734.606 648.876 734.606Z" fill="white"/>
<path d="M669.893 714.557C668.877 714.557 668.054 715.381 668.054 716.396V756.147C668.054 757.163 668.877 757.986 669.893 757.986C670.908 757.986 671.732 757.163 671.732 756.147V716.396C671.732 715.381 670.908 714.557 669.893 714.557Z" fill="white"/>
<path d="M435.351 485.212H513.856C514.871 485.212 515.694 484.389 515.694 483.373C515.694 482.358 514.871 481.535 513.856 481.535H435.351C434.336 481.535 433.514 482.358 433.514 483.373C433.514 484.389 434.336 485.212 435.351 485.212Z" fill="white"/>
<path d="M439.896 600.276C439.896 599.261 439.072 598.437 438.057 598.437H393.216C392.2 598.437 391.377 599.261 391.377 600.276C391.377 601.292 392.2 602.115 393.216 602.115H438.057C439.072 602.115 439.896 601.292 439.896 600.276Z" fill="white"/>
<path d="M392.71 612.199C392.737 612.2 392.763 612.202 392.791 612.202C393.77 612.202 394.584 611.429 394.627 610.442C394.671 609.428 393.884 608.568 392.868 608.525L371.235 607.589L370.1 583.278C370.053 582.263 369.202 581.482 368.177 581.527C367.163 581.574 366.379 582.435 366.426 583.449L367.545 607.43L337.357 606.124C336.553 606.096 335.838 606.598 335.564 607.322H299.914C298.897 607.322 298.075 608.146 298.075 609.162C298.075 610.178 298.897 611.001 299.914 611.001H336.26C337.039 611.001 337.701 610.515 337.969 609.831L367.717 611.118L368.441 626.632C368.488 627.617 369.301 628.385 370.277 628.385C370.306 628.385 370.335 628.384 370.364 628.383C371.378 628.336 372.162 627.475 372.115 626.461L371.407 611.278L392.71 612.199Z" fill="white"/>
<path d="M438.526 612.202H473.379C474.394 612.202 475.218 611.378 475.218 610.363C475.218 609.346 474.394 608.522 473.379 608.522H438.526C437.51 608.522 436.687 609.346 436.687 610.363C436.687 611.378 437.51 612.202 438.526 612.202Z" fill="white"/>
<path d="M333.304 583.364C333.304 584.379 334.127 585.203 335.143 585.203C336.159 585.203 336.982 584.379 336.982 583.364V556.262H400.185L391.469 582.791C391.153 583.755 391.677 584.794 392.642 585.111C392.833 585.174 393.026 585.203 393.216 585.203C393.99 585.203 394.709 584.711 394.963 583.938L410.689 536.078C410.749 535.892 410.779 535.699 410.779 535.504V498.191C410.779 497.175 409.957 496.353 408.94 496.353C407.926 496.353 407.103 497.175 407.103 498.191V515.447H368.262C367.247 515.447 366.423 516.271 366.423 517.286C366.423 518.303 367.247 519.125 368.262 519.125H407.103V535.209L401.393 552.584H295.817C294.801 552.584 293.979 553.408 293.979 554.423C293.979 555.44 294.801 556.262 295.817 556.262H333.304V583.364Z" fill="white"/>
<path d="M375.178 679.652C374.163 679.652 373.339 680.476 373.339 681.491V716.396C373.339 717.413 374.163 718.237 375.178 718.237C376.195 718.237 377.017 717.413 377.017 716.396V681.491C377.017 680.476 376.195 679.652 375.178 679.652Z" fill="white"/>
<path d="M515.694 698.944C515.694 697.928 514.871 697.105 513.856 697.105H393.216C392.2 697.105 391.377 697.928 391.377 698.944C391.377 699.96 392.2 700.784 393.216 700.784H513.856C514.871 700.784 515.694 699.96 515.694 698.944Z" fill="white"/>
<path d="M419.011 715.05C417.996 715.05 417.172 715.874 417.172 716.889V757.928C417.172 758.945 417.996 759.769 419.011 759.769C420.027 759.769 420.85 758.945 420.85 757.928V716.889C420.85 715.874 420.027 715.05 419.011 715.05Z" fill="white"/>
<path d="M364.142 716.568C363.966 715.569 363.016 714.902 362.01 715.078C361.01 715.255 360.343 716.21 360.52 717.209L367.46 756.468C367.617 757.36 368.394 757.986 369.269 757.986C369.375 757.986 369.483 757.978 369.59 757.959C370.591 757.781 371.259 756.828 371.081 755.827L364.142 716.568Z" fill="white"/>
<path d="M346.868 734.432H302.04C301.023 734.432 300.201 735.256 300.201 736.271C300.201 737.288 301.023 738.111 302.04 738.111H346.868C347.884 738.111 348.707 737.288 348.707 736.271C348.707 735.256 347.884 734.432 346.868 734.432Z" fill="white"/>
<path d="M605.671 895.648L554.648 886.782C553.649 886.603 552.694 887.278 552.521 888.279C552.348 889.279 553.017 890.231 554.018 890.404L605.043 899.271C605.15 899.29 605.255 899.298 605.36 899.298C606.237 899.298 607.014 898.668 607.169 897.773C607.343 896.774 606.672 895.821 605.671 895.648Z" fill="white"/>
<path d="M777.005 941.882C775.988 941.882 775.166 942.706 775.166 943.722V992.454C775.166 993.471 775.988 994.294 777.005 994.294C778.02 994.294 778.844 993.471 778.844 992.454V943.722C778.844 942.706 778.02 941.882 777.005 941.882Z" fill="white"/>
<path d="M952.771 990.321C951.78 990.541 951.156 991.524 951.378 992.515L958.812 1025.87C959.003 1026.73 959.763 1027.31 960.605 1027.31C960.738 1027.31 960.872 1027.29 961.007 1027.26C961.999 1027.04 962.623 1026.06 962.401 1025.07L954.966 991.715C954.744 990.724 953.764 990.091 952.771 990.321Z" fill="white"/>
<path d="M1022.97 1025.5C1023.07 1025.51 1023.16 1025.52 1023.26 1025.52C1024.15 1025.52 1024.93 1024.87 1025.07 1023.97C1025.23 1022.97 1024.55 1022.02 1023.55 1021.86C1013.07 1020.19 1010.28 1017.46 1008.8 1013.03C1007.09 1007.89 1001.82 987.611 1001.77 987.407C1001.51 986.422 1000.5 985.836 999.523 986.088C998.539 986.345 997.95 987.348 998.204 988.33C998.422 989.169 1003.56 1008.94 1005.31 1014.19C1007.49 1020.72 1012.27 1023.78 1022.97 1025.5Z" fill="white"/>
<path d="M1090.05 620.294C1084.24 615.642 1083.3 607.909 1083.3 591.207C1083.3 573.486 1069.38 569.564 1069.24 569.527L973.816 543.967C972.837 543.705 971.827 544.286 971.564 545.268C971.301 546.249 971.883 547.258 972.864 547.52L1068.28 573.077C1068.74 573.206 1079.62 576.386 1079.62 591.207C1079.62 606.581 1080.19 617.112 1087.75 623.166C1093.04 627.39 1107.27 636.59 1117 642.807V638.441C1107.48 632.339 1094.85 624.135 1090.05 620.294Z" fill="white"/>
<path d="M1035.58 734.432V718.236H1062.63C1063.65 718.236 1064.47 717.413 1064.47 716.396C1064.47 715.381 1063.65 714.557 1062.63 714.557H1050.73V704.132H1073.14C1074.16 704.132 1074.98 703.308 1074.98 702.293C1074.98 701.278 1074.16 700.454 1073.14 700.454H1048.89C1047.88 700.454 1047.05 701.278 1047.05 702.293V714.557H993.082C992.065 714.557 991.242 715.381 991.242 716.396C991.242 717.413 992.065 718.236 993.082 718.236H1031.9V736.271C1031.9 737.288 1032.72 738.111 1033.74 738.111H1050.29V751.331C1050.29 752.346 1051.11 753.169 1052.13 753.169C1053.14 753.169 1053.96 752.346 1053.96 751.331V738.111H1068.68V761.085C1068.68 762.1 1069.5 762.924 1070.51 762.924C1071.53 762.924 1072.35 762.1 1072.35 761.085V738.111H1087.15C1088.17 738.111 1088.99 737.288 1088.99 736.271C1088.99 735.256 1088.17 734.432 1087.15 734.432H1035.58Z" fill="white"/>
<path d="M1030.56 1058.45L890.501 1029.32L881.102 1010.29C880.651 1009.38 879.549 1009.01 878.639 1009.46C877.729 1009.91 877.355 1011.01 877.805 1011.92L887.601 1031.75C887.852 1032.25 888.321 1032.62 888.875 1032.73L1029.81 1062.05C1029.94 1062.08 1030.06 1062.09 1030.19 1062.09C1031.04 1062.09 1031.8 1061.49 1031.99 1060.63C1032.19 1059.63 1031.55 1058.66 1030.56 1058.45Z" fill="white"/>
<path d="M319.184 142.9C320.199 142.9 321.023 142.078 321.023 141.061V99.3122C321.023 98.2969 320.199 97.4733 319.184 97.4733C318.169 97.4733 317.345 98.2969 317.345 99.3122V141.061C317.345 142.078 318.169 142.9 319.184 142.9Z" fill="white"/>
<path d="M260.863 282.562C261.878 282.562 262.702 281.738 262.702 280.723V222.445C262.702 221.43 261.878 220.606 260.863 220.606C259.846 220.606 259.024 221.43 259.024 222.445V280.723C259.024 281.738 259.846 282.562 260.863 282.562Z" fill="white"/>
<path d="M121.88 121.168C122.242 121.168 122.609 121.063 122.93 120.839L155.549 98.1221C156.383 97.5416 156.588 96.3962 156.007 95.5621C155.427 94.728 154.281 94.5218 153.447 95.1037L120.827 117.821C119.994 118.4 119.789 119.547 120.369 120.381C120.726 120.893 121.299 121.168 121.88 121.168Z" fill="white"/>
<path d="M549.128 168.056C560.653 168.056 570.029 177.434 570.029 188.958C570.029 200.483 560.653 209.86 549.128 209.86C537.602 209.86 528.226 200.483 528.226 188.958C528.226 177.434 537.602 168.056 549.128 168.056ZM549.128 213.537C560.353 213.537 569.825 205.963 572.754 195.663C575.489 196.38 581.008 197.895 586.391 199.776C592.285 201.835 597.828 202.737 603.062 202.737C624.662 202.736 640.965 187.369 654.584 174.529L653.399 173.117L652.06 171.852C635.023 187.915 615.713 206.125 587.605 196.304C581.982 194.34 576.218 192.766 573.49 192.053C573.619 191.038 573.707 190.009 573.707 188.958C573.707 175.406 562.681 164.38 549.128 164.38C535.575 164.38 524.548 175.406 524.548 188.958C524.548 202.511 535.575 213.537 549.128 213.537Z" fill="white"/>
<path d="M858.801 216.417C858.798 216.417 858.796 216.417 858.795 216.417C848.439 216.417 842.182 214.377 841.63 210.823C840.529 203.733 858.934 189.552 885.212 181.184C893.016 178.698 901.192 177.385 908.857 177.385C925.58 177.385 936.163 183.449 936.732 189.31C937.393 196.112 925.978 205.757 891.961 212.429C878.468 215.076 867.313 216.417 858.801 216.417ZM940.393 188.954C939.534 180.12 926.272 173.708 908.857 173.708C900.819 173.708 892.256 175.081 884.095 177.68C883.34 177.921 882.591 178.168 881.847 178.417C881.782 178.323 881.742 178.216 881.658 178.132L857.712 154.187C856.994 153.468 855.83 153.468 855.111 154.187C854.393 154.905 854.393 156.069 855.111 156.788L878.066 179.743C853.761 188.609 836.534 201.982 837.995 211.388C838.893 217.165 845.891 220.095 858.793 220.096C858.796 220.096 858.798 220.096 858.801 220.096C867.549 220.096 878.944 218.73 892.67 216.039C924.072 209.879 941.466 200.008 940.393 188.954Z" fill="white"/>
<path d="M161.518 455.626C151.209 452.53 140.94 454.484 131.011 456.374C120.076 458.456 109.748 460.421 99.8163 455.87C98.8886 455.443 97.8008 455.853 97.3776 456.775C96.9553 457.698 97.3607 458.79 98.2832 459.213C103.272 461.5 108.34 462.302 113.418 462.302C119.54 462.302 125.676 461.135 131.698 459.988C141.195 458.18 151.011 456.311 160.46 459.147C161.435 459.44 162.458 458.887 162.75 457.915C163.041 456.942 162.491 455.917 161.518 455.626Z" fill="white"/>
<path d="M191.547 935.42H192.435C194.076 935.42 198.434 935.42 200.368 932.045C202.134 928.964 201.131 924.286 197.301 917.745C193.741 911.67 193.826 907.433 194.978 905.648C195.25 905.227 195.714 904.748 196.413 904.817C197.303 904.913 198.698 905.975 199.703 908.65C205.661 924.528 211.82 932.514 217.065 931.121C220.153 930.302 221.673 926.291 220.844 921.138C220.271 917.577 220.567 912.814 222.567 910.777C223.4 909.927 224.518 909.617 225.98 909.823C226.982 909.968 227.917 909.266 228.059 908.261C228.201 907.255 227.502 906.325 226.496 906.184C223.868 905.808 221.603 906.508 219.943 908.201C216.833 911.369 216.529 917.464 217.214 921.722C217.772 925.198 216.939 927.349 216.122 927.566C214.854 927.892 209.734 924.913 203.146 907.356C201.776 903.706 199.465 901.447 196.808 901.161C194.867 900.954 193.036 901.883 191.892 903.651C189.555 907.262 190.39 913.227 194.127 919.605C198.292 926.718 197.647 929.395 197.177 930.216C196.394 931.583 194.096 931.742 192.435 931.742H191.547C190.532 931.742 189.708 932.565 189.708 933.581C189.708 934.596 190.532 935.42 191.547 935.42Z" fill="white"/>
<path d="M146.377 888.405C146.88 887.524 146.574 886.401 145.691 885.896L113.114 867.293C112.231 866.789 111.109 867.097 110.605 867.979C110.102 868.861 110.409 869.983 111.29 870.487L143.868 889.091C144.156 889.255 144.468 889.333 144.778 889.333C145.417 889.333 146.038 889 146.377 888.405Z" fill="white"/>
<path d="M91.3452 921.557C91.3452 920.54 90.5221 919.717 89.5062 919.717H50.2593C49.2433 919.717 48.4204 920.54 48.4204 921.557C48.4204 922.572 49.2433 923.396 50.2593 923.396H89.5062C90.5221 923.396 91.3452 922.572 91.3452 921.557Z" fill="white"/>
<path d="M48.0491 951.036C47.9428 950.027 47.047 949.302 46.0285 949.399L7.31465 953.461C6.30437 953.567 5.57168 954.471 5.67738 955.482C5.77691 956.427 6.57477 957.129 7.50398 957.129C7.56812 957.129 7.63328 957.125 7.69844 957.119L46.4118 953.057C47.422 952.951 48.1547 952.047 48.0491 951.036Z" fill="white"/>
<path d="M55.768 996.617L23.4355 1027.64C22.7023 1028.35 22.6787 1029.51 23.3817 1030.24C23.7429 1030.62 24.2257 1030.81 24.7084 1030.81C25.1667 1030.81 25.6254 1030.64 25.982 1030.3L58.3139 999.271C59.0471 998.568 59.0713 997.405 58.3678 996.67C57.6644 995.939 56.5002 995.915 55.768 996.617Z" fill="white"/>
<path d="M135.216 960.269L104.468 988.809C103.724 989.5 103.68 990.664 104.372 991.407C104.734 991.799 105.226 991.997 105.72 991.997C106.167 991.997 106.616 991.834 106.971 991.506L137.719 962.966C138.463 962.275 138.506 961.111 137.815 960.367C137.126 959.621 135.962 959.579 135.216 960.269Z" fill="white"/>
<path d="M114.335 993.942C113.48 993.394 112.341 993.643 111.794 994.498L91.0532 1026.84C90.5046 1027.69 90.753 1028.83 91.6079 1029.38C91.9152 1029.57 92.259 1029.67 92.5992 1029.67C93.2041 1029.67 93.7978 1029.37 94.1487 1028.82L114.889 996.484C115.438 995.627 115.19 994.491 114.335 993.942Z" fill="white"/>
<path d="M150.538 1006.11C149.526 1006 148.615 1006.71 148.495 1007.72L144.574 1040.74C144.455 1041.75 145.175 1042.67 146.184 1042.79C146.257 1042.79 146.331 1042.8 146.403 1042.8C147.321 1042.8 148.116 1042.11 148.226 1041.18L152.147 1008.15C152.266 1007.14 151.547 1006.23 150.538 1006.11Z" fill="white"/>
<path d="M30.8204 856.332L69.3285 868.514C69.5132 868.572 69.6999 868.6 69.8836 868.6C70.6645 868.6 71.3885 868.098 71.6368 867.315C71.9426 866.347 71.4065 865.313 70.4377 865.007L31.9297 852.826C30.9631 852.524 29.9282 853.056 29.6213 854.025C29.3155 854.992 29.8517 856.026 30.8204 856.332Z" fill="white"/>
<path d="M43.6539 1047.93C43.0386 1047.12 41.8852 1046.97 41.0772 1047.58L0 1078.8V1083.42L43.3024 1050.51C44.111 1049.9 44.2681 1048.74 43.6539 1047.93Z" fill="white"/>
<path d="M14.5082 912.678C14.4564 911.664 13.6062 910.885 12.5779 910.936L0 911.582V915.265L12.7662 914.61C13.7811 914.557 14.561 913.692 14.5082 912.678Z" fill="white"/>
<path d="M275.293 1048.79L201.393 1051.38L193.364 969.73C193.265 968.72 192.385 967.996 191.354 968.08C190.343 968.18 189.605 969.079 189.704 970.09L197.712 1051.51L169.819 1052.49C168.804 1052.53 168.01 1053.38 168.046 1054.39C168.08 1055.38 168.896 1056.17 169.882 1056.17C169.904 1056.17 169.925 1056.17 169.948 1056.17L275.423 1052.47C276.438 1052.43 277.232 1051.58 277.196 1050.57C277.161 1049.55 276.339 1048.8 275.293 1048.79Z" fill="white"/>
<path d="M447.268 1032.1C446.247 1032.02 445.384 1032.82 445.325 1033.83L443.009 1073.79C442.95 1074.8 443.724 1075.67 444.738 1075.73C444.775 1075.73 444.81 1075.73 444.846 1075.73C445.812 1075.73 446.623 1074.98 446.679 1074L448.996 1034.04C449.055 1033.03 448.282 1032.16 447.268 1032.1Z" fill="white"/>
<path d="M865.169 756.089C864.154 756.089 863.33 756.913 863.33 757.928V809.125C863.33 810.141 864.154 810.964 865.169 810.964C866.184 810.964 867.008 810.141 867.008 809.125V757.928C867.008 756.913 866.184 756.089 865.169 756.089Z" fill="white"/>
<path d="M763.591 756.09C762.576 756.09 761.752 756.913 761.752 757.928V792.05C761.752 793.065 762.576 793.888 763.591 793.888C764.606 793.888 765.43 793.065 765.43 792.05V757.928C765.43 756.913 764.606 756.09 763.591 756.09Z" fill="white"/>
<path d="M883.508 693.973C883.508 694.989 884.332 695.812 885.347 695.812H910.78C911.795 695.812 912.619 694.989 912.619 693.973C912.619 692.958 911.795 692.134 910.78 692.134H885.347C884.332 692.134 883.508 692.958 883.508 693.973Z" fill="white"/>
<path d="M937.763 583.201V626.547C937.763 627.562 938.587 628.385 939.602 628.385C940.617 628.385 941.441 627.562 941.441 626.547V583.201C941.441 582.185 940.617 581.362 939.602 581.362C938.587 581.362 937.763 582.185 937.763 583.201Z" fill="white"/>
<path d="M897.219 608.753V583.364C897.219 582.348 896.395 581.525 895.38 581.525C894.364 581.525 893.541 582.348 893.541 583.364V608.753C893.541 609.769 894.364 610.593 895.38 610.593C896.395 610.593 897.219 609.769 897.219 608.753Z" fill="white"/>
<path d="M867.445 374.168V358.458H887.331V374.168H867.445ZM887.331 393.478C887.331 394.493 888.154 395.315 889.17 395.315C890.186 395.315 891.01 394.493 891.01 393.478V336.944C891.01 335.927 890.186 335.105 889.17 335.105C888.154 335.105 887.331 335.927 887.331 336.944V354.78H867.445V336.944C867.445 335.927 866.622 335.105 865.606 335.105C864.591 335.105 863.767 335.927 863.767 336.944V393.478C863.767 394.493 864.591 395.315 865.606 395.315C866.622 395.315 867.445 394.493 867.445 393.478V377.846H887.331V393.478Z" fill="white"/>
<path d="M764.493 335.105C763.477 335.105 762.653 335.927 762.653 336.944V393.478C762.653 394.493 763.477 395.315 764.493 395.315C765.509 395.315 766.332 394.493 766.332 393.478V336.944C766.332 335.927 765.509 335.105 764.493 335.105Z" fill="white"/>
<path d="M375.178 161.779H432.178C433.195 161.779 434.017 160.955 434.017 159.94C434.017 158.923 433.195 158.101 432.178 158.101H375.178C374.163 158.101 373.339 158.923 373.339 159.94C373.339 160.955 374.163 161.779 375.178 161.779Z" fill="white"/>
<path d="M679.316 807.286C678.299 807.286 677.476 808.11 677.476 809.125V859.181C677.476 860.197 678.299 861.021 679.316 861.021C680.331 861.021 681.155 860.197 681.155 859.181V809.125C681.155 808.11 680.331 807.286 679.316 807.286Z" fill="white"/>
<path d="M786.139 581.525C785.123 581.525 784.3 582.348 784.3 583.364V602.688C784.3 603.703 785.123 604.527 786.139 604.527C787.154 604.527 787.978 603.703 787.978 602.688V583.364C787.978 582.348 787.154 581.525 786.139 581.525Z" fill="white"/>
<path d="M715.866 445.328C714.85 445.328 714.027 446.151 714.027 447.166V472.276C714.027 473.291 714.85 474.115 715.866 474.115C716.881 474.115 717.705 473.291 717.705 472.276V447.166C717.705 446.151 716.881 445.328 715.866 445.328Z" fill="white"/>
<path d="M700.022 365.07H669.893C668.877 365.07 668.054 365.893 668.054 366.908C668.054 367.925 668.877 368.747 669.893 368.747H700.022C701.039 368.747 701.862 367.925 701.862 366.908C701.862 365.893 701.039 365.07 700.022 365.07Z" fill="white"/>
<path d="M593.797 336.944C593.797 335.928 592.973 335.105 591.958 335.105C590.942 335.105 590.119 335.928 590.119 336.944V359.903C590.119 360.919 590.942 361.742 591.958 361.742C592.973 361.742 593.797 360.919 593.797 359.903V336.944Z" fill="white"/>
<path d="M607.534 310.763C607.534 309.746 606.71 308.924 605.695 308.924H571.868C570.852 308.924 570.029 309.746 570.029 310.763C570.029 311.778 570.852 312.602 571.868 312.602H605.695C606.71 312.602 607.534 311.778 607.534 310.763Z" fill="white"/>
<path d="M930.757 251.584V290.724C930.757 291.741 931.58 292.563 932.596 292.563C933.611 292.563 934.435 291.741 934.435 290.724V253.423H973.341C974.356 253.423 975.18 252.601 975.18 251.584C975.18 250.569 974.356 249.745 973.341 249.745H932.596C931.58 249.745 930.757 250.569 930.757 251.584Z" fill="white"/>
<path d="M103.68 716.396C103.68 717.413 104.503 718.237 105.519 718.237H146.4C147.416 718.237 148.239 717.413 148.239 716.396C148.239 715.381 147.416 714.557 146.4 714.557H105.519C104.503 714.557 103.68 715.381 103.68 716.396Z" fill="white"/>
<path d="M132.862 696.159V672.191C132.862 671.176 132.038 670.352 131.023 670.352C130.007 670.352 129.184 671.176 129.184 672.191V696.159C129.184 697.176 130.007 697.998 131.023 697.998C132.038 697.998 132.862 697.176 132.862 696.159Z" fill="white"/>
<path d="M103.111 575.451C102.095 575.451 101.272 576.275 101.272 577.29V598.527C101.272 599.542 102.095 600.366 103.111 600.366C104.127 600.366 104.95 599.542 104.95 598.527V577.29C104.95 576.275 104.127 575.451 103.111 575.451Z" fill="white"/>
<path d="M534.094 807.286C533.078 807.286 532.255 808.11 532.255 809.125V859.181C532.255 860.197 533.078 861.021 534.094 861.021C535.11 861.021 535.932 860.197 535.932 859.181V809.125C535.932 808.11 535.11 807.286 534.094 807.286Z" fill="white"/>
<path d="M865.606 533.665C864.591 533.665 863.767 534.488 863.767 535.504V554.423C863.767 555.439 864.591 556.262 865.606 556.262C866.622 556.262 867.445 555.439 867.445 554.423V535.504C867.445 534.488 866.622 533.665 865.606 533.665Z" fill="white"/>
<path d="M973.341 413.889H939.602C938.587 413.889 937.763 414.712 937.763 415.727C937.763 416.743 938.587 417.566 939.602 417.566H973.341C974.356 417.566 975.18 416.743 975.18 415.727C975.18 414.712 974.356 413.889 973.341 413.889Z" fill="white"/>
<path d="M314.779 233.186H342.587C343.604 233.186 344.426 232.362 344.426 231.347C344.426 230.33 343.604 229.508 342.587 229.508H314.779C313.763 229.508 312.94 230.33 312.94 231.347C312.94 232.362 313.763 233.186 314.779 233.186Z" fill="white"/>
<path d="M473.379 751.236C477.07 751.236 480.071 754.237 480.071 757.927C480.071 761.618 477.07 764.621 473.379 764.621C469.688 764.621 466.685 761.618 466.685 757.927C466.685 754.237 469.688 751.236 473.379 751.236ZM466.689 262.008C466.689 258.321 469.685 255.322 473.371 255.316C473.374 255.316 473.376 255.317 473.379 255.317C473.383 255.317 473.387 255.316 473.391 255.316C477.078 255.32 480.075 258.32 480.075 262.008C480.075 265.699 477.074 268.701 473.383 268.701C469.692 268.701 466.689 265.699 466.689 262.008ZM486.934 264.484L696.475 246.987V333.396H476.925V275.317C482.032 273.955 485.976 269.741 486.934 264.484ZM700.022 528.82C700.036 528.82 700.05 528.816 700.064 528.816C703.735 528.838 706.716 531.828 706.716 535.504C706.716 539.195 703.713 542.197 700.022 542.197C696.332 542.197 693.33 539.195 693.33 535.504C693.33 531.828 696.31 528.838 699.981 528.816C699.996 528.816 700.009 528.82 700.022 528.82ZM703.57 340.491H969.793V531.957H713.329C712.062 527.206 708.321 523.465 703.57 522.197V340.491ZM703.57 246.394L960.374 224.951C961.893 229.18 965.412 232.449 969.793 233.618V333.396H703.57V246.394ZM973.341 213.618C977.03 213.618 980.033 216.621 980.033 220.311C980.033 224.002 977.03 227.004 973.341 227.004C969.65 227.004 966.647 224.002 966.647 220.311C966.647 216.621 969.65 213.618 973.341 213.618ZM980.033 808.953C980.033 812.644 977.03 815.646 973.341 815.646C969.65 815.646 966.647 812.644 966.647 808.953C966.647 805.264 969.65 802.26 973.341 802.26C977.03 802.26 980.033 805.264 980.033 808.953ZM703.57 754.382V548.81C708.321 547.543 712.062 543.802 713.329 539.051H969.793V754.382H703.57ZM476.925 531.957V340.491H696.475V522.197C691.724 523.465 687.984 527.206 686.716 531.957H476.925ZM696.475 754.382H486.686C485.419 749.63 481.678 745.89 476.925 744.622V539.051H686.716C687.984 543.802 691.724 547.543 696.475 548.81V754.382ZM229.139 289.469C225.448 289.469 222.446 286.467 222.446 282.776C222.446 279.085 225.448 276.084 229.139 276.084C232.83 276.084 235.831 279.085 235.831 282.776C235.831 286.467 232.83 289.469 229.139 289.469ZM77.6021 577.793C77.657 577.713 77.7082 577.633 77.7565 577.549C77.9797 577.164 100.803 539.051 164.602 539.051H293.363H469.832V744.622C465.08 745.889 461.341 749.63 460.072 754.382H304.071H303.865H0V761.476H303.865H304.071H460.072C461.341 766.227 465.081 769.967 469.832 771.234V936.536C469.832 936.549 469.836 936.562 469.836 936.574V1117H476.929V936.536C476.929 936.523 476.925 936.51 476.925 936.498V771.234C481.676 769.967 485.417 766.227 486.685 761.476H696.475V976.425C696.475 978.383 698.064 979.972 700.022 979.972C701.982 979.972 703.57 978.383 703.57 976.425V761.476H969.793V795.646C963.908 797.218 959.553 802.58 959.553 808.953C959.553 816.555 965.738 822.739 973.341 822.739C980.942 822.739 987.127 816.555 987.127 808.953C987.127 802.58 982.772 797.218 976.887 795.646V761.476H1001.42C1003.38 761.476 1004.97 759.888 1004.97 757.928C1004.97 755.97 1003.38 754.382 1001.42 754.382H976.887V340.491H1117V333.396H976.887V233.618C982.006 232.252 985.957 228.016 986.9 222.738L1117 211.913V204.797L986.307 215.67C984.787 211.443 981.268 208.174 976.887 207.005V0H969.793V207.005C964.674 208.371 960.723 212.606 959.78 217.883L486.366 257.415C484.856 253.163 481.324 249.873 476.925 248.7V0H469.832V248.702C464.698 250.075 460.743 254.332 459.816 259.632L241.989 277.82C239.992 272.663 234.992 268.99 229.139 268.99C221.537 268.99 215.352 275.175 215.352 282.776C215.352 290.378 221.537 296.563 229.139 296.563C236.025 296.563 241.733 291.481 242.748 284.874L460.436 266.697C461.963 270.901 465.47 274.148 469.832 275.314V531.957H293.363H164.602C98.0241 531.957 73.5312 570.785 71.6994 573.858L0 677.205V689.648L77.6021 577.793Z" fill="#FFF100"/>
<path d="M1073.73 114.825V106.051H1076.38H1079.04V114.825V123.6H1076.38H1073.73V114.825Z" fill="white"/>
<path d="M1076.47 98.8263C1086.43 98.8263 1095.32 105.633 1095.32 114.944C1095.32 118.245 1094.16 121.487 1092.11 124.003C1092.02 126.951 1093.71 131.18 1095.24 134.259C1091.15 133.502 1085.34 131.831 1082.71 130.175C1068.2 133.794 1057.62 124.691 1057.62 114.944C1057.62 105.583 1066.58 98.8263 1076.47 98.8263ZM1074.9 122.985H1078.04V113.322H1074.9V122.985ZM1076.47 110.503C1077.56 110.503 1078.44 109.601 1078.44 108.49C1078.44 107.379 1077.56 106.477 1076.47 106.477C1075.39 106.477 1074.51 107.379 1074.51 108.49C1074.51 109.601 1075.39 110.503 1076.47 110.503Z" fill="#25C2EA"/>
</g>
<path d="M1042.08 580.898H766.066C734.612 580.898 709.113 606.378 709.113 637.808V1313.16C709.113 1344.59 734.612 1370.07 766.066 1370.07H1042.08C1073.54 1370.07 1099.04 1344.59 1099.04 1313.16V637.808C1099.04 606.378 1073.54 580.898 1042.08 580.898Z" fill="black" stroke="#939393" stroke-width="10"/>
<path d="M925.576 610.279H884.4C882.446 610.279 880.862 611.862 880.862 613.814C880.862 615.766 882.446 617.348 884.4 617.348H925.576C927.53 617.348 929.113 615.766 929.113 613.814C929.113 611.862 927.53 610.279 925.576 610.279Z" fill="#939393"/>
<path d="M946.164 618.436C949.27 618.436 951.787 615.92 951.787 612.817C951.787 609.714 949.27 607.198 946.164 607.198C943.058 607.198 940.541 609.714 940.541 612.817C940.541 615.92 943.058 618.436 946.164 618.436Z" fill="#939393"/>
<path d="M785.297 784.683L865.72 878.424L945.533 784.683L1025.83 878.424V784.683L945.533 690.671" stroke="white" stroke-width="7.7654"/>
<path d="M945.533 690.671H865.72H785.297V784.683" stroke="white" stroke-width="7.7654"/>
<path d="M1040.32 663H1010.15C1003.12 663 997.411 668.701 997.411 675.733V706.118C997.411 713.151 1003.12 718.851 1010.15 718.851H1040.32C1047.36 718.851 1053.07 713.151 1053.07 706.118V675.733C1053.07 668.701 1047.36 663 1040.32 663Z" fill="#969696"/>
<path d="M800.911 851H770.743C763.705 851 758 856.701 758 863.733V894.118C758 901.151 763.705 906.851 770.743 906.851H800.911C807.949 906.851 813.654 901.151 813.654 894.118V863.733C813.654 856.701 807.949 851 800.911 851Z" fill="#969696"/>
<path d="M959.911 851H929.743C922.705 851 917 856.701 917 863.733V894.118C917 901.151 922.705 906.851 929.743 906.851H959.911C966.949 906.851 972.654 901.151 972.654 894.118V863.733C972.654 856.701 966.949 851 959.911 851Z" fill="#969696"/>
<defs>
<clipPath id="clip0">
<rect width="1117" height="1117" fill="white"/>
</clipPath>
</defs>
</svg>
