<svg width="41" height="34" viewBox="0 0 41 34" fill="none" xmlns="http://www.w3.org/2000/svg">
<g clip-path="url(#clip0)">
<path d="M30.1025 13.2444C29.4946 6.426 25.0072 0 16.9655 0C8.92386 0 4.43648 6.426 3.82855 13.2444C1.20031 13.4782 0 15.9658 0 18.8601C0 21.3463 1.37845 24.48 4.38841 25.789C8.5379 33.3979 15.0399 34 16.9655 34C18.8911 34 25.3931 33.3979 29.5426 25.789C32.5526 24.4786 33.931 21.3463 33.931 18.8601C33.931 15.9998 32.742 13.4796 30.1025 13.2444ZM28.0878 23.3169C27.74 23.4345 27.4516 23.6838 27.2834 24.0125C23.8818 30.651 18.5263 31.1667 16.9655 31.1667C15.4047 31.1667 10.0492 30.651 6.64766 24.0125C6.47941 23.6853 6.191 23.4359 5.84321 23.3169C2.38224 22.1425 2.23379 17.1346 3.64759 16.2166C3.93883 16.0282 4.34034 16.0268 4.59624 16.1415C5.52934 16.5552 6.58403 15.8737 6.58403 14.8467L6.61231 14.0448C9.16138 13.4697 12.7354 10.115 13.6304 8.32292C13.5328 9.52992 12.3707 12.9327 10.6953 14.0788C14.5804 14.0788 19.5316 10.5273 21.5603 7.23917C21.6848 10.1873 24.5491 12.9285 27.265 13.3464C27.3131 13.8479 27.347 14.348 27.347 14.8467C27.347 15.8709 28.4003 16.5566 29.3348 16.1415C29.5341 16.0522 29.9498 15.9998 30.2834 16.2166C31.6972 17.1346 31.5488 22.1425 28.0878 23.3169ZM23.3276 17.7083C23.3276 18.8813 22.5359 19.8333 21.5603 19.8333C20.5848 19.8333 19.7931 18.8813 19.7931 17.7083C19.7931 16.5353 20.5848 15.5833 21.5603 15.5833C22.5359 15.5833 23.3276 16.5353 23.3276 17.7083ZM12.3707 19.8333C11.3952 19.8333 10.6034 18.8813 10.6034 17.7083C10.6034 16.5353 11.3952 15.5833 12.3707 15.5833C13.3462 15.5833 14.1379 16.5353 14.1379 17.7083C14.1379 18.8813 13.3462 19.8333 12.3707 19.8333ZM12.7241 24.0833H21.2069C21.2069 24.0833 20.1253 27.4182 16.9655 27.4182C13.9216 27.4182 12.7241 24.0833 12.7241 24.0833ZM41 24.0833C37.0682 25.2124 35.7449 22.5817 35.3448 18.4167C34.6436 11.118 33.9692 5.7715 29.6175 6.72208C29.0831 5.52642 28.43 4.33783 27.3724 3.213C28.6067 1.61642 30.9536 0 33.637 0C43.9803 0 38.967 16.2789 38.967 19.8333C38.967 21.9583 39.3826 23.1242 41 24.0833Z" fill="black"/>
</g>
<defs>
<clipPath id="clip0">
<rect width="41" height="34" fill="white"/>
</clipPath>
</defs>
</svg>
