<svg width="42" height="41" viewBox="0 0 42 41" fill="none" xmlns="http://www.w3.org/2000/svg">
<path d="M42 22.743C42 19.2358 40.6805 17.5736 39.5202 16.7827C40.2045 14.1792 41.3228 7.99158 37.835 4.12563C36.1935 2.30625 33.523 1.49479 30.625 1.94921C28.3482 0.997667 24.9095 0 21 0C17.0905 0 13.6517 0.997667 11.375 1.94921C8.477 1.49479 5.8065 2.30454 4.165 4.12563C0.67725 7.99158 1.79725 14.1792 2.47975 16.7827C1.3195 17.5736 0 19.2341 0 22.743C0 24.4445 0.5705 26.3835 1.7255 28.0423C0.87675 30.4698 2.64075 33.251 5.72075 32.9179C5.16425 35.6888 8.1095 37.9199 11.1143 36.5532C10.7625 38.54 13.601 40.9607 17.1395 39.2336C18.3137 40.2108 19.2185 41 20.9965 41C23.0177 41 24.227 39.9015 24.9812 39.2319C28.5197 40.9607 31.2358 38.5383 30.8857 36.5515C33.8923 37.9182 36.8358 35.6871 36.2793 32.9162C39.3593 33.2493 41.1232 30.4681 40.2745 28.0406C41.4277 26.3835 42 24.4428 42 22.743ZM21 33.9668C17.9865 33.9668 16.8 30.75 16.8 30.75H25.2C25.2 30.75 24.129 33.9668 21 33.9668ZM27.2615 28.8555C25.4205 27.9757 22.9653 26.9319 21 28.3054C19.033 26.9319 16.5795 27.9757 14.7385 28.8555C7.29925 32.4088 0.6965 21.9828 4.515 19.5553C4.872 19.3298 5.369 19.3247 5.691 19.4648C6.84775 19.9636 8.1515 19.1385 8.1515 17.9033C8.1515 14.1211 9.3625 10.3286 11.921 7.67383L11.9473 7.65675C16.5042 3.22192 25.494 3.22192 30.051 7.65675L30.079 7.67554C32.6375 10.3303 33.8485 14.1228 33.8485 17.9033C33.8485 19.1436 35.1575 19.9619 36.309 19.4648C36.5557 19.3571 37.072 19.2939 37.4832 19.5553C41.2458 21.9333 34.8338 32.472 27.2615 28.8555ZM27.5625 16.2292C25.5955 16.2292 23.898 17.3037 23.0002 18.8702C22.3475 18.6721 21.6982 18.573 21 18.573C20.3018 18.573 19.6525 18.6721 18.9998 18.8702C18.102 17.3037 16.4045 16.2292 14.4375 16.2292C11.543 16.2292 9.1875 18.5286 9.1875 21.3542C9.1875 24.1798 11.543 26.4792 14.4375 26.4792C16.5917 26.4792 18.4362 25.2013 19.2447 23.3854C19.6752 22.4185 19.9342 21.1628 21 21.1628C22.0658 21.1628 22.3265 22.4185 22.7553 23.3854C23.5638 25.2013 25.4083 26.4792 27.5625 26.4792C30.457 26.4792 32.8125 24.1798 32.8125 21.3542C32.8125 18.5286 30.457 16.2292 27.5625 16.2292ZM14.4375 23.9167C12.9885 23.9167 11.8125 22.7687 11.8125 21.3542C11.8125 19.9397 12.9885 18.7917 14.4375 18.7917C15.8865 18.7917 17.0625 19.9397 17.0625 21.3542C17.0625 22.7687 15.8865 23.9167 14.4375 23.9167ZM27.5625 23.9167C26.1135 23.9167 24.9375 22.7687 24.9375 21.3542C24.9375 19.9397 26.1135 18.7917 27.5625 18.7917C29.0115 18.7917 30.1875 19.9397 30.1875 21.3542C30.1875 22.7687 29.0115 23.9167 27.5625 23.9167Z" fill="black"/>
</svg>
