<svg width="57" height="55" viewBox="0 0 57 55" fill="none" xmlns="http://www.w3.org/2000/svg">
<path d="M28.5 55C44.2401 55 57 42.6878 57 27.5C57 12.3122 44.2401 0 28.5 0C12.7599 0 0 12.3122 0 27.5C0 42.6878 12.7599 55 28.5 55Z" fill="#FEE440"/>
<path d="M36.875 28.125C36.875 29.574 35.895 30.75 34.6875 30.75C33.48 30.75 32.5 29.574 32.5 28.125C32.5 26.676 33.48 25.5 34.6875 25.5C35.895 25.5 36.875 26.676 36.875 28.125ZM23.3125 25.5C22.105 25.5 21.125 26.676 21.125 28.125C21.125 29.574 22.105 30.75 23.3125 30.75C24.52 30.75 25.5 29.574 25.5 28.125C25.5 26.676 24.52 25.5 23.3125 25.5ZM29 40.1195C32.9112 40.1195 34.25 36 34.25 36H23.75C23.75 36 25.2323 40.1195 29 40.1195ZM50 29.9642C50 33.333 48.432 38.2557 44.1953 39.0432C40.767 45.1542 35.6605 48.25 29 48.25C22.3412 48.25 17.233 45.1542 13.8047 39.045C9.56975 38.2557 8 33.3347 8 29.9642C8 26.221 9.407 22.8015 12.9752 22.574C13.768 13.6507 19.8807 8 29 8C38.1192 8 44.232 13.6508 45.0247 22.5757C48.5877 22.8015 50 26.2035 50 29.9642ZM46.5 29.9642C46.5 28.0672 46.0993 26.7162 45.3957 26.2595C44.9198 25.9497 44.3195 26.0775 44.0728 26.1877C42.9213 26.7005 41.6123 25.8552 41.6123 24.5882C41.6123 23.267 41.4373 20.6577 40.312 18.1132C38.2838 14.3402 35.6098 20.4022 29 20.4022C22.3903 20.4022 19.7162 14.3403 17.688 18.115C16.5627 20.6577 16.3878 23.267 16.3878 24.59C16.3878 25.8482 15.0858 26.7057 13.9272 26.1895C13.677 26.0792 13.082 25.9515 12.6042 26.2612C10.6758 27.516 11.2077 35.5817 14.9423 35.6535C15.5862 35.6657 16.1725 36.0315 16.4665 36.6037C20.649 44.75 26.935 44.75 29 44.75C31.0667 44.75 37.3493 44.75 41.5335 36.6037C41.8275 36.0297 42.4137 35.6657 43.056 35.6535C46.2987 35.5905 46.5 30.0202 46.5 29.9642Z" fill="#355675"/>
</svg>
