<svg width="40" height="40" viewBox="0 0 40 40" fill="none" xmlns="http://www.w3.org/2000/svg">
<path d="M19.9609 39.6256C30.8225 39.6256 39.6275 30.8205 39.6275 19.9589C39.6275 9.0973 30.8225 0.292236 19.9609 0.292236C9.09926 0.292236 0.294189 9.0973 0.294189 19.9589C0.294189 30.8205 9.09926 39.6256 19.9609 39.6256Z" fill="#F29900"/>
<path fill-rule="evenodd" clip-rule="evenodd" d="M11.7842 23.8701C10.6618 23.8701 9.75097 24.781 9.75097 25.9033V32.0029C9.75097 33.1252 10.6618 34.0361 11.7842 34.0361C12.9085 34.0361 13.8174 33.1232 13.8174 32.0029V29.9697H26.0166V32.0029C26.0166 33.1232 26.9254 34.0361 28.0498 34.0361C29.1742 34.0361 30.083 33.1232 30.083 32.0029V25.9033C30.083 24.783 29.1742 23.8701 28.0498 23.8701C26.9254 23.8701 26.0166 24.783 26.0166 25.9033V27.9365H13.8174V25.9033C13.8174 24.783 12.9085 23.8701 11.7842 23.8701ZM7.71777 25.9033C7.15661 25.9033 6.70117 26.3588 6.70117 26.9199V27.9365H5.68457V29.9697H6.70117V30.9863C6.70117 31.5475 7.15661 32.0029 7.71777 32.0029C8.27894 32.0029 8.73437 31.5475 8.73437 30.9863V26.9199C8.73437 26.3588 8.27894 25.9033 7.71777 25.9033ZM32.1162 25.9033C31.555 25.9033 31.0996 26.3588 31.0996 26.9199V30.9863C31.0996 31.5475 31.555 32.0029 32.1162 32.0029C32.6774 32.0029 33.1328 31.5475 33.1328 30.9863V29.9697H34.1494V27.9365H33.1328V26.9199C33.1328 26.3588 32.6774 25.9033 32.1162 25.9033Z" fill="white"/>
<path fill-rule="evenodd" clip-rule="evenodd" d="M18.2838 23.4991C15.3209 22.8511 12.9113 20.3943 12.2774 17.3751C11.8971 15.5636 12.1097 13.9145 12.931 12.3051C13.5301 11.1312 13.6345 9.63609 13.2744 7.38531C13.0032 5.69001 13.0842 5.00571 13.6398 4.29944C14.5023 3.20294 16.6377 2.64621 19.9625 2.65103C23.8472 2.65663 25.8831 3.31178 26.6645 4.80762C26.9289 5.31364 26.9186 6.39619 26.635 7.89921C26.3109 9.61695 26.4343 11.0442 27.0043 12.1735C27.5998 13.3531 27.8616 14.4556 27.8616 15.7832C27.8616 18.0082 27.1242 19.7637 25.5189 21.3606C23.5591 23.3101 20.9482 24.0818 18.2838 23.4991ZM20.0336 7.99061C21.6382 7.99228 21.9509 8.05536 23.46 8.6824C23.6429 8.75839 23.7467 8.52527 24.0264 7.41134C24.339 6.16602 24.3502 6.0137 24.1549 5.66224C23.7712 4.97201 22.7481 4.74327 20.0336 4.74081C17.5646 4.73854 16.7661 4.86534 16.1382 5.35923C15.6854 5.7154 15.6421 6.4 15.9955 7.61314C16.123 8.05056 16.2471 8.48346 16.2714 8.57515C16.3018 8.6897 16.6411 8.62408 17.3562 8.3654C18.256 8.03993 18.6185 7.98919 20.0336 7.99061Z" fill="white"/>
</svg>
