<svg width="40" height="40" viewBox="0 0 40 40" fill="none" xmlns="http://www.w3.org/2000/svg">
<path d="M19.9609 39.6256C30.8225 39.6256 39.6276 30.8205 39.6276 19.9589C39.6276 9.0973 30.8225 0.292236 19.9609 0.292236C9.09935 0.292236 0.294281 9.0973 0.294281 19.9589C0.294281 30.8205 9.09935 39.6256 19.9609 39.6256Z" fill="#F29900"/>
<path fill-rule="evenodd" clip-rule="evenodd" d="M11.7843 23.8701C10.662 23.8701 9.75113 24.781 9.75113 25.9033V32.0029C9.75113 33.1252 10.662 34.0361 11.7843 34.0361C12.9087 34.0361 13.8175 33.1232 13.8175 32.0029V29.9697H26.0167V32.0029C26.0167 33.1232 26.9256 34.0361 28.0499 34.0361C29.1743 34.0361 30.0831 33.1232 30.0831 32.0029V25.9033C30.0831 24.783 29.1743 23.8701 28.0499 23.8701C26.9256 23.8701 26.0167 24.783 26.0167 25.9033V27.9365H13.8175V25.9033C13.8175 24.783 12.9087 23.8701 11.7843 23.8701ZM7.71792 25.9033C7.15676 25.9033 6.70132 26.3588 6.70132 26.9199V27.9365H5.68472V29.9697H6.70132V30.9863C6.70132 31.5475 7.15676 32.0029 7.71792 32.0029C8.27909 32.0029 8.73453 31.5475 8.73453 30.9863V26.9199C8.73453 26.3588 8.27909 25.9033 7.71792 25.9033ZM32.1163 25.9033C31.5552 25.9033 31.0997 26.3588 31.0997 26.9199V30.9863C31.0997 31.5475 31.5552 32.0029 32.1163 32.0029C32.6775 32.0029 33.1329 31.5475 33.1329 30.9863V29.9697H34.1495V27.9365H33.1329V26.9199C33.1329 26.3588 32.6775 25.9033 32.1163 25.9033Z" fill="white"/>
<path fill-rule="evenodd" clip-rule="evenodd" d="M18.284 23.4991C15.3211 22.8511 12.9115 20.3943 12.2776 17.3751C11.8973 15.5636 12.1099 13.9145 12.9312 12.3051C13.5303 11.1312 13.6346 9.63609 13.2746 7.38531C13.0034 5.69001 13.0844 5.00571 13.64 4.29944C14.5025 3.20294 16.6379 2.64621 19.9626 2.65103C23.8473 2.65663 25.8833 3.31178 26.6647 4.80762C26.9291 5.31364 26.9187 6.39619 26.6352 7.89921C26.3111 9.61695 26.4344 11.0442 27.0045 12.1735C27.6 13.3531 27.8618 14.4556 27.8618 15.7832C27.8618 18.0082 27.1244 19.7637 25.5191 21.3606C23.5593 23.3101 20.9484 24.0818 18.284 23.4991ZM20.0338 7.99061C21.6384 7.99228 21.9511 8.05536 23.4601 8.6824C23.643 8.75839 23.7469 8.52527 24.0266 7.41134C24.3392 6.16602 24.3504 6.0137 24.1551 5.66224C23.7714 4.97201 22.7483 4.74327 20.0338 4.74081C17.5647 4.73854 16.7663 4.86534 16.1384 5.35923C15.6856 5.7154 15.6422 6.4 15.9957 7.61314C16.1232 8.05056 16.2473 8.48346 16.2716 8.57515C16.3019 8.6897 16.6413 8.62408 17.3564 8.3654C18.2561 8.03993 18.6186 7.98919 20.0338 7.99061Z" fill="white"/>
</svg>
