<svg width="40" height="39" viewBox="0 0 40 39" fill="none" xmlns="http://www.w3.org/2000/svg">
<g clip-path="url(#clip0)">
<path d="M19.9862 38.3532C30.8478 38.3532 39.6529 29.8505 39.6529 19.3618C39.6529 8.87311 30.8478 0.370361 19.9862 0.370361C9.12465 0.370361 0.31958 8.87311 0.31958 19.3618C0.31958 29.8505 9.12465 38.3532 19.9862 38.3532Z" fill="#4E8CEF"/>
<path d="M8.74996 32.0821C8.00011 31.8317 7.46902 31.3745 7.13338 30.6903C6.93527 30.2865 6.93527 30.2865 6.91881 20.0697C6.9036 10.6323 6.91038 9.82825 7.00781 9.5289C7.24389 8.80343 7.8353 8.18791 8.59427 7.87777C8.93859 7.73707 8.93859 7.73707 12.9765 7.71829C16.6362 7.70131 17.0328 7.7089 17.2106 7.79955C17.5709 7.98333 17.664 8.47507 17.3956 8.77652C17.2445 8.94614 17.2445 8.94614 14.2602 8.97637C11.2758 9.0066 11.2758 9.0066 11.0932 9.20403C10.8407 9.47709 10.8407 9.80565 11.0932 10.0787C11.2759 10.2761 11.2759 10.2761 14.2602 10.3064C17.2445 10.3366 17.2445 10.3366 17.3956 10.5062C17.6291 10.7685 17.6048 11.1086 17.3337 11.3704C17.1209 11.5759 17.1209 11.5759 14.2621 11.5759C12.2798 11.5759 11.3613 11.5966 11.2665 11.6434C11.0305 11.76 10.9135 11.9537 10.912 12.2304C10.9108 12.44 10.947 12.5272 11.0936 12.6687C11.2766 12.8454 11.2766 12.8454 14.1006 12.8454C17.1317 12.8454 17.2265 12.8543 17.4445 13.1548C17.5755 13.3353 17.5755 13.6856 17.4445 13.8661C17.2265 14.1667 17.1317 14.1754 14.1006 14.1754C11.2766 14.1754 11.2766 14.1754 11.0936 14.3521C10.7781 14.6568 10.8663 15.1798 11.2665 15.3774C11.3613 15.4243 12.2798 15.445 14.262 15.445C17.1209 15.445 17.1209 15.445 17.3337 15.6505C17.6048 15.9122 17.6291 16.2524 17.3956 16.5147C17.2445 16.6843 17.2445 16.6843 14.2602 16.7145C11.2758 16.7447 11.2758 16.7447 11.0932 16.9422C10.8407 17.2152 10.8407 17.5438 11.0932 17.8168C11.2758 18.0143 11.2758 18.0143 14.2602 18.0445C17.2445 18.0747 17.2445 18.0747 17.3956 18.2444C17.6291 18.5066 17.6048 18.8468 17.3337 19.1085C17.1209 19.314 17.1209 19.314 14.262 19.314C12.2798 19.314 11.3613 19.3348 11.2665 19.3816C11.0305 19.4981 10.9135 19.6919 10.912 19.9686C10.9108 20.1781 10.947 20.2653 11.0936 20.4069C11.2766 20.5836 11.2766 20.5836 14.1006 20.5836C17.1317 20.5836 17.2265 20.5924 17.4445 20.8929C17.5755 21.0735 17.5755 21.4237 17.4445 21.6042C17.2265 21.9048 17.1317 21.9136 14.1006 21.9136C11.2766 21.9136 11.2766 21.9136 11.0936 22.0903C10.7781 22.3949 10.8663 22.918 11.2665 23.1156C11.3612 23.1624 12.2715 23.1831 14.2305 23.1831C16.7559 23.1831 17.0766 23.1939 17.2342 23.2838C17.5754 23.4784 17.6557 23.9607 17.3956 24.2528C17.2445 24.4224 17.2445 24.4224 14.2602 24.4527C11.2758 24.4829 11.2758 24.4829 11.0932 24.6803C10.8406 24.9534 10.8406 25.2819 11.0932 25.555C11.2758 25.7524 11.2758 25.7524 14.2602 25.7826C17.2445 25.8128 17.2445 25.8128 17.3956 25.9825C17.6291 26.2447 17.6048 26.5849 17.3337 26.8466C17.1209 27.0522 17.1209 27.0522 14.262 27.0522C12.2798 27.0522 11.3613 27.0728 11.2665 27.1197C11.0305 27.2362 10.9135 27.43 10.912 27.7067C10.9108 27.9162 10.947 28.0034 11.0936 28.145C11.2766 28.3217 11.2766 28.3217 14.1006 28.3217C17.1317 28.3217 17.2265 28.3304 17.4445 28.631C17.5755 28.8116 17.5755 29.1618 17.4445 29.3423C17.2265 29.6429 17.1317 29.6517 14.1006 29.6517C11.2766 29.6517 11.2766 29.6517 11.0936 29.8284C10.7781 30.133 10.8663 30.656 11.2664 30.8537C11.3612 30.9005 12.2715 30.9212 14.2305 30.9212C16.7559 30.9212 17.0766 30.9319 17.2342 31.0219C17.5964 31.2285 17.6614 31.7265 17.3636 32.014C17.1806 32.1907 17.1806 32.1907 13.1222 32.1888C9.43752 32.187 9.03488 32.1771 8.74995 32.082L8.74996 32.0821ZM21.3725 32.0952C20.2595 31.8063 19.3113 30.8814 19.0197 29.8004C18.8971 29.3458 18.8971 28.6278 19.0197 28.1732C19.3014 27.129 20.2229 26.2033 21.2808 25.9018C21.5404 25.8278 21.5404 25.8278 21.6091 25.367C21.7182 24.6358 22.1237 23.9032 22.7635 23.2813C23.3264 22.7343 24.0676 22.2313 24.8457 21.8684L25.3522 21.6322L25.1218 21.2641C24.8257 20.7913 24.5896 20.0969 24.4222 19.2063C24.2433 18.2543 24.2294 16.1289 24.3923 14.6289C24.9622 9.38055 25.6292 6.43738 26.2485 6.43738C26.5988 6.43738 27.0138 7.52218 27.3703 9.36941C27.7912 11.5509 28.2521 15.5757 28.2516 17.0659C28.2512 18.8487 27.9352 20.3699 27.3823 21.253L27.1448 21.6322L27.6405 21.8637C29.6011 22.7792 30.7107 24.0286 30.9119 25.5472C30.947 25.8124 30.9612 25.829 31.2123 25.9006C31.9851 26.1209 32.8055 26.767 33.1799 27.4502C33.8775 28.7228 33.6463 30.2461 32.6028 31.2539C31.2988 32.5131 29.2115 32.5131 27.9075 31.2539C26.6035 29.9946 26.6035 27.979 27.9075 26.7198C28.2928 26.3478 28.8244 26.0357 29.3073 25.8979C29.5802 25.8201 29.5802 25.8201 29.5517 25.5339C29.4909 24.9232 28.9966 24.2485 28.1831 23.6661C27.5664 23.2245 26.546 22.7322 26.2507 22.7337C25.9518 22.7352 24.9218 23.2308 24.3156 23.6649C23.5032 24.2466 23.0133 24.9048 22.9496 25.5003C22.9155 25.8197 22.9155 25.8197 23.1891 25.8978C23.9721 26.1211 24.7901 26.7632 25.1666 27.4502C25.8642 28.7228 25.633 30.2461 24.5895 31.2539C24.1689 31.66 23.6341 31.9601 23.0844 32.0983C22.6284 32.213 21.8202 32.2116 21.3725 32.0954L21.3725 32.0952ZM23.087 30.7352C23.4831 30.5537 23.8601 30.1915 24.0573 29.8029C24.2777 29.3689 24.2777 28.6047 24.0573 28.1707C23.8617 27.7852 23.4861 27.4226 23.087 27.2337C22.6376 27.0209 21.8462 27.0209 21.3967 27.2337C19.7694 28.0042 19.905 30.2238 21.6162 30.8242C22.0113 30.9628 22.6784 30.9224 23.087 30.7352L23.087 30.7352ZM31.1003 30.7352C31.4963 30.5537 31.8734 30.1915 32.0706 29.8029C32.291 29.3689 32.291 28.6047 32.0706 28.1707C31.8749 27.7852 31.4994 27.4226 31.1003 27.2337C30.6494 27.0202 29.8573 27.0187 29.4116 27.2305C27.7808 28.0055 27.9151 30.2227 29.6295 30.8242C30.0246 30.9628 30.6917 30.9225 31.1003 30.7352L31.1003 30.7352ZM26.7 20.4084C27.2112 19.9673 26.7196 19.1661 26.0514 19.3512C25.7799 19.4264 25.594 19.685 25.594 19.9878C25.594 20.3207 25.8828 20.5836 26.2485 20.5836C26.4342 20.5836 26.5483 20.5393 26.7 20.4084V20.4084Z" fill="#F0EAF3"/>
</g>
<defs>
<clipPath id="clip0">
<rect width="40" height="38.6266" fill="white"/>
</clipPath>
</defs>
</svg>
