<svg width="40" height="39" viewBox="0 0 40 39" fill="none" xmlns="http://www.w3.org/2000/svg">
<g clip-path="url(#clip0)">
<path d="M19.9863 38.3532C30.8479 38.3532 39.653 29.8505 39.653 19.3618C39.653 8.87311 30.8479 0.370361 19.9863 0.370361C9.12471 0.370361 0.319641 8.87311 0.319641 19.3618C0.319641 29.8505 9.12471 38.3532 19.9863 38.3532Z" fill="#CE5E5E"/>
<path d="M8.7499 32.0821C8.00005 31.8317 7.46896 31.3745 7.13331 30.6903C6.93521 30.2865 6.93521 30.2865 6.91875 20.0697C6.90354 10.6323 6.91032 9.82825 7.00775 9.5289C7.24383 8.80343 7.83524 8.18791 8.59421 7.87777C8.93853 7.73707 8.93853 7.73707 12.9765 7.71829C16.6361 7.70131 17.0328 7.7089 17.2105 7.79955C17.5708 7.98333 17.6639 8.47507 17.3955 8.77652C17.2445 8.94614 17.2445 8.94614 14.2601 8.97637C11.2758 9.0066 11.2758 9.0066 11.0932 9.20403C10.8406 9.47709 10.8406 9.80565 11.0932 10.0787C11.2758 10.2761 11.2758 10.2761 14.2601 10.3064C17.2445 10.3366 17.2445 10.3366 17.3955 10.5062C17.629 10.7685 17.6047 11.1086 17.3337 11.3704C17.1208 11.5759 17.1208 11.5759 14.262 11.5759C12.2797 11.5759 11.3612 11.5966 11.2664 11.6434C11.0304 11.76 10.9134 11.9537 10.9119 12.2304C10.9108 12.44 10.947 12.5272 11.0935 12.6687C11.2765 12.8454 11.2765 12.8454 14.1005 12.8454C17.1316 12.8454 17.2264 12.8543 17.4445 13.1548C17.5754 13.3353 17.5754 13.6856 17.4445 13.8661C17.2264 14.1667 17.1316 14.1754 14.1005 14.1754C11.2765 14.1754 11.2765 14.1754 11.0935 14.3521C10.7781 14.6568 10.8662 15.1798 11.2664 15.3774C11.3612 15.4243 12.2797 15.445 14.262 15.445C17.1208 15.445 17.1208 15.445 17.3337 15.6505C17.6047 15.9122 17.629 16.2524 17.3955 16.5147C17.2445 16.6843 17.2445 16.6843 14.2601 16.7145C11.2758 16.7447 11.2758 16.7447 11.0932 16.9422C10.8406 17.2152 10.8406 17.5438 11.0932 17.8168C11.2758 18.0143 11.2758 18.0143 14.2601 18.0445C17.2445 18.0747 17.2445 18.0747 17.3955 18.2444C17.629 18.5066 17.6047 18.8468 17.3337 19.1085C17.1208 19.314 17.1208 19.314 14.262 19.314C12.2797 19.314 11.3612 19.3348 11.2664 19.3816C11.0304 19.4981 10.9134 19.6919 10.9119 19.9686C10.9107 20.1781 10.947 20.2653 11.0935 20.4069C11.2765 20.5836 11.2765 20.5836 14.1005 20.5836C17.1316 20.5836 17.2264 20.5924 17.4444 20.8929C17.5754 21.0735 17.5754 21.4237 17.4444 21.6042C17.2264 21.9048 17.1316 21.9136 14.1005 21.9136C11.2765 21.9136 11.2765 21.9136 11.0935 22.0903C10.7781 22.3949 10.8662 22.918 11.2664 23.1156C11.3611 23.1624 12.2714 23.1831 14.2304 23.1831C16.7559 23.1831 17.0765 23.1939 17.2342 23.2838C17.5753 23.4784 17.6556 23.9607 17.3955 24.2528C17.2445 24.4224 17.2445 24.4224 14.2601 24.4527C11.2758 24.4829 11.2758 24.4829 11.0932 24.6803C10.8406 24.9534 10.8406 25.2819 11.0932 25.555C11.2758 25.7524 11.2758 25.7524 14.2601 25.7826C17.2445 25.8128 17.2445 25.8128 17.3955 25.9825C17.629 26.2447 17.6047 26.5849 17.3337 26.8466C17.1208 27.0522 17.1208 27.0522 14.262 27.0522C12.2797 27.0522 11.3612 27.0728 11.2664 27.1197C11.0304 27.2362 10.9134 27.43 10.9119 27.7067C10.9107 27.9162 10.9469 28.0034 11.0935 28.145C11.2765 28.3217 11.2765 28.3217 14.1005 28.3217C17.1316 28.3217 17.2264 28.3304 17.4444 28.631C17.5754 28.8116 17.5754 29.1618 17.4444 29.3423C17.2264 29.6429 17.1316 29.6517 14.1005 29.6517C11.2765 29.6517 11.2765 29.6517 11.0935 29.8284C10.778 30.133 10.8662 30.656 11.2664 30.8537C11.3611 30.9005 12.2714 30.9212 14.2304 30.9212C16.7559 30.9212 17.0765 30.9319 17.2342 31.0219C17.5964 31.2285 17.6613 31.7265 17.3635 32.014C17.1805 32.1907 17.1805 32.1907 13.1221 32.1888C9.43745 32.187 9.03482 32.1771 8.74989 32.082L8.7499 32.0821ZM21.3724 32.0952C20.2595 31.8063 19.3112 30.8814 19.0197 29.8004C18.8971 29.3458 18.8971 28.6278 19.0197 28.1732C19.3013 27.129 20.2229 26.2033 21.2807 25.9018C21.5403 25.8278 21.5403 25.8278 21.6091 25.367C21.7181 24.6358 22.1236 23.9032 22.7635 23.2813C23.3263 22.7343 24.0675 22.2313 24.8456 21.8684L25.3522 21.6322L25.1217 21.2641C24.8256 20.7913 24.5896 20.0969 24.4222 19.2063C24.2432 18.2543 24.2293 16.1289 24.3922 14.6289C24.9622 9.38055 25.6291 6.43738 26.2485 6.43738C26.5987 6.43738 27.0138 7.52218 27.3702 9.36941C27.7912 11.5509 28.2521 15.5757 28.2516 17.0659C28.2511 18.8487 27.9351 20.3699 27.3822 21.253L27.1448 21.6322L27.6405 21.8637C29.601 22.7792 30.7106 24.0286 30.9118 25.5472C30.9469 25.8124 30.9611 25.829 31.2123 25.9006C31.9851 26.1209 32.8054 26.767 33.1799 27.4502C33.8774 28.7228 33.6463 30.2461 32.6027 31.2539C31.2987 32.5131 29.2115 32.5131 27.9075 31.2539C26.6035 29.9946 26.6035 27.979 27.9075 26.7198C28.2927 26.3478 28.8243 26.0357 29.3072 25.8979C29.5801 25.8201 29.5801 25.8201 29.5516 25.5339C29.4908 24.9232 28.9965 24.2485 28.183 23.6661C27.5663 23.2245 26.5459 22.7322 26.2506 22.7337C25.9517 22.7352 24.9218 23.2308 24.3155 23.6649C23.5031 24.2466 23.0132 24.9048 22.9496 25.5003C22.9154 25.8197 22.9154 25.8197 23.189 25.8978C23.9721 26.1211 24.7901 26.7632 25.1666 27.4502C25.8641 28.7228 25.633 30.2461 24.5894 31.2539C24.1688 31.66 23.6341 31.9601 23.0844 32.0983C22.6284 32.213 21.8201 32.2116 21.3724 32.0954L21.3724 32.0952ZM23.087 30.7352C23.483 30.5537 23.86 30.1915 24.0573 29.8029C24.2776 29.3689 24.2776 28.6047 24.0573 28.1707C23.8616 27.7852 23.4861 27.4226 23.087 27.2337C22.6375 27.0209 21.8461 27.0209 21.3967 27.2337C19.7693 28.0042 19.905 30.2238 21.6161 30.8242C22.0112 30.9628 22.6783 30.9224 23.087 30.7352L23.087 30.7352ZM31.1003 30.7352C31.4963 30.5537 31.8733 30.1915 32.0706 29.8029C32.2909 29.3689 32.2909 28.6047 32.0706 28.1707C31.8749 27.7852 31.4994 27.4226 31.1003 27.2337C30.6493 27.0202 29.8573 27.0187 29.4116 27.2305C27.7807 28.0055 27.9151 30.2227 29.6294 30.8242C30.0245 30.9628 30.6916 30.9225 31.1003 30.7352L31.1003 30.7352ZM26.6999 20.4084C27.2112 19.9673 26.7196 19.1661 26.0514 19.3512C25.7798 19.4264 25.594 19.685 25.594 19.9878C25.594 20.3207 25.8828 20.5836 26.2485 20.5836C26.4341 20.5836 26.5482 20.5393 26.6999 20.4084V20.4084Z" fill="white"/>
</g>
<defs>
<clipPath id="clip0">
<rect width="40" height="38.6266" fill="white"/>
</clipPath>
</defs>
</svg>
