<svg width="40" height="40" viewBox="0 0 40 40" fill="none" xmlns="http://www.w3.org/2000/svg">
<g clip-path="url(#clip0)">
<path d="M19.9828 39.5147C30.7655 39.5147 39.5066 30.7736 39.5066 19.9909C39.5066 9.20815 30.7655 0.467041 19.9828 0.467041C9.20012 0.467041 0.459015 9.20815 0.459015 19.9909C0.459015 30.7736 9.20012 39.5147 19.9828 39.5147Z" fill="#F29900"/>
<path fill-rule="evenodd" clip-rule="evenodd" d="M14.723 20.5846C12.7023 18.9535 11.3176 15.9283 11.3176 13.5004C11.3176 9.86971 13.85 7.76218 16.2309 7.67886C17.2178 7.6636 18.2598 7.91238 19.0402 8.34773C18.8348 6.84805 18.1636 5.69689 17.463 4.87664L19.0672 4.15613C19.3993 4.63373 19.7384 5.48097 19.9602 6.47841C20.4096 5.66285 20.9553 4.9975 21.691 4.56801C22.4761 4.10919 23.7774 4.08455 24.6458 4.24883C24.4264 5.02097 23.9687 6.02428 22.8962 6.68377C22.2367 7.08861 21.1747 7.29631 20.0986 7.21534C20.1479 7.54743 20.1843 7.88891 20.2007 8.23274C21.001 7.8056 21.8905 7.66478 22.8328 7.67886C25.2138 7.76218 27.7461 9.86971 27.7461 13.5004C27.7461 15.9283 26.3614 18.9535 24.3407 20.5846H32.4399V22.9315H9.55743C9.23356 22.9315 8.9707 23.1944 8.9707 23.5182C8.9707 23.8421 9.23356 24.105 9.55743 24.105H32.4399V26.4519H10.7309C9.75927 26.4519 8.9707 27.2405 8.9707 28.2121C8.9707 29.1837 9.75927 29.9723 10.7309 29.9723H32.4399V32.3192H10.7309C8.46377 32.3192 6.62378 30.4792 6.62378 28.2121C6.62378 27.2381 6.96408 26.3428 7.53086 25.6387C6.9723 25.1048 6.62378 24.3514 6.62378 23.5182C6.62378 21.8989 7.93806 20.5846 9.55743 20.5846H14.723ZM32.4399 28.7988H11.3176V27.6254H32.4399V28.7988ZM17.6262 10.4928C15.6982 11.935 15.2382 14.5413 17.1333 18.2377C16.2473 17.7659 14.3522 15.8356 14.3733 13.6084C14.3921 11.6416 16.0314 10.4048 17.6262 10.4928Z" fill="white"/>
</g>
<defs>
<clipPath id="clip0">
<rect width="40" height="40" fill="white"/>
</clipPath>
</defs>
</svg>
