<svg width="56" height="56" viewBox="0 0 56 56" fill="none" xmlns="http://www.w3.org/2000/svg">
<path d="M43.0254 0H12.7768C5.72037 0 0 5.71611 0 12.7673V43.2327C0 50.2839 5.72037 56 12.7768 56H43.0254C50.0819 56 55.8022 50.2839 55.8022 43.2327V12.7673C55.8022 5.71611 50.0819 0 43.0254 0Z" fill="#5ECE90"/>
<path d="M6.67544 45.7366C6.76538 45.5023 27.5072 10.3857 27.5556 10.3857C27.5897 10.3857 40.7831 32.6911 47.8305 44.6639L48.5432 45.8747H27.5828C7.9654 45.8747 6.62585 45.8657 6.67544 45.7365V45.7366ZM44.206 43.3819C44.206 43.2441 38.684 34.0333 38.6058 34.0404C38.5505 34.0449 38.1307 34.3314 37.6726 34.6762C35.1739 36.5567 32.572 37.7581 29.8112 38.3059C28.7839 38.5096 26.3376 38.5107 25.3 38.308C22.5354 37.7675 19.7476 36.4354 17.2256 34.4498C16.6764 34.0175 16.5134 33.9263 16.4376 34.009C16.3381 34.1176 10.9051 43.3214 10.9051 43.3816C10.9051 43.4 18.3978 43.4159 27.5556 43.4159C36.7133 43.4159 44.206 43.4022 44.206 43.382V43.3819ZM29.8595 35.8044C32.1415 35.2801 34.5735 34.0435 36.7625 32.2946C37.0671 32.0514 37.3162 31.8112 37.3162 31.7608C37.3162 31.7105 37.0139 31.1572 36.6444 30.5314C35.9295 29.3206 35.8871 29.2772 34.6705 28.5151C34.1738 28.204 32.382 27.2696 32.2821 27.2696C32.2616 27.2696 32.2782 27.3886 32.318 27.5342C32.3597 27.6799 32.4164 28.0762 32.4432 28.4153C32.6227 30.6696 30.9407 32.9255 28.6836 33.4573C27.018 33.8497 25.3445 33.3592 24.1031 32.1147C22.9952 31.004 22.5097 29.632 22.6977 28.143C22.7493 27.7342 22.7747 27.3828 22.7546 27.3621C22.6946 27.3023 21.4321 27.9528 20.6251 28.4589C19.2317 29.3328 19.1138 29.448 18.4176 30.6181C18.0674 31.2065 17.8018 31.7216 17.8273 31.7629C17.9323 31.9327 19.0505 32.7893 20.0122 33.4368C21.8017 34.6415 24.0716 35.6195 25.6694 35.8742C26.0078 35.9281 26.3399 35.9855 26.4076 36.0018C26.7823 36.0917 29.2131 35.9527 29.8599 35.8045L29.8595 35.8044ZM28.5809 30.8858C29.517 30.4371 29.9708 29.7127 29.9733 28.663C29.9744 28.1713 29.9351 27.9699 29.7752 27.6572C28.8219 25.7908 26.2896 25.7908 25.3363 27.6572C25.0613 28.1955 25.0569 29.0968 25.3264 29.6874C25.7259 30.5626 26.5948 31.1216 27.5557 31.1216C27.9743 31.1216 28.1945 31.0711 28.5809 30.8858H28.5809ZM22.4124 24.8175C23.2732 24.4758 24.5937 24.1106 25.5461 23.9508C26.6268 23.7694 28.474 23.7703 29.6061 23.9519C30.4737 24.0912 32.1937 24.5782 32.9254 24.8916C33.1427 24.9847 33.3342 25.047 33.351 25.0299C33.402 24.979 27.6368 15.2621 27.5555 15.2621C27.4952 15.2621 21.732 24.9268 21.732 25.0282C21.732 25.0808 21.8083 25.0571 22.4124 24.8172V24.8175ZM9.11895 27.454L9.14246 26.2451L11.5827 26.2246L14.0228 26.2041V27.4347V28.6654H11.5599H9.09706L9.11895 27.454ZM41.0892 27.4335V26.2029L43.5294 26.2234L45.9695 26.2439L45.993 27.4528L46.0166 28.6617H43.5537H41.0909L41.0892 27.4335ZM10.8846 21.1179L7.21416 18.664L7.8908 17.6481C8.263 17.0893 8.60441 16.6539 8.64954 16.6804C8.76045 16.7457 15.8589 21.4662 15.9003 21.5023C15.927 21.5258 14.5943 23.5952 14.5641 23.5772C14.5602 23.575 12.9034 22.4675 10.8846 21.1179ZM39.8547 22.5518C39.4825 21.9903 39.1928 21.5181 39.2109 21.5023C39.2524 21.4662 46.3504 16.7459 46.4616 16.6804C46.5069 16.6538 46.8482 17.0893 47.2203 17.6481L47.8971 18.664L44.2142 21.1183L40.5314 23.5726L39.8547 22.5518ZM16.4826 16.411V13.9925H17.713H18.9433V16.4103V18.8282H17.713H16.4826V16.411ZM36.1679 16.411V13.9925H37.3982H38.6285V16.4103V18.8282H37.3982H36.1679V16.411Z" fill="white"/>
</svg>
