<svg width="38" height="36" viewBox="0 0 38 36" fill="none" xmlns="http://www.w3.org/2000/svg">
<path d="M18.85 0C28.81 0 37.7 6.8064 37.7 16.1173C37.7 19.419 36.54 22.6611 34.49 25.1768C34.4 28.1242 36.09 32.3537 37.62 35.4327C33.53 34.6757 27.72 33.0047 25.09 31.3486C10.58 34.9677 0 25.8646 0 16.1173C0 6.7565 8.95998 0 18.85 0ZM17.28 24.1589H20.42V14.4954H17.28V24.1589ZM18.85 11.6768C19.94 11.6768 20.8199 10.7749 20.8199 9.6636C20.8199 8.5523 19.94 7.6504 18.85 7.6504C17.77 7.6504 16.89 8.5523 16.89 9.6636C16.89 10.7749 17.77 11.6768 18.85 11.6768Z" fill="#25C2EA"/>
</svg>
