<svg width="56" height="56" viewBox="0 0 56 56" fill="none" xmlns="http://www.w3.org/2000/svg">
<path d="M43.0254 0H12.7768C5.72037 0 0 5.71611 0 12.7673V43.2327C0 50.2839 5.72037 56 12.7768 56H43.0254C50.0819 56 55.8022 50.2839 55.8022 43.2327V12.7673C55.8022 5.71611 50.0819 0 43.0254 0Z" fill="#CEC15E"/>
<path d="M27.6554 10.7657C33.269 10.7657 33.9348 10.7862 36.1529 10.8879C41.8506 11.1473 44.512 13.8485 44.7713 19.4999C44.8733 21.7146 44.8926 22.3799 44.8926 27.9894C44.8926 33.6006 44.8727 34.2641 44.7713 36.4788C44.5104 42.125 41.8559 44.8317 36.1529 45.0908C33.9348 45.1928 33.2725 45.2131 27.6554 45.2131C22.0417 45.2131 21.3759 45.1926 19.1596 45.0908C13.4478 44.8301 10.8005 42.1162 10.5412 36.4771C10.4392 34.2623 10.4186 33.5988 10.4186 27.9876C10.4186 22.3782 10.4384 21.7146 10.5412 19.4982C10.8021 13.8485 13.4566 11.1452 19.1596 10.8861C21.3777 10.7862 22.0417 10.7657 27.6554 10.7657V10.7657ZM27.6554 6.97874C21.9454 6.97874 21.2305 7.00539 18.9879 7.1046C11.3524 7.45463 7.10886 11.6881 6.75842 19.325C6.65508 21.5677 6.63063 22.282 6.63063 27.9877C6.63063 33.6934 6.65717 34.4096 6.75652 36.6505C7.10682 44.2803 11.3434 48.5207 18.9859 48.8708C21.2303 48.9728 21.9452 48.9971 27.6552 48.9971C33.3651 48.9971 34.0818 48.9705 36.3244 48.8708C43.9529 48.5207 48.207 44.2873 48.5521 36.6505C48.6554 34.4096 48.6799 33.6934 48.6799 27.9877C48.6799 22.282 48.6533 21.5677 48.554 19.3267C48.2103 11.7039 43.9688 7.45657 36.3263 7.1064C34.0819 7.00308 33.3653 6.97872 27.6553 6.97872L27.6554 6.97874ZM27.6554 17.1997C21.6931 17.1997 16.8591 22.0301 16.8591 27.9879C16.8591 33.9457 21.6931 38.7778 27.6554 38.7778C33.6176 38.7778 38.4516 33.9475 38.4516 27.9879C38.4516 22.0301 33.6176 17.1997 27.6554 17.1997ZM27.6554 34.991C23.785 34.991 20.6471 31.8571 20.6471 27.9879C20.6471 24.1205 23.785 20.9849 27.6554 20.9849C31.5257 20.9849 34.6636 24.1205 34.6636 27.9879C34.6636 31.8571 31.5257 34.991 27.6554 34.991ZM38.8791 14.2532C37.4845 14.2532 36.3544 15.3824 36.3544 16.7743C36.3544 18.1661 37.4845 19.2954 38.8791 19.2954C40.272 19.2954 41.4003 18.1661 41.4003 16.7743C41.4003 15.3824 40.272 14.2532 38.8791 14.2532Z" fill="white" fill-opacity="0.991936"/>
</svg>
