<svg width="40" height="39" viewBox="0 0 40 39" fill="none" xmlns="http://www.w3.org/2000/svg">
<path d="M20 38.6266C31.0457 38.6266 40 29.9797 40 19.3133C40 8.64686 31.0457 0 20 0C8.9543 0 0 8.64686 0 19.3133C0 29.9797 8.9543 38.6266 20 38.6266Z" fill="#4E8CEF"/>
<path d="M20.455 33.9542L20.9473 33.4784L20.6106 33.154C20.4101 32.9608 20.2739 32.8107 20.2739 32.783C20.2739 32.7203 20.3449 32.6483 20.4067 32.6483C20.4378 32.6483 20.5862 32.772 20.7962 32.9729L21.1355 33.2976L21.6582 32.7924L22.1809 32.2872L21.6264 31.7512C21.06 31.2039 21.0162 31.1466 21.1017 31.064C21.1862 30.9825 21.2458 31.0251 21.8126 31.5705L22.369 32.1058L22.8983 31.5947L23.4276 31.0835L23.085 30.752C22.8965 30.5697 22.7424 30.4025 22.7424 30.3804C22.7424 30.324 22.8106 30.2647 22.8754 30.2647C22.9123 30.2647 23.0388 30.3699 23.266 30.5898L23.602 30.9149L24.1321 30.4034C24.4237 30.1221 24.6622 29.8811 24.6622 29.8678C24.6622 29.8544 24.4131 29.6029 24.1086 29.3087C23.5747 28.7928 23.5558 28.7712 23.5792 28.7065C23.597 28.6575 23.6229 28.6373 23.6756 28.6314C23.7402 28.6237 23.8057 28.6793 24.3047 29.1609L24.8617 29.6984L25.3852 29.1932L25.9088 28.6881L25.5722 28.3625C25.3461 28.1437 25.2357 28.0196 25.2357 27.9843C25.2357 27.935 25.3181 27.8569 25.3701 27.8569C25.383 27.8569 25.5491 28.0056 25.7391 28.1873L26.0844 28.5177L26.5948 28.0252L27.1052 27.5327L26.532 26.9773C26.2167 26.6719 25.9588 26.4028 25.9588 26.3794C25.9588 26.2998 26.0082 26.2437 26.0783 26.2437C26.1335 26.2437 26.2523 26.3462 26.7192 26.7975L27.2923 27.3513L27.8219 26.8403L28.3515 26.3292L28.0029 25.9897C27.8111 25.8029 27.6542 25.6367 27.6542 25.6203C27.6542 25.5529 27.708 25.4973 27.7732 25.4973C27.8265 25.4973 27.9124 25.5665 28.1839 25.8282L28.5272 26.1591L29.0515 25.6528L29.5757 25.1465L28.8601 23.7328C28.4665 22.9553 28.1379 22.3191 28.1299 22.3191C28.122 22.3191 26.281 24.0906 24.0389 26.2557L19.9623 30.1924L15.9099 26.2791L11.8574 22.3658L11.1413 23.782C10.7475 24.5609 10.4252 25.2087 10.4252 25.2215C10.4252 25.2347 10.6382 25.4504 10.8985 25.7015L11.3717 26.158L11.7046 25.8397C12.0434 25.5158 12.1011 25.4818 12.1812 25.5592C12.2631 25.6383 12.2279 25.6941 11.8903 26.0208L11.5601 26.3403L12.0645 26.8273L12.5688 27.3143L13.1128 26.7911C13.4119 26.5032 13.6732 26.2678 13.6935 26.2678C13.7564 26.2678 13.8411 26.3403 13.8411 26.3943C13.8411 26.4293 13.6671 26.6145 13.2992 26.9711L12.7573 27.4963L13.2741 27.9954L13.791 28.4945L14.1218 28.1757C14.4577 27.852 14.5297 27.8091 14.6091 27.8857C14.6782 27.9524 14.634 28.0175 14.3024 28.3384L13.9659 28.664L14.5019 29.1812L15.0379 29.6984L15.5804 29.1749C15.9559 28.8125 16.1397 28.6514 16.1774 28.6514C16.2338 28.6514 16.3095 28.7325 16.3095 28.7929C16.3095 28.8117 16.0658 29.0643 15.768 29.3539L15.2264 29.8803L15.749 30.3854L16.2716 30.8905L16.6139 30.5606C16.9407 30.2456 16.9593 30.2317 17.0255 30.2541C17.0762 30.2711 17.0972 30.2962 17.1032 30.347C17.11 30.4081 17.0713 30.4554 16.7793 30.738L16.4471 31.0594L16.9767 31.5708L17.5062 32.0822L18.0488 31.5586C18.5849 31.0413 18.6501 30.9935 18.7231 31.064C18.8087 31.1466 18.7647 31.2048 18.217 31.7333L17.6809 32.2506L18.2101 32.762L18.7393 33.2734L19.0785 32.9488C19.2886 32.7478 19.4369 32.6242 19.468 32.6242C19.541 32.6242 19.6097 32.707 19.5921 32.7737C19.5842 32.804 19.4312 32.9695 19.2525 33.1416L18.9274 33.4543L19.4322 33.9421C19.7098 34.2104 19.9427 34.43 19.9499 34.43C19.9566 34.43 20.1843 34.2159 20.455 33.9542L20.455 33.9542ZM9.01462 26.7041C9.09151 26.6593 9.22153 26.5992 9.30356 26.5705C9.38564 26.5418 9.46265 26.508 9.4748 26.4954C9.48695 26.4828 10.6262 24.2383 12.0064 21.5077C13.3866 18.7771 14.5678 16.453 14.6312 16.3431C15.252 15.2669 15.9906 14.5632 16.659 14.4111C16.7479 14.3908 16.8601 14.3741 16.9083 14.3739C16.9959 14.3735 16.9959 14.3735 18.5165 11.831C19.3528 10.4327 20.0403 9.28026 20.0442 9.27015C20.0476 9.26029 19.9191 9.24563 19.7575 9.23829C19.4198 9.22283 19.1942 9.1685 18.8816 9.02711C18.5367 8.87115 18.1811 8.59608 17.9857 8.33429L17.908 8.23013L17.8476 8.34629C17.6917 8.64553 8.55528 27.0094 8.55528 27.0233C8.55528 27.0322 8.62722 26.9821 8.71509 26.9122C8.80302 26.8424 8.93779 26.7487 9.01468 26.7039L9.01462 26.7041ZM26.766 17.5535C24.1759 12.349 22.0511 8.0906 22.0442 8.09033C22.0375 8.09006 21.9896 8.15307 21.9381 8.2303C21.6356 8.68363 21.0828 9.05024 20.4803 9.19694C20.3854 9.22013 20.3648 9.23934 20.2725 9.39194C20.2089 9.49706 20.1762 9.57667 20.186 9.60184C20.195 9.62423 20.838 10.7068 21.6154 12.0078C23.029 14.3732 23.029 14.3732 23.1163 14.3738C23.2601 14.3747 23.5157 14.4427 23.7039 14.5301C24.2499 14.7837 24.826 15.3911 25.3462 16.2618C25.4246 16.3932 26.6261 18.7498 28.016 21.4986C29.4059 24.2475 30.5579 26.5046 30.576 26.5145C30.5939 26.5244 30.6744 26.5554 30.7545 26.5833C30.9106 26.6378 31.2928 26.873 31.3922 26.9757C31.4254 27.01 31.4578 27.0332 31.464 27.0272C31.4706 27.0208 29.3561 22.758 26.766 17.5536L26.766 17.5535ZM10.3178 22.8975L10.9957 21.5366L9.30153 19.8994L7.60736 18.2621L6.51255 19.3336L5.41772 20.405L5.92667 20.8984L6.43561 21.3918L6.76645 21.0729C7.10236 20.7492 7.17435 20.7064 7.2537 20.783C7.33307 20.8597 7.28871 20.9292 6.95353 21.2535L6.62345 21.5729L7.14656 22.0784L7.66966 22.584L8.21861 22.0543C8.59883 21.6874 8.78431 21.5246 8.82205 21.5246C8.87361 21.5246 8.95416 21.6042 8.95416 21.6551C8.95416 21.6682 8.7047 21.9204 8.3998 22.2159L7.84544 22.7532L8.36226 23.2523L8.87909 23.7514L9.20993 23.4325C9.43045 23.22 9.55877 23.1137 9.59475 23.1137C9.65926 23.1137 9.7271 23.1734 9.7271 23.2301C9.7271 23.2526 9.57564 23.4168 9.39053 23.5952L9.05398 23.9195L9.30951 24.1672C9.56503 24.4148 9.56503 24.4148 9.60244 24.3365C9.62304 24.2935 9.9449 23.6459 10.3178 22.8975L10.3178 22.8975ZM30.5026 23.6131C30.1675 23.2887 30.1231 23.2192 30.2024 23.1426C30.2802 23.0675 30.3515 23.11 30.6884 23.4321L31.0214 23.7505L31.538 23.2516L32.0547 22.7527L31.5158 22.2289C31.2195 21.9409 30.9707 21.6875 30.9631 21.6658C30.9418 21.6055 31.0139 21.5246 31.0889 21.5246C31.1414 21.5246 31.2653 21.6309 31.6987 22.0478L32.2425 22.571L32.7534 22.0781C33.0344 21.807 33.2643 21.5741 33.2643 21.5606C33.2643 21.547 33.1184 21.3954 32.9401 21.2236C32.62 20.9151 32.5765 20.85 32.6459 20.783C32.7253 20.7064 32.7973 20.7492 33.1332 21.0729L33.464 21.3917L33.9687 20.9044L34.4734 20.417L33.3764 19.3576L32.2793 18.2982L30.6387 19.8826L28.9981 21.467L29.644 22.7659C29.9993 23.4802 30.3207 24.1232 30.3582 24.1947L30.4264 24.3248L30.6296 24.1286L30.8327 23.9325L30.5026 23.6131ZM20.3278 8.97031C20.9003 8.86377 21.4175 8.53565 21.7316 8.07985C22.0052 7.68272 22.103 7.37126 22.1029 6.89761C22.1029 6.68606 22.0893 6.53131 22.0609 6.42018C21.8542 5.60848 21.2036 4.99554 20.3687 4.82594C20.1438 4.78027 19.7018 4.78104 19.4727 4.82811C18.6691 4.99135 18.0198 5.59234 17.8009 6.37565C17.7245 6.64884 17.7245 7.13687 17.801 7.41181C18.0248 8.21645 18.6649 8.80253 19.501 8.96822C19.7186 9.01138 20.1036 9.01258 20.3278 8.97039L20.3278 8.97031ZM19.7503 8.47256C19.3636 8.43734 19.0715 8.30103 18.7754 8.01772C18.4134 7.67128 18.2592 7.28906 18.2858 6.8035C18.3185 6.20637 18.6729 5.7042 19.2392 5.45233C19.4812 5.3447 19.6491 5.3098 19.9249 5.3098C20.2007 5.3098 20.3685 5.3447 20.6105 5.45233C21.47 5.83456 21.8169 6.82123 21.3794 7.6392C21.2474 7.88595 20.9254 8.19226 20.6729 8.31116C20.3686 8.45444 20.0887 8.50344 19.7503 8.47256V8.47256Z" fill="#F0EAF3"/>
</svg>
