<svg width="40" height="39" viewBox="0 0 40 39" fill="none" xmlns="http://www.w3.org/2000/svg">
<path d="M20 38.6266C31.0457 38.6266 40 29.9797 40 19.3133C40 8.64686 31.0457 0 20 0C8.9543 0 0 8.64686 0 19.3133C0 29.9797 8.9543 38.6266 20 38.6266Z" fill="#CE5E5E"/>
<path d="M20.4549 33.9542L20.9472 33.4784L20.6105 33.154C20.41 32.9608 20.2739 32.8107 20.2739 32.783C20.2739 32.7203 20.3448 32.6483 20.4067 32.6483C20.4377 32.6483 20.5861 32.772 20.7961 32.9729L21.1354 33.2976L21.6581 32.7924L22.1809 32.2872L21.6263 31.7512C21.06 31.2039 21.0162 31.1466 21.1017 31.064C21.1861 30.9825 21.2457 31.0251 21.8126 31.5705L22.369 32.1058L22.8983 31.5947L23.4276 31.0835L23.0849 30.752C22.8965 30.5697 22.7423 30.4025 22.7423 30.3804C22.7423 30.324 22.8105 30.2647 22.8753 30.2647C22.9122 30.2647 23.0387 30.3699 23.266 30.5898L23.6019 30.9149L24.132 30.4034C24.4236 30.1221 24.6622 29.8811 24.6622 29.8678C24.6622 29.8544 24.413 29.6029 24.1085 29.3087C23.5747 28.7928 23.5557 28.7712 23.5791 28.7065C23.5969 28.6575 23.6228 28.6373 23.6755 28.6314C23.7401 28.6237 23.8056 28.6793 24.3046 29.1609L24.8616 29.6984L25.3852 29.1932L25.9087 28.6881L25.5722 28.3625C25.3461 28.1437 25.2356 28.0196 25.2356 27.9843C25.2356 27.935 25.318 27.8569 25.3701 27.8569C25.3829 27.8569 25.5491 28.0056 25.739 28.1873L26.0843 28.5177L26.5947 28.0252L27.1052 27.5327L26.5319 26.9773C26.2167 26.6719 25.9587 26.4028 25.9587 26.3794C25.9587 26.2998 26.0081 26.2437 26.0782 26.2437C26.1335 26.2437 26.2522 26.3462 26.7192 26.7975L27.2922 27.3513L27.8218 26.8403L28.3515 26.3292L28.0028 25.9897C27.8111 25.8029 27.6542 25.6367 27.6542 25.6203C27.6542 25.5529 27.708 25.4973 27.7732 25.4973C27.8264 25.4973 27.9123 25.5665 28.1838 25.8282L28.5271 26.1591L29.0514 25.6528L29.5757 25.1465L28.86 23.7328C28.4664 22.9553 28.1378 22.3191 28.1299 22.3191C28.1219 22.3191 26.2809 24.0906 24.0388 26.2557L19.9623 30.1924L15.9098 26.2791L11.8573 22.3658L11.1412 23.782C10.7474 24.5609 10.4252 25.2087 10.4252 25.2215C10.4252 25.2347 10.6381 25.4504 10.8984 25.7015L11.3717 26.158L11.7046 25.8397C12.0434 25.5158 12.101 25.4818 12.1812 25.5592C12.263 25.6383 12.2278 25.6941 11.8902 26.0208L11.5601 26.3403L12.0644 26.8273L12.5688 27.3143L13.1127 26.7911C13.4119 26.5032 13.6732 26.2678 13.6934 26.2678C13.7564 26.2678 13.8411 26.3403 13.8411 26.3943C13.8411 26.4293 13.667 26.6145 13.2992 26.9711L12.7573 27.4963L13.2741 27.9954L13.7909 28.4945L14.1217 28.1757C14.4576 27.852 14.5297 27.8091 14.609 27.8857C14.6781 27.9524 14.634 28.0175 14.3024 28.3384L13.9658 28.664L14.5018 29.1812L15.0378 29.6984L15.5804 29.1749C15.9559 28.8125 16.1396 28.6514 16.1773 28.6514C16.2337 28.6514 16.3094 28.7325 16.3094 28.7929C16.3094 28.8117 16.0658 29.0643 15.7679 29.3539L15.2263 29.8803L15.7489 30.3854L16.2715 30.8905L16.6138 30.5606C16.9406 30.2456 16.9593 30.2317 17.0255 30.2541C17.0761 30.2711 17.0971 30.2962 17.1032 30.347C17.1099 30.4081 17.0712 30.4554 16.7792 30.738L16.4471 31.0594L16.9766 31.5708L17.5062 32.0822L18.0487 31.5586C18.5849 31.0413 18.6501 30.9935 18.7231 31.064C18.8086 31.1466 18.7646 31.2048 18.2169 31.7333L17.6808 32.2506L18.21 32.762L18.7392 33.2734L19.0785 32.9488C19.2885 32.7478 19.4368 32.6242 19.4679 32.6242C19.5409 32.6242 19.6097 32.707 19.592 32.7737C19.5842 32.804 19.4312 32.9695 19.2524 33.1416L18.9274 33.4543L19.4321 33.9421C19.7097 34.2104 19.9427 34.43 19.9498 34.43C19.9566 34.43 20.1842 34.2159 20.455 33.9542L20.4549 33.9542ZM9.01456 26.7041C9.09145 26.6593 9.22146 26.5992 9.3035 26.5705C9.38558 26.5418 9.46259 26.508 9.47474 26.4954C9.48689 26.4828 10.6261 24.2383 12.0064 21.5077C13.3866 18.7771 14.5677 16.453 14.6311 16.3431C15.2519 15.2669 15.9905 14.5632 16.6589 14.4111C16.7479 14.3908 16.86 14.3741 16.9082 14.3739C16.9958 14.3735 16.9958 14.3735 18.5164 11.831C19.3528 10.4327 20.0402 9.28026 20.0442 9.27015C20.0475 9.26029 19.9191 9.24563 19.7574 9.23829C19.4197 9.22283 19.1941 9.1685 18.8815 9.02711C18.5367 8.87115 18.181 8.59608 17.9856 8.33429L17.908 8.23013L17.8475 8.34629C17.6917 8.64553 8.55522 27.0094 8.55522 27.0233C8.55522 27.0322 8.62716 26.9821 8.71503 26.9122C8.80296 26.8424 8.93773 26.7487 9.01461 26.7039L9.01456 26.7041ZM26.766 17.5535C24.1758 12.349 22.051 8.0906 22.0442 8.09033C22.0374 8.09006 21.9896 8.15307 21.938 8.2303C21.6356 8.68363 21.0827 9.05024 20.4802 9.19694C20.3853 9.22013 20.3648 9.23934 20.2725 9.39194C20.2089 9.49706 20.1761 9.57667 20.1859 9.60184C20.1949 9.62423 20.8379 10.7068 21.6154 12.0078C23.029 14.3732 23.029 14.3732 23.1162 14.3738C23.26 14.3747 23.5157 14.4427 23.7038 14.5301C24.2498 14.7837 24.8259 15.3911 25.3461 16.2618C25.4246 16.3932 26.6261 18.7498 28.016 21.4986C29.4059 24.2475 30.5578 26.5046 30.5759 26.5145C30.5938 26.5244 30.6743 26.5554 30.7545 26.5833C30.9105 26.6378 31.2927 26.873 31.3922 26.9757C31.4254 27.01 31.4577 27.0332 31.4639 27.0272C31.4706 27.0208 29.3561 22.758 26.7659 17.5536L26.766 17.5535ZM10.3177 22.8975L10.9956 21.5366L9.30146 19.8994L7.6073 18.2621L6.51249 19.3336L5.41766 20.405L5.9266 20.8984L6.43555 21.3918L6.76639 21.0729C7.1023 20.7492 7.17429 20.7064 7.25364 20.783C7.33301 20.8597 7.28865 20.9292 6.95347 21.2535L6.62339 21.5729L7.1465 22.0784L7.6696 22.584L8.21855 22.0543C8.59877 21.6874 8.78425 21.5246 8.82199 21.5246C8.87355 21.5246 8.9541 21.6042 8.9541 21.6551C8.9541 21.6682 8.70464 21.9204 8.39973 22.2159L7.84538 22.7532L8.3622 23.2523L8.87903 23.7514L9.20987 23.4325C9.43038 23.22 9.55871 23.1137 9.59469 23.1137C9.6592 23.1137 9.72704 23.1734 9.72704 23.2301C9.72704 23.2526 9.57558 23.4168 9.39047 23.5952L9.05392 23.9195L9.30945 24.1672C9.56497 24.4148 9.56497 24.4148 9.60238 24.3365C9.62298 24.2935 9.94484 23.6459 10.3177 22.8975L10.3177 22.8975ZM30.5026 23.6131C30.1674 23.2887 30.123 23.2192 30.2024 23.1426C30.2802 23.0675 30.3515 23.11 30.6883 23.4321L31.0213 23.7505L31.538 23.2516L32.0546 22.7527L31.5158 22.2289C31.2194 21.9409 30.9707 21.6875 30.963 21.6658C30.9418 21.6055 31.0138 21.5246 31.0889 21.5246C31.1413 21.5246 31.2652 21.6309 31.6986 22.0478L32.2425 22.571L32.7533 22.0781C33.0343 21.807 33.2642 21.5741 33.2642 21.5606C33.2642 21.547 33.1183 21.3954 32.9401 21.2236C32.6199 20.9151 32.5764 20.85 32.6458 20.783C32.7252 20.7064 32.7972 20.7492 33.1331 21.0729L33.4639 21.3917L33.9687 20.9044L34.4734 20.417L33.3763 19.3576L32.2792 18.2982L30.6386 19.8826L28.998 21.467L29.644 22.7659C29.9993 23.4802 30.3207 24.1232 30.3582 24.1947L30.4264 24.3248L30.6295 24.1286L30.8326 23.9325L30.5026 23.6131ZM20.3278 8.97031C20.9002 8.86377 21.4175 8.53565 21.7315 8.07985C22.0051 7.68272 22.103 7.37126 22.1029 6.89761C22.1028 6.68606 22.0892 6.53131 22.0609 6.42018C21.8541 5.60848 21.2035 4.99554 20.3686 4.82594C20.1437 4.78027 19.7017 4.78104 19.4726 4.82811C18.669 4.99135 18.0197 5.59234 17.8008 6.37565C17.7245 6.64884 17.7245 7.13687 17.801 7.41181C18.0247 8.21645 18.6648 8.80253 19.5009 8.96822C19.7185 9.01138 20.1035 9.01258 20.3278 8.97039L20.3278 8.97031ZM19.7503 8.47256C19.3635 8.43734 19.0715 8.30103 18.7754 8.01772C18.4133 7.67128 18.2592 7.28906 18.2858 6.8035C18.3184 6.20637 18.6728 5.7042 19.2391 5.45233C19.4812 5.3447 19.649 5.3098 19.9248 5.3098C20.2006 5.3098 20.3685 5.3447 20.6105 5.45233C21.47 5.83456 21.8169 6.82123 21.3794 7.6392C21.2474 7.88595 20.9253 8.19226 20.6728 8.31116C20.3686 8.45444 20.0886 8.50344 19.7503 8.47256V8.47256Z" fill="white"/>
</svg>
