<svg width="42" height="41" viewBox="0 0 42 41" fill="none" xmlns="http://www.w3.org/2000/svg">
<path d="M28.875 20.125C28.875 21.574 27.895 22.75 26.6875 22.75C25.48 22.75 24.5 21.574 24.5 20.125C24.5 18.676 25.48 17.5 26.6875 17.5C27.895 17.5 28.875 18.676 28.875 20.125ZM15.3125 17.5C14.105 17.5 13.125 18.676 13.125 20.125C13.125 21.574 14.105 22.75 15.3125 22.75C16.52 22.75 17.5 21.574 17.5 20.125C17.5 18.676 16.52 17.5 15.3125 17.5ZM21 32.1195C24.9112 32.1195 26.25 28 26.25 28H15.75C15.75 28 17.2323 32.1195 21 32.1195ZM42 21.9642C42 25.333 40.432 30.2557 36.1953 31.0432C32.767 37.1542 27.6605 40.25 21 40.25C14.3412 40.25 9.233 37.1542 5.80475 31.045C1.56975 30.2557 0 25.3347 0 21.9642C0 18.221 1.407 14.8015 4.97525 14.574C5.768 5.65075 11.8807 0 21 0C30.1192 0 36.232 5.65075 37.0247 14.5757C40.5877 14.8015 42 18.2035 42 21.9642ZM38.5 21.9642C38.5 20.0672 38.0993 18.7162 37.3957 18.2595C36.9198 17.9497 36.3195 18.0775 36.0728 18.1877C34.9213 18.7005 33.6123 17.8552 33.6123 16.5882C33.6123 15.267 33.4373 12.6577 32.312 10.1132C30.2838 6.34025 27.6098 12.4022 21 12.4022C14.3903 12.4022 11.7162 6.34025 9.688 10.115C8.56275 12.6577 8.38775 15.267 8.38775 16.59C8.38775 17.8482 7.08575 18.7057 5.92725 18.1895C5.677 18.0792 5.082 17.9515 4.60425 18.2612C2.67575 19.516 3.20775 27.5817 6.94225 27.6535C7.58625 27.6657 8.1725 28.0315 8.4665 28.6037C12.649 36.75 18.935 36.75 21 36.75C23.0667 36.75 29.3493 36.75 33.5335 28.6037C33.8275 28.0297 34.4137 27.6657 35.056 27.6535C38.2987 27.5905 38.5 22.0202 38.5 21.9642Z" fill="black"/>
</svg>
