<svg width="23" height="22" viewBox="0 0 23 22" fill="none" xmlns="http://www.w3.org/2000/svg">
<path opacity="0.999" d="M11.3996 22C17.6955 22 22.7993 17.0751 22.7993 11C22.7993 4.92487 17.6955 0 11.3996 0C5.10381 0 0 4.92487 0 11C0 17.0751 5.10381 22 11.3996 22Z" fill="#4E5FFF"/>
<path d="M11.0551 17.2421V8.57236C11.0551 8.27801 11.0551 7.97698 11.0551 7.66925C11.0551 7.34814 11.062 7.02704 11.0758 6.70595C10.6183 7.12071 10.0914 7.48864 9.49516 7.80973C8.89896 8.11746 8.28889 8.33152 7.66496 8.45193L7.29057 6.30457C7.58174 6.27778 7.92839 6.19081 8.33048 6.04367C8.73258 5.88312 9.13466 5.69582 9.53675 5.48175C9.95271 5.2543 10.3271 5.01348 10.6598 4.75927C11.0065 4.50506 11.2699 4.25086 11.4502 3.99665H13.5923V17.2421H11.0551Z" fill="white"/>
</svg>
