<svg width="23" height="22" viewBox="0 0 23 22" fill="none" xmlns="http://www.w3.org/2000/svg">
<path opacity="0.999" d="M11.3996 22C17.6955 22 22.7993 17.0751 22.7993 11C22.7993 4.92487 17.6955 0 11.3996 0C5.10381 0 0 4.92487 0 11C0 17.0751 5.10381 22 11.3996 22Z" fill="#FF5555"/>
<path d="M11.0551 17.2421V8.5724C11.0551 8.27805 11.0551 7.97702 11.0551 7.66929C11.0551 7.34818 11.0621 7.02708 11.0759 6.70599C10.6183 7.12075 10.0914 7.48868 9.49522 7.80977C8.89902 8.1175 8.28896 8.33156 7.66502 8.45197L7.29064 6.30461C7.5818 6.27782 7.92845 6.19084 8.33054 6.04371C8.73264 5.88316 9.13472 5.69586 9.53681 5.48179C9.95277 5.25434 10.3271 5.01352 10.6599 4.75931C11.0065 4.5051 11.27 4.25089 11.4502 3.99669H13.5924V17.2421H11.0551Z" fill="white"/>
</svg>
