<svg width="23" height="22" viewBox="0 0 23 22" fill="none" xmlns="http://www.w3.org/2000/svg">
<path opacity="0.999" d="M11.3996 22C17.6954 22 22.7992 17.0751 22.7992 11C22.7992 4.92487 17.6954 0 11.3996 0C5.10378 0 0 4.92487 0 11C0 17.0751 5.10378 22 11.3996 22Z" fill="#FF5555"/>
<path d="M11.6268 17.9328C10.2818 17.9328 9.13106 17.6585 8.17435 17.11C7.21765 16.548 6.55902 15.752 6.19853 14.7218L8.67346 13.638C8.78436 14.1197 8.95767 14.5278 9.19341 14.8622C9.44299 15.1967 9.76884 15.4442 10.1709 15.6048C10.573 15.7653 11.0583 15.8456 11.6268 15.8456C12.1259 15.8456 12.5488 15.7653 12.8954 15.6048C13.2421 15.4308 13.5055 15.19 13.6858 14.8823C13.8799 14.5746 13.9769 14.22 13.9769 13.8187C13.9769 13.4039 13.8937 13.0627 13.7274 12.7951C13.561 12.5276 13.3045 12.3336 12.9579 12.2132C12.6251 12.0794 12.2022 12.0124 11.6892 12.0124C11.5228 12.0124 11.3495 12.0191 11.1692 12.0325C11.0028 12.0325 10.8226 12.0458 10.6285 12.0725V10.1459C10.7534 10.1592 10.8712 10.1659 10.982 10.1659C11.1069 10.1659 11.2317 10.1659 11.3564 10.1659C12.1745 10.1659 12.7637 10.012 13.1242 9.70433C13.4847 9.38322 13.665 8.87482 13.665 8.1791C13.665 7.59042 13.4847 7.14222 13.1242 6.83449C12.7637 6.52677 12.2438 6.3729 11.5644 6.3729C10.8573 6.3729 10.3026 6.53346 9.90055 6.85456C9.51233 7.17565 9.22811 7.6573 9.04786 8.29951L6.67688 7.41648C6.87099 6.7609 7.19685 6.19896 7.6544 5.73068C8.12582 5.26242 8.70817 4.90119 9.40143 4.64698C10.0947 4.39278 10.8642 4.26566 11.71 4.26566C12.7083 4.26566 13.5471 4.41953 14.2265 4.72725C14.9059 5.03498 15.412 5.45643 15.7448 5.99159C16.0914 6.52677 16.2647 7.13553 16.2647 7.81786C16.2647 8.33965 16.1815 8.79454 16.0152 9.18254C15.8488 9.57054 15.6338 9.89833 15.3704 10.1659C15.1069 10.4201 14.8297 10.6208 14.5385 10.768C14.2473 10.9018 13.9631 10.9887 13.6858 11.0289V11.0691C14.0324 11.0824 14.3721 11.156 14.7049 11.2899C15.0515 11.4102 15.3635 11.5908 15.6408 11.8317C15.9181 12.0726 16.1399 12.3669 16.3063 12.7148C16.4727 13.0626 16.5559 13.464 16.5559 13.9189C16.5559 14.7216 16.341 15.424 15.9111 16.0261C15.4952 16.6282 14.9128 17.0964 14.1641 17.4309C13.4293 17.7654 12.5835 17.9326 11.6268 17.9326V17.9328Z" fill="white"/>
</svg>
