<svg width="23" height="22" viewBox="0 0 23 22" fill="none" xmlns="http://www.w3.org/2000/svg">
<path opacity="0.999" d="M11.3996 22C17.6954 22 22.7992 17.0751 22.7992 11C22.7992 4.92487 17.6954 0 11.3996 0C5.10377 0 0 4.92487 0 11C0 17.0751 5.10377 22 11.3996 22Z" fill="#FFF100"/>
<path d="M6.86409 16.742V14.996C8.13969 14.1397 9.21425 13.3771 10.0878 12.7082C10.9613 12.0258 11.6684 11.397 12.2091 10.8217C12.7499 10.2464 13.1381 9.70453 13.3738 9.19612C13.6234 8.67433 13.7482 8.14585 13.7482 7.61068C13.7482 6.96848 13.5402 6.44 13.1243 6.02524C12.7083 5.61049 12.126 5.40312 11.3772 5.40312C10.573 5.40312 9.93525 5.6707 9.46383 6.20587C9.00628 6.72765 8.74284 7.45681 8.67351 8.39337L6.42733 7.51033C6.51052 6.64069 6.76703 5.89145 7.19686 5.26263C7.62668 4.6338 8.20902 4.15215 8.94388 3.81767C9.67874 3.46982 10.5315 3.2959 11.502 3.2959C12.3201 3.2959 13.0272 3.40962 13.6234 3.63707C14.2335 3.85113 14.7396 4.15215 15.1417 4.54015C15.5576 4.92815 15.8696 5.37636 16.0776 5.88476C16.2855 6.39317 16.3895 6.92834 16.3895 7.49027C16.3895 8.34652 16.1746 9.16266 15.7448 9.93866C15.315 10.7013 14.6425 11.4706 13.7274 12.2466C12.8123 13.0226 11.6337 13.8454 10.1918 14.715V14.7552C10.3859 14.7284 10.6285 14.715 10.9197 14.715C11.2247 14.7017 11.5298 14.695 11.8348 14.695C12.1398 14.6817 12.4033 14.675 12.6251 14.675H16.6183V16.7421L6.86409 16.742Z" fill="#363636"/>
</svg>
