<svg width="23" height="22" viewBox="0 0 23 22" fill="none" xmlns="http://www.w3.org/2000/svg">
<path opacity="0.999" d="M11.3996 22C17.6954 22 22.7992 17.0751 22.7992 11C22.7992 4.92487 17.6954 0 11.3996 0C5.10377 0 0 4.92487 0 11C0 17.0751 5.10377 22 11.3996 22Z" fill="#FF5555"/>
<path d="M6.86403 16.742V14.996C8.13963 14.1397 9.21419 13.3771 10.0877 12.7082C10.9612 12.0258 11.6683 11.397 12.2091 10.8217C12.7498 10.2464 13.1381 9.70453 13.3738 9.19612C13.6233 8.67433 13.7481 8.14585 13.7481 7.61068C13.7481 6.96848 13.5402 6.44 13.1242 6.02524C12.7082 5.61049 12.1259 5.40312 11.3772 5.40312C10.573 5.40312 9.93519 5.6707 9.46377 6.20587C9.00621 6.72765 8.74277 7.45681 8.67345 8.39337L6.42727 7.51033C6.51046 6.64069 6.76697 5.89145 7.1968 5.26263C7.62662 4.6338 8.20896 4.15215 8.94381 3.81767C9.67867 3.46982 10.5314 3.2959 11.502 3.2959C12.32 3.2959 13.0271 3.40962 13.6233 3.63707C14.2334 3.85113 14.7395 4.15215 15.1416 4.54015C15.5575 4.92815 15.8695 5.37636 16.0775 5.88476C16.2855 6.39317 16.3895 6.92834 16.3895 7.49027C16.3895 8.34652 16.1745 9.16266 15.7447 9.93866C15.3149 10.7013 14.6424 11.4706 13.7273 12.2466C12.8122 13.0226 11.6337 13.8454 10.1917 14.715V14.7552C10.3858 14.7284 10.6284 14.715 10.9196 14.715C11.2247 14.7017 11.5297 14.695 11.8347 14.695C12.1398 14.6817 12.4032 14.675 12.625 14.675H16.6182V16.7421L6.86403 16.742Z" fill="white"/>
</svg>
