<svg width="42" height="42" viewBox="0 0 42 42" fill="none" xmlns="http://www.w3.org/2000/svg">
<path d="M16.1538 30.6923H25.8462C25.8462 30.6923 24.6104 34.4949 21 34.4949C17.5221 34.4949 16.1538 30.6923 16.1538 30.6923ZM30.5744 24.2388C30.5744 26.2775 28.6828 27.8735 26.2662 27.8735C24.4278 27.8735 23.1097 26.9414 22.3989 25.6055C22.029 24.9076 21.7334 24.0999 20.9984 24.0999C20.2634 24.0999 19.9678 24.9076 19.5978 25.6055C18.8887 26.943 17.5705 27.8735 15.7306 27.8735C13.3156 27.8735 11.4224 26.2775 11.4224 24.2388C11.4224 22.2002 13.314 20.6042 15.7306 20.6042C17.3622 20.6042 18.7385 21.3408 19.4702 22.4425C19.9662 22.2778 20.4637 22.1954 20.9968 22.1954C21.5298 22.1954 22.0274 22.2778 22.5233 22.4425C23.2551 21.3425 24.6314 20.6042 26.2629 20.6042C28.6828 20.6042 30.5744 22.2002 30.5744 24.2388ZM17.6174 24.2388C17.6174 23.5701 16.7742 23.0273 15.7322 23.0273C14.6903 23.0273 13.8471 23.5701 13.8471 24.2388C13.8471 24.9076 14.6903 25.4504 15.7322 25.4504C16.7742 25.4504 17.6174 24.9076 17.6174 24.2388ZM28.1513 24.2388C28.1513 23.5701 27.3081 23.0273 26.2662 23.0273C25.2242 23.0273 24.381 23.5701 24.381 24.2388C24.381 24.9076 25.2242 25.4504 26.2662 25.4504C27.3081 25.4504 28.1513 24.9076 28.1513 24.2388ZM42 20.5315C42 24.0789 40.4654 27.51 38.7692 29.7845H38.766C37.9438 30.9815 36.8146 32.0234 35.3139 32.6615C31.5194 38.6885 26.4552 42 21 42C15.5448 42 10.4774 38.6885 6.68608 32.6615C5.18538 32.0234 4.05623 30.9815 3.234 29.7845H3.23077C1.53462 27.5116 0 24.0805 0 20.5315C0 11.4644 5.00608 5.21446 15.0328 7.48731C13.7712 6.39046 11.9248 5.63285 10.0574 5.30492C13.5595 0.466846 18.8289 0 21 0C23.1711 0 28.4405 0.466846 31.9426 5.30492C30.0752 5.63285 28.2272 6.39046 26.9672 7.48731C36.855 5.24515 42 11.2932 42 20.5315ZM32.3319 18.9468C24.6475 19.3992 21 15.498 21 13.3608C21 15.4996 17.3541 19.3992 9.66808 18.9468C5.53754 31.5775 14.3753 38.7692 21 38.7692C27.2903 38.7692 36.5755 31.9248 32.3319 18.9468Z" fill="black"/>
</svg>
