<svg width="57" height="55" viewBox="0 0 57 55" fill="none" xmlns="http://www.w3.org/2000/svg">
<path d="M28.5 55C44.2401 55 57 42.6878 57 27.5C57 12.3122 44.2401 0 28.5 0C12.7599 0 0 12.3122 0 27.5C0 42.6878 12.7599 55 28.5 55Z" fill="#FEE440"/>
<path d="M24.1538 37.6923H33.8462C33.8462 37.6923 32.6104 41.4949 29 41.4949C25.5221 41.4949 24.1538 37.6923 24.1538 37.6923ZM38.5744 31.2388C38.5744 33.2775 36.6828 34.8735 34.2662 34.8735C32.4278 34.8735 31.1097 33.9414 30.3989 32.6055C30.029 31.9076 29.7334 31.0999 28.9984 31.0999C28.2634 31.0999 27.9678 31.9076 27.5978 32.6055C26.8887 33.943 25.5705 34.8735 23.7306 34.8735C21.3156 34.8735 19.4224 33.2775 19.4224 31.2388C19.4224 29.2002 21.314 27.6042 23.7306 27.6042C25.3622 27.6042 26.7385 28.3408 27.4702 29.4425C27.9662 29.2778 28.4637 29.1954 28.9968 29.1954C29.5298 29.1954 30.0274 29.2778 30.5233 29.4425C31.2551 28.3425 32.6314 27.6042 34.2629 27.6042C36.6828 27.6042 38.5744 29.2002 38.5744 31.2388ZM25.6174 31.2388C25.6174 30.5701 24.7742 30.0273 23.7322 30.0273C22.6903 30.0273 21.8471 30.5701 21.8471 31.2388C21.8471 31.9076 22.6903 32.4504 23.7322 32.4504C24.7742 32.4504 25.6174 31.9076 25.6174 31.2388ZM36.1513 31.2388C36.1513 30.5701 35.3081 30.0273 34.2662 30.0273C33.2242 30.0273 32.381 30.5701 32.381 31.2388C32.381 31.9076 33.2242 32.4504 34.2662 32.4504C35.3081 32.4504 36.1513 31.9076 36.1513 31.2388ZM50 27.5315C50 31.0789 48.4654 34.51 46.7692 36.7845H46.766C45.9438 37.9815 44.8146 39.0234 43.3139 39.6615C39.5194 45.6885 34.4552 49 29 49C23.5448 49 18.4774 45.6885 14.6861 39.6615C13.1854 39.0234 12.0562 37.9815 11.234 36.7845H11.2308C9.53462 34.5116 8 31.0805 8 27.5315C8 18.4644 13.0061 12.2145 23.0328 14.4873C21.7712 13.3905 19.9248 12.6328 18.0574 12.3049C21.5595 7.46685 26.8289 7 29 7C31.1711 7 36.4405 7.46685 39.9426 12.3049C38.0752 12.6328 36.2272 13.3905 34.9672 14.4873C44.855 12.2452 50 18.2932 50 27.5315ZM40.3319 25.9468C32.6475 26.3992 29 22.498 29 20.3608C29 22.4996 25.3541 26.3992 17.6681 25.9468C13.5375 38.5775 22.3753 45.7692 29 45.7692C35.2903 45.7692 44.5755 38.9248 40.3319 25.9468Z" fill="#355675"/>
</svg>
