<svg width="57" height="55" viewBox="0 0 57 55" fill="none" xmlns="http://www.w3.org/2000/svg">
<path d="M28.5 55C44.2401 55 57 42.6878 57 27.5C57 12.3122 44.2401 0 28.5 0C12.7599 0 0 12.3122 0 27.5C0 42.6878 12.7599 55 28.5 55Z" fill="#FEE440"/>
<path d="M50 30.743C50 27.2358 48.6805 25.5736 47.5202 24.7827C48.2045 22.1792 49.3228 15.9916 45.835 12.1256C44.1935 10.3062 41.523 9.49479 38.625 9.94921C36.3482 8.99767 32.9095 8 29 8C25.0905 8 21.6517 8.99767 19.375 9.94921C16.477 9.49479 13.8065 10.3045 12.165 12.1256C8.67725 15.9916 9.79725 22.1792 10.4798 24.7827C9.3195 25.5736 8 27.2341 8 30.743C8 32.4445 8.5705 34.3835 9.7255 36.0423C8.87675 38.4698 10.6408 41.251 13.7207 40.9179C13.1642 43.6888 16.1095 45.9199 19.1143 44.5532C18.7625 46.54 21.601 48.9607 25.1395 47.2336C26.3137 48.2108 27.2185 49 28.9965 49C31.0177 49 32.227 47.9015 32.9812 47.2319C36.5197 48.9607 39.2358 46.5383 38.8857 44.5515C41.8923 45.9182 44.8358 43.6871 44.2793 40.9162C47.3593 41.2493 49.1232 38.4681 48.2745 36.0406C49.4277 34.3835 50 32.4428 50 30.743ZM29 41.9668C25.9865 41.9668 24.8 38.75 24.8 38.75H33.2C33.2 38.75 32.129 41.9668 29 41.9668ZM35.2615 36.8555C33.4205 35.9757 30.9653 34.9319 29 36.3054C27.033 34.9319 24.5795 35.9757 22.7385 36.8555C15.2993 40.4088 8.6965 29.9828 12.515 27.5553C12.872 27.3298 13.369 27.3247 13.691 27.4648C14.8478 27.9636 16.1515 27.1385 16.1515 25.9033C16.1515 22.1211 17.3625 18.3286 19.921 15.6738L19.9473 15.6567C24.5042 11.2219 33.494 11.2219 38.051 15.6567L38.079 15.6755C40.6375 18.3303 41.8485 22.1228 41.8485 25.9033C41.8485 27.1436 43.1575 27.9619 44.309 27.4648C44.5557 27.3571 45.072 27.2939 45.4832 27.5553C49.2458 29.9333 42.8338 40.472 35.2615 36.8555ZM35.5625 24.2292C33.5955 24.2292 31.898 25.3037 31.0002 26.8702C30.3475 26.6721 29.6982 26.573 29 26.573C28.3018 26.573 27.6525 26.6721 26.9998 26.8702C26.102 25.3037 24.4045 24.2292 22.4375 24.2292C19.543 24.2292 17.1875 26.5286 17.1875 29.3542C17.1875 32.1798 19.543 34.4792 22.4375 34.4792C24.5917 34.4792 26.4362 33.2013 27.2447 31.3854C27.6752 30.4185 27.9342 29.1628 29 29.1628C30.0658 29.1628 30.3265 30.4185 30.7553 31.3854C31.5638 33.2013 33.4083 34.4792 35.5625 34.4792C38.457 34.4792 40.8125 32.1798 40.8125 29.3542C40.8125 26.5286 38.457 24.2292 35.5625 24.2292ZM22.4375 31.9167C20.9885 31.9167 19.8125 30.7687 19.8125 29.3542C19.8125 27.9397 20.9885 26.7917 22.4375 26.7917C23.8865 26.7917 25.0625 27.9397 25.0625 29.3542C25.0625 30.7687 23.8865 31.9167 22.4375 31.9167ZM35.5625 31.9167C34.1135 31.9167 32.9375 30.7687 32.9375 29.3542C32.9375 27.9397 34.1135 26.7917 35.5625 26.7917C37.0115 26.7917 38.1875 27.9397 38.1875 29.3542C38.1875 30.7687 37.0115 31.9167 35.5625 31.9167Z" fill="#355675"/>
</svg>
