<svg width="400" height="800" viewBox="0 0 400 800" fill="none" xmlns="http://www.w3.org/2000/svg">
<path d="M338.035 5.00094H61.9649C30.5045 5.00094 5.00094 30.4855 5.00094 61.9224V737.397C5.00094 768.834 30.5045 794.318 61.9649 794.318H338.035C369.496 794.318 394.999 768.834 394.999 737.397V61.9224C394.999 30.4855 369.496 5.00094 338.035 5.00094Z" fill="black" stroke="#939393" stroke-width="10"/>
<path d="M221.505 34.388H180.32C178.367 34.388 176.783 35.9708 176.783 37.9232C176.783 39.8757 178.367 41.4584 180.32 41.4584H221.505C223.459 41.4584 225.042 39.8757 225.042 37.9232C225.042 35.9708 223.459 34.388 221.505 34.388Z" fill="#939393"/>
<path d="M242.097 42.5463C245.203 42.5463 247.721 40.0301 247.721 36.9262C247.721 33.8224 245.203 31.3062 242.097 31.3062C238.99 31.3062 236.472 33.8224 236.472 36.9262C236.472 40.0301 238.99 42.5463 242.097 42.5463Z" fill="#939393"/>
</svg>
