<svg width="40" height="40" viewBox="0 0 40 40" fill="none" xmlns="http://www.w3.org/2000/svg">
<path d="M19.9862 39.7169C30.8478 39.7169 39.6529 30.9118 39.6529 20.0502C39.6529 9.18861 30.8478 0.383545 19.9862 0.383545C9.12465 0.383545 0.31958 9.18861 0.31958 20.0502C0.31958 30.9118 9.12465 39.7169 19.9862 39.7169Z" fill="#4E8CEF"/>
<path d="M15.7954 36.8794C15.0908 36.8487 14.8954 36.7986 14.4784 36.5416C13.6352 36.0221 13.1684 35.2442 13.12 34.2783C13.0958 33.7952 13.1288 33.6459 13.5362 32.3963C13.9388 31.1614 14.0786 30.678 14.1803 30.1694C14.336 29.3905 14.3508 29.1468 14.3508 27.3477C14.3508 25.4284 14.3514 25.4355 14.08 24.4983C13.9088 23.9073 13.4544 22.5279 12.9583 21.0934C11.6967 17.4456 11.5196 15.882 11.803 10.8962C11.9673 8.00408 12.2697 5.78785 12.6178 4.92292C12.7984 4.47425 13.2451 4.00364 13.6864 3.79697C13.8514 3.71969 13.982 3.68748 14.2133 3.66698C14.669 3.6266 22.4474 3.59194 24.4021 3.62158L26.0917 3.64721L26.3717 3.80465C26.8412 4.06871 27.2206 4.48277 27.4214 4.95038C27.743 5.69917 28.0682 8.39347 28.2745 12.0179C28.3323 13.0331 28.3328 15.3474 28.2754 15.9776C28.1258 17.6198 27.8398 18.8268 27.0628 21.0934C26.1006 23.9003 25.9294 24.4494 25.7746 25.2233C25.6176 26.0084 25.5855 26.8278 25.6539 28.2994C25.7282 29.8976 25.8108 30.3057 26.4691 32.3273C26.9081 33.6754 26.9214 33.7349 26.9006 34.2648C26.8815 34.7497 26.814 35.0101 26.6003 35.423C26.3136 35.977 25.9227 36.3436 25.249 36.6903L24.8105 36.916L20.6003 36.9107C18.2848 36.9078 16.1225 36.8937 15.7954 36.8794H15.7954ZM22.8654 35.5217C24.6228 35.48 24.8131 35.4455 25.1534 35.1065C25.3724 34.8884 25.4431 34.7149 25.4828 34.2982C25.5353 33.7473 25.4876 33.5191 25.0925 32.4293C24.3589 30.4058 24.2386 29.623 24.2682 27.065C24.2859 25.536 24.3037 25.3523 24.5212 24.4585C24.5894 24.1779 24.9566 23.0236 25.3374 21.8922C26.7649 17.6516 26.8241 17.389 26.9087 14.9241C26.9283 14.3539 26.9505 13.7688 26.9581 13.6239L26.9719 13.3605H20.024H13.0761L13.0766 14.0998C13.0776 15.6046 13.1536 16.5152 13.3659 17.5616C13.5719 18.5775 13.7826 19.2565 14.8943 22.487C15.5959 24.526 15.7074 25.033 15.7612 26.4299C15.7986 27.4009 15.7552 29.0268 15.6754 29.642C15.5643 30.4979 15.3945 31.1434 14.9686 32.329C14.5904 33.3814 14.5236 33.6534 14.522 34.1458C14.5205 34.631 14.5625 34.7502 14.8433 35.057C15.1945 35.4407 15.3993 35.4854 16.9681 35.52C18.6402 35.5568 21.3477 35.5576 22.8654 35.5217L22.8654 35.5217ZM26.8423 11.4257C26.8423 9.98293 26.4377 6.56048 26.1613 5.66561C26.0737 5.38194 25.8803 5.15292 25.6837 5.09998C25.2257 4.97666 15.1654 4.97308 14.4083 5.09596C14.199 5.12992 14.0358 5.26452 13.924 5.49548C13.6725 6.01512 13.2377 9.36377 13.1886 11.1596L13.1674 11.9329H20.0049H26.8423V11.4257Z" fill="#F0EAF3"/>
</svg>
