<svg width="56" height="56" viewBox="0 0 56 56" fill="none" xmlns="http://www.w3.org/2000/svg">
<path d="M43.0254 0H12.7768C5.72037 0 0 5.71611 0 12.7673V43.2327C0 50.2839 5.72037 56 12.7768 56H43.0254C50.0818 56 55.8022 50.2839 55.8022 43.2327V12.7673C55.8022 5.71611 50.0818 0 43.0254 0Z" fill="#E6ADAD"/>
<path d="M31.8414 34.2255C31.9896 34.3712 31.9896 34.6099 31.8414 34.7578C31.0324 35.561 29.764 35.9523 27.9597 35.9523L27.946 35.9484L27.9323 35.9523C26.1296 35.9523 24.8594 35.5613 24.0504 34.756C23.9024 34.6103 23.9024 34.3716 24.0504 34.2257C24.1962 34.0799 24.4364 34.0799 24.5844 34.2257C25.2438 34.8815 26.3382 35.2011 27.932 35.2011L27.9458 35.2051L27.9595 35.2011C29.5515 35.2011 30.6459 34.8812 31.307 34.2257C31.4552 34.0799 31.6951 34.0799 31.8411 34.2257L31.8414 34.2255ZM25.8561 30.0215C25.8561 29.14 25.1357 28.4237 24.2518 28.4237C23.3662 28.4237 22.6459 29.14 22.6459 30.0215C22.6459 30.9013 23.3662 31.6176 24.2518 31.6176C25.1357 31.6191 25.8561 30.903 25.8561 30.0215ZM48.8268 28.4046C48.8268 39.9266 39.4781 49.2684 27.9474 49.2684C16.4168 49.2684 7.06806 39.9266 7.06806 28.4046C7.06806 16.8825 16.4168 7.54075 27.9474 7.54075C39.4781 7.54075 48.8268 16.8825 48.8268 28.4046ZM40.1271 28.1806C40.1271 26.701 38.9178 25.4978 37.4302 25.4978C36.7046 25.4978 36.0469 25.7883 35.5615 26.2541C33.7241 25.0457 31.2377 24.2773 28.4869 24.1782L29.9919 19.4421L34.0686 20.3966L34.0627 20.4557C34.0627 21.6659 35.0528 22.6499 36.269 22.6499C37.4852 22.6499 38.4735 21.6659 38.4735 20.4557C38.4735 19.2457 37.4852 18.2616 36.269 18.2616C35.3347 18.2616 34.5395 18.8438 34.2176 19.6595L29.8243 18.6302C29.6328 18.5841 29.4363 18.6959 29.3771 18.8825L27.698 24.1645C24.8167 24.1974 22.2085 24.9747 20.2893 26.2178C19.8073 25.7742 19.1688 25.4963 18.4624 25.4963C16.9765 25.4982 15.7672 26.7012 15.7672 28.1808C15.7672 29.1648 16.3085 30.0168 17.1035 30.4845C17.051 30.7697 17.0169 31.0601 17.0169 31.3538C17.0169 35.3197 21.8975 38.5466 27.8968 38.5466C33.8961 38.5466 38.7767 35.3197 38.7767 31.3538C38.7767 31.0758 38.7439 30.8024 38.7004 30.5332C39.546 30.0791 40.1272 29.2014 40.1272 28.1808L40.1271 28.1806ZM31.6501 28.4257C30.7644 28.4257 30.0458 29.142 30.0458 30.0236C30.0458 30.9033 30.7662 31.6196 31.6501 31.6196C32.534 31.6196 33.2543 30.9033 33.2543 30.0236C33.2543 29.142 32.5357 28.4257 31.6501 28.4257Z" fill="white"/>
</svg>
