<svg width="297" height="244" viewBox="0 0 297 244" fill="none" xmlns="http://www.w3.org/2000/svg">
<path d="M283.781 0H253.564C246.515 0 240.8 5.71018 240.8 12.754V43.1879C240.8 50.2318 246.515 55.9419 253.564 55.9419H283.781C290.83 55.9419 296.545 50.2318 296.545 43.1879V12.754C296.545 5.71018 290.83 0 283.781 0Z" fill="#969696"/>
<path d="M203.475 0H173.258C166.209 0 160.494 5.71018 160.494 12.754V43.1879C160.494 50.2318 166.209 55.9419 173.258 55.9419H203.475C210.524 55.9419 216.239 50.2318 216.239 43.1879V12.754C216.239 5.71018 210.524 0 203.475 0Z" fill="#5ECE90"/>
<path d="M167.163 45.6892C167.253 45.4552 187.973 10.3749 188.021 10.3749C188.056 10.3749 201.235 32.6572 208.275 44.6176L208.987 45.8271H188.049C168.452 45.8271 167.113 45.8181 167.163 45.6891V45.6892ZM204.655 43.3369C204.655 43.1993 199.138 33.998 199.06 34.0051C199.005 34.0096 198.586 34.2958 198.128 34.6402C195.632 36.5188 193.033 37.7189 190.275 38.2662C189.249 38.4697 186.805 38.4708 185.768 38.2683C183.006 37.7284 180.222 36.3976 177.702 34.4141C177.154 33.9822 176.991 33.8911 176.915 33.9738C176.816 34.0822 171.388 43.2765 171.388 43.3366C171.388 43.355 178.873 43.3709 188.021 43.3709C197.17 43.3709 204.655 43.3572 204.655 43.3371V43.3369ZM190.323 35.7673C192.603 35.2435 195.032 34.0082 197.219 32.2612C197.523 32.0182 197.772 31.7782 197.772 31.7279C197.772 31.6776 197.47 31.1249 197.101 30.4998C196.387 29.2901 196.344 29.2468 195.129 28.4855C194.633 28.1747 192.843 27.2413 192.743 27.2413C192.723 27.2413 192.739 27.3602 192.779 27.5056C192.821 27.6512 192.877 28.0471 192.904 28.3858C193.083 30.6378 191.403 32.8914 189.148 33.4226C187.484 33.8146 185.813 33.3246 184.573 32.0814C183.466 30.9719 182.981 29.6012 183.169 28.1138C183.22 27.7054 183.246 27.3544 183.225 27.3338C183.165 27.274 181.904 27.9239 181.098 28.4294C179.706 29.3023 179.588 29.4174 178.893 30.5864C178.543 31.1741 178.278 31.6887 178.303 31.7299C178.408 31.8996 179.525 32.7553 180.486 33.4021C182.274 34.6056 184.541 35.5825 186.137 35.837C186.475 35.8908 186.807 35.9482 186.875 35.9645C187.249 36.0543 189.677 35.9154 190.323 35.7674L190.323 35.7673ZM189.046 30.8537C189.981 30.4056 190.434 29.6819 190.437 28.6332C190.438 28.1421 190.399 27.9409 190.239 27.6285C189.286 25.7641 186.757 25.7641 185.804 27.6285C185.53 28.1663 185.525 29.0667 185.795 29.6566C186.194 30.5309 187.062 31.0894 188.022 31.0894C188.44 31.0894 188.66 31.0389 189.046 30.8537H189.046ZM182.884 24.7917C183.743 24.4504 185.063 24.0856 186.014 23.926C187.094 23.7448 188.939 23.7457 190.07 23.927C190.937 24.0662 192.655 24.5527 193.386 24.8658C193.603 24.9587 193.794 25.021 193.811 25.004C193.862 24.9531 188.103 15.2463 188.021 15.2463C187.961 15.2463 182.204 24.901 182.204 25.0023C182.204 25.0548 182.28 25.0311 182.884 24.7915V24.7917ZM169.604 27.4255L169.627 26.2179L172.065 26.1974L174.503 26.1769V27.4063V28.6356H172.042H169.582L169.604 27.4255ZM201.541 27.4051V26.1757L203.979 26.1962L206.416 26.2167L206.44 27.4243L206.463 28.632H204.003H201.543L201.541 27.4051ZM171.368 21.096L167.701 18.6446L168.377 17.6298C168.749 17.0716 169.09 16.6366 169.135 16.6631C169.246 16.7284 176.337 21.444 176.378 21.4801C176.405 21.5035 175.074 23.5708 175.043 23.5527C175.04 23.5506 173.384 22.4442 171.368 21.096ZM200.308 22.5284C199.936 21.9675 199.647 21.4958 199.665 21.4801C199.706 21.4439 206.797 16.7285 206.908 16.6631C206.953 16.6365 207.294 17.0716 207.666 17.6298L208.342 18.6447L204.663 21.0964L200.984 23.5482L200.308 22.5284ZM176.96 16.394V13.978H178.189H179.418V16.3933V18.8087H178.189H176.96V16.394ZM196.625 16.394V13.978H197.854H199.083V16.3933V18.8087H197.854H196.625V16.394Z" fill="white"/>
<path d="M123.169 0H92.9518C85.9027 0 80.1883 5.71018 80.1883 12.754V43.1879C80.1883 50.2318 85.9027 55.9419 92.9518 55.9419H123.169C130.218 55.9419 135.933 50.2318 135.933 43.1879V12.754C135.933 5.71018 130.218 0 123.169 0Z" fill="#CE5E5E"/>
<path d="M120.751 13.5761C114.487 13.1487 100.535 13.1507 94.2793 13.5761C87.5057 14.0382 86.7079 18.1266 86.6575 28.8882C86.71 39.6305 87.4988 43.7364 94.2793 44.2002C100.537 44.6255 114.487 44.6275 120.751 44.2002C127.525 43.738 128.323 39.6497 128.373 28.8882C128.321 18.1457 127.532 14.0398 120.751 13.5761ZM102.301 35.8355V21.9407L116.206 28.8759L102.301 35.8355Z" fill="white"/>
<path d="M42.9911 94.1643H12.7738C5.72471 94.1643 0.0102705 99.8744 0.0102705 106.918V137.352C0.0102705 144.396 5.72471 150.106 12.7738 150.106H42.9911C50.0402 150.106 55.7546 144.396 55.7546 137.352V106.918C55.7546 99.8744 50.0402 94.1643 42.9911 94.1643Z" fill="#5ECEBD"/>
<path d="M46.7182 102.03H9.60886C8.3365 102.03 7.30576 103.06 7.30576 104.331V141.415C7.30576 142.684 8.3365 143.714 9.60886 143.714H29.5888V127.572H24.1519V121.281H29.5888V116.642C29.5888 111.258 32.8791 108.326 37.6869 108.326C39.9899 108.326 41.9679 108.498 42.545 108.574V114.202L39.2112 114.203C36.597 114.203 36.0912 115.445 36.0912 117.265V121.283H42.3259L41.5142 127.573H36.0912V143.714H46.7217C47.9906 143.714 49.0212 142.684 49.0212 141.413V104.331C49.0212 103.06 47.9906 102.03 46.7182 102.03V102.03Z" fill="white"/>
<path d="M283.91 94.1643H253.693C246.643 94.1643 240.929 99.8744 240.929 106.918V137.352C240.929 144.396 246.643 150.106 253.693 150.106H283.91C290.959 150.106 296.673 144.396 296.673 137.352V106.918C296.673 99.8744 290.959 94.1643 283.91 94.1643Z" fill="#9FCE5E"/>
<path d="M248.015 142.894L250.961 132.138C249.143 128.99 248.188 125.421 248.19 121.762C248.195 110.321 257.512 101.01 268.96 101.01C274.515 101.012 279.73 103.174 283.653 107.097C287.573 111.02 289.732 116.235 289.73 121.781C289.724 133.224 280.408 142.534 268.96 142.534C265.484 142.533 262.06 141.662 259.026 140.007L248.015 142.894ZM259.536 136.25C262.463 137.986 265.257 139.026 268.953 139.028C278.468 139.028 286.218 131.29 286.223 121.778C286.227 112.246 278.513 104.518 268.967 104.515C259.445 104.515 251.7 112.253 251.696 121.764C251.694 125.646 252.833 128.554 254.746 131.596L253.001 137.962L259.536 136.25ZM279.423 126.714C279.293 126.498 278.948 126.369 278.427 126.109C277.908 125.849 275.357 124.594 274.88 124.421C274.405 124.249 274.059 124.162 273.712 124.681C273.366 125.2 272.371 126.369 272.069 126.714C271.766 127.06 271.463 127.104 270.944 126.844C270.425 126.584 268.752 126.038 266.77 124.27C265.228 122.895 264.185 121.197 263.883 120.677C263.581 120.158 263.85 119.877 264.11 119.619C264.344 119.387 264.629 119.014 264.889 118.71C265.152 118.41 265.238 118.193 265.413 117.846C265.586 117.5 265.5 117.197 265.367 116.937C265.235 116.678 264.198 114.125 263.767 113.087C263.345 112.077 262.916 112.213 262.599 112.197L261.603 112.176C261.257 112.176 260.695 112.306 260.22 112.825C259.745 113.345 258.404 114.598 258.404 117.152C258.404 119.705 260.264 122.171 260.522 122.516C260.782 122.862 264.181 128.101 269.387 130.347C270.625 130.881 271.593 131.2 272.346 131.439C273.589 131.833 274.721 131.777 275.615 131.645C276.612 131.497 278.685 130.39 279.118 129.179C279.551 127.966 279.551 126.928 279.421 126.711L279.423 126.714Z" fill="white"/>
<path d="M42.9808 0H12.7636C5.71444 0 0 5.71018 0 12.754V43.1879C0 50.2318 5.71444 55.9419 12.7636 55.9419H42.9808C50.0299 55.9419 55.7444 50.2318 55.7444 43.1879V12.754C55.7444 5.71018 50.0299 0 42.9808 0Z" fill="#CEC15E"/>
<path d="M27.6267 10.7545C33.2345 10.7545 33.8996 10.775 36.1154 10.8766C41.8072 11.1358 44.4659 13.8341 44.7249 19.4797C44.8268 21.6921 44.846 22.3567 44.846 27.9603C44.846 33.5657 44.8262 34.2286 44.7249 36.441C44.4643 42.0814 41.8125 44.7852 36.1154 45.0441C33.8996 45.1459 33.238 45.1662 27.6267 45.1662C22.0189 45.1662 21.3538 45.1457 19.1397 45.0441C13.4339 44.7836 10.7893 42.0726 10.5302 36.4392C10.4283 34.2268 10.4078 33.5639 10.4078 27.9586C10.4078 22.355 10.4276 21.6921 10.5302 19.478C10.7909 13.8341 13.4426 11.1337 19.1397 10.8748C21.3556 10.775 22.0189 10.7546 27.6267 10.7546V10.7545ZM27.6267 6.9715C21.9226 6.9715 21.2085 6.99813 18.9682 7.09724C11.3406 7.4469 7.10149 11.676 6.75142 19.3049C6.64818 21.5453 6.62375 22.2589 6.62375 27.9587C6.62375 33.6585 6.65027 34.3739 6.74951 36.6125C7.09945 44.2344 11.3317 48.4704 18.9663 48.8201C21.2083 48.922 21.9224 48.9463 27.6265 48.9463C33.3305 48.9463 34.0464 48.9197 36.2868 48.8201C43.9073 48.4704 48.157 44.2414 48.5017 36.6125C48.605 34.3739 48.6294 33.6585 48.6294 27.9587C48.6294 22.2589 48.6028 21.5453 48.5036 19.3067C48.1603 11.6918 43.9232 7.44884 36.2886 7.09904C34.0465 6.99582 33.3307 6.97148 27.6266 6.97148L27.6267 6.9715ZM27.6267 17.1819C21.6706 17.1819 16.8416 22.0072 16.8416 27.9589C16.8416 33.9105 21.6706 38.7376 27.6267 38.7376C33.5828 38.7376 38.4117 33.9123 38.4117 27.9589C38.4117 22.0072 33.5828 17.1819 27.6267 17.1819ZM27.6267 34.9547C23.7604 34.9547 20.6257 31.824 20.6257 27.9589C20.6257 24.0955 23.7604 20.9631 27.6267 20.9631C31.493 20.9631 34.6277 24.0955 34.6277 27.9589C34.6277 31.824 31.493 34.9547 27.6267 34.9547ZM38.8388 14.2384C37.4456 14.2384 36.3167 15.3664 36.3167 16.7569C36.3167 18.1473 37.4456 19.2754 38.8388 19.2754C40.2302 19.2754 41.3574 18.1473 41.3574 16.7569C41.3574 15.3664 40.2302 14.2384 38.8388 14.2384Z" fill="white" fill-opacity="0.991936"/>
<path d="M123.82 188.058H93.603C86.5539 188.058 80.8395 193.768 80.8395 200.812V231.246C80.8395 238.29 86.5539 244 93.603 244H123.82C130.869 244 136.584 238.29 136.584 231.246V200.812C136.584 193.768 130.869 188.058 123.82 188.058Z" fill="#77C9FF"/>
<path d="M129.677 203.968C128.142 204.649 126.493 205.107 124.762 205.314C126.529 204.256 127.887 202.58 128.525 200.583C126.872 201.562 125.04 202.274 123.09 202.658C121.53 200.996 119.304 199.957 116.843 199.957C111.317 199.957 107.257 205.109 108.505 210.457C101.394 210.101 95.088 206.696 90.8661 201.522C88.6239 205.366 89.7032 210.394 93.5133 212.94C92.1123 212.894 90.7913 212.512 89.6389 211.87C89.5449 215.832 92.3869 219.539 96.5028 220.364C95.2983 220.69 93.9791 220.767 92.6372 220.509C93.7253 223.907 96.8852 226.378 100.633 226.448C97.0347 229.267 92.5016 230.526 87.9616 229.991C91.749 232.417 96.2491 233.833 101.081 233.833C116.971 233.833 125.949 220.423 125.406 208.395C127.079 207.188 128.53 205.682 129.677 203.968V203.968Z" fill="white"/>
<path d="M284.187 188.058H253.97C246.92 188.058 241.206 193.768 241.206 200.812V231.246C241.206 238.29 246.92 244 253.97 244H284.187C291.236 244 296.95 238.29 296.95 231.246V200.812C296.95 193.768 291.236 188.058 284.187 188.058Z" fill="#78FFF7"/>
<path d="M262.548 237.028C259.767 236.582 257.716 235.517 255.634 233.438C254.383 232.188 253.914 231.569 253.271 230.319C251.494 226.86 251.178 223.142 252.349 219.453C253.953 214.398 258.622 211.017 264.749 210.473L266.087 210.355V213.834C266.087 216.469 266.034 217.328 265.871 217.375C265.752 217.409 264.963 217.603 264.116 217.806C261.183 218.511 259.186 219.955 258.566 221.82C258.126 223.145 258.284 225.384 258.903 226.589C259.846 228.427 261.635 229.706 263.795 230.086C266.253 230.519 268.612 229.302 269.779 226.999C270.823 224.939 270.784 225.64 270.752 209.842L270.724 195.395H274.176H277.628L277.824 196.387C278.568 200.149 280.346 202.77 283.058 204.104C284.209 204.67 286.188 205.217 287.108 205.224L287.5 205.228L287.453 208.549L287.406 211.869L285.939 211.844C283.717 211.805 281.25 211.039 278.885 209.655L277.856 209.052L277.776 216.671C277.691 224.733 277.66 225.074 276.776 227.675C275.285 232.062 271.549 235.637 267.339 236.704C266.223 236.987 263.455 237.175 262.548 237.029L262.548 237.028Z" fill="white"/>
<path d="M203.486 94.1643H173.269C166.22 94.1643 160.505 99.8744 160.505 106.918V137.352C160.505 144.396 166.22 150.106 173.269 150.106H203.486C210.535 150.106 216.25 144.396 216.25 137.352V106.918C216.25 99.8744 210.535 94.1643 203.486 94.1643Z" fill="#E6ADAD"/>
<path d="M192.314 128.354C192.462 128.5 192.462 128.738 192.314 128.886C191.505 129.688 190.238 130.079 188.436 130.079L188.422 130.075L188.409 130.079C186.608 130.079 185.339 129.689 184.531 128.884C184.383 128.739 184.383 128.5 184.531 128.355C184.676 128.209 184.916 128.209 185.064 128.355C185.723 129.01 186.816 129.329 188.408 129.329L188.422 129.333L188.436 129.329C190.026 129.329 191.119 129.009 191.78 128.355C191.928 128.209 192.167 128.209 192.313 128.355L192.314 128.354ZM186.334 124.155C186.334 123.274 185.615 122.558 184.732 122.558C183.847 122.558 183.128 123.274 183.128 124.155C183.128 125.033 183.847 125.749 184.732 125.749C185.615 125.751 186.334 125.035 186.334 124.155ZM209.281 122.539C209.281 134.049 199.942 143.382 188.424 143.382C176.905 143.382 167.566 134.049 167.566 122.539C167.566 111.029 176.905 101.697 188.424 101.697C199.942 101.697 209.281 111.029 209.281 122.539ZM200.591 122.316C200.591 120.838 199.383 119.636 197.897 119.636C197.172 119.636 196.515 119.926 196.03 120.391C194.194 119.184 191.711 118.416 188.963 118.317L190.466 113.586L194.539 114.54L194.533 114.599C194.533 115.808 195.522 116.791 196.737 116.791C197.952 116.791 198.939 115.808 198.939 114.599C198.939 113.39 197.952 112.407 196.737 112.407C195.803 112.407 195.009 112.988 194.687 113.803L190.299 112.775C190.107 112.729 189.911 112.841 189.852 113.027L188.175 118.304C185.296 118.337 182.691 119.113 180.774 120.355C180.292 119.912 179.654 119.634 178.948 119.634C177.464 119.636 176.256 120.838 176.256 122.316C176.256 123.299 176.797 124.15 177.591 124.617C177.539 124.902 177.504 125.192 177.504 125.486C177.504 129.447 182.38 132.671 188.373 132.671C194.366 132.671 199.242 129.447 199.242 125.486C199.242 125.208 199.209 124.935 199.166 124.666C200.01 124.212 200.591 123.335 200.591 122.316L200.591 122.316ZM192.123 122.56C191.238 122.56 190.52 123.276 190.52 124.157C190.52 125.036 191.24 125.751 192.123 125.751C193.005 125.751 193.725 125.036 193.725 124.157C193.725 123.276 193.007 122.56 192.123 122.56Z" fill="white"/>
<path d="M43.6215 187.814H13.4042C6.35513 187.814 0.640685 193.525 0.640685 200.569V231.002C0.640685 238.046 6.35513 243.756 13.4042 243.756H43.6215C50.6706 243.756 56.385 238.046 56.385 231.002V200.569C56.385 193.525 50.6706 187.814 43.6215 187.814Z" fill="#969696"/>
<path d="M204.116 187.814H173.899C166.85 187.814 161.136 193.525 161.136 200.569V231.002C161.136 238.046 166.85 243.756 173.899 243.756H204.116C211.165 243.756 216.88 238.046 216.88 231.002V200.569C216.88 193.525 211.165 187.814 204.116 187.814Z" fill="#969696"/>
<path d="M123.897 93.9207H93.6793C86.6302 93.9207 80.9158 99.6309 80.9158 106.675V137.109C80.9158 144.152 86.6302 149.863 93.6793 149.863H123.897C130.946 149.863 136.66 144.152 136.66 137.109V106.675C136.66 99.6309 130.946 93.9207 123.897 93.9207Z" fill="#969696"/>
</svg>
