<svg width="37" height="37" viewBox="0 0 37 37" fill="none" xmlns="http://www.w3.org/2000/svg">
<path d="M18.5 0L15.7312 3.02321L12.0759 1.11617L10.5219 4.89017L6.42567 4.329L6.27767 8.399L2.23388 9.25L3.50267 13.1242L0 15.2872L2.54221 18.5015L0 21.7128L3.50267 23.8758L2.23388 27.75L6.27767 28.6025L6.42567 32.671L10.5219 32.1114L12.0759 35.8854L15.7312 33.9783L18.5 37L21.2704 33.9783L24.9241 35.8854L26.4812 32.1114L30.5759 32.671L30.7239 28.6025L34.7677 27.75L33.4973 23.8758L37 21.7128L34.4578 18.5015L37 15.2872L33.4973 13.1242L34.7677 9.25L30.7239 8.399L30.5759 4.329L26.4812 4.89017L24.9241 1.11617L21.2704 3.02321L18.5 0V0Z" fill="#FEE440"/>
</svg>
