<svg width="40" height="40" viewBox="0 0 40 40" fill="none" xmlns="http://www.w3.org/2000/svg">
<path d="M38.2593 24.257C38.2593 24.257 38.2539 24.255 38.2444 24.2523C38.2498 24.254 38.2539 24.255 38.2593 24.257Z" fill="#4E8CEF"/>
<path d="M38.175 24.2289C38.1907 24.2339 38.2077 24.2401 38.228 24.2465C38.2131 24.2414 38.1941 24.2353 38.175 24.2289Z" fill="#4E8CEF"/>
<path d="M1.62061 24.257C1.62602 24.255 1.63007 24.254 1.63553 24.2523C1.62602 24.255 1.62061 24.257 1.62061 24.257Z" fill="#4E8CEF"/>
<path d="M17.6303 1.82521V3.61867H18.0752V1.82521H18.5868V1.47095H17.1187V1.82521H17.6303Z" fill="#4E8CEF"/>
<path d="M18.9264 3.61858L19.0412 3.07879H19.5528L19.6711 3.61858H20.15L19.6072 1.47083H19.0107L18.4719 3.61858H18.9264ZM19.2988 1.85571L19.4896 2.7569H19.1112L19.2988 1.85571Z" fill="#4E8CEF"/>
<path d="M21.8927 3.61867L21.3024 2.52279L21.8771 1.47095H21.3811L21.0571 2.14745L20.7391 1.47095H20.2377L20.7935 2.52279L20.2085 3.61867H20.6922L21.0442 2.90208L21.3907 3.61867H21.8927Z" fill="#4E8CEF"/>
<path d="M22.5687 1.47095H22.1238V3.6187H22.5687V1.47095Z" fill="#4E8CEF"/>
<path d="M20.1053 39.5897C30.7947 39.5897 39.4602 30.9242 39.4602 20.2348C39.4602 9.54546 30.7947 0.880005 20.1053 0.880005C9.41594 0.880005 0.750488 9.54546 0.750488 20.2348C0.750488 30.9242 9.41594 39.5897 20.1053 39.5897Z" fill="#4E8CEF"/>
<path d="M32.9476 14.5454C32.9476 14.5454 32.8257 14.2206 31.7296 14.1395C31.3664 14.1127 31.057 14.2556 30.8052 14.4581C30.5859 13.1642 29.8219 9.51124 29.8219 9.51124C29.7404 8.4558 28.5224 8.00919 28.5224 8.00919C27.4988 7.72555 25.9285 7.56203 24.2381 7.47133L24.2332 7.44086C24.2332 7.44086 23.6943 7.41974 22.83 7.40065V7.24588C22.83 7.00086 22.6552 6.80212 22.4391 6.80212H17.6498C17.4338 6.80212 17.2589 7.00086 17.2589 7.24588V7.40065C16.3947 7.41977 15.8558 7.44086 15.8558 7.44086L15.8503 7.47133C14.1605 7.56203 12.5901 7.72555 11.5665 8.00919C11.5665 8.00919 10.3483 8.45578 10.2673 9.51124C10.2673 9.51124 9.52833 12.6562 9.352 14.5159C9.08861 14.2834 8.75594 14.1102 8.35908 14.1395C7.26294 14.2206 7.14111 14.5454 7.14111 14.5454L7.26294 15.9664L9.13084 16.413L8.88673 17.3062C8.88673 17.3062 8.48089 17.9559 8.52164 18.3617C7.91247 18.8486 7.70956 20.6757 7.75033 22.2592L7.83139 22.4621C7.83139 22.4621 7.835 22.4608 7.84134 22.459C7.8377 22.4601 7.835 22.4608 7.83139 22.4621C7.58771 22.5432 7.58771 25.1417 7.58771 25.1417L7.99397 25.4261C7.99397 25.4261 7.99352 27.1713 8.35906 27.5775C8.48474 27.7171 8.65424 27.8224 8.84652 27.9014L8.84774 27.9263V31.908C8.84774 31.908 8.87899 32.4094 9.38041 32.4094H11.1049C11.1049 32.4094 11.5751 32.5036 11.5751 31.6258V29.5568C11.5751 29.5568 15.1179 28.6161 15.2746 28.5849C15.4313 28.5536 16.1212 28.5849 16.1212 28.5849C16.1212 28.5849 16.1837 28.6161 16.5288 28.6161H18.6607C18.6607 28.6161 18.9429 28.9295 19.9774 28.9295C21.0119 28.9295 21.4195 28.6161 21.4195 28.6161H23.7707L24.0216 28.4906L28.6931 29.5568V31.7825C28.6931 31.7825 28.599 32.5036 29.3825 32.5036H30.8559C30.8559 32.5036 31.4203 32.4723 31.4203 31.657C31.4203 30.8418 31.3265 28.8357 31.4203 28.8357C31.5145 28.8357 31.9221 27.8638 31.9221 27.4874L31.8578 27.3483C32.095 26.7334 32.0952 25.4261 32.0952 25.4261L32.501 25.1416C32.501 25.1416 32.501 22.5431 32.2573 22.4621C32.2537 22.4607 32.2509 22.46 32.2473 22.4589C32.2537 22.4607 32.2573 22.4621 32.2573 22.4621L32.3388 22.2592C32.3791 20.6757 32.1762 18.8486 31.567 18.3617C31.6078 17.9559 31.202 17.3061 31.202 17.3061L30.9583 16.413L32.8257 15.9664L32.9476 14.5454ZM17.5112 7.39593C17.5112 7.19959 17.6702 7.04027 17.8663 7.04027H22.2221C22.4188 7.04027 22.5782 7.19959 22.5782 7.39593V8.51804C22.5782 8.71438 22.4188 8.87349 22.2221 8.87349H17.8663C17.6701 8.87349 17.5112 8.71438 17.5112 8.51804V7.39593H17.5112ZM9.79484 24.5655C9.49774 24.5655 9.2563 24.3248 9.2563 24.0274C9.2563 23.7303 9.49771 23.4894 9.79484 23.4894C10.0919 23.4894 10.3325 23.7303 10.3325 24.0274C10.3325 24.3248 10.0919 24.5655 9.79484 24.5655ZM10.5499 21.1609C9.88995 21.1609 9.35458 20.6255 9.35458 19.9656C9.35458 19.3057 9.88995 18.7703 10.5499 18.7703C11.21 18.7703 11.7449 19.3057 11.7449 19.9656C11.7449 20.6255 11.21 21.1609 10.5499 21.1609ZM22.5446 27.7506C22.2548 27.968 21.5654 27.9317 21.5654 27.9317H18.1566C18.1566 27.9317 17.4496 27.9317 17.2684 27.515C17.0868 27.0979 17.1235 26.6445 17.1235 26.5539C17.1235 26.4633 17.0868 26.2273 17.7032 26.2273H22.1999C22.1999 26.2273 22.907 26.1005 22.907 26.6807C22.907 27.2609 22.8345 27.5327 22.5446 27.7506ZM25.6803 16.088C24.9031 16.0341 23.9351 16.0002 22.9337 15.9798V15.9664C22.9337 15.9664 21.6773 15.9481 20.0445 15.9503C18.4112 15.9481 17.1548 15.9664 17.1548 15.9664V15.9798C16.1538 16.0002 15.1859 16.0341 14.4082 16.088C12.2568 16.2504 11.4854 15.804 11.4039 14.7079C11.3228 13.6119 11.3636 11.3785 12.2568 10.6073C13.0548 9.9183 14.3706 9.8771 15.4526 9.81845L15.4499 9.83609C15.8974 9.83609 17.9922 9.80248 20.0445 9.78221C22.0972 9.80248 24.1915 9.83609 24.639 9.83609L24.6363 9.81845C25.7183 9.8771 27.0346 9.9183 27.8321 10.6073C28.7258 11.3786 28.7657 13.6119 28.685 14.7079C28.6035 15.804 27.8321 16.2504 25.6803 16.088H25.6803ZM30.2078 24.5655C29.9111 24.5655 29.6697 24.3248 29.6697 24.0274C29.6697 23.7303 29.9111 23.4894 30.2078 23.4894C30.5053 23.4894 30.7463 23.7303 30.7463 24.0274C30.7463 24.3248 30.5054 24.5655 30.2078 24.5655ZM29.5945 21.1609C28.9346 21.1609 28.3993 20.6255 28.3993 19.9656C28.3993 19.3057 28.9346 18.7703 29.5945 18.7703C30.2545 18.7703 30.7898 19.3057 30.7898 19.9656C30.7898 20.6255 30.2545 21.1609 29.5945 21.1609ZM32.2365 22.4551C32.2229 22.4508 32.2115 22.4467 32.2011 22.4433C32.2138 22.4476 32.2265 22.4517 32.2365 22.4551Z" fill="#F0EAF3"/>
<path d="M19.2238 7.5248V7.31274H18.345V7.5248H18.6512V8.59833H18.9176V7.5248H19.2238Z" fill="#F0EAF3"/>
<path d="M19.4271 8.59835L19.4958 8.27524H19.802L19.8728 8.59835H20.1595L19.8346 7.31274H19.4775L19.155 8.59835H19.4271ZM19.65 7.54313L19.7642 8.08257H19.5377L19.65 7.54313Z" fill="#F0EAF3"/>
<path d="M21.2027 8.59833L20.8493 7.94236L21.1934 7.31274H20.8965L20.7025 7.71769L20.5122 7.31274H20.2121L20.5447 7.94236L20.1946 8.59833H20.4841L20.6948 8.1694L20.9022 8.59833H21.2027Z" fill="#F0EAF3"/>
<path d="M21.6074 7.31274H21.3411V8.59835H21.6074V7.31274Z" fill="#F0EAF3"/>
</svg>
