<svg width="56" height="56" viewBox="0 0 56 56" fill="none" xmlns="http://www.w3.org/2000/svg">
<path d="M43.0254 0H12.7768C5.72036 0 0 5.7161 0 12.7673V43.2327C0 50.2839 5.72036 56 12.7768 56H43.0254C50.0818 56 55.8022 50.2839 55.8022 43.2327V12.7673C55.8022 5.7161 50.0818 0 43.0254 0Z" fill="#78FFF7"/>
<path d="M21.3639 49.0209C18.5804 48.5741 16.5275 47.508 14.4434 45.427C13.1904 44.1759 12.7208 43.5561 12.0779 42.3049C10.2987 38.8424 9.98272 35.1199 11.1547 31.4271C12.7607 26.3671 17.4338 22.983 23.5672 22.4386L24.9065 22.3197V25.8026C24.9065 28.4408 24.8541 29.3004 24.6905 29.3471C24.572 29.3812 23.7812 29.5754 22.9337 29.779C19.9982 30.4844 17.9988 31.9305 17.3784 33.797C16.9376 35.1234 17.0956 37.365 17.7149 38.5713C18.6595 40.411 20.4504 41.6911 22.6122 42.0716C25.073 42.5047 27.4349 41.2865 28.603 38.9815C29.6481 36.919 29.6084 37.6205 29.577 21.8062L29.5482 7.34419H33.0041H36.4601L36.6562 8.33709C37.4005 12.1034 39.1803 14.7276 41.8958 16.0628C43.0475 16.6291 45.0283 17.1769 45.9495 17.184L46.3421 17.1879L46.2952 20.512L46.2484 23.8361L44.7795 23.8104C42.5553 23.7718 40.0855 23.0052 37.7183 21.6189L36.6879 21.0154L36.6076 28.6421C36.5224 36.7133 36.4916 37.0547 35.6068 39.6582C34.1146 44.05 30.3748 47.6281 26.1601 48.6965C25.0427 48.9798 22.2726 49.1676 21.3641 49.0218L21.3639 49.0209Z" fill="white"/>
</svg>
