<svg width="56" height="56" viewBox="0 0 56 56" fill="none" xmlns="http://www.w3.org/2000/svg">
<path d="M43.0254 0H12.7768C5.72036 0 0 5.7161 0 12.7673V43.2327C0 50.2839 5.72036 56 12.7768 56H43.0254C50.0818 56 55.8022 50.2839 55.8022 43.2327V12.7673C55.8022 5.7161 50.0818 0 43.0254 0Z" fill="#78FFF7"/>
<path d="M21.3638 49.0209C18.5803 48.5741 16.5274 47.508 14.4433 45.427C13.1903 44.1759 12.7207 43.5561 12.0778 42.3049C10.2985 38.8424 9.9826 35.1199 11.1546 31.4271C12.7606 26.3671 17.4337 22.983 23.5671 22.4386L24.9063 22.3197V25.8026C24.9063 28.4408 24.854 29.3004 24.6904 29.3471C24.5718 29.3812 23.781 29.5754 22.9336 29.779C19.998 30.4844 17.9987 31.9305 17.3783 33.797C16.9375 35.1234 17.0955 37.365 17.7148 38.5713C18.6594 40.411 20.4503 41.6911 22.6121 42.0716C25.0729 42.5047 27.4348 41.2865 28.6029 38.9815C29.648 36.919 29.6083 37.6205 29.5769 21.8062L29.5481 7.34419H33.004H36.46L36.6561 8.33709C37.4004 12.1034 39.1802 14.7276 41.8956 16.0628C43.0474 16.6291 45.0282 17.1769 45.9494 17.184L46.3419 17.1879L46.2951 20.512L46.2483 23.8361L44.7794 23.8104C42.5552 23.7718 40.0854 23.0052 37.7182 21.6189L36.6878 21.0154L36.6075 28.6421C36.5222 36.7133 36.4915 37.0547 35.6067 39.6582C34.1145 44.05 30.3747 47.6281 26.16 48.6965C25.0426 48.9798 22.2724 49.1676 21.364 49.0218L21.3638 49.0209Z" fill="white"/>
</svg>
