<svg width="56" height="56" viewBox="0 0 56 56" fill="none" xmlns="http://www.w3.org/2000/svg">
<path d="M43.0254 0H12.7768C5.72036 0 0 5.7161 0 12.7673V43.2327C0 50.2839 5.72036 56 12.7768 56H43.0254C50.0818 56 55.8022 50.2839 55.8022 43.2327V12.7673C55.8022 5.7161 50.0818 0 43.0254 0Z" fill="#77C9FF"/>
<path d="M48.8885 15.9263C47.3521 16.6079 45.7009 17.0668 43.968 17.2737C45.7375 16.2149 47.0964 14.5371 47.7349 12.5376C46.0802 13.5183 44.2463 14.2311 42.2941 14.6154C40.7334 12.9514 38.5045 11.9117 36.0408 11.9117C30.5095 11.9117 26.4449 17.0686 27.6942 22.4219C20.5761 22.0657 14.2635 18.6578 10.0372 13.4783C7.79269 17.3259 8.87316 22.3593 12.6872 24.9081C11.2847 24.8621 9.9624 24.479 8.80878 23.8372C8.71467 27.803 11.5597 31.5133 15.6798 32.3392C14.4741 32.6657 13.1535 32.7426 11.8102 32.485C12.8994 35.8858 16.0627 38.3598 19.814 38.4295C16.2123 41.2513 11.6745 42.5118 7.12975 41.9763C10.9211 44.4052 15.4258 45.8222 20.2629 45.8222C36.1695 45.8222 45.1563 32.3981 44.6135 20.3579C46.2873 19.1495 47.7401 17.6422 48.8885 15.9261V15.9263Z" fill="white"/>
</svg>
