<svg width="56" height="56" viewBox="0 0 56 56" fill="none" xmlns="http://www.w3.org/2000/svg">
<path d="M43.0254 0H12.7768C5.72036 0 0 5.7161 0 12.7673V43.2327C0 50.2839 5.72036 56 12.7768 56H43.0254C50.0818 56 55.8022 50.2839 55.8022 43.2327V12.7673C55.8022 5.7161 50.0818 0 43.0254 0Z" fill="#77C9FF"/>
<path d="M48.8884 15.9263C47.352 16.6079 45.7008 17.0668 43.9678 17.2737C45.7373 16.2149 47.0963 14.5371 47.7348 12.5376C46.0801 13.5183 44.2462 14.2311 42.294 14.6154C40.7333 12.9514 38.5044 11.9117 36.0407 11.9117C30.5094 11.9117 26.4448 17.0686 27.6941 22.4219C20.576 22.0657 14.2634 18.6578 10.0371 13.4783C7.79257 17.3259 8.87304 22.3593 12.687 24.9081C11.2846 24.8621 9.96228 24.479 8.80866 23.8372C8.71455 27.803 11.5596 31.5133 15.6797 32.3392C14.474 32.6657 13.1533 32.7426 11.8101 32.485C12.8993 35.8858 16.0625 38.3598 19.8139 38.4295C16.2121 41.2513 11.6744 42.5118 7.12963 41.9763C10.921 44.4052 15.4257 45.8222 20.2627 45.8222C36.1694 45.8222 45.1562 32.3981 44.6134 20.3579C46.2872 19.1495 47.74 17.6422 48.8884 15.9261V15.9263Z" fill="white"/>
</svg>
