<svg width="57" height="55" viewBox="0 0 57 55" fill="none" xmlns="http://www.w3.org/2000/svg">
<path d="M28.5 55C44.2401 55 57 42.6878 57 27.5C57 12.3122 44.2401 0 28.5 0C12.7599 0 0 12.3122 0 27.5C0 42.6878 12.7599 55 28.5 55Z" fill="#FEE440"/>
<g clip-path="url(#clip0)">
<path d="M36.5 28.8333C36.5 30.2133 35.5667 31.3333 34.4167 31.3333C33.2667 31.3333 32.3333 30.2133 32.3333 28.8333C32.3333 27.4533 33.2667 26.3333 34.4167 26.3333C35.5667 26.3333 36.5 27.4533 36.5 28.8333ZM23.5833 26.3333C22.4333 26.3333 21.5 27.4533 21.5 28.8333C21.5 30.2133 22.4333 31.3333 23.5833 31.3333C24.7333 31.3333 25.6667 30.2133 25.6667 28.8333C25.6667 27.4533 24.7333 26.3333 23.5833 26.3333ZM29 35.2617C25.0417 32.8383 26.185 38.7533 20.6667 36.3267C21.5 39.68 26.51 40.2483 29 38.2283C31.49 40.2483 36.5 39.68 37.3333 36.3267C31.815 38.755 32.9583 32.84 29 35.2617ZM49 30.1883C49 33.13 47.3583 36.84 43.7683 38.365C40.3517 43.8217 35.4767 48 29 48C22.7517 48 17.57 43.6967 14.23 38.365C10.6417 36.8383 9 33.1283 9 30.1883C9 26.8633 10.3517 23.8983 13.4717 23.59L13.5217 23.5433L13.5267 23.51C13.11 20.2683 12.9633 15.31 14.725 13.4317C15.6717 12.4233 16.7533 12.0333 18.1367 12.49C20.2933 9.54833 23.8933 8 28.7567 8C36.5 8 39.6767 12.0283 42.385 15.4333C43.8733 17.305 45.6667 19.18 49 19.0767C47.6517 20.34 46.035 21.3333 44.28 22.0683C44.365 22.57 44.435 23.075 44.4833 23.58C47.5667 23.855 49 26.755 49 30.1883ZM44.7 27.0783C44.3083 26.8233 43.8167 26.885 43.5817 26.99C42.4817 27.4783 41.2383 26.67 41.2383 25.4667C41.2383 24.6683 41.18 23.8717 41.0717 23.0833C34.24 24.63 26.5 22.6983 23.7917 17.305C19.8333 17.93 17.375 21.2317 16.7433 25.6733H16.7367C16.5917 26.8117 15.4283 27.4383 14.42 26.99C14.185 26.8867 13.6933 26.8233 13.3 27.0783C11.6333 28.1633 11.8117 34.0517 15.89 35.4317C16.2633 35.5583 16.5783 35.8117 16.7817 36.1483C19.6283 40.8633 23.4733 44.6667 29 44.6667C34.53 44.6667 38.3733 40.86 41.2183 36.1483C41.4233 35.8117 41.74 35.5583 42.1117 35.4317C46.1917 34.05 46.3667 28.1583 44.7 27.0783Z" fill="#355675"/>
</g>
<defs>
<clipPath id="clip0">
<rect width="40" height="40" fill="white" transform="translate(9 8)"/>
</clipPath>
</defs>
</svg>
