<svg width="40" height="39" viewBox="0 0 40 39" fill="none" xmlns="http://www.w3.org/2000/svg">
<g clip-path="url(#clip0)">
<path d="M19.9863 38.3532C30.8479 38.3532 39.653 29.8505 39.653 19.3618C39.653 8.87311 30.8479 0.370361 19.9863 0.370361C9.12471 0.370361 0.319641 8.87311 0.319641 19.3618C0.319641 29.8505 9.12471 38.3532 19.9863 38.3532Z" fill="#F29900"/>
<path d="M28.0842 19.6752V24.779C28.0842 27.5525 22.047 28.8647 18.6983 28.8647C15.5155 28.8647 9.31241 27.4629 9.31241 24.779V18.4405L18.6983 23.3379L28.0842 19.6752ZM19.6546 8.72327L6.18378 14.5139L18.6983 21.0599L30.17 16.6117V23.8293H32.2558V15.521L19.6546 8.72327ZM33.2986 28.8647H29.1271C29.7299 27.8576 30.17 26.347 30.17 24.8364H32.2558C32.2558 26.3631 32.6635 27.7156 33.2986 28.8647Z" fill="white"/>
</g>
<defs>
<clipPath id="clip0">
<rect width="40" height="38.6266" fill="white"/>
</clipPath>
</defs>
</svg>
