<svg width="40" height="39" viewBox="0 0 40 39" fill="none" xmlns="http://www.w3.org/2000/svg">
<g clip-path="url(#clip0)">
<path d="M19.9862 38.3532C30.8478 38.3532 39.6529 29.8505 39.6529 19.3618C39.6529 8.87311 30.8478 0.370361 19.9862 0.370361C9.12465 0.370361 0.31958 8.87311 0.31958 19.3618C0.31958 29.8505 9.12465 38.3532 19.9862 38.3532Z" fill="#4E8CEF"/>
<path d="M28.0841 19.6752V24.779C28.0841 27.5525 22.0468 28.8647 18.6981 28.8647C15.5153 28.8647 9.31223 27.4629 9.31223 24.779V18.4405L18.6981 23.3379L28.0841 19.6752ZM19.6545 8.72327L6.18359 14.5139L18.6981 21.0599L30.1698 16.6117V23.8293H32.2556V15.521L19.6545 8.72327ZM33.2985 28.8647H29.1269C29.7297 27.8576 30.1698 26.347 30.1698 24.8364H32.2556C32.2556 26.3631 32.6633 27.7156 33.2985 28.8647Z" fill="#F0EAF3"/>
</g>
<defs>
<clipPath id="clip0">
<rect width="40" height="38.6266" fill="white"/>
</clipPath>
</defs>
</svg>
