<svg width="56" height="56" viewBox="0 0 56 56" fill="none" xmlns="http://www.w3.org/2000/svg">
<path d="M43.0254 0H12.7768C5.72036 0 0 5.71611 0 12.7673V43.2327C0 50.2839 5.72036 56 12.7768 56H43.0254C50.0818 56 55.8022 50.2839 55.8022 43.2327V12.7673C55.8022 5.71611 50.0818 0 43.0254 0Z" fill="#9FCE5E"/>
<path d="M7.09303 48.7799L10.0423 38.0135C8.22237 34.862 7.26607 31.2895 7.26785 27.6261C7.27373 16.1732 16.5999 6.85313 28.0598 6.85313C33.621 6.85507 38.8412 9.01936 42.7678 12.9465C46.6926 16.8736 48.8534 22.0935 48.8517 27.6453C48.8458 39.1001 39.5195 48.4201 28.0598 48.4201C24.5807 48.4185 21.1524 47.5466 18.1157 45.8904L7.09303 48.7799ZM18.6262 42.1293C21.5563 43.8675 24.3535 44.9087 28.0528 44.9104C37.5772 44.9104 45.336 37.1645 45.3412 27.6419C45.3451 18.1 37.6227 10.3645 28.0667 10.3611C18.5353 10.3611 10.7818 18.107 10.7783 27.6279C10.7764 31.5149 11.9164 34.4252 13.8307 37.4702L12.0843 43.843L18.6262 42.1293ZM38.5335 32.584C38.4038 32.3675 38.0578 32.238 37.537 31.9778C37.0176 31.7177 34.4635 30.4615 33.9863 30.2886C33.5105 30.1157 33.1646 30.0284 32.8168 30.5487C32.4705 31.0676 31.4741 32.238 31.1716 32.5839C30.869 32.9299 30.5651 32.9734 30.0457 32.7135C29.5264 32.4534 27.8517 31.9064 25.8674 30.1368C24.3237 28.7602 23.28 27.0604 22.9776 26.5398C22.6749 26.0208 22.9446 25.7397 23.2049 25.4812C23.4394 25.2488 23.7243 24.8751 23.9846 24.571C24.2482 24.2706 24.3341 24.054 24.5092 23.7063C24.6822 23.3603 24.5964 23.0566 24.463 22.7961C24.3315 22.5373 23.2934 19.9818 22.8615 18.9423C22.4386 17.9309 22.0101 18.0671 21.6919 18.0514L20.6954 18.0308C20.3492 18.0308 19.7863 18.1604 19.3109 18.6805C18.8351 19.2008 17.4926 20.4554 17.4926 23.0112C17.4926 25.567 19.3545 28.0354 19.6133 28.3813C19.8736 28.7272 23.2759 33.9715 28.4874 36.2198C29.7269 36.7546 30.6954 37.0741 31.4489 37.3134C32.6937 37.7083 33.8265 37.6521 34.7217 37.5194C35.7199 37.3712 37.795 36.2634 38.2286 35.051C38.6621 33.8368 38.6621 32.7975 38.5312 32.5808L38.5335 32.584Z" fill="white"/>
</svg>
