<svg width="56" height="56" viewBox="0 0 56 56" fill="none" xmlns="http://www.w3.org/2000/svg">
<path d="M43.0254 0H12.7768C5.72036 0 0 5.71611 0 12.7673V43.2327C0 50.2839 5.72036 56 12.7768 56H43.0254C50.0818 56 55.8022 50.2839 55.8022 43.2327V12.7673C55.8022 5.71611 50.0818 0 43.0254 0Z" fill="#9FCE5E"/>
<path d="M7.09315 48.7799L10.0424 38.0135C8.2225 34.862 7.26619 31.2895 7.26797 27.6261C7.27385 16.1732 16.6001 6.85313 28.0599 6.85313C33.6211 6.85507 38.8413 9.01936 42.7679 12.9465C46.6927 16.8736 48.8535 22.0935 48.8518 27.6453C48.846 39.1001 39.5196 48.4201 28.0599 48.4201C24.5808 48.4185 21.1526 47.5466 18.1158 45.8904L7.09315 48.7799ZM18.6263 42.1293C21.5564 43.8675 24.3536 44.9087 28.0529 44.9104C37.5774 44.9104 45.3361 37.1645 45.3413 27.6419C45.3452 18.1 37.6228 10.3645 28.0669 10.3611C18.5354 10.3611 10.782 18.107 10.7785 27.6279C10.7765 31.5149 11.9165 34.4252 13.8308 37.4702L12.0844 43.843L18.6263 42.1293ZM38.5336 32.584C38.4039 32.3675 38.0579 32.238 37.5371 31.9778C37.0177 31.7177 34.4637 30.4615 33.9864 30.2886C33.5107 30.1157 33.1648 30.0284 32.8169 30.5487C32.4707 31.0676 31.4742 32.238 31.1717 32.5839C30.8691 32.9299 30.5652 32.9734 30.0459 32.7135C29.5265 32.4534 27.8518 31.9064 25.8676 30.1368C24.3238 28.7602 23.2801 27.0604 22.9777 26.5398C22.675 26.0208 22.9448 25.7397 23.205 25.4812C23.4396 25.2488 23.7244 24.8751 23.9847 24.571C24.2483 24.2706 24.3342 24.054 24.5093 23.7063C24.6824 23.3603 24.5965 23.0566 24.4631 22.7961C24.3316 22.5373 23.2935 19.9818 22.8616 18.9423C22.4387 17.9309 22.0102 18.0671 21.6921 18.0514L20.6956 18.0308C20.3494 18.0308 19.7865 18.1604 19.311 18.6805C18.8353 19.2008 17.4928 20.4554 17.4928 23.0112C17.4928 25.567 19.3546 28.0354 19.6134 28.3813C19.8737 28.7272 23.276 33.9715 28.4875 36.2198C29.727 36.7546 30.6955 37.0741 31.449 37.3134C32.6938 37.7083 33.8266 37.6521 34.7218 37.5194C35.72 37.3712 37.7951 36.2634 38.2287 35.051C38.6622 33.8368 38.6622 32.7975 38.5314 32.5808L38.5336 32.584Z" fill="white"/>
</svg>
