<svg width="56" height="56" viewBox="0 0 56 56" fill="none" xmlns="http://www.w3.org/2000/svg">
<path d="M43.0254 0H12.7768C5.72037 0 0 5.71611 0 12.7673V43.2327C0 50.2839 5.72037 56 12.7768 56H43.0254C50.0819 56 55.8022 50.2839 55.8022 43.2327V12.7673C55.8022 5.71611 50.0819 0 43.0254 0Z" fill="#CE5E5E"/>
<path d="M40.605 13.5902C34.3343 13.1624 20.3677 13.1643 14.1056 13.5902C7.32499 14.0528 6.52637 18.1454 6.47592 28.9181C6.52845 39.6717 7.31808 43.7818 14.1056 44.2461C20.3694 44.6719 34.3343 44.6738 40.605 44.2461C47.3856 43.7834 48.1843 39.6908 48.2347 28.9181C48.1822 18.1646 47.3926 14.0544 40.605 13.5902ZM22.1355 35.8727V21.9635L36.055 28.9059L22.1355 35.8727Z" fill="white"/>
</svg>
