<svg width="57" height="57" viewBox="0 0 57 57" fill="none"
  xmlns="http://www.w3.org/2000/svg">
  <path d="M43.2742 0.768799H13.1058C6.06811 0.768799 0.362915 6.46975 0.362915 13.5022V43.8869C0.362915 50.9194 6.06811 56.6203 13.1058 56.6203H43.2742C50.3119 56.6203 56.0171 50.9194 56.0171 43.8869V13.5022C56.0171 6.46975 50.3119 0.768799 43.2742 0.768799Z" fill="#5ECEBD"/>
  <path d="M46.9953 8.62187H9.94598C8.67568 8.62187 7.64661 9.65012 7.64661 10.9194V47.9429C7.64661 49.2105 8.67568 50.2388 9.94598 50.2388H29.8936V34.1227H24.4655V27.8419H29.8936V23.2103C29.8936 17.8348 33.1786 14.9077 37.9786 14.9077C40.2779 14.9077 42.2527 15.0792 42.8288 15.1555V20.7737L39.5005 20.7752C36.8905 20.7752 36.3855 22.0151 36.3855 23.8324V27.8433H42.6102L41.7998 34.1239H36.3855V50.2385H46.9988C48.2656 50.2385 49.2946 49.2102 49.2946 47.941V10.9192C49.2946 9.6499 48.2656 8.62158 46.9953 8.62158V8.62187Z" fill="white"/>
</svg>
