<svg width="57" height="57" viewBox="0 0 57 57" fill="none"
  xmlns="http://www.w3.org/2000/svg">
  <path d="M43.4988 0.756836H13.3304C6.29272 0.756836 0.587524 6.45778 0.587524 13.4902V43.8749C0.587524 50.9074 6.29272 56.6083 13.3304 56.6083H43.4988C50.5365 56.6083 56.2417 50.9074 56.2417 43.8749V13.4902C56.2417 6.45778 50.5365 0.756836 43.4988 0.756836Z" fill="#5ECE90"/>
  <path d="M7.24526 46.3722C7.33496 46.1385 28.0218 11.115 28.0701 11.115C28.1041 11.115 41.2624 33.3612 48.2911 45.3023L49.002 46.5098H28.0972C8.53179 46.5098 7.1958 46.5009 7.24526 46.372V46.3722ZM44.6763 44.0236C44.6763 43.8863 39.1689 34.6999 39.0909 34.7069C39.0358 34.7114 38.6171 34.9972 38.1602 35.3411C35.6681 37.2166 33.0731 38.4148 30.3197 38.9611C29.2951 39.1643 26.8552 39.1654 25.8204 38.9632C23.0632 38.4242 20.2827 37.0956 17.7674 35.1153C17.2197 34.6841 17.0572 34.5931 16.9815 34.6757C16.8822 34.7839 11.4637 43.9634 11.4637 44.0233C11.4637 44.0417 18.9366 44.0576 28.0701 44.0576C37.2035 44.0576 44.6763 44.044 44.6763 44.0238V44.0236ZM30.3679 36.4662C32.6437 35.9433 35.0693 34.7101 37.2525 32.9658C37.5563 32.7232 37.8048 32.4836 37.8048 32.4334C37.8048 32.3832 37.5032 31.8314 37.1348 31.2073C36.4218 29.9996 36.3794 29.9563 35.1661 29.1963C34.6707 28.886 32.8837 27.9541 32.784 27.9541C32.7635 27.9541 32.7801 28.0728 32.8198 28.218C32.8614 28.3633 32.9179 28.7586 32.9447 29.0967C33.1237 31.3451 31.4462 33.595 29.195 34.1254C27.5339 34.5168 25.8648 34.0276 24.6267 32.7864C23.5217 31.6786 23.0375 30.3102 23.225 28.8252C23.2764 28.4174 23.3018 28.067 23.2817 28.0464C23.2219 27.9867 21.9627 28.6355 21.1579 29.1403C19.7682 30.0118 19.6507 30.1267 18.9562 31.2937C18.607 31.8806 18.3421 32.3943 18.3675 32.4354C18.4723 32.6048 19.5875 33.4592 20.5466 34.1049C22.3314 35.3065 24.5953 36.2818 26.1889 36.5358C26.5263 36.5896 26.8576 36.6468 26.9251 36.6632C27.2988 36.7528 29.7231 36.6142 30.3682 36.4664L30.3679 36.4662ZM29.0926 31.5607C30.0262 31.1132 30.4788 30.3907 30.4814 29.3438C30.4824 28.8534 30.4432 28.6526 30.2838 28.3406C29.3329 26.4792 26.8074 26.4792 25.8566 28.3406C25.5823 28.8776 25.578 29.7765 25.8468 30.3655C26.2452 31.2384 27.1118 31.7959 28.0701 31.7959C28.4876 31.7959 28.7072 31.7455 29.0926 31.5607H29.0926ZM22.9404 25.5085C23.7989 25.1677 25.116 24.8035 26.0658 24.6441C27.1437 24.4632 28.986 24.4641 30.1151 24.6452C30.9804 24.7841 32.6959 25.2698 33.4256 25.5824C33.6423 25.6752 33.8333 25.7374 33.8501 25.7204C33.9009 25.6695 28.151 15.9785 28.0699 15.9785C28.0098 15.9785 22.2619 25.6175 22.2619 25.7187C22.2619 25.7711 22.3379 25.7475 22.9404 25.5082V25.5085ZM9.68228 28.138L9.70574 26.9323L12.1395 26.9119L14.5731 26.8914V28.1188V29.3462H12.1168H9.66046L9.68228 28.138ZM41.5677 28.1176V26.8902L44.0014 26.9107L46.4351 26.9311L46.4585 28.1368L46.482 29.3425H44.0257H41.5694L41.5677 28.1176ZM11.4433 21.8187L7.78255 19.3713L8.45739 18.3581C8.82861 17.8008 9.16912 17.3665 9.21412 17.393C9.32474 17.4582 16.4043 22.1661 16.4457 22.2021C16.4723 22.2255 15.1431 24.2895 15.113 24.2715C15.1091 24.2693 13.4567 23.1648 11.4433 21.8187ZM40.3365 23.2488C39.9653 22.6888 39.6764 22.2178 39.6944 22.2021C39.7358 22.1661 46.815 17.4583 46.9259 17.393C46.9711 17.3664 47.3114 17.8008 47.6826 18.3581L48.3575 19.3714L44.6845 21.8191L41.0114 24.2669L40.3365 23.2488ZM17.0264 17.1243V14.7122H18.2535H19.4806V17.1237V19.5351H18.2535H17.0264V17.1243ZM36.6595 17.1243V14.7122H37.8866H39.1136V17.1237V19.5351H37.8866H36.6595V17.1243Z" fill="white"/>
</svg>
