<svg width="57" height="57" viewBox="0 0 57 57" fill="none"
  xmlns="http://www.w3.org/2000/svg">
  <path d="M43.3228 0.756836H13.1544C6.11669 0.756836 0.411499 6.45778 0.411499 13.4902V43.8749C0.411499 50.9074 6.11669 56.6083 13.1544 56.6083H43.3228C50.3605 56.6083 56.0657 50.9074 56.0657 43.8749V13.4902C56.0657 6.45778 50.3605 0.756836 43.3228 0.756836Z" fill="#CE5E5E"/>
  <path d="M40.9088 14.311C34.6547 13.8843 20.7251 13.8863 14.4797 14.311C7.71706 14.7724 6.92055 18.8541 6.87024 29.5983C6.92263 40.3233 7.71017 44.4225 14.4797 44.8855C20.7269 45.3102 34.6547 45.3122 40.9088 44.8855C47.6714 44.4241 48.468 40.3424 48.5183 29.5983C48.4659 18.8732 47.6784 14.7739 40.9088 14.311ZM22.4883 36.5344V22.6621L36.3709 29.5861L22.4883 36.5344Z" fill="white"/>
</svg>
