<svg width="40" height="40" viewBox="0 0 40 40" fill="none"
  xmlns="http://www.w3.org/2000/svg">
  <path d="M19.9863 39.7169C30.8479 39.7169 39.653 30.9118 39.653 20.0502C39.653 9.18861 30.8479 0.383545 19.9863 0.383545C9.12469 0.383545 0.319626 9.18861 0.319626 20.0502C0.319626 30.9118 9.12469 39.7169 19.9863 39.7169Z" fill="#CE5E5E"/>
  <path d="M36.6735 14.8044H3.20508V26.105H36.6735V14.8044Z" fill="#569307"/>
  <path d="M16.7391 24.5449C15.8553 24.5184 14.9495 24.2453 14.0223 23.7259C13.9546 23.6879 13.8981 23.6601 13.8967 23.6641C13.8952 23.668 13.93 23.7729 13.974 23.8972C14.0179 24.0216 14.0776 24.1908 14.1066 24.2734L14.1593 24.4235L12.9711 24.4233L11.7829 24.4232L11.7159 24.1994C11.679 24.0763 11.6037 23.8262 11.5485 23.6435L11.4482 23.3115L10.0151 23.3113L8.58211 23.3112L8.52714 23.4859C8.49691 23.582 8.41793 23.8323 8.35162 24.0421L8.23105 24.4235H7.10095H5.97086L6.07303 24.1257C6.18644 23.7952 6.3515 23.3157 6.41954 23.1192C6.4439 23.0488 6.49188 22.9093 6.52616 22.8091C6.56044 22.709 6.63273 22.4986 6.68681 22.3416C7.27772 20.626 7.85155 18.9596 7.93085 18.7289C7.98482 18.5719 8.04889 18.3859 8.07324 18.3155C8.13031 18.1505 8.21216 17.9127 8.27819 17.72C8.30694 17.6361 8.37705 17.4323 8.43399 17.2672C8.49093 17.102 8.56256 16.8938 8.59317 16.8045C8.62377 16.7152 8.65692 16.6199 8.66682 16.5929L8.68483 16.5437L9.33315 16.5354C9.68973 16.5308 10.3359 16.5303 10.769 16.5342L11.5565 16.5412L11.5924 16.6507C11.6122 16.7109 11.7059 16.995 11.8008 17.2819C11.8956 17.5689 12.1179 18.2422 12.2947 18.7782C12.7606 20.1902 13.2202 21.5814 13.476 22.3539C13.5714 22.6422 13.6518 22.878 13.6545 22.878C13.6572 22.878 13.6951 22.8038 13.7387 22.7132C13.8547 22.472 14.0619 22.0403 14.1485 21.8592C14.1899 21.7726 14.2483 21.6521 14.2781 21.5915L14.3324 21.4812L14.4554 21.5561C14.8364 21.7877 15.3132 22.0283 15.6662 22.167C16.3991 22.4551 17.0085 22.514 17.3595 22.3307C17.4456 22.2858 17.5161 22.2223 17.5511 22.1582C17.5756 22.1133 17.5806 22.0918 17.5839 22.0157C17.5945 21.7794 17.473 21.6337 17.1293 21.4702C16.8976 21.36 16.6088 21.2603 15.944 21.0611C15.5114 20.9314 15.4129 20.8986 15.2134 20.8182C14.767 20.6382 14.4313 20.4242 14.1647 20.1499C14.0461 20.0279 13.9944 19.9639 13.9116 19.8364C13.7632 19.6078 13.6606 19.3285 13.6131 19.0243C13.5918 18.8876 13.5836 18.558 13.5981 18.4182C13.6339 18.0714 13.7443 17.7599 13.9296 17.4825C14.3494 16.8542 15.1302 16.4509 16.1485 16.3364C17.0436 16.2357 17.9212 16.3782 18.8231 16.7706C18.9407 16.8218 19.3438 17.0236 19.3599 17.0393C19.3639 17.0432 19.2895 17.2389 19.1947 17.4742C19.0998 17.7095 18.9485 18.0859 18.8584 18.3106C18.7684 18.5353 18.6935 18.7207 18.6921 18.7226C18.6906 18.7245 18.677 18.7196 18.6617 18.7118C18.0301 18.3859 17.6432 18.2483 17.1169 18.1624C16.7722 18.1062 16.5122 18.123 16.334 18.213C16.1606 18.3005 16.0911 18.478 16.1691 18.6341C16.227 18.7499 16.3676 18.8677 16.5671 18.9676C16.6918 19.0301 16.8028 19.0714 17.0492 19.1471C18.023 19.4462 18.47 19.6171 18.8506 19.8359C19.3505 20.1232 19.6717 20.4803 19.8428 20.9388C19.8783 21.034 19.9285 21.214 19.9285 21.246C19.9285 21.2557 19.932 21.2637 19.9362 21.2637C19.9405 21.2637 19.9422 20.2006 19.9399 18.9012L19.9359 16.5387L21.5638 16.5388C22.5667 16.5389 23.2465 16.5428 23.3344 16.549C23.9462 16.5919 24.4147 16.7109 24.8848 16.9427C25.2141 17.1051 25.4793 17.2953 25.7418 17.5572C26.2161 18.0307 26.542 18.646 26.7092 19.3836C26.8422 19.9702 26.8613 20.5764 26.7649 21.1504C26.7442 21.274 26.7405 21.3213 26.7547 21.2823C26.7598 21.2683 27.2023 19.9826 27.2964 19.7084C27.4444 19.277 27.58 18.883 27.7146 18.4927C28.0092 17.6387 28.2786 16.8559 28.332 16.6987L28.3864 16.5387L29.8242 16.5412L31.2621 16.5437L31.3247 16.7356C31.3592 16.8412 31.4688 17.1734 31.5683 17.4739C31.6677 17.7744 31.9048 18.492 32.0952 19.0686C32.2855 19.6452 32.4472 20.1346 32.4547 20.1563C32.4621 20.1779 32.5478 20.4371 32.6452 20.7321C33.0325 21.9061 33.5236 23.3929 33.689 23.892L33.8634 24.4186L32.6775 24.4211C32.0253 24.4225 31.4898 24.4218 31.4876 24.4196C31.4841 24.4161 31.1601 23.3224 31.1601 23.3142C31.1601 23.3125 30.5151 23.3122 29.7268 23.3136L28.2936 23.3161L28.1134 23.8673L27.9333 24.4186L26.8053 24.4211C26.1848 24.4225 25.6772 24.4201 25.6772 24.4158C25.6772 24.4116 25.6865 24.3816 25.698 24.3493C25.7094 24.317 25.7626 24.1633 25.8161 24.0076C25.8696 23.852 25.9581 23.595 26.0126 23.4367C26.2303 22.8051 26.2875 22.6367 26.2875 22.6278C26.2875 22.6227 26.2532 22.677 26.2112 22.7484C25.6106 23.7713 24.6434 24.3311 23.3344 24.4133C23.2335 24.4196 22.5616 24.4235 21.5612 24.4235L19.9504 24.4235L19.9434 24.1848C19.9395 24.0535 19.9379 23.6416 19.9398 23.2693C19.9417 22.8971 19.9399 22.5926 19.9359 22.5926C19.9318 22.5926 19.9285 22.6005 19.9285 22.6102C19.9285 22.6199 19.9156 22.6677 19.8998 22.7163C19.6871 23.3726 19.1787 23.9161 18.4836 24.2306C18.1789 24.3685 17.8291 24.4638 17.449 24.5126C17.3241 24.5286 16.8682 24.5558 16.8327 24.5493C16.8273 24.5483 16.7852 24.5463 16.7391 24.545V24.5449ZM22.9456 22.3855C23.4912 22.334 23.8946 22.0789 24.1451 21.6266C24.33 21.293 24.4227 20.7612 24.3886 20.2302C24.3274 19.2798 23.9572 18.7478 23.2415 18.5818C23.0881 18.5462 22.9562 18.537 22.6005 18.537H22.2516V20.4663V22.3957L22.5444 22.3957C22.7055 22.3957 22.886 22.3911 22.9456 22.3855V22.3855ZM30.5763 21.4668C30.5734 21.4594 30.5307 21.3187 30.4813 21.1542C30.4318 20.9897 30.3723 20.7954 30.349 20.7223C30.298 20.5628 30.2566 20.4286 30.1774 20.1661C30.1447 20.0578 30.0918 19.8829 30.0599 19.7773C30.0279 19.6717 29.9425 19.3871 29.8702 19.1448C29.7978 18.9026 29.7356 18.7077 29.7318 18.7117C29.728 18.7158 29.5405 19.3338 29.315 20.085C29.0896 20.8363 28.9027 21.4575 28.8996 21.4656C28.8946 21.4785 28.9946 21.4802 29.7377 21.4802C30.4476 21.4802 30.5806 21.4781 30.5763 21.4668V21.4668ZM10.8587 21.4532C10.8181 21.3156 10.4949 20.2331 10.4596 20.1169C10.4334 20.0303 10.3243 19.6682 10.2172 19.3122C10.1101 18.9563 10.0207 18.6668 10.0185 18.669C10.0163 18.6711 10.0021 18.7143 9.98678 18.7649C9.97151 18.8155 9.89175 19.0784 9.80955 19.3491C9.28466 21.0775 9.16938 21.4585 9.16938 21.4648C9.16938 21.4679 9.55063 21.4704 10.0166 21.4704C10.8188 21.4704 10.8635 21.4695 10.8587 21.4532V21.4532Z" fill="#FDFFFB"/>
</svg>
