<svg width="40" height="40" viewBox="0 0 40 40" fill="none"
  xmlns="http://www.w3.org/2000/svg">
  <path d="M19.9863 39.7169C30.8479 39.7169 39.653 30.9118 39.653 20.0502C39.653 9.18861 30.8479 0.383545 19.9863 0.383545C9.12469 0.383545 0.319626 9.18861 0.319626 20.0502C0.319626 30.9118 9.12469 39.7169 19.9863 39.7169Z" fill="#CE5E5E"/>
  <path d="M8.74989 33.2228C8.00004 32.9635 7.46895 32.49 7.13331 31.7815C6.9352 31.3634 6.9352 31.3634 6.91874 20.7833C6.90353 11.0103 6.91031 10.1777 7.00774 9.8677C7.24382 9.11644 7.83523 8.47904 8.5942 8.15786C8.93852 8.01216 8.93852 8.01216 12.9765 7.99272C16.6361 7.97513 17.0328 7.98299 17.2105 8.07687C17.5708 8.26718 17.6639 8.7764 17.3955 9.08857C17.2445 9.26422 17.2445 9.26422 14.2601 9.29553C11.2758 9.32683 11.2758 9.32683 11.0932 9.53128C10.8406 9.81405 10.8406 10.1543 11.0932 10.4371C11.2758 10.6415 11.2758 10.6415 14.2601 10.6728C17.2445 10.7041 17.2445 10.7041 17.3955 10.8798C17.629 11.1514 17.6047 11.5036 17.3337 11.7746C17.1208 11.9875 17.1208 11.9875 14.262 11.9875C12.2797 11.9875 11.3612 12.0089 11.2664 12.0574C11.0304 12.1781 10.9134 12.3788 10.9119 12.6653C10.9107 12.8823 10.9469 12.9726 11.0935 13.1192C11.2765 13.3022 11.2765 13.3022 14.1005 13.3022C17.1316 13.3022 17.2264 13.3113 17.4444 13.6225C17.5754 13.8095 17.5754 14.1721 17.4444 14.3591C17.2264 14.6704 17.1316 14.6794 14.1005 14.6794C11.2765 14.6794 11.2765 14.6794 11.0935 14.8624C10.7781 15.1779 10.8662 15.7195 11.2664 15.9242C11.3612 15.9727 12.2797 15.9941 14.262 15.9941C17.1208 15.9941 17.1208 15.9941 17.3337 16.207C17.6047 16.478 17.629 16.8302 17.3955 17.1018C17.2445 17.2775 17.2445 17.2775 14.2601 17.3088C11.2758 17.3401 11.2758 17.3401 11.0932 17.5446C10.8406 17.8273 10.8406 18.1676 11.0932 18.4503C11.2758 18.6548 11.2758 18.6548 14.2601 18.6861C17.2445 18.7174 17.2445 18.7174 17.3955 18.893C17.629 19.1646 17.6047 19.5169 17.3337 19.7879C17.1208 20.0008 17.1208 20.0008 14.262 20.0008C12.2797 20.0008 11.3612 20.0222 11.2664 20.0707C11.0304 20.1914 10.9134 20.392 10.9119 20.6786C10.9107 20.8956 10.9469 20.9859 11.0935 21.1324C11.2765 21.3154 11.2765 21.3154 14.1005 21.3154C17.1316 21.3154 17.2264 21.3246 17.4444 21.6358C17.5754 21.8227 17.5754 22.1854 17.4444 22.3724C17.2264 22.6836 17.1316 22.6927 14.1005 22.6927C11.2765 22.6927 11.2765 22.6927 11.0935 22.8757C10.778 23.1912 10.8662 23.7328 11.2664 23.9375C11.3611 23.9859 12.2714 24.0074 14.2304 24.0074C16.7559 24.0074 17.0765 24.0186 17.2342 24.1116C17.5753 24.3132 17.6556 24.8126 17.3955 25.1151C17.2445 25.2908 17.2445 25.2908 14.2601 25.3221C11.2758 25.3534 11.2758 25.3534 11.0931 25.5578C10.8406 25.8406 10.8406 26.1808 11.0931 26.4636C11.2758 26.668 11.2758 26.668 14.2601 26.6993C17.2445 26.7306 17.2445 26.7306 17.3955 26.9063C17.629 27.1779 17.6047 27.5301 17.3337 27.8012C17.1208 28.014 17.1208 28.014 14.262 28.014C12.2797 28.014 11.3612 28.0354 11.2664 28.0839C11.0304 28.2046 10.9134 28.4053 10.9119 28.6918C10.9107 28.9088 10.9469 28.9991 11.0935 29.1457C11.2765 29.3287 11.2765 29.3287 14.1005 29.3287C17.1316 29.3287 17.2264 29.3377 17.4444 29.649C17.5754 29.836 17.5754 30.1986 17.4444 30.3856C17.2264 30.6969 17.1316 30.7059 14.1005 30.7059C11.2765 30.7059 11.2765 30.7059 11.0935 30.8889C10.778 31.2044 10.8662 31.746 11.2664 31.9507C11.3611 31.9991 12.2714 32.0206 14.2304 32.0206C16.7558 32.0206 17.0765 32.0317 17.2342 32.1249C17.5964 32.3388 17.6613 32.8545 17.3635 33.1523C17.1805 33.3353 17.1805 33.3353 13.1221 33.3333C9.43745 33.3314 9.03482 33.3212 8.74988 33.2227L8.74989 33.2228ZM21.3724 33.2364C20.2595 32.9372 19.3112 31.9794 19.0197 30.86C18.897 30.3892 18.897 29.6457 19.0197 29.1749C19.3013 28.0936 20.2229 27.1349 21.2807 26.8227C21.5403 26.7461 21.5403 26.7461 21.6091 26.2689C21.7181 25.5117 22.1236 24.7531 22.7635 24.1091C23.3263 23.5426 24.0675 23.0218 24.8456 22.646L25.3522 22.4013L25.1217 22.0202C24.8256 21.5305 24.5896 20.8115 24.4222 19.8892C24.2432 18.9033 24.2293 16.7023 24.3922 15.1491C24.9622 9.71408 25.6291 6.66626 26.2485 6.66626C26.5987 6.66626 27.0137 7.78964 27.3702 9.70254C27.7912 11.9616 28.252 16.1295 28.2516 17.6726C28.2511 19.5189 27.9351 21.0942 27.3822 22.0086L27.1448 22.4013L27.6404 22.641C29.601 23.5892 30.7106 24.8829 30.9118 26.4555C30.9469 26.7301 30.9611 26.7474 31.2123 26.8215C31.9851 27.0497 32.8054 27.7187 33.1799 28.4262C33.8774 29.744 33.6463 31.3216 32.6027 32.3651C31.2987 33.6691 29.2115 33.6691 27.9075 32.3651C26.6035 31.0611 26.6035 28.9738 27.9075 27.6698C28.2927 27.2846 28.8243 26.9614 29.3072 26.8188C29.5801 26.7382 29.5801 26.7382 29.5516 26.4418C29.4908 25.8093 28.9965 25.1107 28.183 24.5075C27.5663 24.0503 26.5459 23.5404 26.2506 23.542C25.9517 23.5435 24.9218 24.0568 24.3155 24.5063C23.5031 25.1087 23.0132 25.7903 22.9496 26.407C22.9154 26.7378 22.9154 26.7378 23.189 26.8186C23.9721 27.0498 24.7901 27.7148 25.1666 28.4262C25.8641 29.744 25.633 31.3216 24.5894 32.3651C24.1688 32.7857 23.6341 33.0964 23.0844 33.2396C22.6284 33.3584 21.8201 33.3569 21.3724 33.2366L21.3724 33.2364ZM23.087 31.828C23.483 31.64 23.86 31.2649 24.0573 30.8626C24.2776 30.4131 24.2776 29.6217 24.0573 29.1723C23.8616 28.7732 23.4861 28.3977 23.087 28.202C22.6375 27.9816 21.8461 27.9816 21.3967 28.202C19.7693 28.9999 19.905 31.2984 21.6161 31.9201C22.0112 32.0637 22.6783 32.0219 23.087 31.8279L23.087 31.828ZM31.1002 31.828C31.4963 31.64 31.8733 31.2649 32.0706 30.8626C32.2909 30.4131 32.2909 29.6217 32.0706 29.1723C31.8749 28.7732 31.4994 28.3977 31.1002 28.202C30.6493 27.9809 29.8573 27.9793 29.4116 28.1987C27.7807 29.0012 27.9151 31.2973 29.6294 31.9202C30.0245 32.0637 30.6916 32.0219 31.1003 31.828L31.1002 31.828ZM26.6999 21.1341C27.2112 20.6773 26.7196 19.8475 26.0514 20.0392C25.7798 20.1171 25.594 20.385 25.594 20.6985C25.594 21.0432 25.8828 21.3155 26.2485 21.3155C26.4341 21.3155 26.5482 21.2696 26.6999 21.1341V21.1341Z" fill="white"/>
</svg>
