<svg width="40" height="40" viewBox="0 0 40 40" fill="none"
  xmlns="http://www.w3.org/2000/svg">
  <g clip-path="url(#clip0)">
    <path d="M19.9829 39.5147C30.7656 39.5147 39.5067 30.7736 39.5067 19.9909C39.5067 9.20815 30.7656 0.467041 19.9829 0.467041C9.20015 0.467041 0.459045 9.20815 0.459045 19.9909C0.459045 30.7736 9.20015 39.5147 19.9829 39.5147Z" fill="#CE5E5E"/>
    <path fill-rule="evenodd" clip-rule="evenodd" d="M14.723 20.5845C12.7023 18.9534 11.3176 15.9282 11.3176 13.5003C11.3176 9.86959 13.85 7.76205 16.2309 7.67874C17.2178 7.66348 18.2598 7.91226 19.0402 8.34761C18.8348 6.84793 18.1636 5.69676 17.463 4.87651L19.0672 4.15601C19.3993 4.63361 19.7384 5.48085 19.9602 6.47829C20.4096 5.66273 20.9553 4.99738 21.691 4.56789C22.4761 4.10907 23.7774 4.08442 24.6458 4.24871C24.4264 5.02085 23.9687 6.02416 22.8962 6.68364C22.2367 7.08849 21.1747 7.29619 20.0986 7.21522C20.1479 7.54731 20.1843 7.88879 20.2007 8.23261C21.001 7.80547 21.8905 7.66466 22.8328 7.67874C25.2138 7.76205 27.7461 9.86959 27.7461 13.5003C27.7461 15.9282 26.3614 18.9534 24.3407 20.5845H32.4399V22.9314H9.55743C9.23356 22.9314 8.9707 23.1943 8.9707 23.5181C8.9707 23.842 9.23356 24.1049 9.55743 24.1049H32.4399V26.4518H10.7309C9.75927 26.4518 8.9707 27.2403 8.9707 28.212C8.9707 29.1836 9.75927 29.9722 10.7309 29.9722H32.4399V32.3191H10.7309C8.46377 32.3191 6.62378 30.4791 6.62378 28.212C6.62378 27.238 6.96408 26.3427 7.53086 25.6386C6.9723 25.1046 6.62378 24.3513 6.62378 23.5181C6.62378 21.8987 7.93806 20.5845 9.55743 20.5845H14.723ZM32.4399 28.7987H11.3176V27.6252H32.4399V28.7987ZM17.6262 10.4927C15.6982 11.9349 15.2382 14.5411 17.1333 18.2375C16.2473 17.7658 14.3522 15.8355 14.3733 13.6082C14.3921 11.6415 16.0314 10.4047 17.6262 10.4927Z" fill="white"/>
  </g>
  <defs>
    <clipPath id="clip0">
      <rect width="40" height="40" fill="white"/>
    </clipPath>
  </defs>
</svg>
