<svg width="40" height="40" viewBox="0 0 40 40" fill="none"
  xmlns="http://www.w3.org/2000/svg">
  <path d="M20 40C31.0457 40 40 31.0457 40 20C40 8.9543 31.0457 0 20 0C8.9543 0 0 8.9543 0 20C0 31.0457 8.9543 40 20 40Z" fill="#CE5E5E"/>
  <path d="M20.4549 35.1615L20.9472 34.6688L20.6105 34.3328C20.41 34.1327 20.2739 33.9774 20.2739 33.9486C20.2739 33.8837 20.3448 33.8092 20.4067 33.8092C20.4377 33.8092 20.5861 33.9372 20.7961 34.1453L21.1354 34.4815L21.6581 33.9583L22.1809 33.4352L21.6263 32.8802C21.06 32.3134 21.0162 32.2541 21.1017 32.1686C21.1861 32.0841 21.2457 32.1282 21.8126 32.693L22.369 33.2474L22.8983 32.7181L23.4276 32.1888L23.0849 31.8455C22.8965 31.6567 22.7423 31.4835 22.7423 31.4607C22.7423 31.4022 22.8105 31.3408 22.8753 31.3408C22.9122 31.3408 23.0387 31.4498 23.266 31.6775L23.6019 32.0141L24.132 31.4844C24.4236 31.1931 24.6622 30.9435 24.6622 30.9298C24.6622 30.916 24.413 30.6555 24.1085 30.3508C23.5747 29.8165 23.5557 29.7942 23.5791 29.7272C23.5969 29.6765 23.6228 29.6555 23.6755 29.6494C23.7401 29.6415 23.8056 29.6991 24.3046 30.1978L24.8616 30.7544L25.3852 30.2312L25.9087 29.7081L25.5722 29.3709C25.3461 29.1444 25.2356 29.0159 25.2356 28.9794C25.2356 28.9283 25.318 28.8474 25.3701 28.8474C25.3829 28.8474 25.5491 29.0014 25.739 29.1895L26.0843 29.5317L26.5947 29.0217L27.1052 28.5117L26.5319 27.9366C26.2167 27.6202 25.9587 27.3416 25.9587 27.3174C25.9587 27.235 26.0081 27.1768 26.0782 27.1768C26.1335 27.1768 26.2522 27.283 26.7192 27.7503L27.2922 28.3238L27.8218 27.7946L28.3515 27.2654L28.0028 26.9138C27.8111 26.7204 27.6542 26.5482 27.6542 26.5313C27.6542 26.4615 27.708 26.4039 27.7732 26.4039C27.8264 26.4039 27.9123 26.4755 28.1838 26.7466L28.5271 27.0892L29.0514 26.5649L29.5757 26.0406L28.86 24.5766C28.4664 23.7715 28.1378 23.1127 28.1299 23.1127C28.1219 23.1127 26.2809 24.9472 24.0388 27.1893L19.9623 31.2659L15.9098 27.2135L11.8573 23.1611L11.1412 24.6276C10.7474 25.4341 10.4252 26.105 10.4252 26.1183C10.4252 26.1319 10.6381 26.3553 10.8984 26.6154L11.3717 27.0881L11.7046 26.7585C12.0434 26.423 12.101 26.3879 12.1812 26.468C12.263 26.5499 12.2278 26.6077 11.8902 26.946L11.5601 27.2768L12.0644 27.7812L12.5688 28.2855L13.1127 27.7436C13.4119 27.4456 13.6732 27.2018 13.6934 27.2018C13.7564 27.2018 13.841 27.2769 13.841 27.3328C13.841 27.369 13.667 27.5609 13.2992 27.9301L12.7573 28.474L13.2741 28.9908L13.7909 29.5077L14.1217 29.1775C14.4576 28.8423 14.5297 28.7979 14.609 28.8773C14.6781 28.9463 14.634 29.0137 14.3024 29.346L13.9658 29.6832L14.5018 30.2187L15.0378 30.7543L15.5804 30.2122C15.9559 29.837 16.1396 29.6702 16.1773 29.6702C16.2337 29.6702 16.3094 29.7541 16.3094 29.8167C16.3094 29.8362 16.0658 30.0978 15.7679 30.3976L15.2263 30.9428L15.7489 31.4658L16.2715 31.9888L16.6138 31.6472C16.9406 31.321 16.9593 31.3067 17.0255 31.3298C17.0761 31.3475 17.0971 31.3735 17.1032 31.4261C17.1099 31.4893 17.0712 31.5383 16.7792 31.8309L16.447 32.1638L16.9766 32.6933L17.5062 33.2229L18.0487 32.6807C18.5848 32.145 18.6501 32.0955 18.7231 32.1685C18.8086 32.2541 18.7646 32.3143 18.2169 32.8616L17.6808 33.3973L18.21 33.9269L18.7392 34.4565L19.0785 34.1203C19.2885 33.9122 19.4368 33.7842 19.4679 33.7842C19.5409 33.7842 19.6097 33.87 19.592 33.939C19.5842 33.9704 19.4312 34.1418 19.2524 34.3199L18.9274 34.6438L19.4321 35.149C19.7097 35.4268 19.9427 35.6542 19.9498 35.6542C19.9566 35.6542 20.1842 35.4325 20.455 35.1615L20.4549 35.1615ZM9.01456 27.6536C9.09145 27.6072 9.22146 27.5449 9.3035 27.5153C9.38558 27.4855 9.46259 27.4505 9.47474 27.4375C9.48689 27.4244 10.6261 25.1001 12.0064 22.2724C13.3866 19.4447 14.5677 17.0381 14.6311 16.9242C15.2519 15.8097 15.9905 15.081 16.6589 14.9235C16.7479 14.9025 16.86 14.8852 16.9082 14.885C16.9958 14.8846 16.9958 14.8846 18.5164 12.2517C19.3528 10.8036 20.0402 9.61025 20.0442 9.59978C20.0475 9.58956 19.9191 9.57438 19.7574 9.56679C19.4197 9.55077 19.1941 9.49451 18.8815 9.3481C18.5367 9.18659 18.181 8.90174 17.9856 8.63064L17.908 8.52278L17.8475 8.64307C17.6917 8.95295 8.55522 27.9697 8.55522 27.9841C8.55522 27.9934 8.62716 27.9415 8.71503 27.8691C8.80296 27.7969 8.93773 27.6998 9.01461 27.6534L9.01456 27.6536ZM26.766 18.1776C24.1758 12.7881 22.051 8.37828 22.0442 8.37801C22.0374 8.37773 21.9896 8.44298 21.938 8.52296C21.6356 8.99241 21.0827 9.37205 20.4802 9.52397C20.3853 9.54798 20.3648 9.56787 20.2725 9.7259C20.2089 9.83476 20.1761 9.9172 20.1859 9.94326C20.1949 9.96645 20.8379 11.0875 21.6154 12.4348C23.029 14.8843 23.029 14.8843 23.1162 14.8848C23.26 14.8858 23.5157 14.9562 23.7038 15.0467C24.2498 15.3094 24.8259 15.9384 25.3461 16.84C25.4246 16.9761 26.6261 19.4165 28.016 22.2631C29.4059 25.1096 30.5578 27.447 30.5759 27.4573C30.5938 27.4675 30.6743 27.4996 30.7545 27.5285C30.9105 27.5849 31.2927 27.8285 31.3922 27.9349C31.4254 27.9704 31.4577 27.9944 31.4639 27.9882C31.4706 27.9815 29.3561 23.5672 26.7659 18.1777L26.766 18.1776ZM10.3177 23.7116L10.9956 22.3024L9.30146 20.6069L7.6073 18.9115L6.51249 20.021L5.41766 21.1305L5.9266 21.6415L6.43555 22.1524L6.76639 21.8222C7.1023 21.487 7.17429 21.4426 7.25364 21.522C7.33301 21.6014 7.28865 21.6733 6.95347 22.0092L6.62339 22.3399L7.1465 22.8635L7.6696 23.387L8.21855 22.8385C8.59877 22.4585 8.78425 22.2899 8.82199 22.2899C8.87355 22.2899 8.9541 22.3723 8.9541 22.4251C8.9541 22.4387 8.70464 22.6998 8.39973 23.0058L7.84538 23.5622L8.3622 24.079L8.87903 24.5959L9.20987 24.2657C9.43038 24.0456 9.5587 23.9355 9.59469 23.9355C9.6592 23.9355 9.72704 23.9974 9.72704 24.0561C9.72704 24.0794 9.57558 24.2494 9.39047 24.4342L9.05392 24.77L9.30945 25.0265C9.56497 25.2829 9.56497 25.2829 9.60238 25.2019C9.62298 25.1573 9.94484 24.4867 10.3177 23.7116L10.3177 23.7116ZM30.5026 24.4527C30.1674 24.1168 30.123 24.0448 30.2024 23.9655C30.2802 23.8877 30.3515 23.9317 30.6883 24.2653L31.0213 24.595L31.538 24.0783L32.0546 23.5617L31.5158 23.0193C31.2194 22.721 30.9707 22.4586 30.963 22.4362C30.9418 22.3737 31.0138 22.2899 31.0889 22.2899C31.1413 22.2899 31.2652 22.4 31.6986 22.8317L32.2425 23.3736L32.7533 22.8631C33.0343 22.5824 33.2642 22.3412 33.2642 22.3272C33.2642 22.3131 33.1183 22.1561 32.9401 21.9783C32.6199 21.6588 32.5764 21.5914 32.6458 21.522C32.7252 21.4426 32.7972 21.487 33.1331 21.8222L33.4639 22.1524L33.9686 21.6477L34.4734 21.143L33.3763 20.0459L32.2792 18.9488L30.6386 20.5896L28.998 22.2303L29.644 23.5754C29.9993 24.3151 30.3207 24.981 30.3582 25.055L30.4264 25.1897L30.6295 24.9866L30.8326 24.7834L30.5026 24.4527ZM20.3278 9.28928C20.9002 9.17895 21.4175 8.83916 21.7315 8.36716C22.0051 7.9559 22.103 7.63337 22.1029 7.14288C22.1028 6.9238 22.0892 6.76355 22.0609 6.64847C21.8541 5.80792 21.2035 5.17317 20.3686 4.99754C20.1437 4.95025 19.7017 4.95105 19.4726 4.99979C18.669 5.16884 18.0197 5.7912 17.8008 6.60236C17.7245 6.88526 17.7245 7.39065 17.801 7.67536C18.0247 8.50861 18.6648 9.11553 19.5009 9.28711C19.7185 9.3318 20.1035 9.33305 20.3278 9.28936L20.3278 9.28928ZM19.7503 8.77383C19.3635 8.73735 19.0715 8.59619 18.7754 8.30282C18.4133 7.94406 18.2592 7.54824 18.2858 7.04542C18.3184 6.42706 18.6728 5.90703 19.2391 5.64621C19.4812 5.53476 19.649 5.49862 19.9248 5.49862C20.2006 5.49862 20.3685 5.53476 20.6105 5.64621C21.47 6.04203 21.8169 7.06379 21.3794 7.91084C21.2474 8.16635 20.9253 8.48356 20.6728 8.60669C20.3686 8.75506 20.0886 8.8058 19.7503 8.77383V8.77383Z" fill="white"/>
</svg>
