<svg width="40" height="40" viewBox="0 0 40 40" fill="none"
  xmlns="http://www.w3.org/2000/svg">
  <path d="M19.9863 39.7169C30.8479 39.7169 39.653 30.9118 39.653 20.0502C39.653 9.18861 30.8479 0.383545 19.9863 0.383545C9.12469 0.383545 0.319626 9.18861 0.319626 20.0502C0.319626 30.9118 9.12469 39.7169 19.9863 39.7169Z" fill="#CE5E5E"/>
  <path d="M28.0842 20.3748V25.6601C28.0842 28.5322 22.047 29.891 18.6983 29.891C15.5155 29.891 9.31241 28.4393 9.31241 25.6601V19.0962L18.6983 24.1677L28.0842 20.3748ZM19.6546 9.03345L6.18377 15.03L18.6983 21.8087L30.17 17.2023V24.6766H32.2557V16.0729L19.6546 9.03345ZM33.2986 29.891H29.1271C29.7299 28.8482 30.17 27.2838 30.17 25.7195H32.2557C32.2557 27.3005 32.6635 28.7011 33.2986 29.891Z" fill="white"/>
</svg>
